<svg width="1755" height="374" viewBox="0 0 1755 374" fill="none" xmlns="http://www.w3.org/2000/svg">
<g filter="url(#filter0_d_81_38)">
<mask id="path-1-outside-1_81_38" maskUnits="userSpaceOnUse" x="-15.7774" y="114.157" width="163.763" height="157.833" fill="black">
<rect fill="white" x="-15.7774" y="114.157" width="163.763" height="157.833"/>
<path d="M63.6967 228.926L64.9269 244.742L33.5131 254.485L28.7187 153.89L74.7839 139.603L127.754 225.256L96.3407 234.999L88.2814 221.301L63.6967 228.926ZM61.4157 175.054L59.8015 175.555L61.8045 203.516L75.4627 199.28L61.4157 175.054Z"/>
</mask>
<path d="M63.6967 228.926L64.9269 244.742L33.5131 254.485L28.7187 153.89L74.7839 139.603L127.754 225.256L96.3407 234.999L88.2814 221.301L63.6967 228.926ZM61.4157 175.054L59.8015 175.555L61.8045 203.516L75.4627 199.28L61.4157 175.054Z" fill="#0D1E4C"/>
<path d="M63.6967 228.926L59.8457 216.51L49.9308 219.585L50.7358 229.934L63.6967 228.926ZM64.9269 244.742L68.7779 257.158L78.6928 254.083L77.8877 243.733L64.9269 244.742ZM33.5131 254.485L20.5278 255.104L21.3272 271.875L37.3641 266.901L33.5131 254.485ZM28.7187 153.89L24.8677 141.473L15.2542 144.455L15.7334 154.509L28.7187 153.89ZM74.7839 139.603L85.8404 132.765L80.5464 124.205L70.9329 127.186L74.7839 139.603ZM127.754 225.256L131.605 237.672L147.642 232.698L138.811 218.418L127.754 225.256ZM96.3407 234.999L85.1363 241.591L90.3576 250.465L100.192 247.415L96.3407 234.999ZM88.2814 221.301L99.4858 214.709L94.2644 205.835L84.4304 208.885L88.2814 221.301ZM61.4157 175.054L72.6619 168.533L67.4634 159.567L57.5647 162.637L61.4157 175.054ZM59.8015 175.555L55.9505 163.138L46.0977 166.194L46.8348 176.483L59.8015 175.555ZM61.8045 203.516L48.8378 204.445L50.0083 220.786L65.6555 215.933L61.8045 203.516ZM75.4627 199.28L79.3137 211.697L94.8885 206.866L86.7089 192.759L75.4627 199.28ZM50.7358 229.934L51.966 245.75L77.8877 243.733L76.6575 227.918L50.7358 229.934ZM61.0759 232.325L29.6621 242.068L37.3641 266.901L68.7779 257.158L61.0759 232.325ZM46.4984 253.866L41.7039 153.271L15.7334 154.509L20.5278 255.104L46.4984 253.866ZM32.5697 166.306L78.6349 152.019L70.9329 127.186L24.8677 141.473L32.5697 166.306ZM63.7275 146.44L116.698 232.093L138.811 218.418L85.8404 132.765L63.7275 146.44ZM123.903 212.839L92.4897 222.582L100.192 247.415L131.605 237.672L123.903 212.839ZM107.545 228.406L99.4858 214.709L77.0769 227.894L85.1363 241.591L107.545 228.406ZM84.4304 208.885L59.8457 216.51L67.5477 241.343L92.1324 233.718L84.4304 208.885ZM57.5647 162.637L55.9505 163.138L63.6525 187.971L65.2667 187.47L57.5647 162.637ZM46.8348 176.483L48.8378 204.445L74.7713 202.587L72.7683 174.626L46.8348 176.483ZM65.6555 215.933L79.3137 211.697L71.6117 186.864L57.9535 191.1L65.6555 215.933ZM86.7089 192.759L72.6619 168.533L50.1694 181.575L64.2164 205.801L86.7089 192.759Z" fill="white" mask="url(#path-1-outside-1_81_38)"/>
<mask id="path-3-outside-2_81_38" maskUnits="userSpaceOnUse" x="91.3262" y="95.9698" width="107.969" height="145.579" fill="black">
<rect fill="white" x="91.3262" y="95.9698" width="107.969" height="145.579"/>
<path d="M126.754 165.758L119.238 167.842L113.854 148.424L121.371 146.34L118.037 134.314L146.019 118.462L151.437 138.005L161.835 135.122L167.218 154.54L156.82 157.422L166.302 191.622C167.624 191.526 169.071 191.394 170.644 191.228C172.194 190.978 173.815 190.663 175.509 190.284L180.243 212.714C166.547 216.512 157.402 218.237 152.809 217.892C148.954 217.611 145.842 216.766 143.472 215.354C141.079 213.859 139.35 211.191 138.285 207.349L126.754 165.758Z"/>
</mask>
<path d="M126.754 165.758L119.238 167.842L113.854 148.424L121.371 146.34L118.037 134.314L146.019 118.462L151.437 138.005L161.835 135.122L167.218 154.54L156.82 157.422L166.302 191.622C167.624 191.526 169.071 191.394 170.644 191.228C172.194 190.978 173.815 190.663 175.509 190.284L180.243 212.714C166.547 216.512 157.402 218.237 152.809 217.892C148.954 217.611 145.842 216.766 143.472 215.354C141.079 213.859 139.35 211.191 138.285 207.349L126.754 165.758Z" fill="#0D1E4C"/>
<path d="M126.754 165.758L139.282 162.285L135.808 149.757L123.281 153.23L126.754 165.758ZM119.238 167.842L106.71 171.315L110.183 183.842L122.711 180.369L119.238 167.842ZM113.854 148.424L110.381 135.897L97.8537 139.37L101.327 151.897L113.854 148.424ZM121.371 146.34L124.844 158.868L137.371 155.394L133.898 142.867L121.371 146.34ZM118.037 134.314L111.629 123.003L102.797 128.006L105.509 137.787L118.037 134.314ZM146.019 118.462L158.546 114.989L154.098 98.9438L139.611 107.151L146.019 118.462ZM151.437 138.005L138.909 141.478L142.382 154.005L154.91 150.532L151.437 138.005ZM161.835 135.122L174.362 131.649L170.889 119.121L158.361 122.595L161.835 135.122ZM167.218 154.54L170.691 167.067L183.218 163.594L179.745 151.067L167.218 154.54ZM156.82 157.422L153.347 144.895L140.819 148.368L144.293 160.895L156.82 157.422ZM166.302 191.622L153.774 195.095L156.621 205.365L167.25 204.588L166.302 191.622ZM170.644 191.228L172.01 204.156L172.363 204.119L172.712 204.062L170.644 191.228ZM175.509 190.284L188.228 187.599L185.51 174.72L172.665 177.599L175.509 190.284ZM180.243 212.714L183.716 225.242L195.485 221.979L192.963 210.029L180.243 212.714ZM152.809 217.892L153.785 204.928L153.768 204.927L153.752 204.926L152.809 217.892ZM143.472 215.354L136.584 226.379L136.701 226.453L136.82 226.523L143.472 215.354ZM123.281 153.23L115.764 155.314L122.711 180.369L130.227 178.285L123.281 153.23ZM131.765 164.368L126.382 144.951L101.327 151.897L106.71 171.315L131.765 164.368ZM117.327 160.951L124.844 158.868L117.898 133.813L110.381 135.897L117.327 160.951ZM133.898 142.867L130.564 130.841L105.509 137.787L108.843 149.813L133.898 142.867ZM124.444 145.625L152.426 129.773L139.611 107.151L111.629 123.003L124.444 145.625ZM133.491 121.935L138.909 141.478L163.964 134.532L158.546 114.989L133.491 121.935ZM154.91 150.532L165.308 147.649L158.361 122.595L147.964 125.477L154.91 150.532ZM149.307 138.595L154.69 158.013L179.745 151.067L174.362 131.649L149.307 138.595ZM163.745 142.012L153.347 144.895L160.293 169.95L170.691 167.067L163.745 142.012ZM144.293 160.895L153.774 195.095L178.829 188.149L169.347 153.949L144.293 160.895ZM167.25 204.588C168.735 204.479 170.324 204.334 172.01 204.156L169.278 178.3C167.818 178.454 166.512 178.572 165.353 178.657L167.25 204.588ZM172.712 204.062C174.547 203.767 176.428 203.4 178.352 202.969L172.665 177.599C171.202 177.927 169.84 178.19 168.576 178.393L172.712 204.062ZM162.789 192.969L167.524 215.399L192.963 210.029L188.228 187.599L162.789 192.969ZM176.77 200.187C170.111 202.033 164.783 203.312 160.701 204.082C156.353 204.903 154.305 204.968 153.785 204.928L151.834 230.855C155.906 231.162 160.727 230.536 165.523 229.631C170.587 228.675 176.679 227.193 183.716 225.242L176.77 200.187ZM153.752 204.926C151.154 204.737 150.203 204.232 150.124 204.185L136.82 226.523C141.481 229.299 146.755 230.486 151.867 230.858L153.752 204.926ZM150.36 204.329C150.647 204.508 150.874 204.699 151.04 204.866C151.202 205.03 151.279 205.144 151.29 205.162C151.3 205.177 151.246 205.096 151.154 204.883C151.062 204.669 150.941 204.341 150.812 203.876L125.757 210.822C127.333 216.506 130.475 222.563 136.584 226.379L150.36 204.329ZM150.812 203.876L139.282 162.285L114.227 169.231L125.757 210.822L150.812 203.876Z" fill="white" mask="url(#path-3-outside-2_81_38)"/>
<mask id="path-5-outside-3_81_38" maskUnits="userSpaceOnUse" x="160.045" y="93.0326" width="130.198" height="132.394" fill="black">
<rect fill="white" x="160.045" y="93.0326" width="130.198" height="132.394"/>
<path d="M222.03 172.849L223.336 178.151C224.892 177.946 226.438 177.699 227.973 177.411C229.509 177.122 231.034 176.791 232.549 176.418C241.974 174.097 251.11 170.24 259.957 164.848L268.963 186.194C258.348 192.021 247.529 196.292 236.505 199.007C222.367 202.488 211.334 201.724 203.407 196.715C195.458 191.621 189.815 182.3 186.479 168.751C183.143 155.202 183.822 144.369 188.517 136.251C193.276 128.028 202.682 122.186 216.735 118.725C223.804 116.985 229.809 115.997 234.749 115.762C239.669 115.443 243.818 115.983 247.198 117.382C250.64 118.677 253.386 120.946 255.434 124.19C257.546 127.33 259.255 131.55 260.561 136.852C261.638 141.228 261.813 145.201 261.086 148.772C260.422 152.238 258.614 155.406 255.661 158.275C252.708 161.144 248.495 163.788 243.021 166.207C237.527 168.542 230.53 170.756 222.03 172.849ZM216.186 149.118L217.71 155.303L223.895 153.78C227.597 152.868 230.155 151.837 231.567 150.686C233.064 149.514 233.47 147.54 232.786 144.763L231.263 138.577L225.078 140.1C221.375 141.012 218.776 142.054 217.279 143.226C215.867 144.377 215.503 146.341 216.186 149.118Z"/>
</mask>
<path d="M222.03 172.849L223.336 178.151C224.892 177.946 226.438 177.699 227.973 177.411C229.509 177.122 231.034 176.791 232.549 176.418C241.974 174.097 251.11 170.24 259.957 164.848L268.963 186.194C258.348 192.021 247.529 196.292 236.505 199.007C222.367 202.488 211.334 201.724 203.407 196.715C195.458 191.621 189.815 182.3 186.479 168.751C183.143 155.202 183.822 144.369 188.517 136.251C193.276 128.028 202.682 122.186 216.735 118.725C223.804 116.985 229.809 115.997 234.749 115.762C239.669 115.443 243.818 115.983 247.198 117.382C250.64 118.677 253.386 120.946 255.434 124.19C257.546 127.33 259.255 131.55 260.561 136.852C261.638 141.228 261.813 145.201 261.086 148.772C260.422 152.238 258.614 155.406 255.661 158.275C252.708 161.144 248.495 163.788 243.021 166.207C237.527 168.542 230.53 170.756 222.03 172.849ZM216.186 149.118L217.71 155.303L223.895 153.78C227.597 152.868 230.155 151.837 231.567 150.686C233.064 149.514 233.47 147.54 232.786 144.763L231.263 138.577L225.078 140.1C221.375 141.012 218.776 142.054 217.279 143.226C215.867 144.377 215.503 146.341 216.186 149.118Z" fill="#0D1E4C"/>
<path d="M222.03 172.849L218.922 160.226L206.299 163.335L209.407 175.958L222.03 172.849ZM223.336 178.151L210.713 181.259L213.495 192.557L225.031 191.04L223.336 178.151ZM259.957 164.848L271.935 159.795L266.072 145.898L253.192 153.747L259.957 164.848ZM268.963 186.194L275.219 197.59L285.499 191.947L280.94 181.141L268.963 186.194ZM203.407 196.715L196.392 207.66L196.427 207.682L196.462 207.704L203.407 196.715ZM188.517 136.251L177.265 129.74L177.264 129.743L188.517 136.251ZM234.749 115.762L235.366 128.747L235.478 128.742L235.59 128.735L234.749 115.762ZM247.198 117.382L242.224 129.394L242.422 129.475L242.623 129.551L247.198 117.382ZM255.434 124.19L244.442 131.131L244.543 131.29L244.648 131.447L255.434 124.19ZM261.086 148.772L248.348 146.178L248.332 146.252L248.318 146.327L261.086 148.772ZM255.661 158.275L246.602 148.952L246.602 148.952L255.661 158.275ZM243.021 166.207L248.105 178.172L248.191 178.136L248.276 178.098L243.021 166.207ZM217.71 155.303L205.087 158.412L208.195 171.035L220.818 167.926L217.71 155.303ZM231.567 150.686L223.553 140.45L223.453 140.529L223.355 140.609L231.567 150.686ZM231.263 138.577L243.886 135.469L240.778 122.846L228.155 125.954L231.263 138.577ZM217.279 143.226L209.265 132.99L209.165 133.069L209.066 133.149L217.279 143.226ZM209.407 175.958L210.713 181.259L235.959 175.042L234.653 169.741L209.407 175.958ZM225.031 191.04C226.823 190.804 228.605 190.52 230.377 190.186L225.57 164.635C224.27 164.879 222.961 165.088 221.64 165.262L225.031 191.04ZM230.377 190.186C232.148 189.853 233.908 189.471 235.657 189.041L229.44 163.795C228.159 164.11 226.869 164.39 225.57 164.635L230.377 190.186ZM235.657 189.041C246.456 186.381 256.818 181.986 266.723 175.949L253.192 153.747C245.402 158.495 237.492 161.812 229.44 163.795L235.657 189.041ZM247.98 169.901L256.985 191.247L280.94 181.141L271.935 159.795L247.98 169.901ZM262.707 174.799C253.018 180.118 243.252 183.957 233.396 186.384L239.613 211.63C251.806 208.627 263.678 203.925 275.219 197.59L262.707 174.799ZM233.396 186.384C220.832 189.478 213.986 188.022 210.351 185.725L196.462 207.704C208.683 215.427 223.902 215.499 239.613 211.63L233.396 186.384ZM210.421 185.769C206.367 183.171 202.017 177.482 199.102 165.643L173.856 171.859C177.614 187.118 184.549 200.07 196.392 207.66L210.421 185.769ZM199.102 165.643C196.183 153.788 197.422 146.82 199.771 142.759L177.264 129.743C170.222 141.918 170.103 156.617 173.856 171.859L199.102 165.643ZM199.769 142.762C202.013 138.884 207.448 134.401 219.844 131.348L213.627 106.102C197.916 109.971 184.538 117.172 177.265 129.74L199.769 142.762ZM219.844 131.348C226.44 129.724 231.558 128.928 235.366 128.747L234.132 102.777C228.059 103.065 221.168 104.245 213.627 106.102L219.844 131.348ZM235.59 128.735C239.181 128.502 241.209 128.973 242.224 129.394L252.171 105.371C246.428 102.993 240.157 102.384 233.908 102.789L235.59 128.735ZM242.623 129.551C243.294 129.803 243.836 130.171 244.442 131.131L266.427 117.25C262.936 111.721 257.987 107.551 251.773 105.214L242.623 129.551ZM244.648 131.447C245.622 132.895 246.849 135.54 247.938 139.96L273.184 133.744C271.661 127.561 269.47 121.765 266.221 116.934L244.648 131.447ZM247.938 139.96C248.661 142.9 248.611 144.885 248.348 146.178L273.825 151.367C275.016 145.517 274.615 139.556 273.184 133.744L247.938 139.96ZM248.318 146.327C248.236 146.758 247.97 147.622 246.602 148.952L264.72 167.598C269.257 163.19 272.609 157.718 273.854 151.218L248.318 146.327ZM246.602 148.952C245.134 150.377 242.412 152.264 237.766 154.317L248.276 178.098C254.577 175.313 260.282 171.911 264.72 167.598L246.602 148.952ZM237.937 154.243C233.302 156.212 227.027 158.23 218.922 160.226L225.139 185.472C234.033 183.282 241.751 180.872 248.105 178.172L237.937 154.243ZM203.564 152.227L205.087 158.412L230.332 152.195L228.809 146.01L203.564 152.227ZM220.818 167.926L227.003 166.403L220.786 141.157L214.601 142.681L220.818 167.926ZM227.003 166.403C230.967 165.427 235.978 163.862 239.78 160.763L223.355 140.609C223.736 140.298 223.997 140.153 224.03 140.135C224.072 140.112 223.986 140.162 223.728 140.266C223.189 140.484 222.248 140.797 220.786 141.157L227.003 166.403ZM239.582 160.921C246.995 155.117 246.615 146.549 245.409 141.654L220.164 147.871C220.224 148.115 219.947 147.234 220.261 145.706C220.639 143.874 221.721 141.885 223.553 140.45L239.582 160.921ZM245.409 141.654L243.886 135.469L218.64 141.686L220.164 147.871L245.409 141.654ZM228.155 125.954L221.97 127.478L228.187 152.723L234.372 151.2L228.155 125.954ZM221.97 127.478C217.921 128.475 213.042 130.032 209.265 132.99L225.294 153.461C225.132 153.588 225.003 153.676 224.922 153.728C224.84 153.781 224.793 153.806 224.789 153.808C224.788 153.809 224.908 153.745 225.187 153.633C225.765 153.401 226.729 153.082 228.187 152.723L221.97 127.478ZM209.066 133.149C201.794 139.076 202.435 147.644 203.564 152.227L228.809 146.01C228.733 145.698 228.996 146.49 228.729 147.933C228.407 149.667 227.41 151.74 225.492 153.303L209.066 133.149Z" fill="white" mask="url(#path-5-outside-3_81_38)"/>
<mask id="path-7-outside-4_81_38" maskUnits="userSpaceOnUse" x="257.306" y="73.107" width="124.647" height="126.196" fill="black">
<rect fill="white" x="257.306" y="73.107" width="124.647" height="126.196"/>
<path d="M274.084 107.403L289.355 104.216L298.584 110.257C306.62 101.674 316.11 96.2409 327.054 93.9567C334.265 92.4516 340.192 92.8524 344.835 95.1592C349.544 97.3634 352.475 101.223 353.626 106.737L366.375 167.821L335.833 174.196L324.677 120.747L319.969 121.73C316.491 122.456 313.94 123.387 312.318 124.522C310.678 125.573 310.115 127.328 310.628 129.788L320.562 177.383L290.02 183.757L274.084 107.403Z"/>
</mask>
<path d="M274.084 107.403L289.355 104.216L298.584 110.257C306.62 101.674 316.11 96.2409 327.054 93.9567C334.265 92.4516 340.192 92.8524 344.835 95.1592C349.544 97.3634 352.475 101.223 353.626 106.737L366.375 167.821L335.833 174.196L324.677 120.747L319.969 121.73C316.491 122.456 313.94 123.387 312.318 124.522C310.678 125.573 310.115 127.328 310.628 129.788L320.562 177.383L290.02 183.757L274.084 107.403Z" fill="#0D1E4C"/>
<path d="M274.084 107.403L271.428 94.677L258.702 97.3331L261.358 110.059L274.084 107.403ZM289.355 104.216L296.475 93.3389L291.97 90.3896L286.699 91.4898L289.355 104.216ZM298.584 110.257L291.463 121.134L300.605 127.119L308.074 119.142L298.584 110.257ZM344.835 95.1592L339.05 106.801L339.186 106.869L339.324 106.933L344.835 95.1592ZM366.375 167.821L369.031 180.547L381.757 177.891L379.101 165.165L366.375 167.821ZM335.833 174.196L323.107 176.852L325.763 189.577L338.489 186.921L335.833 174.196ZM324.677 120.747L337.403 118.091L334.747 105.366L322.021 108.022L324.677 120.747ZM312.318 124.522L319.33 135.469L319.554 135.325L319.772 135.173L312.318 124.522ZM320.562 177.383L323.218 190.109L335.944 187.453L333.288 174.727L320.562 177.383ZM290.02 183.757L277.294 186.414L279.95 199.139L292.676 196.483L290.02 183.757ZM276.74 120.129L292.011 116.941L286.699 91.4898L271.428 94.677L276.74 120.129ZM282.234 115.092L291.463 121.134L305.704 99.3807L296.475 93.3389L282.234 115.092ZM308.074 119.142C314.381 112.405 321.525 108.391 329.71 106.682L324.398 81.2309C310.695 84.0909 298.858 90.9435 289.094 101.372L308.074 119.142ZM329.71 106.682C335.239 105.528 337.922 106.241 339.05 106.801L350.619 83.5171C342.463 79.4642 333.291 79.3747 324.398 81.2309L329.71 106.682ZM339.324 106.933C339.915 107.21 340.112 107.437 340.211 107.568C340.334 107.73 340.655 108.22 340.9 109.393L366.351 104.081C364.445 94.9481 359.105 87.4847 350.345 83.3849L339.324 106.933ZM340.9 109.393L353.649 170.477L379.101 165.165L366.351 104.081L340.9 109.393ZM363.719 155.095L333.177 161.47L338.489 186.921L369.031 180.547L363.719 155.095ZM348.559 171.54L337.403 118.091L311.952 123.403L323.107 176.852L348.559 171.54ZM322.021 108.022L317.313 109.004L322.625 134.456L327.334 133.473L322.021 108.022ZM317.313 109.004C313.264 109.849 308.653 111.22 304.864 113.872L319.772 135.173C319.386 135.443 319.329 135.395 319.904 135.185C320.445 134.987 321.322 134.728 322.625 134.456L317.313 109.004ZM305.306 113.576C302.096 115.632 299.547 118.729 298.287 122.655C297.113 126.314 297.346 129.779 297.903 132.445L323.354 127.132C323.397 127.338 323.655 128.695 323.044 130.598C322.348 132.769 320.9 134.463 319.33 135.469L305.306 113.576ZM297.903 132.445L307.836 180.039L333.288 174.727L323.354 127.132L297.903 132.445ZM317.906 164.657L287.364 171.032L292.676 196.483L323.218 190.109L317.906 164.657ZM302.746 181.101L286.81 104.747L261.358 110.059L277.294 186.414L302.746 181.101Z" fill="white" mask="url(#path-7-outside-4_81_38)"/>
<mask id="path-9-outside-5_81_38" maskUnits="userSpaceOnUse" x="353.399" y="56.251" width="124.074" height="126.523" fill="black">
<rect fill="white" x="353.399" y="56.251" width="124.074" height="126.523"/>
<path d="M411.359 132.875L412.283 138.257C413.85 138.164 415.409 138.028 416.962 137.849C418.514 137.67 420.059 137.449 421.596 137.185C431.163 135.542 440.551 132.347 449.76 127.6L457.22 149.534C446.217 154.589 435.121 158.077 423.931 159.999C409.581 162.463 398.631 160.914 391.081 155.352C383.516 149.704 378.552 140.004 376.191 126.252C373.829 112.5 375.279 101.743 380.541 93.9804C385.874 86.1177 395.673 80.9615 409.937 78.5118C417.112 77.2796 423.172 76.7226 428.117 76.8407C433.047 76.8734 437.147 77.7081 440.418 79.3448C443.759 80.8814 446.336 83.3407 448.148 86.7228C450.031 90.0049 451.434 94.3365 452.358 99.7177C453.121 104.159 453.012 108.135 452.032 111.645C451.123 115.055 449.093 118.085 445.943 120.737C442.793 123.388 438.402 125.725 432.77 127.748C427.123 129.685 419.986 131.394 411.359 132.875ZM407.222 108.788L408.3 115.066L414.579 113.988C418.337 113.343 420.961 112.496 422.452 111.449C424.029 110.387 424.575 108.446 424.091 105.627L423.013 99.3493L416.734 100.427C412.976 101.073 410.309 101.927 408.733 102.989C407.242 104.036 406.738 105.969 407.222 108.788Z"/>
</mask>
<path d="M411.359 132.875L412.283 138.257C413.85 138.164 415.409 138.028 416.962 137.849C418.514 137.67 420.059 137.449 421.596 137.185C431.163 135.542 440.551 132.347 449.76 127.6L457.22 149.534C446.217 154.589 435.121 158.077 423.931 159.999C409.581 162.463 398.631 160.914 391.081 155.352C383.516 149.704 378.552 140.004 376.191 126.252C373.829 112.5 375.279 101.743 380.541 93.9804C385.874 86.1177 395.673 80.9615 409.937 78.5118C417.112 77.2796 423.172 76.7226 428.117 76.8407C433.047 76.8734 437.147 77.7081 440.418 79.3448C443.759 80.8814 446.336 83.3407 448.148 86.7228C450.031 90.0049 451.434 94.3365 452.358 99.7177C453.121 104.159 453.012 108.135 452.032 111.645C451.123 115.055 449.093 118.085 445.943 120.737C442.793 123.388 438.402 125.725 432.77 127.748C427.123 129.685 419.986 131.394 411.359 132.875ZM407.222 108.788L408.3 115.066L414.579 113.988C418.337 113.343 420.961 112.496 422.452 111.449C424.029 110.387 424.575 108.446 424.091 105.627L423.013 99.3493L416.734 100.427C412.976 101.073 410.309 101.927 408.733 102.989C407.242 104.036 406.738 105.969 407.222 108.788Z" fill="#0D1E4C"/>
<path d="M411.359 132.875L409.159 120.063L396.346 122.263L398.546 135.076L411.359 132.875ZM412.283 138.257L399.471 140.457L401.44 151.925L413.055 151.234L412.283 138.257ZM449.76 127.6L462.068 123.414L457.211 109.134L443.804 116.045L449.76 127.6ZM457.22 149.534L462.647 161.346L473.304 156.45L469.528 145.348L457.22 149.534ZM391.081 155.352L383.304 165.769L383.337 165.794L383.37 165.818L391.081 155.352ZM380.541 93.9804L369.782 86.6833L369.78 86.6861L380.541 93.9804ZM428.117 76.8407L427.806 89.837L427.918 89.8397L428.03 89.8404L428.117 76.8407ZM440.418 79.3448L434.601 90.9706L434.792 91.0664L434.987 91.1559L440.418 79.3448ZM448.148 86.7228L436.689 92.8619L436.778 93.0279L436.872 93.1913L448.148 86.7228ZM452.032 111.645L439.511 108.149L439.491 108.222L439.471 108.295L452.032 111.645ZM445.943 120.737L437.572 110.791L437.572 110.791L445.943 120.737ZM432.77 127.748L436.988 140.044L437.076 140.014L437.163 139.983L432.77 127.748ZM408.3 115.066L395.488 117.267L397.688 130.079L410.501 127.879L408.3 115.066ZM422.452 111.449L415.188 100.668L415.083 100.739L414.979 100.812L422.452 111.449ZM423.013 99.3493L435.825 97.149L433.625 84.3366L420.812 86.5369L423.013 99.3493ZM408.733 102.989L401.468 92.2078L401.363 92.2787L401.259 92.3517L408.733 102.989ZM398.546 135.076L399.471 140.457L425.096 136.056L424.171 130.675L398.546 135.076ZM413.055 151.234C414.859 151.126 416.657 150.97 418.448 150.764L415.475 124.934C414.162 125.085 412.84 125.201 411.511 125.28L413.055 151.234ZM418.448 150.764C420.239 150.558 422.021 150.302 423.796 149.997L419.396 124.373C418.096 124.596 416.789 124.783 415.475 124.934L418.448 150.764ZM423.796 149.997C434.757 148.115 445.406 144.47 455.716 139.155L443.804 116.045C435.695 120.224 427.568 122.969 419.396 124.373L423.796 149.997ZM437.452 131.786L444.912 153.72L469.528 145.348L462.068 123.414L437.452 131.786ZM451.793 137.721C441.749 142.335 431.734 145.469 421.731 147.186L426.131 172.811C438.507 170.686 450.685 166.843 462.647 161.346L451.793 137.721ZM421.731 147.186C408.978 149.377 402.253 147.436 398.791 144.886L383.37 165.818C395.009 174.393 410.184 175.55 426.131 172.811L421.731 147.186ZM398.858 144.935C394.999 142.054 391.067 136.069 389.003 124.052L363.378 128.453C366.038 143.94 372.032 157.354 383.304 165.769L398.858 144.935ZM389.003 124.052C386.936 112.019 388.67 105.158 391.302 101.275L369.78 86.6861C361.889 98.3283 360.721 112.982 363.378 128.453L389.003 124.052ZM391.3 101.277C393.815 97.5695 399.555 93.485 412.137 91.3242L407.737 65.6994C391.79 68.438 377.933 74.6659 369.782 86.6833L391.3 101.277ZM412.137 91.3242C418.832 90.1745 423.995 89.746 427.806 89.837L428.427 63.8444C422.349 63.6992 415.392 64.3848 407.737 65.6994L412.137 91.3242ZM428.03 89.8404C431.629 89.8643 433.618 90.4787 434.601 90.9706L446.235 67.719C440.676 64.9375 434.464 63.8825 428.203 63.841L428.03 89.8404ZM434.987 91.1559C435.638 91.4554 436.153 91.861 436.689 92.8619L459.607 80.5838C456.52 74.8204 451.881 70.3073 445.849 67.5336L434.987 91.1559ZM436.872 93.1913C437.74 94.7057 438.775 97.4309 439.546 101.918L465.171 97.5174C464.093 91.2421 462.321 85.304 459.425 80.2543L436.872 93.1913ZM439.546 101.918C440.058 104.901 439.866 106.878 439.511 108.149L464.553 115.141C466.159 109.392 466.184 103.417 465.171 97.5174L439.546 101.918ZM439.471 108.295C439.358 108.719 439.032 109.562 437.572 110.791L454.315 130.683C459.155 126.609 462.888 121.39 464.593 114.995L439.471 108.295ZM437.572 110.791C436.007 112.108 433.157 113.796 428.376 115.512L437.163 139.983C443.647 137.654 449.58 134.668 454.315 130.683L437.572 110.791ZM428.552 115.451C423.789 117.085 417.385 118.65 409.159 120.063L413.559 145.688C422.587 144.138 430.457 142.285 436.988 140.044L428.552 115.451ZM394.41 110.988L395.488 117.267L421.113 112.866L420.035 106.588L394.41 110.988ZM410.501 127.879L416.779 126.8L412.378 101.176L406.1 102.254L410.501 127.879ZM416.779 126.8C420.803 126.109 425.912 124.906 429.926 122.086L414.979 100.812C415.382 100.529 415.652 100.403 415.687 100.387C415.73 100.367 415.641 100.411 415.376 100.497C414.822 100.675 413.862 100.921 412.378 101.176L416.779 126.8ZM429.717 122.23C437.525 116.968 437.756 108.396 436.903 103.427L411.278 107.828C411.321 108.075 411.108 107.177 411.53 105.675C412.037 103.874 413.259 101.968 415.188 100.668L429.717 122.23ZM436.903 103.427L435.825 97.149L410.2 101.55L411.278 107.828L436.903 103.427ZM420.812 86.5369L414.534 87.6151L418.935 113.24L425.213 112.162L420.812 86.5369ZM414.534 87.6151C410.424 88.3208 405.447 89.5267 401.468 92.2078L415.997 113.77C415.826 113.885 415.692 113.963 415.607 114.009C415.521 114.056 415.472 114.078 415.469 114.08C415.468 114.08 415.592 114.025 415.878 113.933C416.471 113.743 417.455 113.494 418.935 113.24L414.534 87.6151ZM401.259 92.3517C393.583 97.7447 393.611 106.337 394.41 110.988L420.035 106.588C419.98 106.272 420.187 107.08 419.817 108.5C419.373 110.207 418.23 112.204 416.206 113.626L401.259 92.3517Z" fill="white" mask="url(#path-9-outside-5_81_38)"/>
<mask id="path-11-outside-6_81_38" maskUnits="userSpaceOnUse" x="447.113" y="43.6066" width="120.844" height="123.412" fill="black">
<rect fill="white" x="447.113" y="43.6066" width="120.844" height="123.412"/>
<path d="M504.165 64.0505C528.898 60.6879 542.42 67.5084 544.732 84.512L552.087 138.614L536.63 140.716L526.679 133.147C525.367 135.075 523.731 136.872 521.771 138.538C519.896 140.192 517.821 141.655 515.545 142.926C513.269 144.198 510.921 145.261 508.5 146.115C506.08 146.968 503.711 147.553 501.392 147.868C497.012 148.464 492.998 148.528 489.348 148.063C485.796 147.671 482.684 146.651 480.011 145.003C477.338 143.354 475.135 140.986 473.404 137.898C471.672 134.81 470.485 130.904 469.843 126.181C467.321 107.631 480.058 96.4537 508.053 92.6474L514.236 91.8068L513.483 86.2677C511.84 86.4037 510.326 86.5221 508.94 86.6231C507.64 86.7123 506.432 86.8328 505.316 86.9846C493.722 88.5608 483.91 91.338 475.88 95.3162L469.132 73.6679C479.005 69.0894 490.683 65.8836 504.165 64.0505ZM500.56 118.593L501.419 124.905L507.859 124.03C512.325 123.422 515.175 122.51 516.409 121.293C517.459 120.013 517.879 118.6 517.669 117.054L516.671 109.712L510.359 110.57C506.666 111.072 504.014 111.826 502.401 112.833C500.789 113.839 500.175 115.759 500.56 118.593Z"/>
</mask>
<path d="M504.165 64.0505C528.898 60.6879 542.42 67.5084 544.732 84.512L552.087 138.614L536.63 140.716L526.679 133.147C525.367 135.075 523.731 136.872 521.771 138.538C519.896 140.192 517.821 141.655 515.545 142.926C513.269 144.198 510.921 145.261 508.5 146.115C506.08 146.968 503.711 147.553 501.392 147.868C497.012 148.464 492.998 148.528 489.348 148.063C485.796 147.671 482.684 146.651 480.011 145.003C477.338 143.354 475.135 140.986 473.404 137.898C471.672 134.81 470.485 130.904 469.843 126.181C467.321 107.631 480.058 96.4537 508.053 92.6474L514.236 91.8068L513.483 86.2677C511.84 86.4037 510.326 86.5221 508.94 86.6231C507.64 86.7123 506.432 86.8328 505.316 86.9846C493.722 88.5608 483.91 91.338 475.88 95.3162L469.132 73.6679C479.005 69.0894 490.683 65.8836 504.165 64.0505ZM500.56 118.593L501.419 124.905L507.859 124.03C512.325 123.422 515.175 122.51 516.409 121.293C517.459 120.013 517.879 118.6 517.669 117.054L516.671 109.712L510.359 110.57C506.666 111.072 504.014 111.826 502.401 112.833C500.789 113.839 500.175 115.759 500.56 118.593Z" fill="#0D1E4C"/>
<path d="M552.087 138.614L553.839 151.496L566.72 149.744L564.969 136.863L552.087 138.614ZM536.63 140.716L528.759 151.063L533.045 154.323L538.381 153.597L536.63 140.716ZM526.679 133.147L534.549 122.8L523.644 114.505L515.933 125.832L526.679 133.147ZM521.771 138.538L513.352 128.632L513.259 128.711L513.168 128.791L521.771 138.538ZM508.5 146.115L512.825 158.374L508.5 146.115ZM489.348 148.063L490.995 135.167L490.884 135.153L490.773 135.141L489.348 148.063ZM480.011 145.003L486.834 133.937L486.834 133.937L480.011 145.003ZM473.404 137.898L484.742 131.539L473.404 137.898ZM514.236 91.8068L515.988 104.688L528.869 102.937L527.118 90.0554L514.236 91.8068ZM513.483 86.2677L526.365 84.5164L524.703 72.295L512.411 73.312L513.483 86.2677ZM508.94 86.6231L509.83 99.5925L509.857 99.5907L509.884 99.5887L508.94 86.6231ZM475.88 95.3162L463.469 99.1848L468.001 113.726L481.65 106.965L475.88 95.3162ZM469.132 73.6679L463.663 61.8743L453.332 66.665L456.721 77.5365L469.132 73.6679ZM501.419 124.905L488.537 126.657L490.288 139.538L503.17 137.787L501.419 124.905ZM516.409 121.293L525.539 130.547L526.024 130.068L526.457 129.541L516.409 121.293ZM516.671 109.712L529.552 107.961L527.801 95.0792L514.919 96.8305L516.671 109.712ZM502.401 112.833L495.518 101.805L495.518 101.805L502.401 112.833ZM505.917 76.932C517.207 75.397 523.667 76.5689 527.002 78.251C529.385 79.4531 531.182 81.3471 531.85 86.2633L557.613 82.7606C555.97 70.6733 549.85 60.6552 538.711 55.0368C528.524 49.8984 515.856 49.3414 502.414 51.169L505.917 76.932ZM531.85 86.2633L539.206 140.366L564.969 136.863L557.613 82.7606L531.85 86.2633ZM550.336 125.733L534.878 127.834L538.381 153.597L553.839 151.496L550.336 125.733ZM544.5 130.369L534.549 122.8L518.809 143.494L528.759 151.063L544.5 130.369ZM515.933 125.832C515.34 126.702 514.514 127.644 513.352 128.632L530.19 148.443C532.948 146.099 535.394 143.448 537.426 140.463L515.933 125.832ZM513.168 128.791C512.018 129.806 510.707 130.738 509.205 131.577L521.885 154.276C524.936 152.571 527.775 150.578 530.373 148.284L513.168 128.791ZM509.205 131.577C507.563 132.494 505.889 133.251 504.176 133.855L512.825 158.374C515.953 157.271 518.975 155.902 521.885 154.276L509.205 131.577ZM504.176 133.855C502.51 134.443 501.003 134.802 499.641 134.987L503.143 160.75C506.418 160.304 509.65 159.494 512.825 158.374L504.176 133.855ZM499.641 134.987C496.17 135.459 493.316 135.464 490.995 135.167L487.702 160.958C492.679 161.593 497.855 161.469 503.143 160.75L499.641 134.987ZM490.773 135.141C488.872 134.931 487.655 134.443 486.834 133.937L473.188 156.068C477.713 158.858 482.721 160.41 487.923 160.984L490.773 135.141ZM486.834 133.937C486.271 133.59 485.533 132.95 484.742 131.539L462.065 144.257C464.737 149.022 468.405 153.119 473.188 156.068L486.834 133.937ZM484.742 131.539C484.034 130.276 483.218 128.06 482.724 124.429L456.961 127.932C457.752 133.748 459.309 139.343 462.065 144.257L484.742 131.539ZM482.724 124.429C481.978 118.941 483.372 116.032 486.079 113.656C489.633 110.537 496.821 107.294 509.805 105.529L506.302 79.7659C491.29 81.807 478.112 86.0558 468.929 94.1145C458.899 102.917 455.185 114.871 456.961 127.932L482.724 124.429ZM509.805 105.529L515.988 104.688L512.485 78.9253L506.302 79.7659L509.805 105.529ZM527.118 90.0554L526.365 84.5164L500.602 88.0191L501.355 93.5581L527.118 90.0554ZM512.411 73.312C510.803 73.4451 509.332 73.5601 507.995 73.6574L509.884 99.5887C511.319 99.4842 512.877 99.3623 514.555 99.2235L512.411 73.312ZM508.049 73.6536C506.505 73.7597 505.006 73.907 503.564 74.1031L507.067 99.8661C507.857 99.7586 508.775 99.665 509.83 99.5925L508.049 73.6536ZM503.564 74.1031C490.976 75.8146 479.723 78.9048 470.109 83.6671L481.65 106.965C488.098 103.771 496.468 101.307 507.067 99.8661L503.564 74.1031ZM488.291 91.4475L481.543 69.7993L456.721 77.5365L463.469 99.1848L488.291 91.4475ZM474.601 85.4615C483.044 81.5459 493.414 78.6319 505.917 76.932L502.414 51.169C487.952 53.1353 474.965 56.6328 463.663 61.8743L474.601 85.4615ZM487.679 120.345L488.537 126.657L514.3 123.154L513.442 116.842L487.679 120.345ZM503.17 137.787L509.611 136.911L506.108 111.148L499.667 112.024L503.17 137.787ZM509.611 136.911C512.258 136.551 514.9 136.043 517.309 135.271C519.457 134.584 522.77 133.278 525.539 130.547L507.279 112.039C508.136 111.192 508.885 110.77 509.169 110.622C509.477 110.462 509.586 110.444 509.383 110.509C509.194 110.569 508.835 110.67 508.262 110.789C507.696 110.906 506.984 111.029 506.108 111.148L509.611 136.911ZM526.457 129.541C529.643 125.659 531.28 120.671 530.551 115.303L504.788 118.806C504.659 117.859 504.705 116.732 505.051 115.568C505.392 114.422 505.922 113.579 506.36 113.045L526.457 129.541ZM530.551 115.303L529.552 107.961L503.789 111.463L504.788 118.806L530.551 115.303ZM514.919 96.8305L508.608 97.6887L512.11 123.452L518.422 122.594L514.919 96.8305ZM508.608 97.6887C504.511 98.2457 499.566 99.278 495.518 101.805L509.284 123.861C508.705 124.222 508.524 124.196 509.155 124.017C509.726 123.855 510.677 123.647 512.11 123.452L508.608 97.6887ZM495.518 101.805C487.531 106.79 487 115.349 487.679 120.345L513.442 116.842C513.408 116.593 513.59 117.498 513.115 118.985C512.545 120.767 511.258 122.629 509.284 123.861L495.518 101.805Z" fill="white" mask="url(#path-11-outside-6_81_38)"/>
<mask id="path-13-outside-7_81_38" maskUnits="userSpaceOnUse" x="548.36" y="33.7274" width="115.104" height="116.896" fill="black">
<rect fill="white" x="548.36" y="33.7274" width="115.104" height="116.896"/>
<path d="M563.68 58.7025L579.203 57.1538L587.739 64.1409C596.64 56.4592 606.653 52.0634 617.778 50.9535C625.108 50.2221 630.959 51.2497 635.331 54.0361C639.78 56.7277 642.284 60.8762 642.843 66.4817L649.038 128.573L617.992 131.671L612.572 77.3407L607.786 77.8182C604.25 78.171 601.615 78.8258 599.882 79.7826C598.139 80.6532 597.393 82.339 597.643 84.8399L602.47 133.22L571.424 136.317L563.68 58.7025Z"/>
</mask>
<path d="M563.68 58.7025L579.203 57.1538L587.739 64.1409C596.64 56.4592 606.653 52.0634 617.778 50.9535C625.108 50.2221 630.959 51.2497 635.331 54.0361C639.78 56.7277 642.284 60.8762 642.843 66.4817L649.038 128.573L617.992 131.671L612.572 77.3407L607.786 77.8182C604.25 78.171 601.615 78.8258 599.882 79.7826C598.139 80.6532 597.393 82.339 597.643 84.8399L602.47 133.22L571.424 136.317L563.68 58.7025Z" fill="#0D1E4C"/>
<path d="M563.68 58.7025L562.389 45.7667L549.454 47.0574L550.744 59.9931L563.68 58.7025ZM579.203 57.1538L587.437 47.0942L583.27 43.6834L577.912 44.218L579.203 57.1538ZM587.739 64.1409L579.504 74.2004L587.96 81.1216L596.232 73.9828L587.739 64.1409ZM635.331 54.0361L628.343 64.9985L628.471 65.0803L628.602 65.1591L635.331 54.0361ZM649.038 128.573L650.329 141.509L663.265 140.219L661.974 127.283L649.038 128.573ZM617.992 131.671L605.057 132.962L606.347 145.897L619.283 144.607L617.992 131.671ZM612.572 77.3407L625.508 76.0501L624.217 63.1143L611.281 64.4049L612.572 77.3407ZM599.882 79.7826L605.693 91.4115L605.931 91.2926L606.163 91.1641L599.882 79.7826ZM602.47 133.22L603.76 146.155L616.696 144.865L615.405 131.929L602.47 133.22ZM571.424 136.317L558.488 137.608L559.778 150.544L572.714 149.253L571.424 136.317ZM564.971 71.6383L580.493 70.0895L577.912 44.218L562.389 45.7667L564.971 71.6383ZM570.968 67.2134L579.504 74.2004L595.973 54.0813L587.437 47.0942L570.968 67.2134ZM596.232 73.9828C603.219 67.9532 610.748 64.7194 619.068 63.8892L616.487 38.0177C602.558 39.4074 590.061 44.9652 579.245 54.299L596.232 73.9828ZM619.068 63.8892C624.689 63.3285 627.281 64.3213 628.343 64.9985L642.318 43.0736C634.637 38.178 625.527 37.1158 616.487 38.0177L619.068 63.8892ZM628.602 65.1591C629.159 65.4965 629.331 65.7437 629.416 65.8844C629.521 66.0579 629.789 66.5795 629.908 67.7723L655.779 65.1911C654.853 55.9073 650.335 47.9192 642.06 42.9131L628.602 65.1591ZM629.908 67.7723L636.103 129.864L661.974 127.283L655.779 65.1911L629.908 67.7723ZM647.748 115.638L616.702 118.735L619.283 144.607L650.329 141.509L647.748 115.638ZM630.928 130.38L625.508 76.0501L599.636 78.6313L605.057 132.962L630.928 130.38ZM611.281 64.4049L606.495 64.8824L609.076 90.754L613.862 90.2765L611.281 64.4049ZM606.495 64.8824C602.379 65.2931 597.649 66.1662 593.6 68.4012L606.163 91.1641C605.75 91.3921 605.699 91.3378 606.293 91.1901C606.852 91.0512 607.752 90.8861 609.076 90.754L606.495 64.8824ZM594.07 68.1537C590.66 69.8578 587.797 72.6664 586.128 76.4371C584.573 79.9506 584.436 83.4206 584.707 86.1305L610.578 83.5493C610.599 83.7583 610.711 85.1349 609.902 86.9626C608.979 89.0475 607.361 90.578 605.693 91.4115L594.07 68.1537ZM584.707 86.1305L589.534 134.51L615.405 131.929L610.578 83.5493L584.707 86.1305ZM601.179 120.284L570.133 123.381L572.714 149.253L603.76 146.155L601.179 120.284ZM584.359 135.027L576.616 57.4119L550.744 59.9931L558.488 137.608L584.359 135.027Z" fill="white" mask="url(#path-13-outside-7_81_38)"/>
<mask id="path-15-outside-8_81_38" maskUnits="userSpaceOnUse" x="693.294" y="9.22202" width="99.1033" height="128.509" fill="black">
<rect fill="white" x="693.294" y="9.22202" width="99.1033" height="128.509"/>
<path d="M767.312 61.8246L768.479 85.0653L741.992 86.3957L743.805 122.49L712.645 124.055L707.753 26.6781L771.633 23.4695L768.99 48.5938L740.166 50.0415L740.825 63.155L767.312 61.8246Z"/>
</mask>
<path d="M767.312 61.8246L768.479 85.0653L741.992 86.3957L743.805 122.49L712.645 124.055L707.753 26.6781L771.633 23.4695L768.99 48.5938L740.166 50.0415L740.825 63.155L767.312 61.8246Z" fill="#0D1E4C"/>
<path d="M767.312 61.8246L780.295 61.1725L779.643 48.1888L766.659 48.841L767.312 61.8246ZM768.479 85.0653L769.131 98.0489L782.115 97.3968L781.463 84.4132L768.479 85.0653ZM741.992 86.3957L741.34 73.412L728.357 74.0642L729.009 87.0478L741.992 86.3957ZM743.805 122.49L744.457 135.474L757.441 134.822L756.789 121.838L743.805 122.49ZM712.645 124.055L699.661 124.707L700.313 137.691L713.297 137.039L712.645 124.055ZM707.753 26.6781L707.101 13.6944L694.118 14.3466L694.77 27.3302L707.753 26.6781ZM771.633 23.4695L784.562 24.8296L786.151 9.72395L770.981 10.4859L771.633 23.4695ZM768.99 48.5938L769.642 61.5774L780.755 61.0192L781.919 49.9538L768.99 48.5938ZM740.166 50.0415L739.514 37.0579L726.531 37.71L727.183 50.6937L740.166 50.0415ZM740.825 63.155L727.841 63.8071L728.493 76.7908L741.477 76.1386L740.825 63.155ZM754.328 62.4768L755.495 85.7174L781.463 84.4132L780.295 61.1725L754.328 62.4768ZM767.827 72.0817L741.34 73.412L742.644 99.3793L769.131 98.0489L767.827 72.0817ZM729.009 87.0478L730.822 123.142L756.789 121.838L754.976 85.7435L729.009 87.0478ZM743.153 109.507L711.992 111.072L713.297 137.039L744.457 135.474L743.153 109.507ZM725.628 123.403L720.737 26.0259L694.77 27.3302L699.661 124.707L725.628 123.403ZM708.406 39.6617L772.285 36.4532L770.981 10.4859L707.101 13.6944L708.406 39.6617ZM758.704 22.1095L756.061 47.2337L781.919 49.9538L784.562 24.8296L758.704 22.1095ZM768.338 35.6101L739.514 37.0579L740.818 63.0251L769.642 61.5774L768.338 35.6101ZM727.183 50.6937L727.841 63.8071L753.809 62.5028L753.15 49.3894L727.183 50.6937ZM741.477 76.1386L767.964 74.8082L766.659 48.841L740.173 50.1713L741.477 76.1386Z" fill="white" mask="url(#path-15-outside-8_81_38)"/>
<mask id="path-17-outside-9_81_38" maskUnits="userSpaceOnUse" x="775.371" y="23.005" width="79.5514" height="110.787" fill="black">
<rect fill="white" x="775.371" y="23.005" width="79.5514" height="110.787"/>
<path d="M791.433 120.47L789.592 42.4917L805.188 42.1235L813.971 50.6286C820.074 44.7629 827.698 40.8985 836.843 39.0354L839.36 68.4943C838.147 68.5229 836.678 68.731 834.953 69.1184C833.228 69.5059 831.462 69.9811 829.655 70.5439C827.935 71.1047 826.347 71.7923 824.893 72.6069C823.436 73.3348 822.329 74.1845 821.572 75.156L822.624 119.734L791.433 120.47Z"/>
</mask>
<path d="M791.433 120.47L789.592 42.4917L805.188 42.1235L813.971 50.6286C820.074 44.7629 827.698 40.8985 836.843 39.0354L839.36 68.4943C838.147 68.5229 836.678 68.731 834.953 69.1184C833.228 69.5059 831.462 69.9811 829.655 70.5439C827.935 71.1047 826.347 71.7923 824.893 72.6069C823.436 73.3348 822.329 74.1845 821.572 75.156L822.624 119.734L791.433 120.47Z" fill="#0D1E4C"/>
<path d="M791.433 120.47L778.437 120.777L778.743 133.773L791.74 133.466L791.433 120.47ZM789.592 42.4917L789.285 29.4953L776.289 29.8022L776.595 42.7986L789.592 42.4917ZM805.188 42.1235L814.231 32.7844L810.321 28.9987L804.881 29.1271L805.188 42.1235ZM813.971 50.6286L804.927 59.9676L813.937 68.6917L822.979 60.0015L813.971 50.6286ZM836.843 39.0354L849.796 37.9292L848.554 23.3828L834.248 26.2971L836.843 39.0354ZM839.36 68.4943L839.666 81.4906L853.489 81.1643L852.312 67.388L839.36 68.4943ZM829.655 70.5439L825.79 58.1319L825.708 58.1573L825.627 58.1838L829.655 70.5439ZM824.893 72.6069L830.704 84.2356L830.978 84.0988L831.245 83.9494L824.893 72.6069ZM821.572 75.156L811.319 67.1637L808.466 70.8236L808.575 75.4628L821.572 75.156ZM822.624 119.734L822.931 132.73L835.928 132.423L835.621 119.427L822.624 119.734ZM804.429 120.163L802.588 42.1849L776.595 42.7986L778.437 120.777L804.429 120.163ZM789.899 55.4881L805.494 55.1199L804.881 29.1271L789.285 29.4953L789.899 55.4881ZM796.144 51.4626L804.927 59.9676L823.014 41.2895L814.231 32.7844L796.144 51.4626ZM822.979 60.0015C827.127 56.0151 832.45 53.1974 839.438 51.7738L834.248 26.2971C822.946 28.5996 813.021 33.5106 804.963 41.2556L822.979 60.0015ZM823.891 40.1417L826.407 69.6005L852.312 67.388L849.796 37.9292L823.891 40.1417ZM839.053 55.4979C836.693 55.5536 834.321 55.9363 832.103 56.4346L837.803 81.8023C838.388 81.6709 838.839 81.5904 839.171 81.5433C839.335 81.5201 839.458 81.5067 839.545 81.499C839.631 81.4914 839.67 81.4905 839.666 81.4906L839.053 55.4979ZM832.103 56.4346C830.014 56.9041 827.908 57.4721 825.79 58.1319L833.521 82.9559C835.016 82.4901 836.443 82.1077 837.803 81.8023L832.103 56.4346ZM825.627 58.1838C823.168 58.9851 820.794 60.0022 818.541 61.2644L831.245 83.9494C831.9 83.5825 832.701 83.2243 833.684 82.904L825.627 58.1838ZM819.081 60.9782C816.425 62.3056 813.586 64.255 811.319 67.1637L831.825 83.1483C831.072 84.114 830.447 84.364 830.704 84.2356L819.081 60.9782ZM808.575 75.4628L809.628 120.04L835.621 119.427L834.568 74.8491L808.575 75.4628ZM822.317 106.737L791.126 107.474L791.74 133.466L822.931 132.73L822.317 106.737Z" fill="white" mask="url(#path-17-outside-9_81_38)"/>
<mask id="path-19-outside-10_81_38" maskUnits="userSpaceOnUse" x="838.386" y="24.9477" width="107.632" height="110.615" fill="black">
<rect fill="white" x="838.386" y="24.9477" width="107.632" height="110.615"/>
<path d="M885.85 92.6987L885.818 98.1586C887.377 98.3409 888.937 98.4799 890.496 98.5756C892.056 98.6712 893.615 98.7235 895.175 98.7325C904.882 98.7885 914.684 97.2849 924.582 94.2219L928.09 117.122C916.372 120.175 904.837 121.669 893.484 121.603C878.924 121.519 868.413 118.079 861.952 111.281C855.492 104.397 852.302 93.9787 852.382 80.0256C852.463 66.0725 855.772 55.7348 862.311 49.0123C868.937 42.2037 879.487 38.8411 893.96 38.9245C901.24 38.9665 907.304 39.4781 912.151 40.4594C917 41.354 920.891 42.8931 923.825 45.0767C926.846 47.1742 928.953 50.0463 930.145 53.6933C931.425 57.254 932.049 61.7644 932.017 67.2243C931.992 71.7309 931.189 75.6263 929.61 78.9106C928.118 82.1087 925.59 84.7375 922.025 86.797C918.459 88.8565 913.727 90.3893 907.828 91.3953C901.929 92.3147 894.603 92.7491 885.85 92.6987ZM885.991 68.2591L885.954 74.629L892.324 74.6657C896.137 74.6877 898.869 74.3134 900.521 73.5429C902.258 72.7729 903.136 70.9579 903.152 68.098L903.189 61.7281L896.819 61.6914C893.006 61.6694 890.23 62.0434 888.492 62.8134C886.841 63.5839 886.007 65.3991 885.991 68.2591Z"/>
</mask>
<path d="M885.85 92.6987L885.818 98.1586C887.377 98.3409 888.937 98.4799 890.496 98.5756C892.056 98.6712 893.615 98.7235 895.175 98.7325C904.882 98.7885 914.684 97.2849 924.582 94.2219L928.09 117.122C916.372 120.175 904.837 121.669 893.484 121.603C878.924 121.519 868.413 118.079 861.952 111.281C855.492 104.397 852.302 93.9787 852.382 80.0256C852.463 66.0725 855.772 55.7348 862.311 49.0123C868.937 42.2037 879.487 38.8411 893.96 38.9245C901.24 38.9665 907.304 39.4781 912.151 40.4594C917 41.354 920.891 42.8931 923.825 45.0767C926.846 47.1742 928.953 50.0463 930.145 53.6933C931.425 57.254 932.049 61.7644 932.017 67.2243C931.992 71.7309 931.189 75.6263 929.61 78.9106C928.118 82.1087 925.59 84.7375 922.025 86.797C918.459 88.8565 913.727 90.3893 907.828 91.3953C901.929 92.3147 894.603 92.7491 885.85 92.6987ZM885.991 68.2591L885.954 74.629L892.324 74.6657C896.137 74.6877 898.869 74.3134 900.521 73.5429C902.258 72.7729 903.136 70.9579 903.152 68.098L903.189 61.7281L896.819 61.6914C893.006 61.6694 890.23 62.0434 888.492 62.8134C886.841 63.5839 886.007 65.3991 885.991 68.2591Z" fill="#0D1E4C"/>
<path d="M885.85 92.6987L885.925 79.6989L872.925 79.624L872.85 92.6238L885.85 92.6987ZM885.818 98.1586L872.819 98.0837L872.752 109.719L884.308 111.071L885.818 98.1586ZM924.582 94.2219L937.432 92.2534L935.148 77.3438L920.739 81.803L924.582 94.2219ZM928.09 117.122L931.367 129.703L942.716 126.746L940.94 115.154L928.09 117.122ZM861.952 111.281L852.473 120.177L852.501 120.208L852.53 120.238L861.952 111.281ZM862.311 49.0123L852.995 39.9457L852.993 39.9481L862.311 49.0123ZM912.151 40.4594L909.572 53.201L909.682 53.2232L909.792 53.2435L912.151 40.4594ZM923.825 45.0767L916.064 55.5056L916.236 55.6335L916.411 55.7556L923.825 45.0767ZM930.145 53.6933L917.789 57.7331L917.848 57.9121L917.911 58.0894L930.145 53.6933ZM929.61 78.9106L917.894 73.2779L917.861 73.3463L917.829 73.4151L929.61 78.9106ZM922.025 86.797L915.522 75.5402L915.522 75.5402L922.025 86.797ZM907.828 91.3953L909.83 104.24L909.922 104.226L910.013 104.21L907.828 91.3953ZM885.954 74.629L872.954 74.5541L872.879 87.5539L885.879 87.6288L885.954 74.629ZM900.521 73.5429L895.254 61.6574L895.138 61.7088L895.023 61.7624L900.521 73.5429ZM903.189 61.7281L916.188 61.803L916.263 48.8032L903.264 48.7283L903.189 61.7281ZM888.492 62.8134L883.226 50.9279L883.11 50.9793L882.995 51.033L888.492 62.8134ZM872.85 92.6238L872.819 98.0837L898.818 98.2335L898.85 92.7736L872.85 92.6238ZM884.308 111.071C886.104 111.281 887.901 111.441 889.7 111.551L891.292 85.5999C889.972 85.519 888.651 85.4013 887.329 85.2466L884.308 111.071ZM889.7 111.551C891.499 111.662 893.3 111.722 895.1 111.732L895.25 85.7327C893.931 85.7251 892.612 85.6809 891.292 85.5999L889.7 111.551ZM895.1 111.732C906.222 111.796 917.344 110.07 928.425 106.641L920.739 81.803C912.024 84.4999 903.542 85.7805 895.25 85.7327L895.1 111.732ZM911.732 96.1904L915.24 119.091L940.94 115.154L937.432 92.2534L911.732 96.1904ZM924.813 104.542C914.117 107.329 903.708 108.662 893.558 108.603L893.409 134.603C905.965 134.675 918.627 133.021 931.367 129.703L924.813 104.542ZM893.558 108.603C880.619 108.529 874.337 105.441 871.375 102.325L852.53 120.238C862.49 130.716 877.228 134.51 893.409 134.603L893.558 108.603ZM871.432 102.385C868.137 98.874 865.312 92.2931 865.382 80.1005L839.383 79.9507C839.292 95.6644 842.847 109.921 852.473 120.177L871.432 102.385ZM865.382 80.1005C865.453 67.8916 868.359 61.4393 871.63 58.0766L852.993 39.9481C843.186 50.0302 839.473 64.2535 839.383 79.9507L865.382 80.1005ZM871.628 58.0789C874.753 54.868 881.119 51.8507 893.885 51.9243L894.035 25.9247C877.855 25.8315 863.122 29.5394 852.995 39.9457L871.628 58.0789ZM893.885 51.9243C900.678 51.9635 905.836 52.4446 909.572 53.201L914.731 27.7178C908.772 26.5116 901.802 25.9695 894.035 25.9247L893.885 51.9243ZM909.792 53.2435C913.331 53.8965 915.182 54.8494 916.064 55.5056L931.586 34.6478C926.6 30.9368 920.668 28.8114 914.51 27.6752L909.792 53.2435ZM916.411 55.7556C917 56.1644 917.436 56.6539 917.789 57.7331L942.502 49.6534C940.47 43.4388 936.692 38.1839 931.239 34.3978L916.411 55.7556ZM917.911 58.0894C918.502 59.7324 919.044 62.5966 919.018 67.1494L945.017 67.2992C945.054 60.9322 944.348 54.7757 942.38 49.2971L917.911 58.0894ZM919.018 67.1494C919 70.1762 918.465 72.0891 917.894 73.2779L941.326 84.5433C943.913 79.1635 944.983 73.2856 945.017 67.2992L919.018 67.1494ZM917.829 73.4151C917.643 73.813 917.175 74.5855 915.522 75.5402L928.527 98.0539C934.005 94.8896 938.593 90.4045 941.391 84.4061L917.829 73.4151ZM915.522 75.5402C913.75 76.5635 910.65 77.7264 905.642 78.5803L910.013 104.21C916.804 103.052 923.168 101.15 928.527 98.0539L915.522 75.5402ZM905.826 78.5504C900.85 79.3258 894.272 79.747 885.925 79.6989L885.775 105.698C894.934 105.751 903.008 105.304 909.83 104.24L905.826 78.5504ZM872.991 68.1842L872.954 74.5541L898.954 74.7039L898.991 68.334L872.991 68.1842ZM885.879 87.6288L892.249 87.6655L892.399 61.6659L886.029 61.6292L885.879 87.6288ZM892.249 87.6655C896.332 87.689 901.572 87.3979 906.018 85.3234L895.023 61.7624C895.469 61.5543 895.757 61.4781 895.795 61.4684C895.841 61.4563 895.745 61.4839 895.469 61.5218C894.893 61.6006 893.905 61.6746 892.399 61.6659L892.249 87.6655ZM905.787 85.4284C914.395 81.6142 916.123 73.2143 916.152 68.1729L890.152 68.0231C890.151 68.274 890.098 67.3524 890.777 65.9475C891.591 64.2633 893.127 62.5997 895.254 61.6574L905.787 85.4284ZM916.152 68.1729L916.188 61.803L890.189 61.6532L890.152 68.0231L916.152 68.1729ZM903.264 48.7283L896.894 48.6916L896.744 74.6912L903.114 74.7279L903.264 48.7283ZM896.894 48.6916C892.724 48.6676 887.612 48.9842 883.226 50.9279L893.759 74.6989C893.57 74.7823 893.425 74.8355 893.333 74.8663C893.24 74.8974 893.188 74.9106 893.184 74.9117C893.184 74.9118 893.316 74.8791 893.613 74.839C894.23 74.7558 895.243 74.6825 896.744 74.6912L896.894 48.6916ZM882.995 51.033C874.494 55 873.018 63.4646 872.991 68.1842L898.991 68.334C898.992 68.0132 899.054 68.8456 898.442 70.1791C897.706 71.7815 896.231 73.5477 893.99 74.5939L882.995 51.033Z" fill="white" mask="url(#path-19-outside-10_81_38)"/>
<mask id="path-21-outside-11_81_38" maskUnits="userSpaceOnUse" x="931.669" y="25.3347" width="111.388" height="114.263" fill="black">
<rect fill="white" x="931.669" y="25.3347" width="111.388" height="114.263"/>
<path d="M980.58 94.6804L980.358 100.136C981.91 100.373 983.463 100.566 985.018 100.716C986.573 100.866 988.13 100.973 989.689 101.036C999.388 101.431 1009.24 100.271 1019.24 97.5559L1021.94 120.565C1010.12 123.206 998.543 124.296 987.199 123.834C972.651 123.241 962.268 119.436 956.048 112.417C949.832 105.311 947.008 94.7876 947.576 80.8459C948.144 66.9041 951.812 56.6883 958.582 50.1984C965.442 43.6254 976.103 40.6334 990.564 41.2224C997.838 41.5187 1003.88 42.2419 1008.69 43.3919C1013.5 44.4554 1017.34 46.1295 1020.2 48.4143C1023.14 50.616 1025.15 53.56 1026.21 57.2464C1027.37 60.8497 1027.83 65.3791 1027.61 70.8345C1027.43 75.3375 1026.49 79.2025 1024.8 82.4296C1023.19 85.5737 1020.57 88.1125 1016.94 90.0462C1013.3 91.9799 1008.52 93.3464 1002.59 94.1457C996.663 94.8584 989.326 95.0367 980.58 94.6804ZM981.575 70.2607L981.315 76.6254L987.68 76.8846C991.49 77.0398 994.234 76.7612 995.911 76.0489C997.675 75.3401 998.615 73.5569 998.731 70.6992L998.99 64.3345L992.626 64.0753C988.815 63.9201 986.029 64.1969 984.265 64.9057C982.588 65.6181 981.691 67.403 981.575 70.2607Z"/>
</mask>
<path d="M980.58 94.6804L980.358 100.136C981.91 100.373 983.463 100.566 985.018 100.716C986.573 100.866 988.13 100.973 989.689 101.036C999.388 101.431 1009.24 100.271 1019.24 97.5559L1021.94 120.565C1010.12 123.206 998.543 124.296 987.199 123.834C972.651 123.241 962.268 119.436 956.048 112.417C949.832 105.311 947.008 94.7876 947.576 80.8459C948.144 66.9041 951.812 56.6883 958.582 50.1984C965.442 43.6254 976.103 40.6334 990.564 41.2224C997.838 41.5187 1003.88 42.2419 1008.69 43.3919C1013.5 44.4554 1017.34 46.1295 1020.2 48.4143C1023.14 50.616 1025.15 53.56 1026.21 57.2464C1027.37 60.8497 1027.83 65.3791 1027.61 70.8345C1027.43 75.3375 1026.49 79.2025 1024.8 82.4296C1023.19 85.5737 1020.57 88.1125 1016.94 90.0462C1013.3 91.9799 1008.52 93.3464 1002.59 94.1457C996.663 94.8584 989.326 95.0367 980.58 94.6804ZM981.575 70.2607L981.315 76.6254L987.68 76.8846C991.49 77.0398 994.234 76.7612 995.911 76.0489C997.675 75.3401 998.615 73.5569 998.731 70.6992L998.99 64.3345L992.626 64.0753C988.815 63.9201 986.029 64.1969 984.265 64.9057C982.588 65.6181 981.691 67.403 981.575 70.2607Z" fill="#0D1E4C"/>
<path d="M980.58 94.6804L981.109 81.6912L968.12 81.1622L967.591 94.1514L980.58 94.6804ZM980.358 100.136L967.369 99.6069L966.895 111.233L978.398 112.987L980.358 100.136ZM1019.24 97.5559L1032.15 96.0375L1030.38 81.0572L1015.83 85.0103L1019.24 97.5559ZM1021.94 120.565L1024.78 133.252L1036.22 130.694L1034.85 119.047L1021.94 120.565ZM956.048 112.417L946.264 120.976L946.291 121.007L946.318 121.038L956.048 112.417ZM958.582 50.1984L949.588 40.8118L949.586 40.8141L958.582 50.1984ZM1008.69 43.3919L1005.67 56.0356L1005.78 56.0617L1005.89 56.0859L1008.69 43.3919ZM1020.2 48.4143L1012.07 58.5657L1012.24 58.6995L1012.41 58.8277L1020.2 48.4143ZM1026.21 57.2464L1013.72 60.8521L1013.77 61.033L1013.83 61.2124L1026.21 57.2464ZM1024.8 82.4296L1013.28 76.391L1013.25 76.4583L1013.21 76.5259L1024.8 82.4296ZM1016.94 90.0462L1010.83 78.5691L1010.83 78.5691L1016.94 90.0462ZM1002.59 94.1457L1004.14 107.053L1004.23 107.042L1004.33 107.029L1002.59 94.1457ZM981.315 76.6254L968.326 76.0964L967.797 89.0856L980.786 89.6146L981.315 76.6254ZM995.911 76.0489L991.063 63.9866L990.945 64.034L990.829 64.0836L995.911 76.0489ZM998.99 64.3345L1011.98 64.8635L1012.51 51.8743L999.519 51.3453L998.99 64.3345ZM984.265 64.9057L979.417 52.8435L979.299 52.8908L979.182 52.9404L984.265 64.9057ZM967.591 94.1514L967.369 99.6069L993.347 100.665L993.569 95.2095L967.591 94.1514ZM978.398 112.987C980.185 113.26 981.975 113.483 983.769 113.656L986.267 87.7762C984.951 87.6491 983.635 87.4853 982.318 87.2845L978.398 112.987ZM983.769 113.656C985.564 113.829 987.361 113.952 989.16 114.026L990.218 88.0472C988.9 87.9935 987.583 87.9032 986.267 87.7762L983.769 113.656ZM989.16 114.026C1000.27 114.478 1011.45 113.141 1022.64 110.102L1015.83 85.0103C1007.02 87.401 998.503 88.3846 990.218 88.0472L989.16 114.026ZM1006.32 99.0742L1009.03 122.083L1034.85 119.047L1032.15 96.0375L1006.32 99.0742ZM1019.11 107.878C1008.32 110.289 997.87 111.258 987.728 110.845L986.67 136.823C999.217 137.334 1011.93 136.124 1024.78 133.252L1019.11 107.878ZM987.728 110.845C974.8 110.318 968.629 107.013 965.778 103.795L946.318 121.038C955.906 131.858 970.503 136.165 986.67 136.823L987.728 110.845ZM965.832 103.857C962.662 100.233 960.069 93.5575 960.565 81.3749L934.587 80.3168C933.947 96.0177 937.002 110.389 946.264 120.976L965.832 103.857ZM960.565 81.3749C961.062 69.1759 964.192 62.8291 967.578 59.5827L949.586 40.8141C939.433 50.5474 935.225 64.6323 934.587 80.3168L960.565 81.3749ZM967.576 59.5849C970.811 56.4852 977.279 53.6921 990.035 54.2117L991.093 28.2332C974.926 27.5747 960.073 30.7657 949.588 40.8118L967.576 59.5849ZM990.035 54.2117C996.822 54.4881 1001.96 55.1491 1005.67 56.0356L1011.71 30.7482C1005.8 29.3346 998.853 28.5493 991.093 28.2332L990.035 54.2117ZM1005.89 56.0859C1009.4 56.8621 1011.22 57.879 1012.07 58.5657L1028.32 38.2629C1023.46 34.3799 1017.61 32.0486 1011.49 30.6979L1005.89 56.0859ZM1012.41 58.8277C1012.99 59.2568 1013.41 59.7612 1013.72 60.8521L1038.7 53.6407C1036.89 47.3589 1033.3 41.9752 1027.98 38.0009L1012.41 58.8277ZM1013.83 61.2124C1014.36 62.875 1014.81 65.7564 1014.62 70.3055L1040.6 71.3636C1040.86 65.0017 1040.37 58.8243 1038.59 53.2804L1013.83 61.2124ZM1014.62 70.3055C1014.5 73.3299 1013.9 75.2229 1013.28 76.391L1036.31 88.4682C1039.08 83.1821 1040.36 77.3451 1040.6 71.3636L1014.62 70.3055ZM1013.21 76.5259C1013.01 76.917 1012.52 77.6727 1010.83 78.5691L1023.04 101.523C1028.63 98.5524 1033.37 94.2303 1036.38 88.3334L1013.21 76.5259ZM1010.83 78.5691C1009.03 79.5299 1005.89 80.5837 1000.85 81.2622L1004.33 107.029C1011.15 106.109 1017.58 104.43 1023.04 101.523L1010.83 78.5691ZM1001.04 81.2387C996.039 81.8398 989.449 82.0309 981.109 81.6912L980.051 107.67C989.203 108.042 997.287 107.877 1004.14 107.053L1001.04 81.2387ZM968.585 69.7316L968.326 76.0964L994.305 77.1544L994.564 70.7897L968.585 69.7316ZM980.786 89.6146L987.151 89.8739L988.209 63.8954L981.845 63.6362L980.786 89.6146ZM987.151 89.8739C991.231 90.04 996.478 89.9322 1000.99 88.0142L990.829 64.0836C991.282 63.8912 991.572 63.825 991.61 63.8166C991.656 63.8062 991.56 63.8304 991.282 63.8586C990.704 63.9173 989.714 63.9567 988.209 63.8954L987.151 89.8739ZM1000.76 88.1112C1009.5 84.6 1011.52 76.2656 1011.72 71.2283L985.742 70.1702C985.732 70.4209 985.711 69.498 986.439 68.1177C987.311 66.463 988.905 64.8541 991.063 63.9866L1000.76 88.1112ZM1011.72 71.2283L1011.98 64.8635L986.001 63.8055L985.742 70.1702L1011.72 71.2283ZM999.519 51.3453L993.155 51.086L992.097 77.0645L998.461 77.3237L999.519 51.3453ZM993.155 51.086C988.988 50.9163 983.869 51.0542 979.417 52.8435L989.113 76.968C988.922 77.0447 988.774 77.0927 988.681 77.1204C988.588 77.1482 988.535 77.1596 988.531 77.1605C988.531 77.1606 988.664 77.1325 988.963 77.1028C989.582 77.0413 990.596 77.0034 992.097 77.0645L993.155 51.086ZM979.182 52.9404C970.548 56.608 968.778 65.0158 968.585 69.7316L994.564 70.7897C994.577 70.4692 994.61 71.3033 993.951 72.6145C993.159 74.1902 991.624 75.9039 989.347 76.8711L979.182 52.9404Z" fill="white" mask="url(#path-21-outside-11_81_38)"/>
<mask id="path-23-outside-12_81_38" maskUnits="userSpaceOnUse" x="1024.87" y="5.14956" width="117.912" height="141.852" fill="black">
<rect fill="white" x="1024.87" y="5.14956" width="117.912" height="141.852"/>
<path d="M1127.76 26.5436L1119.84 129.981L1104.28 128.79L1098.04 121.793C1093.18 127.332 1084.84 129.649 1073 128.742C1066.78 128.266 1061.63 126.743 1057.57 124.172C1053.51 121.601 1050.28 118.355 1047.89 114.434C1045.58 110.434 1044.02 105.881 1043.19 100.776C1042.45 95.6783 1042.29 90.4073 1042.71 84.9632C1043.11 79.7784 1044 74.8925 1045.4 70.3055C1046.8 65.6321 1048.84 61.6165 1051.53 58.2587C1054.22 54.901 1057.64 52.3373 1061.77 50.5676C1065.91 48.7115 1070.92 48.0083 1076.8 48.4581L1094.68 49.8273L1096.47 26.4956L1127.76 26.5436ZM1077.06 75.5979L1074.73 106.059L1079.53 106.426C1083.07 106.697 1085.69 106.593 1087.38 106.114C1089.16 105.555 1090.27 104.075 1090.71 101.676L1093.13 70.1778L1088.33 69.8107C1084.53 69.5196 1081.73 69.6968 1079.94 70.3423C1078.24 70.9943 1077.28 72.7462 1077.06 75.5979Z"/>
</mask>
<path d="M1127.76 26.5436L1119.84 129.981L1104.28 128.79L1098.04 121.793C1093.18 127.332 1084.84 129.649 1073 128.742C1066.78 128.266 1061.63 126.743 1057.57 124.172C1053.51 121.601 1050.28 118.355 1047.89 114.434C1045.58 110.434 1044.02 105.881 1043.19 100.776C1042.45 95.6783 1042.29 90.4073 1042.71 84.9632C1043.11 79.7784 1044 74.8925 1045.4 70.3055C1046.8 65.6321 1048.84 61.6165 1051.53 58.2587C1054.22 54.901 1057.64 52.3373 1061.77 50.5676C1065.91 48.7115 1070.92 48.0083 1076.8 48.4581L1094.68 49.8273L1096.47 26.4956L1127.76 26.5436ZM1077.06 75.5979L1074.73 106.059L1079.53 106.426C1083.07 106.697 1085.69 106.593 1087.38 106.114C1089.16 105.555 1090.27 104.075 1090.71 101.676L1093.13 70.1778L1088.33 69.8107C1084.53 69.5196 1081.73 69.6968 1079.94 70.3423C1078.24 70.9943 1077.28 72.7462 1077.06 75.5979Z" fill="#0D1E4C"/>
<path d="M1127.76 26.5436L1140.72 27.5357L1141.79 13.5651L1127.78 13.5436L1127.76 26.5436ZM1119.84 129.981L1118.85 142.943L1131.81 143.935L1132.8 130.973L1119.84 129.981ZM1104.28 128.79L1094.59 137.446L1098.07 141.353L1103.29 141.752L1104.28 128.79ZM1098.04 121.793L1107.74 113.138L1097.95 102.173L1088.27 113.222L1098.04 121.793ZM1057.57 124.172L1050.62 135.157L1057.57 124.172ZM1047.89 114.434L1036.62 120.916L1036.7 121.064L1036.79 121.21L1047.89 114.434ZM1043.19 100.776L1030.33 102.643L1030.34 102.748L1030.36 102.853L1043.19 100.776ZM1045.4 70.3055L1057.83 74.0859L1057.84 74.0619L1057.85 74.0379L1045.4 70.3055ZM1051.53 58.2587L1041.39 50.1293L1041.39 50.1293L1051.53 58.2587ZM1061.77 50.5676L1066.89 62.5185L1066.99 62.4752L1067.09 62.4302L1061.77 50.5676ZM1094.68 49.8273L1093.69 62.7894L1106.65 63.7815L1107.65 50.8195L1094.68 49.8273ZM1096.47 26.4956L1096.49 13.4956L1084.43 13.4771L1083.51 25.5034L1096.47 26.4956ZM1074.73 106.059L1061.77 105.067L1060.78 118.029L1073.74 119.021L1074.73 106.059ZM1087.38 106.114L1090.93 118.62L1091.1 118.571L1091.27 118.517L1087.38 106.114ZM1090.71 101.676L1103.5 104.043L1103.62 103.36L1103.68 102.668L1090.71 101.676ZM1093.13 70.1778L1106.09 71.1699L1107.08 58.2078L1094.12 57.2157L1093.13 70.1778ZM1079.94 70.3423L1075.53 58.1147L1075.41 58.1578L1075.29 58.2032L1079.94 70.3423ZM1114.79 25.5514L1106.88 128.989L1132.8 130.973L1140.72 27.5357L1114.79 25.5514ZM1120.83 117.019L1105.28 115.828L1103.29 141.752L1118.85 142.943L1120.83 117.019ZM1113.98 120.135L1107.74 113.138L1088.34 130.449L1094.59 137.446L1113.98 120.135ZM1088.27 113.222C1087.42 114.188 1084.26 116.566 1073.99 115.78L1072 141.704C1085.41 142.731 1098.95 140.477 1107.81 130.364L1088.27 113.222ZM1073.99 115.78C1069.27 115.419 1066.33 114.333 1064.52 113.187L1050.62 135.157C1056.93 139.152 1064.28 141.113 1072 141.704L1073.99 115.78ZM1064.52 113.187C1062.07 111.632 1060.29 109.798 1058.98 107.659L1036.79 121.21C1040.27 126.912 1044.95 131.57 1050.62 135.157L1064.52 113.187ZM1059.15 107.952C1057.72 105.467 1056.63 102.439 1056.03 98.6993L1030.36 102.853C1031.41 109.323 1033.44 115.4 1036.62 120.916L1059.15 107.952ZM1056.06 98.9095C1055.47 94.8128 1055.32 90.5026 1055.67 85.9554L1029.75 83.971C1029.26 90.312 1029.44 96.5438 1030.33 102.643L1056.06 98.9095ZM1055.67 85.9554C1056 81.6372 1056.74 77.6925 1057.83 74.0859L1032.96 66.5251C1031.27 72.0924 1030.21 77.9195 1029.75 83.971L1055.67 85.9554ZM1057.85 74.0379C1058.83 70.752 1060.16 68.2793 1061.68 66.3882L1041.39 50.1293C1037.52 54.9537 1034.76 60.5122 1032.94 66.573L1057.85 74.0379ZM1061.68 66.3882C1062.97 64.7743 1064.63 63.4863 1066.89 62.5185L1056.65 38.6167C1050.65 41.1883 1045.48 45.0277 1041.39 50.1293L1061.68 66.3882ZM1067.09 62.4302C1068.75 61.687 1071.46 61.0879 1075.8 61.4202L1077.79 35.496C1070.38 34.9288 1063.08 35.736 1056.45 38.705L1067.09 62.4302ZM1075.8 61.4202L1093.69 62.7894L1095.68 36.8652L1077.79 35.496L1075.8 61.4202ZM1107.65 50.8195L1109.43 27.4877L1083.51 25.5034L1081.72 48.8351L1107.65 50.8195ZM1096.45 39.4955L1127.74 39.5435L1127.78 13.5436L1096.49 13.4956L1096.45 39.4955ZM1064.1 74.6057L1061.77 105.067L1087.7 107.051L1090.03 76.59L1064.1 74.6057ZM1073.74 119.021L1078.54 119.388L1080.52 93.4638L1075.73 93.0967L1073.74 119.021ZM1078.54 119.388C1082.37 119.681 1086.91 119.759 1090.93 118.62L1083.83 93.6079C1084.33 93.4661 1084.36 93.5324 1083.63 93.5615C1082.97 93.5879 1081.96 93.5735 1080.52 93.4638L1078.54 119.388ZM1091.27 118.517C1099.08 116.065 1102.49 109.481 1103.5 104.043L1077.93 99.3082C1077.96 99.1354 1078.18 98.0645 1079.16 96.7703C1080.25 95.3196 1081.81 94.2368 1083.48 93.7103L1091.27 118.517ZM1103.68 102.668L1106.09 71.1699L1080.16 69.1856L1077.75 100.683L1103.68 102.668ZM1094.12 57.2157L1089.32 56.8486L1087.34 82.7728L1092.13 83.1399L1094.12 57.2157ZM1089.32 56.8486C1085.16 56.5303 1080.04 56.4855 1075.53 58.1147L1084.36 82.5698C1084.17 82.6397 1084.02 82.6824 1083.92 82.7068C1083.83 82.7312 1083.78 82.7407 1083.77 82.7415C1083.77 82.7416 1083.9 82.7183 1084.2 82.6993C1084.83 82.6599 1085.84 82.6582 1087.34 82.7728L1089.32 56.8486ZM1075.29 58.2032C1066.53 61.5605 1064.46 69.8997 1064.1 74.6057L1090.03 76.59C1090.05 76.2702 1090.05 77.1049 1089.35 78.3917C1088.5 79.9382 1086.91 81.596 1084.6 82.4813L1075.29 58.2032Z" fill="white" mask="url(#path-23-outside-12_81_38)"/>
<mask id="path-25-outside-13_81_38" maskUnits="userSpaceOnUse" x="1121.86" y="36.631" width="121.685" height="121.685" fill="black">
<rect fill="white" x="1121.86" y="36.631" width="121.685" height="121.685"/>
<path d="M1141.65 92.8215C1143.22 78.9569 1147.61 69.0319 1154.83 63.0467C1162.06 56.9754 1172.91 54.7594 1187.38 56.3986C1201.85 58.0379 1211.92 62.625 1217.61 70.1599C1223.31 77.6088 1225.37 88.2655 1223.8 102.13C1222.23 115.995 1217.83 125.963 1210.6 132.034C1203.38 138.019 1192.54 140.192 1178.07 138.553C1163.95 136.953 1153.95 132.462 1148.07 125.079C1142.19 117.697 1140.05 106.944 1141.65 92.8215ZM1176.32 84.7137L1172.88 115.069L1177.66 115.611C1181.45 116.04 1184.21 115.96 1185.93 115.37C1187.74 114.791 1188.81 113.08 1189.13 110.238L1192.57 79.8822L1187.79 79.3406C1184 78.9113 1181.2 78.9866 1179.39 79.5665C1177.67 80.1561 1176.64 81.8718 1176.32 84.7137Z"/>
</mask>
<path d="M1141.65 92.8215C1143.22 78.9569 1147.61 69.0319 1154.83 63.0467C1162.06 56.9754 1172.91 54.7594 1187.38 56.3986C1201.85 58.0379 1211.92 62.625 1217.61 70.1599C1223.31 77.6088 1225.37 88.2655 1223.8 102.13C1222.23 115.995 1217.83 125.963 1210.6 132.034C1203.38 138.019 1192.54 140.192 1178.07 138.553C1163.95 136.953 1153.95 132.462 1148.07 125.079C1142.19 117.697 1140.05 106.944 1141.65 92.8215ZM1176.32 84.7137L1172.88 115.069L1177.66 115.611C1181.45 116.04 1184.21 115.96 1185.93 115.37C1187.74 114.791 1188.81 113.08 1189.13 110.238L1192.57 79.8822L1187.79 79.3406C1184 78.9113 1181.2 78.9866 1179.39 79.5665C1177.67 80.1561 1176.64 81.8718 1176.32 84.7137Z" fill="#0D1E4C"/>
<path d="M1154.83 63.0467L1163.13 73.0549L1163.16 73.0285L1163.19 73.0019L1154.83 63.0467ZM1217.61 70.1599L1207.24 77.9922L1207.26 78.0252L1207.29 78.058L1217.61 70.1599ZM1210.6 132.034L1218.9 142.042L1218.93 142.016L1218.96 141.989L1210.6 132.034ZM1148.07 125.079L1137.9 133.178L1148.07 125.079ZM1172.88 115.069L1159.96 113.606L1158.5 126.523L1171.42 127.987L1172.88 115.069ZM1185.93 115.37L1181.96 102.99L1181.84 103.029L1181.72 103.07L1185.93 115.37ZM1192.57 79.8822L1205.48 81.3458L1206.95 68.4284L1194.03 66.9648L1192.57 79.8822ZM1179.39 79.5665L1175.42 67.1862L1175.3 67.225L1175.18 67.266L1179.39 79.5665ZM1154.56 94.2851C1155.94 82.1536 1159.52 76.0488 1163.13 73.0549L1146.54 53.0386C1135.71 62.0151 1130.5 75.7602 1128.73 91.3579L1154.56 94.2851ZM1163.19 73.0019C1166.52 70.2122 1173.1 67.8637 1185.91 69.316L1188.84 43.4813C1172.72 41.6551 1157.61 43.7386 1146.47 53.0916L1163.19 73.0019ZM1185.91 69.316C1198.73 70.7682 1204.62 74.53 1207.24 77.9922L1227.99 62.3277C1219.22 50.72 1204.96 45.3075 1188.84 43.4813L1185.91 69.316ZM1207.29 78.058C1210.14 81.7841 1212.26 88.535 1210.88 100.666L1236.72 103.594C1238.49 87.996 1236.48 73.4334 1227.94 62.2618L1207.29 78.058ZM1210.88 100.666C1209.51 112.782 1205.93 118.982 1202.24 122.079L1218.96 141.989C1229.73 132.943 1234.95 119.208 1236.72 103.594L1210.88 100.666ZM1202.3 122.026C1198.99 124.77 1192.39 127.092 1179.53 125.636L1176.61 151.47C1192.68 153.292 1207.77 151.268 1218.9 142.042L1202.3 122.026ZM1179.53 125.636C1167.13 124.23 1161.09 120.566 1158.23 116.98L1137.9 133.178C1146.8 144.357 1160.77 149.676 1176.61 151.47L1179.53 125.636ZM1158.23 116.98C1155.38 113.395 1153.16 106.693 1154.56 94.2851L1128.73 91.3579C1126.93 107.196 1128.99 121.999 1137.9 133.178L1158.23 116.98ZM1163.4 83.25L1159.96 113.606L1185.8 116.533L1189.24 86.1773L1163.4 83.25ZM1171.42 127.987L1176.2 128.528L1179.12 102.694L1174.34 102.152L1171.42 127.987ZM1176.2 128.528C1180.25 128.988 1185.49 129.259 1190.14 127.671L1181.72 103.07C1182.19 102.911 1182.48 102.866 1182.52 102.86C1182.57 102.853 1182.47 102.87 1182.19 102.878C1181.61 102.895 1180.62 102.863 1179.12 102.694L1176.2 128.528ZM1189.9 127.751C1198.86 124.878 1201.48 116.711 1202.05 111.702L1176.21 108.774C1176.18 109.024 1176.23 108.102 1177.05 106.777C1178.04 105.19 1179.75 103.7 1181.96 102.99L1189.9 127.751ZM1202.05 111.702L1205.48 81.3458L1179.65 78.4185L1176.21 108.774L1202.05 111.702ZM1194.03 66.9648L1189.25 66.4233L1186.32 92.258L1191.1 92.7995L1194.03 66.9648ZM1189.25 66.4233C1185.11 65.9538 1179.99 65.7224 1175.42 67.1862L1183.36 91.9467C1183.16 92.0095 1183.01 92.0467 1182.91 92.0676C1182.82 92.0886 1182.77 92.0962 1182.76 92.0968C1182.76 92.0969 1182.9 92.0785 1183.2 92.0704C1183.82 92.0536 1184.83 92.0889 1186.32 92.258L1189.25 66.4233ZM1175.18 67.266C1166.31 70.302 1163.93 78.5603 1163.4 83.25L1189.24 86.1773C1189.27 85.8585 1189.25 86.6928 1188.49 87.9531C1187.59 89.4678 1185.94 91.0663 1183.6 91.8669L1175.18 67.266Z" fill="white" mask="url(#path-25-outside-13_81_38)"/>
<mask id="path-27-outside-14_81_38" maskUnits="userSpaceOnUse" x="1221.88" y="47.9321" width="160.924" height="128.496" fill="black">
<rect fill="white" x="1221.88" y="47.9321" width="160.924" height="128.496"/>
<path d="M1280.68 149.758L1289.21 95.8286L1287.03 95.4834C1285.66 95.2667 1284.33 95.0996 1283.03 94.9821C1281.82 94.8782 1280.7 95.0085 1279.68 95.3732C1278.67 95.6523 1277.83 96.222 1277.17 97.0824C1276.51 97.9428 1276.04 99.229 1275.77 100.941L1268.35 147.808L1237.54 142.934L1249.72 65.8917L1265.13 68.3289L1270.95 76.4879C1278.19 71.2274 1286.9 69.4027 1297.09 71.014C1307.19 72.6118 1314.22 75.8735 1318.18 80.7992C1325.26 77.6202 1332.87 76.6739 1341 77.9602C1349.3 79.2736 1355.47 81.8728 1359.51 85.7577C1363.64 89.5706 1365.27 94.2591 1364.39 99.8233L1354.64 161.457L1323.83 156.582L1332.36 102.653L1330.17 102.308C1328.97 102.118 1327.77 101.971 1326.56 101.867C1325.35 101.763 1324.23 101.851 1323.23 102.13C1322.31 102.337 1321.45 102.814 1320.63 103.562C1319.89 104.323 1319.37 105.425 1319.05 106.867L1311.5 154.633L1280.68 149.758Z"/>
</mask>
<path d="M1280.68 149.758L1289.21 95.8286L1287.03 95.4834C1285.66 95.2667 1284.33 95.0996 1283.03 94.9821C1281.82 94.8782 1280.7 95.0085 1279.68 95.3732C1278.67 95.6523 1277.83 96.222 1277.17 97.0824C1276.51 97.9428 1276.04 99.229 1275.77 100.941L1268.35 147.808L1237.54 142.934L1249.72 65.8917L1265.13 68.3289L1270.95 76.4879C1278.19 71.2274 1286.9 69.4027 1297.09 71.014C1307.19 72.6118 1314.22 75.8735 1318.18 80.7992C1325.26 77.6202 1332.87 76.6739 1341 77.9602C1349.3 79.2736 1355.47 81.8728 1359.51 85.7577C1363.64 89.5706 1365.27 94.2591 1364.39 99.8233L1354.64 161.457L1323.83 156.582L1332.36 102.653L1330.17 102.308C1328.97 102.118 1327.77 101.971 1326.56 101.867C1325.35 101.763 1324.23 101.851 1323.23 102.13C1322.31 102.337 1321.45 102.814 1320.63 103.562C1319.89 104.323 1319.37 105.425 1319.05 106.867L1311.5 154.633L1280.68 149.758Z" fill="#0D1E4C"/>
<path d="M1280.68 149.758L1267.84 147.727L1265.81 160.567L1278.65 162.599L1280.68 149.758ZM1289.21 95.8286L1302.05 97.8597L1304.08 85.0193L1291.24 82.9883L1289.21 95.8286ZM1283.03 94.9821L1284.2 82.0351L1284.17 82.0323L1284.14 82.0297L1283.03 94.9821ZM1279.68 95.3732L1283.14 107.903L1283.6 107.777L1284.04 107.618L1279.68 95.3732ZM1277.17 97.0824L1287.47 105.014L1287.47 105.014L1277.17 97.0824ZM1268.35 147.808L1266.32 160.649L1279.16 162.68L1281.2 149.839L1268.35 147.808ZM1237.54 142.934L1224.7 140.903L1222.67 153.743L1235.51 155.774L1237.54 142.934ZM1249.72 65.8917L1251.76 53.0513L1238.91 51.0203L1236.88 63.8606L1249.72 65.8917ZM1265.13 68.3289L1275.72 60.7824L1272.55 56.3408L1267.16 55.4886L1265.13 68.3289ZM1270.95 76.4879L1260.36 84.0344L1267.98 94.7173L1278.59 87.0036L1270.95 76.4879ZM1318.18 80.7992L1308.04 88.9434L1314.34 96.7719L1323.5 92.6596L1318.18 80.7992ZM1359.51 85.7577L1350.49 95.1237L1350.59 95.2204L1350.7 95.3149L1359.51 85.7577ZM1354.64 161.457L1352.61 174.297L1365.45 176.328L1367.48 163.488L1354.64 161.457ZM1323.83 156.582L1310.98 154.551L1308.95 167.392L1321.79 169.423L1323.83 156.582ZM1332.36 102.653L1345.2 104.684L1347.23 91.8437L1334.39 89.8126L1332.36 102.653ZM1326.56 101.867L1327.67 88.915L1327.67 88.915L1326.56 101.867ZM1323.23 102.13L1326.11 114.806L1326.4 114.74L1326.69 114.66L1323.23 102.13ZM1320.63 103.562L1311.87 93.9548L1311.56 94.2352L1311.28 94.5347L1320.63 103.562ZM1319.05 106.867L1306.36 104.085L1306.27 104.458L1306.21 104.835L1319.05 106.867ZM1311.5 154.633L1309.47 167.473L1322.31 169.504L1324.34 156.664L1311.5 154.633ZM1293.52 151.789L1302.05 97.8597L1276.37 93.7976L1267.84 147.727L1293.52 151.789ZM1291.24 82.9883L1289.06 82.643L1285 108.324L1287.18 108.669L1291.24 82.9883ZM1289.06 82.643C1287.42 82.3841 1285.8 82.1802 1284.2 82.0351L1281.86 107.929C1282.85 108.019 1283.9 108.149 1285 108.324L1289.06 82.643ZM1284.14 82.0297C1281.3 81.7858 1278.29 82.0669 1275.31 83.1281L1284.04 107.618C1283.11 107.95 1282.34 107.971 1281.92 107.935L1284.14 82.0297ZM1276.21 82.8433C1272.38 83.9028 1269.18 86.1457 1266.87 89.1507L1287.47 105.014C1287.02 105.592 1286.41 106.209 1285.61 106.752C1284.81 107.299 1283.96 107.676 1283.14 107.903L1276.21 82.8433ZM1266.87 89.1507C1264.31 92.4679 1263.36 96.2008 1262.93 98.91L1288.61 102.972C1288.65 102.729 1288.65 102.816 1288.54 103.126C1288.43 103.429 1288.13 104.15 1287.47 105.014L1266.87 89.1507ZM1262.93 98.91L1255.51 145.777L1281.2 149.839L1288.61 102.972L1262.93 98.91ZM1270.39 134.968L1239.57 130.093L1235.51 155.774L1266.32 160.649L1270.39 134.968ZM1250.38 144.965L1262.56 67.9227L1236.88 63.8606L1224.7 140.903L1250.38 144.965ZM1247.69 78.732L1263.1 81.1693L1267.16 55.4886L1251.76 53.0513L1247.69 78.732ZM1254.55 75.8755L1260.36 84.0344L1281.53 68.9413L1275.72 60.7824L1254.55 75.8755ZM1278.59 87.0036C1282.61 84.0826 1287.71 82.6926 1295.05 83.8544L1299.12 58.1737C1286.09 56.1128 1273.76 58.3721 1263.31 65.9722L1278.59 87.0036ZM1295.05 83.8544C1303.83 85.2422 1307.04 87.6951 1308.04 88.9434L1328.31 72.655C1321.39 64.052 1310.55 59.9814 1299.12 58.1737L1295.05 83.8544ZM1323.5 92.6596C1328.14 90.5783 1333.17 89.8838 1338.97 90.8006L1343.03 65.1199C1332.56 63.464 1322.38 64.6622 1312.85 68.9388L1323.5 92.6596ZM1338.97 90.8006C1345.88 91.8944 1349.12 93.7974 1350.49 95.1237L1368.52 76.3918C1361.83 69.9483 1352.72 66.6529 1343.03 65.1199L1338.97 90.8006ZM1350.7 95.3149C1351.4 95.9653 1351.53 96.3326 1351.55 96.3968C1351.57 96.4619 1351.7 96.8337 1351.55 97.7922L1377.23 101.854C1378.79 92.005 1375.66 82.9654 1368.32 76.2005L1350.7 95.3149ZM1351.55 97.7922L1341.8 159.426L1367.48 163.488L1377.23 101.854L1351.55 97.7922ZM1356.67 148.617L1325.86 143.742L1321.79 169.423L1352.61 174.297L1356.67 148.617ZM1336.67 158.614L1345.2 104.684L1319.52 100.622L1310.98 154.551L1336.67 158.614ZM1334.39 89.8126L1332.2 89.4673L1328.14 115.148L1330.32 115.493L1334.39 89.8126ZM1332.2 89.4673C1330.7 89.2294 1329.19 89.0453 1327.67 88.915L1325.45 114.82C1326.35 114.897 1327.25 115.007 1328.14 115.148L1332.2 89.4673ZM1327.67 88.915C1325.16 88.7 1322.48 88.8491 1319.76 89.6002L1326.69 114.66C1325.99 114.853 1325.53 114.827 1325.45 114.82L1327.67 88.915ZM1320.34 89.4538C1316.86 90.2456 1314.04 91.9804 1311.87 93.9548L1329.39 113.169C1328.86 113.648 1327.77 114.429 1326.11 114.806L1320.34 89.4538ZM1311.28 94.5347C1308.33 97.5832 1306.99 101.181 1306.36 104.085L1331.75 109.648C1331.75 109.669 1331.46 111.063 1329.98 112.59L1311.28 94.5347ZM1306.21 104.835L1298.66 152.602L1324.34 156.664L1331.89 108.898L1306.21 104.835ZM1313.53 141.792L1282.71 136.918L1278.65 162.599L1309.47 167.473L1313.53 141.792Z" fill="white" mask="url(#path-27-outside-14_81_38)"/>
<mask id="path-29-outside-15_81_38" maskUnits="userSpaceOnUse" x="1397.37" y="61.5226" width="170.837" height="153.51" fill="black">
<rect fill="white" x="1397.37" y="61.5226" width="170.837" height="153.51"/>
<path d="M1457.89 134.339L1445.62 180.077L1413.8 172.841L1441.25 79.0948L1480.93 88.1177L1481.71 139.222L1482.85 139.482L1505.65 93.739L1545.45 102.791L1529.54 199.161L1497.72 191.925L1506.44 145.379L1505.42 145.149L1483.27 188.639L1460.07 183.363L1458.78 134.54L1457.89 134.339Z"/>
</mask>
<path d="M1457.89 134.339L1445.62 180.077L1413.8 172.841L1441.25 79.0948L1480.93 88.1177L1481.71 139.222L1482.85 139.482L1505.65 93.739L1545.45 102.791L1529.54 199.161L1497.72 191.925L1506.44 145.379L1505.42 145.149L1483.27 188.639L1460.07 183.363L1458.78 134.54L1457.89 134.339Z" fill="#0D1E4C"/>
<path d="M1457.89 134.339L1460.77 121.662L1448.57 118.888L1445.33 130.971L1457.89 134.339ZM1445.62 180.077L1442.74 192.753L1454.94 195.527L1458.18 183.445L1445.62 180.077ZM1413.8 172.841L1401.33 169.188L1397.44 182.453L1410.92 185.518L1413.8 172.841ZM1441.25 79.0948L1444.14 66.4184L1432.21 63.7071L1428.78 75.4415L1441.25 79.0948ZM1480.93 88.1177L1493.93 87.9201L1493.77 77.7064L1483.81 75.4413L1480.93 88.1177ZM1481.71 139.222L1468.71 139.42L1468.86 149.634L1478.83 151.899L1481.71 139.222ZM1482.85 139.482L1479.97 152.158L1489.93 154.423L1494.48 145.281L1482.85 139.482ZM1505.65 93.739L1508.53 81.0626L1498.57 78.7975L1494.02 87.9395L1505.65 93.739ZM1545.45 102.791L1558.28 104.909L1560.27 92.8293L1548.34 90.1144L1545.45 102.791ZM1529.54 199.161L1526.65 211.837L1540.11 214.898L1542.36 201.279L1529.54 199.161ZM1497.72 191.925L1484.94 189.532L1482.64 201.827L1494.84 204.601L1497.72 191.925ZM1506.44 145.379L1519.22 147.773L1521.52 135.477L1509.32 132.703L1506.44 145.379ZM1505.42 145.149L1508.31 132.473L1498.44 130.228L1493.84 139.248L1505.42 145.149ZM1483.27 188.639L1480.39 201.315L1490.26 203.56L1494.85 194.54L1483.27 188.639ZM1460.07 183.363L1447.08 183.708L1447.34 193.801L1457.19 196.04L1460.07 183.363ZM1458.78 134.54L1471.77 134.196L1471.5 124.103L1461.66 121.864L1458.78 134.54ZM1445.33 130.971L1433.06 176.709L1458.18 183.445L1470.44 137.706L1445.33 130.971ZM1448.5 167.401L1416.69 160.165L1410.92 185.518L1442.74 192.753L1448.5 167.401ZM1426.28 176.495L1453.73 82.7481L1428.78 75.4415L1401.33 169.188L1426.28 176.495ZM1438.37 91.7712L1478.05 100.794L1483.81 75.4413L1444.14 66.4184L1438.37 91.7712ZM1467.93 88.3153L1468.71 139.42L1494.71 139.025L1493.93 87.9201L1467.93 88.3153ZM1478.83 151.899L1479.97 152.158L1485.73 126.805L1484.59 126.546L1478.83 151.899ZM1494.48 145.281L1517.28 99.5384L1494.02 87.9395L1471.21 133.682L1494.48 145.281ZM1502.77 106.415L1542.57 115.467L1548.34 90.1144L1508.53 81.0626L1502.77 106.415ZM1532.63 100.672L1516.71 197.042L1542.36 201.279L1558.28 104.909L1532.63 100.672ZM1532.42 186.484L1500.6 179.249L1494.84 204.601L1526.65 211.837L1532.42 186.484ZM1510.5 194.318L1519.22 147.773L1493.66 142.986L1484.94 189.532L1510.5 194.318ZM1509.32 132.703L1508.31 132.473L1502.54 157.825L1503.56 158.056L1509.32 132.703ZM1493.84 139.248L1471.69 182.738L1494.85 194.54L1517.01 151.05L1493.84 139.248ZM1486.15 175.962L1462.95 170.687L1457.19 196.04L1480.39 201.315L1486.15 175.962ZM1473.07 183.018L1471.77 134.196L1445.78 134.885L1447.08 183.708L1473.07 183.018ZM1461.66 121.864L1460.77 121.662L1455.01 147.015L1455.89 147.217L1461.66 121.864Z" fill="white" mask="url(#path-29-outside-15_81_38)"/>
<mask id="path-31-outside-16_81_38" maskUnits="userSpaceOnUse" x="1523.59" y="108.099" width="132.123" height="134.23" fill="black">
<rect fill="white" x="1523.59" y="108.099" width="132.123" height="134.23"/>
<path d="M1602.65 135.907C1626.73 142.459 1636.52 154.014 1632.02 170.572L1617.69 223.258L1602.63 219.162L1596.42 208.312C1594.46 209.575 1592.26 210.591 1589.8 211.36C1587.43 212.153 1584.95 212.69 1582.36 212.973C1579.77 213.256 1577.19 213.318 1574.63 213.16C1572.07 213.002 1569.66 212.616 1567.4 212.002C1563.13 210.842 1559.41 209.335 1556.23 207.483C1553.11 205.736 1550.65 203.583 1548.83 201.022C1547.01 198.462 1545.91 195.422 1545.52 191.903C1545.13 188.384 1545.56 184.325 1546.81 179.725C1551.72 161.662 1567.81 156.338 1595.07 163.755L1601.09 165.393L1602.56 159.999C1601 159.483 1599.55 159.001 1598.24 158.554C1597.01 158.129 1595.85 157.768 1594.76 157.473C1583.47 154.401 1573.35 153.131 1564.41 153.661L1566.64 131.095C1577.52 130.731 1589.52 132.335 1602.65 135.907ZM1578.05 184.722L1576.38 190.869L1582.65 192.575C1587 193.758 1589.98 194.03 1591.59 193.39C1593.06 192.622 1594 191.485 1594.41 189.979L1596.35 182.829L1590.2 181.157C1586.61 180.179 1583.87 179.838 1581.99 180.136C1580.12 180.434 1578.8 181.962 1578.05 184.722Z"/>
</mask>
<path d="M1602.65 135.907C1626.73 142.459 1636.52 154.014 1632.02 170.572L1617.69 223.258L1602.63 219.162L1596.42 208.312C1594.46 209.575 1592.26 210.591 1589.8 211.36C1587.43 212.153 1584.95 212.69 1582.36 212.973C1579.77 213.256 1577.19 213.318 1574.63 213.16C1572.07 213.002 1569.66 212.616 1567.4 212.002C1563.13 210.842 1559.41 209.335 1556.23 207.483C1553.11 205.736 1550.65 203.583 1548.83 201.022C1547.01 198.462 1545.91 195.422 1545.52 191.903C1545.13 188.384 1545.56 184.325 1546.81 179.725C1551.72 161.662 1567.81 156.338 1595.07 163.755L1601.09 165.393L1602.56 159.999C1601 159.483 1599.55 159.001 1598.24 158.554C1597.01 158.129 1595.85 157.768 1594.76 157.473C1583.47 154.401 1573.35 153.131 1564.41 153.661L1566.64 131.095C1577.52 130.731 1589.52 132.335 1602.65 135.907ZM1578.05 184.722L1576.38 190.869L1582.65 192.575C1587 193.758 1589.98 194.03 1591.59 193.39C1593.06 192.622 1594 191.485 1594.41 189.979L1596.35 182.829L1590.2 181.157C1586.61 180.179 1583.87 179.838 1581.99 180.136C1580.12 180.434 1578.8 181.962 1578.05 184.722Z" fill="#0D1E4C"/>
<path d="M1617.69 223.258L1614.27 235.802L1626.82 239.214L1630.23 226.67L1617.69 223.258ZM1602.63 219.162L1591.35 225.619L1594.03 230.293L1599.22 231.707L1602.63 219.162ZM1596.42 208.312L1607.71 201.855L1600.9 189.962L1589.38 197.384L1596.42 208.312ZM1589.8 211.36L1585.91 198.955L1585.8 198.992L1585.68 199.03L1589.8 211.36ZM1574.63 213.16L1573.83 226.136L1574.63 213.16ZM1556.23 207.483L1562.78 196.251L1562.68 196.195L1562.59 196.141L1556.23 207.483ZM1548.83 201.022L1559.43 193.495L1559.43 193.495L1548.83 201.022ZM1545.52 191.903L1558.44 190.472L1545.52 191.903ZM1601.09 165.393L1597.68 177.937L1610.23 181.349L1613.64 168.805L1601.09 165.393ZM1602.56 159.999L1615.11 163.411L1618.34 151.51L1606.63 147.651L1602.56 159.999ZM1598.24 158.554L1594 170.843L1594.03 170.852L1594.05 170.86L1598.24 158.554ZM1564.41 153.661L1551.47 152.382L1549.97 167.539L1565.18 166.638L1564.41 153.661ZM1566.64 131.095L1566.2 118.103L1554.82 118.484L1553.7 129.816L1566.64 131.095ZM1576.38 190.869L1563.84 187.456L1560.42 200L1572.97 203.413L1576.38 190.869ZM1591.59 193.39L1596.39 205.473L1597.02 205.221L1597.63 204.904L1591.59 193.39ZM1596.35 182.829L1608.89 186.242L1612.31 173.697L1599.76 170.285L1596.35 182.829ZM1581.99 180.136L1579.96 167.296L1579.96 167.296L1581.99 180.136ZM1599.24 148.451C1610.23 151.442 1615.72 155.041 1618.14 157.891C1619.86 159.927 1620.78 162.372 1619.47 167.16L1644.56 173.985C1647.77 162.214 1646.04 150.602 1637.97 141.084C1630.6 132.378 1619.15 126.924 1606.06 123.363L1599.24 148.451ZM1619.47 167.16L1605.14 219.845L1630.23 226.67L1644.56 173.985L1619.47 167.16ZM1621.1 210.713L1606.05 206.618L1599.22 231.707L1614.27 235.802L1621.1 210.713ZM1613.92 212.705L1607.71 201.855L1585.14 214.769L1591.35 225.619L1613.92 212.705ZM1589.38 197.384C1588.5 197.954 1587.37 198.499 1585.91 198.955L1593.69 223.766C1597.14 222.683 1600.43 221.196 1603.47 219.24L1589.38 197.384ZM1585.68 199.03C1584.23 199.516 1582.66 199.863 1580.95 200.05L1583.77 225.896C1587.24 225.517 1590.63 224.789 1593.92 223.691L1585.68 199.03ZM1580.95 200.05C1579.08 200.254 1577.24 200.297 1575.43 200.185L1573.83 226.136C1577.14 226.34 1580.45 226.258 1583.77 225.896L1580.95 200.05ZM1575.43 200.185C1573.66 200.076 1572.14 199.819 1570.81 199.458L1563.99 224.546C1567.17 225.414 1570.47 225.928 1573.83 226.136L1575.43 200.185ZM1570.81 199.458C1567.43 198.538 1564.8 197.43 1562.78 196.251L1549.69 218.714C1554.02 221.241 1558.84 223.145 1563.99 224.546L1570.81 199.458ZM1562.59 196.141C1560.92 195.206 1559.99 194.282 1559.43 193.495L1538.23 208.55C1541.31 212.884 1545.31 216.267 1549.88 218.824L1562.59 196.141ZM1559.43 193.495C1559.04 192.956 1558.62 192.079 1558.44 190.472L1532.6 193.335C1533.2 198.765 1534.98 203.968 1538.23 208.55L1559.43 193.495ZM1558.44 190.472C1558.28 189.032 1558.39 186.674 1559.35 183.138L1534.26 176.313C1532.72 181.976 1531.97 187.736 1532.6 193.335L1558.44 190.472ZM1559.35 183.138C1560.81 177.793 1563.22 175.658 1566.64 174.527C1571.13 173.041 1579.02 172.859 1591.66 176.299L1598.49 151.211C1583.87 147.234 1570.08 146.005 1558.48 149.843C1545.81 154.035 1537.72 163.594 1534.26 176.313L1559.35 183.138ZM1591.66 176.299L1597.68 177.937L1604.51 152.849L1598.49 151.211L1591.66 176.299ZM1613.64 168.805L1615.11 163.411L1590.02 156.586L1588.55 161.98L1613.64 168.805ZM1606.63 147.651C1605.1 147.146 1603.7 146.678 1602.43 146.247L1594.05 170.86C1595.41 171.324 1596.9 171.819 1598.49 172.346L1606.63 147.651ZM1602.48 146.264C1601.02 145.759 1599.58 145.311 1598.17 144.928L1591.35 170.017C1592.12 170.226 1593 170.498 1594 170.843L1602.48 146.264ZM1598.17 144.928C1585.92 141.594 1574.35 140.049 1563.64 140.684L1565.18 166.638C1572.36 166.213 1581.03 167.209 1591.35 170.017L1598.17 144.928ZM1577.34 154.94L1579.58 132.375L1553.7 129.816L1551.47 152.382L1577.34 154.94ZM1567.07 144.088C1576.38 143.777 1587.06 145.139 1599.24 148.451L1606.06 123.363C1591.98 119.531 1578.66 117.686 1566.2 118.103L1567.07 144.088ZM1565.51 181.31L1563.84 187.456L1588.92 194.281L1590.6 188.135L1565.51 181.31ZM1572.97 203.413L1579.24 205.119L1586.06 180.031L1579.79 178.325L1572.97 203.413ZM1579.24 205.119C1581.82 205.82 1584.45 206.383 1586.97 206.612C1589.21 206.817 1592.77 206.908 1596.39 205.473L1586.8 181.307C1587.92 180.863 1588.77 180.766 1589.09 180.74C1589.43 180.713 1589.54 180.739 1589.33 180.72C1589.13 180.702 1588.76 180.654 1588.19 180.54C1587.62 180.428 1586.92 180.263 1586.06 180.031L1579.24 205.119ZM1597.63 204.904C1602.07 202.573 1605.53 198.619 1606.95 193.392L1581.86 186.567C1582.11 185.645 1582.59 184.625 1583.37 183.688C1584.13 182.766 1584.95 182.196 1585.56 181.876L1597.63 204.904ZM1606.95 193.392L1608.89 186.242L1583.81 179.417L1581.86 186.567L1606.95 193.392ZM1599.76 170.285L1593.62 168.613L1586.79 193.701L1592.94 195.373L1599.76 170.285ZM1593.62 168.613C1589.63 167.527 1584.67 166.549 1579.96 167.296L1584.03 192.976C1583.36 193.083 1583.2 192.988 1583.85 193.069C1584.44 193.142 1585.4 193.321 1586.79 193.701L1593.62 168.613ZM1579.96 167.296C1570.66 168.771 1566.83 176.445 1565.51 181.31L1590.6 188.135C1590.66 187.892 1590.48 188.797 1589.46 189.98C1588.24 191.398 1586.33 192.611 1584.03 192.976L1579.96 167.296Z" fill="white" mask="url(#path-31-outside-16_81_38)"/>
<mask id="path-33-outside-17_81_38" maskUnits="userSpaceOnUse" x="1611.34" y="134.825" width="142.901" height="160.014" fill="black">
<rect fill="white" x="1611.34" y="134.825" width="142.901" height="160.014"/>
<path d="M1628.75 253.266L1659.53 154.199L1674.43 158.829L1677.58 167.975C1683.97 162.883 1693.09 162.175 1704.92 165.853C1710.88 167.705 1715.55 170.337 1718.94 173.749C1722.33 177.161 1724.69 181.074 1726.05 185.487C1727.51 189.843 1728.03 194.588 1727.61 199.723C1727.28 204.883 1726.3 210.07 1724.68 215.284C1723.11 220.333 1721.14 224.938 1718.76 229.098C1716.37 233.259 1713.48 236.717 1710.09 239.473C1706.71 242.146 1702.82 243.884 1698.39 244.687C1693.97 245.49 1688.94 245.017 1683.31 243.269L1666.18 237.945L1659.24 260.29L1628.75 253.266ZM1681.54 188.535L1672.24 218.454L1676.83 219.882C1680.47 221.013 1683.2 221.451 1685 221.195C1686.89 220.964 1688.25 219.483 1689.1 216.752L1698.17 187.578L1693.58 186.151C1691.42 185.482 1689.66 185.025 1688.28 184.779C1686.91 184.533 1685.58 184.711 1684.31 185.313C1683.06 185.832 1682.13 186.906 1681.54 188.535Z"/>
</mask>
<path d="M1628.75 253.266L1659.53 154.199L1674.43 158.829L1677.58 167.975C1683.97 162.883 1693.09 162.175 1704.92 165.853C1710.88 167.705 1715.55 170.337 1718.94 173.749C1722.33 177.161 1724.69 181.074 1726.05 185.487C1727.51 189.843 1728.03 194.588 1727.61 199.723C1727.28 204.883 1726.3 210.07 1724.68 215.284C1723.11 220.333 1721.14 224.938 1718.76 229.098C1716.37 233.259 1713.48 236.717 1710.09 239.473C1706.71 242.146 1702.82 243.884 1698.39 244.687C1693.97 245.49 1688.94 245.017 1683.31 243.269L1666.18 237.945L1659.24 260.29L1628.75 253.266ZM1681.54 188.535L1672.24 218.454L1676.83 219.882C1680.47 221.013 1683.2 221.451 1685 221.195C1686.89 220.964 1688.25 219.483 1689.1 216.752L1698.17 187.578L1693.58 186.151C1691.42 185.482 1689.66 185.025 1688.28 184.779C1686.91 184.533 1685.58 184.711 1684.31 185.313C1683.06 185.832 1682.13 186.906 1681.54 188.535Z" fill="#0D1E4C"/>
<path d="M1628.75 253.266L1616.33 249.408L1612.18 262.788L1625.83 265.934L1628.75 253.266ZM1659.53 154.199L1663.39 141.785L1650.98 137.927L1647.12 150.342L1659.53 154.199ZM1674.43 158.829L1686.72 154.599L1684.58 148.37L1678.29 146.415L1674.43 158.829ZM1677.58 167.975L1665.29 172.205L1671.28 189.615L1685.68 178.143L1677.58 167.975ZM1718.94 173.749L1709.71 182.907L1709.71 182.907L1718.94 173.749ZM1726.05 185.487L1713.62 189.293L1713.67 189.456L1713.72 189.617L1726.05 185.487ZM1727.61 199.723L1714.65 198.674L1714.65 198.78L1714.64 198.886L1727.61 199.723ZM1718.76 229.098L1707.47 222.639L1707.47 222.639L1718.76 229.098ZM1710.09 239.473L1718.16 249.66L1718.22 249.615L1718.28 249.569L1710.09 239.473ZM1666.18 237.945L1670.04 225.53L1657.62 221.672L1653.77 234.087L1666.18 237.945ZM1659.24 260.29L1656.32 272.959L1668.07 275.667L1671.65 264.148L1659.24 260.29ZM1681.54 188.535L1669.33 184.062L1669.22 184.367L1669.12 184.678L1681.54 188.535ZM1672.24 218.454L1659.82 214.596L1655.97 227.011L1668.38 230.868L1672.24 218.454ZM1685 221.195L1683.42 208.291L1683.3 208.306L1683.17 208.324L1685 221.195ZM1698.17 187.578L1710.58 191.436L1714.44 179.022L1702.03 175.164L1698.17 187.578ZM1684.31 185.313L1689.29 197.319L1689.57 197.202L1689.85 197.071L1684.31 185.313ZM1641.16 257.124L1671.95 158.057L1647.12 150.342L1616.33 249.408L1641.16 257.124ZM1655.68 166.614L1670.57 171.243L1678.29 146.415L1663.39 141.785L1655.68 166.614ZM1662.14 163.059L1665.29 172.205L1689.87 163.745L1686.72 154.599L1662.14 163.059ZM1685.68 178.143C1687.22 176.919 1691.11 175.175 1701.06 178.268L1708.78 153.439C1695.06 149.176 1680.73 148.847 1669.48 157.807L1685.68 178.143ZM1701.06 178.268C1705.58 179.671 1708.2 181.385 1709.71 182.907L1728.17 164.591C1722.9 159.289 1716.18 155.739 1708.78 153.439L1701.06 178.268ZM1709.71 182.907C1711.68 184.886 1712.91 186.982 1713.62 189.293L1738.48 181.681C1736.48 175.165 1732.97 169.436 1728.17 164.591L1709.71 182.907ZM1713.72 189.617C1714.56 192.116 1714.95 195.078 1714.65 198.674L1740.57 200.772C1741.11 194.099 1740.45 187.57 1738.37 181.356L1713.72 189.617ZM1714.64 198.886C1714.38 202.965 1713.6 207.139 1712.27 211.427L1737.1 219.142C1739 213.002 1740.18 206.802 1740.58 200.56L1714.64 198.886ZM1712.27 211.427C1710.95 215.661 1709.34 219.381 1707.47 222.639L1730.04 235.557C1732.94 230.494 1735.27 225.005 1737.1 219.142L1712.27 211.427ZM1707.47 222.639C1705.81 225.54 1703.93 227.724 1701.9 229.376L1718.28 249.569C1723.03 245.709 1726.93 240.977 1730.04 235.557L1707.47 222.639ZM1702.01 229.286C1700.39 230.57 1698.49 231.457 1696.07 231.896L1700.71 257.478C1707.14 256.311 1713.04 253.721 1718.16 249.66L1702.01 229.286ZM1696.07 231.896C1694.24 232.227 1691.4 232.168 1687.17 230.854L1679.46 255.683C1686.48 257.867 1693.69 258.753 1700.71 257.478L1696.07 231.896ZM1687.17 230.854L1670.04 225.53L1662.32 250.359L1679.46 255.683L1687.17 230.854ZM1653.77 234.087L1646.82 256.433L1671.65 264.148L1678.6 241.803L1653.77 234.087ZM1662.16 247.622L1631.67 240.598L1625.83 265.934L1656.32 272.959L1662.16 247.622ZM1669.12 184.678L1659.82 214.596L1684.65 222.312L1693.95 192.393L1669.12 184.678ZM1668.38 230.868L1672.97 232.296L1680.69 207.467L1676.1 206.04L1668.38 230.868ZM1672.97 232.296C1676.87 233.507 1681.97 234.755 1686.83 234.066L1683.17 208.324C1683.66 208.255 1683.96 208.266 1684 208.267C1684.04 208.269 1683.94 208.268 1683.67 208.223C1683.09 208.131 1682.13 207.914 1680.69 207.467L1672.97 232.296ZM1686.58 234.099C1695.92 232.957 1700.02 225.425 1701.52 220.61L1676.69 212.894C1676.61 213.134 1676.83 212.237 1677.89 211.091C1679.16 209.717 1681.11 208.573 1683.42 208.291L1686.58 234.099ZM1701.52 220.61L1710.58 191.436L1685.75 183.721L1676.69 212.894L1701.52 220.61ZM1702.03 175.164L1697.43 173.737L1689.72 198.565L1694.31 199.993L1702.03 175.164ZM1697.43 173.737C1695.04 172.992 1692.7 172.362 1690.57 171.982L1686 197.576C1686.62 197.688 1687.81 197.973 1689.72 198.565L1697.43 173.737ZM1690.57 171.982C1686.51 171.256 1682.45 171.814 1678.76 173.554L1689.85 197.071C1689.35 197.308 1688.72 197.515 1687.99 197.613C1687.26 197.711 1686.58 197.68 1686 197.576L1690.57 171.982ZM1679.32 173.306C1673.83 175.585 1670.8 180.043 1669.33 184.062L1693.74 193.009C1693.62 193.339 1693.29 194.106 1692.53 194.984C1691.73 195.914 1690.63 196.763 1689.29 197.319L1679.32 173.306Z" fill="white" mask="url(#path-33-outside-17_81_38)"/>
</g>
<g filter="url(#filter1_d_81_38)">
<path d="M1240 324H1276V360L1240 324Z" fill="#FEA3E2"/>
<path d="M514 324H478V360L514 324Z" fill="#FEA3E2"/>
<path d="M1276 273H1387L1355 316.5L1387 360H1276V273Z" fill="#F8CBEA"/>
<path d="M478 273H367L399 316.5L367 360H478V273Z" fill="#F8CBEA"/>
<rect width="798" height="109" transform="translate(478 215)" fill="#F8CBEA"/>
<path d="M532.74 277.58V249.62H538.62V277.22C538.62 284.18 542.46 288.02 549.36 288.02C556.2 288.02 559.98 284.12 559.98 277.22V249.62H565.92V277.58C565.92 287.54 559.56 293.72 549.36 293.72C539.1 293.72 532.74 287.6 532.74 277.58ZM586.496 271.34L571.676 249.62H578.696L585.476 259.28C587.396 262.1 588.836 264.5 590.096 266.9L601.556 249.62H608.336L593.816 271.28L608.516 293H601.556L594.896 283.46C593.216 281 591.596 278.36 590.156 275.84L578.516 293H571.616L586.496 271.34ZM628.708 293H614.368V249.62H628.468C641.428 249.62 650.188 258.38 650.188 271.34C650.188 284.24 641.548 293 628.708 293ZM628.048 255.02H620.248V287.54H628.288C637.948 287.54 644.068 281.3 644.068 271.34C644.068 261.26 637.948 255.02 628.048 255.02ZM684.129 293H657.669V249.62H684.129V255.02H663.549V268.58H682.089V273.8H663.549V287.54H684.129V293ZM727.056 293.66C714.696 293.66 706.476 284.78 706.476 271.34C706.476 257.96 714.936 248.9 727.356 248.9C737.136 248.9 744.636 254.72 746.256 263.6H739.956C738.336 257.96 733.476 254.54 727.176 254.54C718.416 254.54 712.656 261.14 712.656 271.28C712.656 281.42 718.416 288.02 727.176 288.02C733.536 288.02 738.576 284.6 740.196 279.26H746.436C744.576 287.9 736.836 293.66 727.056 293.66ZM750.765 278.3C750.765 269.24 757.245 262.88 766.065 262.88C774.825 262.88 781.305 269.24 781.305 278.3C781.305 287.36 774.825 293.72 766.065 293.72C757.245 293.72 750.765 287.36 750.765 278.3ZM756.465 278.3C756.465 284.42 760.365 288.68 766.065 288.68C771.705 288.68 775.665 284.42 775.665 278.3C775.665 272.18 771.705 267.92 766.065 267.92C760.365 267.92 756.465 272.18 756.465 278.3ZM793.189 293H787.549V263.66H792.589L793.129 267.5C794.629 264.74 797.749 262.82 801.889 262.82C806.449 262.82 809.689 265.1 811.189 268.76C812.569 265.1 816.109 262.82 820.669 262.82C827.389 262.82 831.469 267.02 831.469 273.8V293H825.949V275.18C825.949 270.56 823.369 267.92 819.409 267.92C815.149 267.92 812.329 270.92 812.329 275.6V293H806.749V275.12C806.749 270.5 804.229 267.98 800.269 267.98C796.009 267.98 793.189 270.92 793.189 275.6V293ZM844.927 293H839.287V263.66H844.327L844.867 267.5C846.367 264.74 849.487 262.82 853.627 262.82C858.187 262.82 861.427 265.1 862.927 268.76C864.307 265.1 867.847 262.82 872.407 262.82C879.127 262.82 883.207 267.02 883.207 273.8V293H877.687V275.18C877.687 270.56 875.107 267.92 871.147 267.92C866.887 267.92 864.067 270.92 864.067 275.6V293H858.487V275.12C858.487 270.5 855.967 267.98 852.007 267.98C847.747 267.98 844.927 270.92 844.927 275.6V293ZM911.305 263.66H916.885V293H911.845L911.245 288.56C909.565 291.62 905.665 293.72 901.345 293.72C894.505 293.72 890.665 289.1 890.665 281.9V263.66H896.305V280.04C896.305 286.34 899.005 288.74 903.325 288.74C908.485 288.74 911.305 285.44 911.305 279.14V263.66ZM930.708 293H925.068V263.66H930.168L930.768 268.16C932.628 264.8 936.348 262.82 940.488 262.82C948.228 262.82 951.768 267.56 951.768 275.06V293H946.128V276.32C946.128 270.38 943.368 267.98 939.048 267.98C933.768 267.98 930.708 271.76 930.708 277.46V293ZM962.34 256.7C960.3 256.7 958.62 255.02 958.62 252.98C958.62 250.88 960.3 249.26 962.34 249.26C964.38 249.26 966.06 250.88 966.06 252.98C966.06 255.02 964.38 256.7 962.34 256.7ZM959.58 293V263.66H965.22V293H959.58ZM981.688 293H976.048V268.4H970.288V263.66H976.048V254.48H981.688V263.66H987.448V268.4H981.688V293ZM989.69 306.14V301.52H993.47C996.17 301.52 998.33 301.1 999.71 297.38L1000.73 294.56L988.91 263.66H994.85L1003.37 287.3L1012.07 263.66H1017.89L1004.03 299.6C1002.05 304.64 999.11 306.74 994.61 306.74C992.75 306.74 991.19 306.5 989.69 306.14ZM1056.62 277.52H1045.64V293H1039.76V249.62H1056.62C1065.14 249.62 1070.6 255.2 1070.6 263.54C1070.6 271.64 1065.08 277.52 1056.62 277.52ZM1055.6 254.9H1045.64V272.24H1055.36C1061.18 272.24 1064.42 268.82 1064.42 263.48C1064.42 258.02 1061.12 254.9 1055.6 254.9ZM1093.1 263.42V268.58H1090.58C1085.24 268.58 1081.94 271.82 1081.94 277.46V293H1076.3V263.72H1081.58L1081.94 268.16C1083.14 265.1 1086.08 263.06 1090.1 263.06C1091.12 263.06 1091.96 263.18 1093.1 263.42ZM1095.41 278.3C1095.41 269.24 1101.89 262.88 1110.71 262.88C1119.47 262.88 1125.95 269.24 1125.95 278.3C1125.95 287.36 1119.47 293.72 1110.71 293.72C1101.89 293.72 1095.41 287.36 1095.41 278.3ZM1101.11 278.3C1101.11 284.42 1105.01 288.68 1110.71 288.68C1116.35 288.68 1120.31 284.42 1120.31 278.3C1120.31 272.18 1116.35 267.92 1110.71 267.92C1105.01 267.92 1101.11 272.18 1101.11 278.3ZM1135.02 256.7C1132.92 256.7 1131.3 255.02 1131.3 252.98C1131.3 250.88 1132.92 249.26 1135.02 249.26C1137 249.26 1138.74 250.88 1138.74 252.98C1138.74 255.02 1137 256.7 1135.02 256.7ZM1124.76 306.32L1125.72 301.22C1126.86 301.52 1127.52 301.64 1128.42 301.64C1131.12 301.64 1132.2 300.08 1132.2 296.78V263.66H1137.84V297.32C1137.84 303.2 1134.6 306.86 1128.9 306.86C1127.4 306.86 1126.44 306.8 1124.76 306.32ZM1158.69 293.72C1150.05 293.72 1144.11 287.48 1144.11 278.36C1144.11 269.18 1149.93 262.82 1158.45 262.82C1166.79 262.82 1172.25 268.58 1172.25 277.28V279.38L1149.57 279.44C1149.99 285.62 1153.23 289.04 1158.81 289.04C1163.19 289.04 1166.07 287.24 1167.03 283.88H1172.31C1170.87 290.18 1165.95 293.72 1158.69 293.72ZM1158.45 267.56C1153.53 267.56 1150.41 270.5 1149.69 275.66H1166.61C1166.61 270.8 1163.43 267.56 1158.45 267.56ZM1176.62 278.36C1176.62 269.18 1182.44 262.82 1191.02 262.82C1198.4 262.82 1203.56 267.02 1204.58 273.56H1198.94C1197.98 269.84 1194.98 267.86 1191.2 267.86C1185.86 267.86 1182.2 271.94 1182.2 278.3C1182.2 284.6 1185.62 288.68 1190.96 288.68C1194.98 288.68 1197.98 286.58 1199 283.1H1204.64C1203.5 289.46 1198.04 293.72 1190.96 293.72C1182.32 293.72 1176.62 287.6 1176.62 278.36ZM1218.88 293H1213.24V268.4H1207.48V263.66H1213.24V254.48H1218.88V263.66H1224.64V268.4H1218.88V293Z" fill="#0D1E4C"/>
</g>
<defs>
<filter id="filter0_d_81_38" x="15.2542" y="9.72394" width="1739.5" height="279.943" filterUnits="userSpaceOnUse" color-interpolation-filters="sRGB">
<feFlood flood-opacity="0" result="BackgroundImageFix"/>
<feColorMatrix in="SourceAlpha" type="matrix" values="0 0 0 0 0 0 0 0 0 0 0 0 0 0 0 0 0 0 127 0" result="hardAlpha"/>
<feOffset dx="10" dy="10"/>
<feGaussianBlur stdDeviation="2"/>
<feComposite in2="hardAlpha" operator="out"/>
<feColorMatrix type="matrix" values="0 0 0 0 0 0 0 0 0 0 0 0 0 0 0 0 0 0 0.25 0"/>
<feBlend mode="normal" in2="BackgroundImageFix" result="effect1_dropShadow_81_38"/>
<feBlend mode="normal" in="SourceGraphic" in2="effect1_dropShadow_81_38" result="shape"/>
</filter>
<filter id="filter1_d_81_38" x="367" y="215" width="1034" height="159" filterUnits="userSpaceOnUse" color-interpolation-filters="sRGB">
<feFlood flood-opacity="0" result="BackgroundImageFix"/>
<feColorMatrix in="SourceAlpha" type="matrix" values="0 0 0 0 0 0 0 0 0 0 0 0 0 0 0 0 0 0 127 0" result="hardAlpha"/>
<feOffset dx="10" dy="10"/>
<feGaussianBlur stdDeviation="2"/>
<feComposite in2="hardAlpha" operator="out"/>
<feColorMatrix type="matrix" values="0 0 0 0 0 0 0 0 0 0 0 0 0 0 0 0 0 0 0.25 0"/>
<feBlend mode="normal" in2="BackgroundImageFix" result="effect1_dropShadow_81_38"/>
<feBlend mode="normal" in="SourceGraphic" in2="effect1_dropShadow_81_38" result="shape"/>
</filter>
</defs>
</svg>
