<svg width="10535" height="8575" viewBox="0 0 10535 8575" fill="none" xmlns="http://www.w3.org/2000/svg">
<mask id="mask0_143_14" style="mask-type:alpha" maskUnits="userSpaceOnUse" x="226" y="76" width="10024" height="8342">
<path d="M10080 8367H2080.78C2056.81 8367 2033.39 8359.82 2013.54 8346.39L521.284 7336.83C481.908 7310.19 461.971 7262.82 470.449 7216.04L698.66 5956.93C700.873 5944.72 701.179 5932.24 699.566 5919.93L277.067 2696.31C270.939 2649.55 292.764 2603.54 332.852 2578.7L4261.52 144.813C4312.29 113.362 4378.46 124.028 4416.77 169.838L5803.55 1827.99C5823.41 1851.74 5851.68 1866.89 5882.46 1870.28L8179.96 2123.32C8259.92 2132.13 8308.74 2215.58 8277.23 2289.61L7636.12 3795.35C7627.85 3814.77 7624.85 3836.03 7627.43 3856.98L7787.81 5163.18C7791.47 5192.97 7806.16 5220.31 7828.98 5239.81L8525.25 5834.5C8554.33 5859.33 8593.49 5868.82 8630.7 5860.06L10052.5 5525.24C10127.8 5507.5 10200 5564.65 10200 5642.04V8247C10200 8313.27 10146.3 8367 10080 8367Z" fill="white" stroke="white" stroke-width="100" stroke-linecap="round"/>
</mask>
<g mask="url(#mask0_143_14)">
<rect x="-580" y="-179" width="11301" height="8898" fill="#0E959B"/>
<g filter="url(#filter0_i_143_14)">
<path fill-rule="evenodd" clip-rule="evenodd" d="M3110.18 3585.89C3120.73 3569.7 3142.41 3565.12 3158.61 3575.68L3839.72 4019.46C3850.28 4026.34 3862.6 4030 3875.2 4030H4390C4464.56 4030 4525 4090.44 4525 4165V4589.33C4594.84 4608.54 4639.72 4682.1 4618.85 4756.13L4460.05 5319.5H4569.14L4741.28 5132.31L5048.76 4797.96L5615.16 3927.41C5625.7 3911.21 5647.39 3906.62 5663.59 3917.16C5679.79 3927.7 5684.38 3949.39 5673.84 3965.59L5129.61 4802.05C5259.4 4857.92 5388.35 4979.38 5470.43 5123.25C5561.68 5283.19 5599.62 5479.55 5506.42 5652.13C5439.48 5776.1 5307.9 5881.63 5094.16 5951.54C5031.16 5972.15 4964.51 5946.51 4927.45 5894.64L4566.49 5389.5H4420.5V6208C4420.5 6229.59 4415.43 6250 4406.42 6268.1L5172.62 6973.95C5191.61 6991.45 5219.16 6996.04 5242.8 6985.66L5467.71 6886.9C5529.99 6859.55 5602.88 6882.8 5637.82 6941.15L5710.04 7061.76C5736.83 7106.5 5735.46 7162.66 5706.52 7206.03L5521.76 7482.98L6327.78 7952.66C6337.72 7958.45 6349.01 7961.5 6360.51 7961.5H8577.5H10323C10342.3 7961.5 10358 7977.17 10358 7996.5C10358 8015.83 10342.3 8031.5 10323 8031.5H8577.5H6360.51C6336.63 8031.5 6313.18 8025.17 6292.54 8013.14L5454.38 7524.74L5453.57 7524.27L5452.78 7523.75L4355.03 6802.5H4246H3600C3580.67 6802.5 3565 6786.83 3565 6767.5C3565 6748.17 3580.67 6732.5 3600 6732.5H4211V6343L3604.13 6343L3603.99 6343H3289C3281.9 6343 3275.3 6340.89 3269.78 6337.25C3258.96 6331.36 3251.59 6319.92 3251.5 6306.73L3248.03 5786.25L2957.73 6410.01C2912.2 6507.86 2775.93 6515.36 2719.93 6423.1L2652.3 6311.66C2622.6 6262.72 2626.99 6200.36 2663.27 6156.07L2797.28 5992.46C2806.8 5980.84 2812 5966.29 2812 5951.27V5446.93L2680.5 5384.45C2667.47 5381.04 2654.89 5375.93 2643.1 5369.22L2257.69 5149.92C2240.89 5140.36 2235.02 5118.99 2244.58 5102.19C2254.14 5085.39 2275.51 5079.52 2292.31 5089.08L2677.71 5308.38C2682.07 5310.86 2686.63 5312.94 2691.32 5314.6C2695.44 5314.94 2699.57 5316.01 2703.52 5317.89L2703.69 5317.97C2708.97 5318.98 2714.34 5319.5 2719.75 5319.5H3268V4887.32C3268 4850.8 3282.8 4815.84 3309.01 4790.41L3482.04 4622.59C3507.23 4598.16 3540.94 4584.5 3576.03 4584.5H3994V4100H3875.2C3849.04 4100 3823.43 4092.39 3801.51 4078.11L3120.39 3634.32C3104.2 3623.77 3099.62 3602.09 3110.18 3585.89ZM2882 5480.19V5637H3212.02L2882 5480.19ZM2882 5707V5951.27C2882 5982.46 2871.2 6012.69 2851.44 6036.82L2717.42 6200.43C2699.96 6221.75 2697.84 6251.78 2712.14 6275.34L2779.77 6386.78C2806.74 6431.2 2872.34 6427.59 2894.27 6380.48L3207.7 5707H2882ZM4281 6343V6732.5H4355.5C4357.2 6732.5 4358.88 6732.62 4360.51 6732.86C4368.68 6731.68 4377.28 6733.36 4384.72 6738.25L5462.17 7446.16L5648.29 7167.19C5662.22 7146.3 5662.88 7119.26 5649.98 7097.72L5577.76 6977.11C5560.94 6949.02 5525.84 6937.82 5495.86 6950.99L5270.94 7049.76C5221.84 7071.32 5164.64 7061.77 5125.19 7025.44L4360.05 6320.57C4338.69 6334.74 4313.06 6343 4285.5 6343H4281ZM3338 5319.5H3994V4654.5H3576.03C3559.13 4654.5 3542.9 4661.08 3530.77 4672.84L3357.75 4840.66C3345.12 4852.9 3338 4869.74 3338 4887.32V5319.5ZM4064 5319.5H4387.32L4551.48 4737.13C4563.17 4695.66 4532 4654.5 4488.92 4654.5H4064V5319.5ZM4350.5 5389.5H3635.61L3638.87 6273H4285.5C4321.4 6273 4350.5 6243.9 4350.5 6208V5389.5ZM3508.84 5389.5H2854.24L3276.41 5590.09L3508.84 5389.5ZM3565.77 5432.83L3317.11 5647.43L3321.28 6273H3568.87L3565.77 5432.83ZM4064 4584.5H4455V4165C4455 4129.1 4425.9 4100 4390 4100H4064V4584.5ZM4820.31 5149.78L5086.68 4860.14C5203.93 4905.1 5329.78 5017.98 5409.63 5157.94C5487.21 5293.93 5517.45 5448.12 5461.53 5583.7L4820.31 5149.78ZM4772.4 5201.88L5428.71 5646.01C5368.14 5739.18 5256.98 5824.63 5072.4 5885.01C5040.84 5895.33 5005.19 5883.03 4984.41 5853.94L4629.5 5357.27L4772.4 5201.88Z" fill="white"/>
</g>
<path fill-rule="evenodd" clip-rule="evenodd" d="M1492.07 1628.45C1511.15 1589.83 1557.93 1573.99 1596.55 1593.07L3696.55 2630.57L3696.72 2630.65L3696.88 2630.73C4177.72 2871.15 5156.48 3463.19 6136.27 4131.28C7114.63 4798.4 8104.02 5548.04 8600.38 6104.33C8633.3 6141.23 8649 6187.19 8649 6233.84V8435.5C8649 8478.58 8614.08 8513.5 8571 8513.5C8527.92 8513.5 8493 8478.58 8493 8435.5V6233.84C8493 6222.65 8489.56 6214.45 8483.98 6208.19C8457.98 6179.06 8430.56 6149.35 8401.78 6119.1L7733.14 6682.74C7665.04 6740.15 7566.98 6745.02 7493.53 6694.63L6876.36 6271.3C6869.95 6266.9 6864.3 6265.3 6860.07 6265.07C6741.74 6258.64 6587.92 6281.23 6475.22 6360.67C6369.63 6435.09 6287.81 6567.79 6321.54 6814.62C6322.73 6823.37 6323.5 6832.91 6323.5 6842.69V8439.5C6323.5 8482.58 6288.58 8517.5 6245.5 8517.5C6202.42 8517.5 6167.5 8482.58 6167.5 8439.5V6842.69C6167.5 6841.7 6167.45 6840.51 6167.35 6839.19C6167.3 6838.59 6167.24 6837.98 6167.17 6837.34C6167.11 6836.82 6167.05 6836.28 6166.97 6835.74C6126.35 6538.44 6226.41 6345.18 6385.35 6233.16C6537.17 6126.15 6730.55 6101.81 6868.52 6109.3C6904.77 6111.26 6937.59 6124.13 6964.6 6142.66L7581.77 6565.99C7597.35 6576.68 7618.15 6575.65 7632.59 6563.47L8292.06 6007.56C7770.19 5492.97 6911.03 4848.39 6048.38 4260.17C5113.08 3622.41 4182.81 3057.03 3691.06 2802.8L2201.64 5251.04L2199.91 5253.87L2197.96 5256.55C1926.65 5627.45 1943.58 6049.27 2088.16 6441.51C2233.2 6835 2503.69 7187.98 2718.56 7402.58C2755.85 7439.83 2778 7490.58 2778 7544.81V8435.5C2778 8478.58 2743.08 8513.5 2700 8513.5C2656.92 8513.5 2622 8478.58 2622 8435.5V7544.81C2622 7533.5 2617.41 7522.04 2608.32 7512.96C2382.53 7287.45 2096.79 6915.98 1941.78 6495.46C1822.67 6172.32 1778.99 5813.96 1905.7 5471.79L1036.89 5051.38C945.413 5007.12 906.767 4897.35 950.338 4805.54L2241.17 2085.54L1527.45 1732.93C1488.83 1713.85 1472.99 1667.07 1492.07 1628.45ZM2070.06 5167.17C2025.85 5227.92 1988.49 5289.76 1957.36 5352.36L1093.52 4934.36C1066.32 4921.2 1054.83 4888.57 1067.78 4861.27L1750.68 3422.3L2793.65 3977.77L2070.06 5167.17ZM2861.33 3866.52L3551.1 2732.71L2357.73 2143.13L1806.48 3304.73L2861.33 3866.52Z" fill="#FEA3E2"/>
<path d="M1596.55 1593.07L1586.14 1614.14V1614.14L1596.55 1593.07ZM1492.07 1628.45L1513.14 1638.86V1638.86L1492.07 1628.45ZM3696.55 2630.57L3706.96 2609.5L3706.96 2609.5L3696.55 2630.57ZM3696.72 2630.65L3707.23 2609.63L3707.18 2609.61L3707.13 2609.58L3696.72 2630.65ZM3696.88 2630.73L3686.37 2651.75L3696.88 2630.73ZM6136.27 4131.28L6123.03 4150.7L6136.27 4131.28ZM8600.38 6104.33L8617.91 6088.69L8600.38 6104.33ZM8483.98 6208.19L8501.51 6192.55L8483.98 6208.19ZM8401.78 6119.1L8418.81 6102.91L8403.56 6086.87L8386.64 6101.14L8401.78 6119.1ZM7733.14 6682.74L7748.29 6700.71L7733.14 6682.74ZM7493.53 6694.63L7480.23 6714.01L7480.23 6714.01L7493.53 6694.63ZM6876.36 6271.3L6889.65 6251.92L6889.65 6251.92L6876.36 6271.3ZM6860.07 6265.07L6861.34 6241.6H6861.34L6860.07 6265.07ZM6475.22 6360.67L6461.68 6341.46L6475.22 6360.67ZM6321.54 6814.62L6298.25 6817.8V6817.8L6321.54 6814.62ZM6167.35 6839.19L6143.92 6841.04L6143.92 6841.05L6167.35 6839.19ZM6167.17 6837.34L6190.53 6834.75L6190.53 6834.75L6190.53 6834.74L6167.17 6837.34ZM6166.97 6835.74L6190.26 6832.56V6832.56L6166.97 6835.74ZM6385.35 6233.16L6371.81 6213.95L6385.35 6233.16ZM6868.52 6109.3L6867.25 6132.76L6868.52 6109.3ZM6964.6 6142.66L6951.31 6162.04V6162.04L6964.6 6142.66ZM7581.77 6565.99L7595.06 6546.61V6546.61L7581.77 6565.99ZM7632.59 6563.47L7617.45 6545.5H7617.45L7632.59 6563.47ZM8292.06 6007.56L8307.21 6025.53L8326.91 6008.92L8308.56 5990.83L8292.06 6007.56ZM6048.38 4260.17L6035.14 4279.58L6048.38 4260.17ZM3691.06 2802.8L3701.85 2781.93L3682.38 2771.86L3670.99 2790.59L3691.06 2802.8ZM2201.64 5251.04L2181.56 5238.83L2181.56 5238.83L2201.64 5251.04ZM2199.91 5253.87L2218.88 5267.75L2219.47 5266.94L2219.99 5266.09L2199.91 5253.87ZM2197.96 5256.55L2178.99 5242.68L2178.99 5242.68L2197.96 5256.55ZM2088.16 6441.51L2066.11 6449.63V6449.63L2088.16 6441.51ZM2718.56 7402.58L2735.17 7385.96H2735.17L2718.56 7402.58ZM2608.32 7512.96L2624.93 7496.34H2624.93L2608.32 7512.96ZM1941.78 6495.46L1919.74 6503.59V6503.59L1941.78 6495.46ZM1905.7 5471.79L1927.74 5479.95L1935.15 5459.93L1915.94 5450.64L1905.7 5471.79ZM1036.89 5051.38L1026.66 5072.54H1026.66L1036.89 5051.38ZM950.338 4805.54L971.569 4815.61H971.569L950.338 4805.54ZM2241.17 2085.54L2262.4 2095.62L2272.32 2074.72L2251.58 2064.47L2241.17 2085.54ZM1527.45 1732.93L1517.04 1754L1527.45 1732.93ZM1957.36 5352.36L1947.12 5373.52L1968.05 5383.65L1978.4 5362.83L1957.36 5352.36ZM2070.06 5167.17L2089.06 5181L2089.63 5180.21L2090.14 5179.38L2070.06 5167.17ZM1093.52 4934.36L1083.28 4955.52H1083.28L1093.52 4934.36ZM1067.78 4861.27L1046.55 4851.2H1046.55L1067.78 4861.27ZM1750.68 3422.3L1761.73 3401.56L1740 3389.99L1729.45 3412.22L1750.68 3422.3ZM2793.65 3977.77L2813.73 3989.98L2826.66 3968.72L2804.7 3957.02L2793.65 3977.77ZM2861.33 3866.52L2850.28 3887.26L2869.87 3897.7L2881.41 3878.74L2861.33 3866.52ZM3551.1 2732.71L3571.18 2744.93L3584.51 2723.01L3561.51 2711.64L3551.1 2732.71ZM2357.73 2143.13L2368.14 2122.06L2346.74 2111.49L2336.5 2133.06L2357.73 2143.13ZM1806.48 3304.73L1785.24 3294.65L1775.63 3314.92L1795.43 3325.47L1806.48 3304.73ZM1606.96 1572C1556.7 1547.17 1495.83 1567.78 1471 1618.04L1513.14 1638.86C1526.47 1611.87 1559.15 1600.81 1586.14 1614.14L1606.96 1572ZM3706.96 2609.5L1606.96 1572L1586.14 1614.14L3686.14 2651.64L3706.96 2609.5ZM3707.13 2609.58L3706.96 2609.5L3686.14 2651.64L3686.31 2651.72L3707.13 2609.58ZM3707.39 2609.72L3707.23 2609.63L3686.21 2651.67L3686.37 2651.75L3707.39 2609.72ZM6149.5 4111.86C5169.39 3443.55 4189.62 2850.83 3707.39 2609.72L3686.37 2651.75C4165.82 2891.48 5143.58 3482.84 6123.03 4150.7L6149.5 4111.86ZM8617.91 6088.69C8119.41 5529.99 7127.78 4778.92 6149.5 4111.86L6123.03 4150.7C7101.49 4817.88 8088.62 5566.08 8582.84 6119.98L8617.91 6088.69ZM8672.5 6233.84C8672.5 6181.86 8654.96 6130.21 8617.91 6088.69L8582.84 6119.98C8611.64 6152.25 8625.5 6192.53 8625.5 6233.84H8672.5ZM8672.5 8435.5V6233.84H8625.5V8435.5H8672.5ZM8571 8537C8627.06 8537 8672.5 8491.56 8672.5 8435.5H8625.5C8625.5 8465.6 8601.1 8490 8571 8490V8537ZM8469.5 8435.5C8469.5 8491.56 8514.94 8537 8571 8537V8490C8540.9 8490 8516.5 8465.6 8516.5 8435.5H8469.5ZM8469.5 6233.84V8435.5H8516.5V6233.84H8469.5ZM8466.44 6223.84C8467.38 6224.89 8468.05 6225.98 8468.53 6227.29C8469.02 6228.63 8469.5 6230.69 8469.5 6233.84H8516.5C8516.5 6217.26 8511.18 6203.39 8501.51 6192.55L8466.44 6223.84ZM8384.76 6135.3C8413.38 6165.39 8440.63 6194.91 8466.44 6223.84L8501.51 6192.55C8475.34 6163.22 8447.74 6133.32 8418.81 6102.91L8384.76 6135.3ZM7748.29 6700.71L8416.93 6137.07L8386.64 6101.14L7717.99 6664.78L7748.29 6700.71ZM7480.23 6714.01C7562.4 6770.38 7672.1 6764.93 7748.29 6700.71L7717.99 6664.78C7657.97 6715.37 7571.55 6719.66 7506.82 6675.26L7480.23 6714.01ZM6863.07 6290.68L7480.23 6714.01L7506.82 6675.26L6889.65 6251.92L6863.07 6290.68ZM6858.79 6288.53C6858.24 6288.5 6859.79 6288.43 6863.07 6290.68L6889.65 6251.92C6880.11 6245.37 6870.36 6242.09 6861.34 6241.6L6858.79 6288.53ZM6488.76 6379.88C6595.57 6304.59 6743.43 6282.27 6858.79 6288.53L6861.34 6241.6C6740.05 6235.02 6580.27 6257.88 6461.68 6341.46L6488.76 6379.88ZM6344.82 6811.44C6328.38 6691.1 6340.35 6600.48 6367.94 6531.75C6395.47 6463.17 6439.16 6414.84 6488.76 6379.88L6461.68 6341.46C6405.69 6380.93 6355.67 6436.15 6324.33 6514.24C6293.04 6592.16 6280.97 6691.31 6298.25 6817.8L6344.82 6811.44ZM6347 6842.69C6347 6831.71 6346.14 6821.09 6344.82 6811.44L6298.25 6817.8C6299.33 6825.64 6300 6834.11 6300 6842.69H6347ZM6347 8439.5V6842.69H6300V8439.5H6347ZM6245.5 8541C6301.56 8541 6347 8495.56 6347 8439.5H6300C6300 8469.6 6275.6 8494 6245.5 8494V8541ZM6144 8439.5C6144 8495.56 6189.44 8541 6245.5 8541V8494C6215.4 8494 6191 8469.6 6191 8439.5H6144ZM6144 6842.69V8439.5H6191V6842.69H6144ZM6143.92 6841.05C6143.99 6841.85 6144 6842.41 6144 6842.69H6191C6191 6840.99 6190.92 6839.17 6190.77 6837.33L6143.92 6841.05ZM6143.81 6839.92C6143.86 6840.32 6143.89 6840.7 6143.92 6841.04L6190.77 6837.33C6190.71 6836.49 6190.63 6835.63 6190.53 6834.75L6143.81 6839.92ZM6143.69 6838.92C6143.74 6839.27 6143.78 6839.61 6143.82 6839.93L6190.53 6834.74C6190.45 6834.02 6190.36 6833.3 6190.26 6832.56L6143.69 6838.92ZM6371.81 6213.95C6204.82 6331.65 6102.03 6534.04 6143.69 6838.92L6190.26 6832.56C6150.67 6542.85 6247.99 6358.72 6398.88 6252.37L6371.81 6213.95ZM6869.8 6085.83C6728.87 6078.18 6529.53 6102.78 6371.81 6213.95L6398.88 6252.37C6544.81 6149.51 6732.23 6125.43 6867.25 6132.76L6869.8 6085.83ZM6977.9 6123.28C6947.78 6102.62 6910.87 6088.06 6869.8 6085.83L6867.25 6132.76C6898.67 6134.47 6927.39 6145.63 6951.31 6162.04L6977.9 6123.28ZM7595.06 6546.61L6977.9 6123.28L6951.31 6162.04L7568.47 6585.37L7595.06 6546.61ZM7617.45 6545.5C7611.08 6550.86 7601.92 6551.32 7595.06 6546.61L7568.47 6585.37C7592.77 6602.04 7625.21 6600.43 7647.74 6581.44L7617.45 6545.5ZM8276.92 5989.59L7617.45 6545.5L7647.74 6581.44L8307.21 6025.53L8276.92 5989.59ZM6035.14 4279.58C6897.59 4867.67 7755.28 5511.27 8275.56 6024.29L8308.56 5990.83C7785.1 5474.67 6924.47 4829.1 6061.62 4240.75L6035.14 4279.58ZM3680.27 2823.68C4170.83 3077.29 5100.23 3642.09 6035.14 4279.58L6061.62 4240.75C5125.93 3602.73 4194.79 3036.77 3701.85 2781.93L3680.27 2823.68ZM2221.71 5263.25L3711.14 2815.02L3670.99 2790.59L2181.56 5238.83L2221.71 5263.25ZM2219.99 5266.09L2221.71 5263.25L2181.56 5238.83L2179.84 5241.66L2219.99 5266.09ZM2216.92 5270.42L2218.88 5267.75L2180.95 5240L2178.99 5242.68L2216.92 5270.42ZM2110.21 6433.38C1967.27 6045.61 1951.84 5632.81 2216.92 5270.42L2178.99 5242.68C1901.46 5622.09 1919.88 6052.93 2066.11 6449.63L2110.21 6433.38ZM2735.17 7385.96C2521.94 7173 2253.75 6822.8 2110.21 6433.38L2066.11 6449.63C2212.65 6847.2 2485.43 7202.96 2701.96 7419.21L2735.17 7385.96ZM2801.5 7544.81C2801.5 7484.1 2776.71 7427.44 2735.17 7385.96L2701.96 7419.21C2735 7452.22 2754.5 7497.05 2754.5 7544.81H2801.5ZM2801.5 8435.5V7544.81H2754.5V8435.5H2801.5ZM2700 8537C2756.06 8537 2801.5 8491.56 2801.5 8435.5H2754.5C2754.5 8465.6 2730.1 8490 2700 8490V8537ZM2598.5 8435.5C2598.5 8491.56 2643.94 8537 2700 8537V8490C2669.9 8490 2645.5 8465.6 2645.5 8435.5H2598.5ZM2598.5 7544.81V8435.5H2645.5V7544.81H2598.5ZM2591.72 7529.59C2596.54 7534.4 2598.5 7539.95 2598.5 7544.81H2645.5C2645.5 7527.06 2638.28 7509.67 2624.93 7496.34L2591.72 7529.59ZM1919.74 6503.59C2076.24 6928.18 2364.27 7302.44 2591.72 7529.59L2624.93 7496.34C2400.78 7272.47 2117.34 6903.78 1963.83 6487.33L1919.74 6503.59ZM1883.66 5463.63C1754.39 5812.74 1799.41 6177.16 1919.74 6503.59L1963.83 6487.33C1845.93 6167.47 1803.6 5815.19 1927.74 5479.95L1883.66 5463.63ZM1026.66 5072.54L1895.46 5492.94L1915.94 5450.64L1047.13 5030.23L1026.66 5072.54ZM929.108 4795.46C880.002 4898.94 923.557 5022.65 1026.66 5072.54L1047.13 5030.23C967.269 4991.59 933.532 4895.76 971.569 4815.61L929.108 4795.46ZM2219.94 2075.47L929.108 4795.46L971.569 4815.61L2262.4 2095.62L2219.94 2075.47ZM1517.04 1754L2230.76 2106.61L2251.58 2064.47L1537.86 1711.86L1517.04 1754ZM1471 1618.04C1446.17 1668.3 1466.78 1729.17 1517.04 1754L1537.86 1711.86C1510.87 1698.53 1499.81 1665.85 1513.14 1638.86L1471 1618.04ZM1978.4 5362.83C2008.93 5301.42 2045.61 5240.7 2089.06 5181L2051.06 5153.34C2006.09 5215.14 1968.04 5278.1 1936.31 5341.9L1978.4 5362.83ZM1083.28 4955.52L1947.12 5373.52L1967.59 5331.21L1103.75 4913.21L1083.28 4955.52ZM1046.55 4851.2C1028.07 4890.16 1044.46 4936.73 1083.28 4955.52L1103.75 4913.21C1088.18 4905.67 1081.6 4886.98 1089.01 4871.35L1046.55 4851.2ZM1729.45 3412.22L1046.55 4851.2L1089.01 4871.35L1771.91 3432.37L1729.45 3412.22ZM2804.7 3957.02L1761.73 3401.56L1739.63 3443.04L2782.61 3998.51L2804.7 3957.02ZM2090.14 5179.38L2813.73 3989.98L2773.58 3965.55L2049.99 5154.95L2090.14 5179.38ZM2881.41 3878.74L3571.18 2744.93L3531.03 2720.5L2841.25 3854.31L2881.41 3878.74ZM3561.51 2711.64L2368.14 2122.06L2347.33 2164.2L3540.69 2753.78L3561.51 2711.64ZM2336.5 2133.06L1785.24 3294.65L1827.71 3314.8L2378.97 2153.21L2336.5 2133.06ZM1795.43 3325.47L2850.28 3887.26L2872.38 3845.78L1817.52 3283.98L1795.43 3325.47Z" fill="white"/>
<path d="M10080 8367H2080.78C2056.81 8367 2033.39 8359.82 2013.54 8346.39L521.284 7336.83C481.908 7310.19 461.971 7262.82 470.449 7216.04L698.66 5956.93C700.873 5944.72 701.179 5932.24 699.566 5919.93L277.067 2696.31C270.939 2649.55 292.764 2603.54 332.852 2578.7L4261.52 144.813C4312.29 113.362 4378.46 124.028 4416.77 169.838L5803.55 1827.99C5823.41 1851.74 5851.68 1866.89 5882.46 1870.28L8179.96 2123.32C8259.92 2132.13 8308.74 2215.58 8277.23 2289.61L7636.12 3795.35C7627.85 3814.77 7624.85 3836.03 7627.43 3856.98L7787.81 5163.18C7791.47 5192.97 7806.16 5220.31 7828.98 5239.81L8525.25 5834.5C8554.33 5859.33 8593.49 5868.82 8630.7 5860.06L10052.5 5525.24C10127.8 5507.5 10200 5564.65 10200 5642.04V8247C10200 8313.27 10146.3 8367 10080 8367Z" stroke="white" stroke-width="100" stroke-linecap="round"/>
</g>
<path d="M4981.5 6284H4586.99C4567.38 6284 4559.48 6309.28 4575.6 6320.44L4970.11 6593.75C4983.37 6602.94 5001.5 6593.45 5001.5 6577.31V6304C5001.5 6292.95 4992.55 6284 4981.5 6284Z" fill="#178085"/>
<path d="M5970.21 6461.44L5922.24 6356.72C5918.31 6348.14 5920.92 6337.97 5928.49 6332.34L6266.18 6081.28C6274.12 6075.37 6285.19 6076.17 6292.21 6083.15L6357.79 6148.37C6366.19 6156.73 6365.52 6170.53 6356.34 6178.03L6001.06 6468.6C5990.91 6476.89 5975.67 6473.36 5970.21 6461.44Z" fill="#178085"/>
<path d="M5716.49 6899.95L5350.92 5972.74C5347.7 5964.57 5350.18 5955.26 5357.03 5949.78L5497.72 5837.31C5507.81 5829.24 5522.79 5832.72 5528.3 5844.4L5974.61 6790.65C5979.46 6800.93 5974.77 6813.18 5964.29 6817.6L5742.87 6911.04C5732.52 6915.4 5720.61 6910.4 5716.49 6899.95Z" fill="#178085"/>
<path d="M4467 6079.67V5640.65C4467 5629.94 4475.43 5621.13 4486.13 5620.66L4694.29 5611.58C4702.3 5611.23 4709.75 5615.69 4713.21 5622.93L4884.31 5980.66C4889.81 5992.15 4883.3 6005.79 4870.91 6008.74L4491.64 6099.13C4479.07 6102.12 4467 6092.59 4467 6079.67Z" fill="#178085"/>
<rect x="3766" y="5550" width="449" height="656" rx="20" fill="#178085"/>
<path d="M3359 6209V5692.5C3359 5681.45 3367.95 5672.5 3379 5672.5H3507.5C3518.55 5672.5 3527.5 5681.45 3527.5 5692.5V6209C3527.5 6220.05 3518.55 6229 3507.5 6229H3379C3367.95 6229 3359 6220.05 3359 6209Z" fill="#178085"/>
<path d="M3363.5 5253.5V4953.5C3363.5 4942.45 3372.45 4933.5 3383.5 4933.5H3544.5C3555.55 4933.5 3564.5 4942.45 3564.5 4953.5V5253.5C3564.5 5264.55 3555.55 5273.5 3544.5 5273.5H3383.5C3372.45 5273.5 3363.5 5264.55 3363.5 5253.5Z" fill="#178085"/>
<path d="M2605.8 7160.49L2454.63 6899.02C2449.05 6889.38 2452.43 6877.04 2462.13 6871.58L2796.83 6683.23C2806.74 6677.65 2819.3 6681.45 2824.46 6691.58L2948.46 6935.19C2953.05 6944.21 2950.18 6955.24 2941.77 6960.88L2634.25 7167.09C2624.65 7173.54 2611.59 7170.51 2605.8 7160.49Z" fill="#178085"/>
<path d="M3545 4502.5V4120C3545 4108.95 3553.95 4100 3565 4100H3768C3779.05 4100 3788 4108.95 3788 4120V4145.5C3788 4156.55 3779.05 4165.5 3768 4165.5H3728C3716.95 4165.5 3708 4174.45 3708 4185.5V4438C3708 4449.05 3716.95 4458 3728 4458H3768C3779.05 4458 3788 4466.95 3788 4478V4502.5C3788 4513.55 3779.05 4522.5 3768 4522.5H3565C3553.95 4522.5 3545 4513.55 3545 4502.5Z" fill="#178085"/>
<path d="M2717.5 5925.46V5527.64C2717.5 5520.18 2713.35 5513.34 2706.72 5509.9L2441.27 5371.91C2432.93 5367.58 2422.66 5369.55 2417.24 5377.22C2305.27 5535.8 2349.45 5938.03 2404.5 6120.27C2408.31 6132.89 2423.21 6137.66 2434.08 6130.21L2708.81 5941.96C2714.25 5938.23 2717.5 5932.06 2717.5 5925.46Z" fill="#178085"/>
<path d="M2386.75 6756.51L2217.98 6474.04C2212.23 6464.42 2215.52 6451.94 2225.27 6446.4L2530 6273.17C2539.45 6267.79 2551.46 6270.96 2557.04 6280.28L2713.69 6542.11C2719.18 6551.28 2716.49 6563.15 2707.58 6569.05L2414.97 6762.93C2405.46 6769.23 2392.61 6766.31 2386.75 6756.51Z" fill="#178085"/>
<path d="M3564 6910.55H3251.93H3190.38C3179.33 6910.55 3170.38 6919.51 3170.38 6930.55V6946C3170.38 6957.05 3161.43 6966 3150.38 6966H3009.26C2999.13 6966 2990.6 6958.43 2989.4 6948.37L2959.67 6699.15C2958.25 6687.24 2967.54 6676.78 2979.53 6676.78H3251.93V6463C3251.93 6451.95 3260.88 6443 3271.93 6443H3564C3575.05 6443 3584 6451.95 3584 6463V6890.55C3584 6901.6 3575.05 6910.55 3564 6910.55Z" fill="#178085"/>
<path d="M4010 7180.5H2977C2965.95 7180.5 2957 7171.55 2957 7160.5V7075.33C2957 7064.35 2965.85 7055.43 2976.83 7055.33L4009.83 7046.67C4020.94 7046.58 4030 7055.56 4030 7066.67V7160.5C4030 7171.55 4021.05 7180.5 4010 7180.5Z" fill="#178085"/>
<path d="M2741.5 5194.73V4890.5V4874.5C2741.5 4863.45 2750.45 4854.5 2761.5 4854.5H2971C2982.05 4854.5 2991 4845.55 2991 4834.5V4781C2991 4769.95 2999.95 4761 3011 4761H3200C3211.05 4761 3220 4769.95 3220 4781V5178.24C3220 5188.99 3211.5 5197.82 3200.75 5198.22L2762.25 5214.72C2750.92 5215.15 2741.5 5206.07 2741.5 5194.73Z" fill="#178085"/>
<path d="M3041.24 4276.57L3118 4133L3130.99 4105.04C3136.22 4093.79 3150.32 4089.96 3160.52 4097.03L3409.43 4269.56C3425.54 4280.73 3417.64 4306 3398.04 4306H3058.87C3043.77 4306 3034.11 4289.89 3041.24 4276.57Z" fill="#178085"/>
<path d="M2824 4696.5V4382C2824 4370.95 2832.95 4362 2844 4362H3316.5C3327.55 4362 3336.5 4370.95 3336.5 4382V4696.5C3336.5 4707.55 3327.55 4716.5 3316.5 4716.5H2844C2832.95 4716.5 2824 4707.55 2824 4696.5Z" fill="#178085"/>
<path d="M3615 5267V4825.5V4814.5C3615 4803.45 3623.95 4794.5 3635 4794.5H3933C3944.05 4794.5 3953 4803.45 3953 4814.5V5267C3953 5278.05 3944.05 5287 3933 5287H3635C3623.95 5287 3615 5278.05 3615 5267Z" fill="#178085"/>
<path d="M4151.5 5269V4792.5C4151.5 4781.45 4160.45 4772.5 4171.5 4772.5H4470.92C4484.37 4772.5 4493.99 4785.52 4490.03 4798.38L4343.35 5274.88C4340.76 5283.27 4333.01 5289 4324.23 5289H4171.5C4160.45 5289 4151.5 5280.05 4151.5 5269Z" fill="#178085"/>
<path d="M5230.09 5974.71L5088.3 6026.42C5077.17 6030.47 5071.99 6043.26 5077.15 6053.92L5442.54 6808.46C5447.63 6818.99 5460.63 6822.91 5470.7 6816.98L5543.37 6774.13C5551.81 6769.15 5555.4 6758.8 5551.85 6749.66L5255.59 5986.27C5251.65 5976.12 5240.32 5970.98 5230.09 5974.71Z" fill="#178085"/>
<path d="M4505.5 3910.5V3690C4505.5 3678.95 4514.45 3670 4525.5 3670H4665C4676.05 3670 4685 3678.95 4685 3690V3910.5C4685 3921.55 4676.05 3930.5 4665 3930.5H4525.5C4514.45 3930.5 4505.5 3921.55 4505.5 3910.5Z" fill="#178085"/>
<path d="M3906.5 3978.5V3497.5C3906.5 3486.45 3915.45 3477.5 3926.5 3477.5H4095C4106.05 3477.5 4115 3486.45 4115 3497.5V3978.5C4115 3989.55 4106.05 3998.5 4095 3998.5H3926.5C3915.45 3998.5 3906.5 3989.55 3906.5 3978.5Z" fill="#178085"/>
<path d="M4843.95 4411.25L5197.96 3900.21C5203.91 3891.63 5215.46 3889.06 5224.48 3894.33L5434.8 4017.08C5444.88 4022.97 5447.8 4036.2 5441.14 4045.78L4797.21 4971.66C4790.79 4980.89 4778.03 4983.02 4768.96 4976.37L4685.67 4915.26C4677.35 4909.16 4675.04 4897.73 4680.33 4888.88L4814.21 4664.83C4815.72 4662.31 4816.65 4659.48 4816.94 4656.56L4840.49 4420.65C4840.82 4417.27 4842.01 4414.04 4843.95 4411.25Z" fill="#178085"/>
<path d="M4558 4529V3989.5C4558 3978.45 4566.95 3969.5 4578 3969.5H4749.5C4760.55 3969.5 4769.5 3978.45 4769.5 3989.5V4529C4769.5 4540.05 4760.55 4549 4749.5 4549H4578C4566.95 4549 4558 4540.05 4558 4529Z" fill="#178085"/>
<path d="M6277.83 5979.71L5585.32 5752.2C5576.15 5749.19 5570.44 5740.06 5571.74 5730.5L5588.15 5609.66C5589.87 5597 5602.87 5589.17 5614.86 5593.58L6312.83 5849.88C6322.34 5853.37 6327.74 5863.42 6325.4 5873.28L6303.53 5965.33C6300.82 5976.72 6288.95 5983.36 6277.83 5979.71Z" fill="#178085"/>
<path d="M6377.98 5922.93L6418.51 5371.7C6419.33 5360.59 6429.08 5352.28 6440.18 5353.24L6648.68 5371.25C6659.84 5372.21 6668.03 5382.14 6666.85 5393.28L6609.03 5939.36C6607.9 5950.05 6598.52 5957.93 6587.8 5957.21L6396.58 5944.35C6385.51 5943.61 6377.16 5933.99 6377.98 5922.93Z" fill="#178085"/>
<path d="M5607 5420.24V5331.19C5607 5321.31 5614.22 5312.9 5624 5311.42L6324.48 5205.11C6335.69 5203.41 6346.07 5211.36 6347.35 5222.62L6364.61 5374.06C6365.91 5385.44 6357.4 5395.59 6345.96 5396.29L5628.22 5440.2C5616.72 5440.91 5607 5431.76 5607 5420.24Z" fill="#178085"/>
<path d="M5326.49 4863.59L5254.02 4797.48C5244.86 4789.13 5245.43 4774.54 5255.21 4766.93L5741.55 4388.15C5749.93 4381.61 5761.96 4382.78 5768.93 4390.8L6094.41 4765.29C6102.03 4774.05 6100.61 4787.43 6091.33 4794.4L5589.02 5171.83C5578.93 5179.42 5564.41 5175.86 5558.96 5164.47L5504.99 5051.61C5500.91 5043.09 5503.35 5032.88 5510.84 5027.13L5857.44 4760.51C5866.83 4753.28 5867.92 4739.52 5859.77 4730.91L5728.53 4592.24C5721.43 4584.74 5709.78 4583.88 5701.66 4590.26L5352.32 4864.54C5344.63 4870.58 5333.71 4870.17 5326.49 4863.59Z" fill="#178085"/>
<path d="M3831.48 1299.71L3702.54 1162.84C3695.23 1155.09 3695.29 1142.97 3702.67 1135.28L3829.75 1002.85C3837.55 994.72 3850.53 994.64 3858.44 1002.68L4008.8 1155.54C4017.17 1164.05 4016.28 1177.95 4006.89 1185.31L3858.37 1301.73C3850.23 1308.11 3838.57 1307.24 3831.48 1299.71Z" fill="#178085"/>
<path d="M7321.8 3685.91L6827.83 3474.07C6817.5 3469.65 6812.85 3457.59 6817.53 3447.37L7066.09 2904.27C7070.52 2894.59 7081.76 2890.08 7091.66 2894.01L7599.66 3095.62C7610.4 3099.89 7615.3 3112.35 7610.35 3122.79L7347.76 3676.11C7343.15 3685.82 7331.68 3690.15 7321.8 3685.91Z" fill="#178085"/>
<path d="M3962.69 435.561L3813.53 545.006C3801.93 553.513 3802.83 571.111 3815.24 578.385L4572.12 1022.14C4582.44 1028.19 4595.73 1023.89 4600.55 1012.94L4677.64 837.731C4681.81 828.257 4678.06 817.168 4669 812.167L3984.19 434.177C3977.37 430.411 3968.98 430.951 3962.69 435.561Z" fill="#178085"/>
<path d="M4127.5 1773V1207.5C4127.5 1196.45 4136.45 1187.5 4147.5 1187.5H4472C4483.05 1187.5 4492 1196.45 4492 1207.5V1773C4492 1784.05 4483.05 1793 4472 1793H4147.5C4136.45 1793 4127.5 1784.05 4127.5 1773Z" fill="#178085"/>
<path d="M7367.81 2821.83L7472.43 2521.49C7473.46 2518.54 7475.17 2515.87 7477.42 2513.69L7482.93 2508.37C7486.81 2504.62 7492.04 2502.59 7497.44 2502.75L7940.92 2516.11C7955.07 2516.54 7964.31 2531.14 7958.64 2544.12L7754.91 3009.78C7750.33 3020.25 7737.94 3024.76 7727.71 3019.69L7377.81 2846.33C7368.78 2841.86 7364.49 2831.36 7367.81 2821.83Z" fill="#178085"/>
<path d="M6770.14 5834.02L7179.74 5271.65C7186.24 5262.73 7198.73 5260.76 7207.66 5267.25L7993.32 5838.24C8002.25 5844.73 8004.23 5857.24 7997.73 5866.18L7581.41 6438.63C7574.85 6447.64 7562.2 6449.56 7553.27 6442.9L6774.35 5861.82C6765.57 5855.27 6763.69 5842.87 6770.14 5834.02Z" fill="#178085"/>
<path d="M1826 4094.91V3635.17C1826 3620.11 1842.02 3610.46 1855.34 3617.49L2622.93 4022.7C2633.04 4028.03 2636.63 4040.73 2630.81 4050.57L1994.89 5125.47C1989.8 5134.08 1979.13 5137.6 1969.91 5133.71L1846.41 5081.61C1835.49 5077 1830.95 5063.97 1836.64 5053.57L2219.57 4354.71C2224.81 4345.15 2221.43 4333.16 2211.98 4327.74L1836.05 4112.26C1829.84 4108.7 1826 4102.08 1826 4094.91Z" fill="#178085"/>
<path d="M6859.38 6707.11L6434.46 6758.07C6421.85 6759.58 6411.05 6748.91 6412.59 6736.3C6454.82 6390.6 6718.81 6356.99 6861.79 6386.06C6870.79 6387.89 6877 6395.94 6877 6405.12V6687.25C6877 6697.38 6869.43 6705.91 6859.38 6707.11Z" fill="#178085"/>
<path d="M6494 7817V6920.82C6494 6909.84 6502.87 6900.9 6513.86 6900.83L8274.63 6888.15C8285.82 6888.07 8294.9 6897.18 8294.78 6908.37L8284.81 7817.22C8284.69 7828.18 8275.77 7837 8264.81 7837H6514C6502.95 7837 6494 7828.05 6494 7817Z" fill="#178085"/>
<path d="M8913.44 7938.57L8884.06 6913.54C8883.75 6902.67 8892.17 6893.55 8903.02 6892.99L9790.47 6847.09C9801.9 6846.5 9811.5 6855.61 9811.5 6867.06V7938C9811.5 7949.05 9802.55 7958 9791.5 7958H8933.43C8922.61 7958 8913.75 7949.39 8913.44 7938.57Z" fill="#178085"/>
<path d="M8957.5 6186.5V5985C8957.5 5975.2 8964.6 5966.84 8974.28 5965.26L9653.78 5854.29C9665.95 5852.3 9677 5861.7 9677 5874.03V6199.38C9677 6203.98 9675.41 6208.51 9672.36 6211.96C9567.11 6330.75 9339.38 6260.95 9233.18 6208.58C9230.37 6207.2 9227.37 6206.5 9224.25 6206.5H8977.5C8966.45 6206.5 8957.5 6197.55 8957.5 6186.5Z" fill="#178085"/>
<path d="M5951.54 3880.32L5672.51 3665.2C5661.98 3657.08 5662.15 3641.15 5672.85 3633.26L6221.89 3228.43C6229.06 3223.14 6238.87 3223.24 6245.94 3228.67L6626.73 3521.09C6638.43 3530.08 6636.71 3548.19 6623.54 3554.82L5972.74 3882.34C5965.87 3885.8 5957.63 3885.01 5951.54 3880.32Z" fill="#178085"/>
<path d="M6336.12 3997.17L6206.52 4020.89C6189.06 4024.09 6184.11 4046.75 6198.64 4056.94L7487.13 4960.22C7497.59 4967.55 7512.34 4962.93 7516.55 4950.87C7682.79 4474.87 6793.26 4210.14 6348.22 3998.73C6344.41 3996.92 6340.27 3996.41 6336.12 3997.17Z" fill="#178085"/>
<path d="M2738.22 1947.31L3294.21 1575.87C3299.71 1572.2 3306.67 1571.48 3312.8 1573.95L3453.76 1630.77C3460.93 1633.66 3465.79 1640.42 3466.25 1648.14L3506.47 2328.58C3507.37 2343.91 3491.37 2354.5 3477.61 2347.67L2740.44 1981.86C2726.67 1975.02 2725.44 1955.85 2738.22 1947.31Z" fill="#178085"/>
<defs>
<filter id="filter0_i_143_14" x="2239.99" y="3570" width="8128.01" height="4471.5" filterUnits="userSpaceOnUse" color-interpolation-filters="sRGB">
<feFlood flood-opacity="0" result="BackgroundImageFix"/>
<feBlend mode="normal" in="SourceGraphic" in2="BackgroundImageFix" result="shape"/>
<feColorMatrix in="SourceAlpha" type="matrix" values="0 0 0 0 0 0 0 0 0 0 0 0 0 0 0 0 0 0 127 0" result="hardAlpha"/>
<feOffset dx="10" dy="10"/>
<feGaussianBlur stdDeviation="5"/>
<feComposite in2="hardAlpha" operator="arithmetic" k2="-1" k3="1"/>
<feColorMatrix type="matrix" values="0 0 0 0 0 0 0 0 0 0 0 0 0 0 0 0 0 0 0.25 0"/>
<feBlend mode="normal" in2="shape" result="effect1_innerShadow_143_14"/>
</filter>
</defs>
</svg>
