<svg width="368" height="491" viewBox="0 0 368 491" fill="none" xmlns="http://www.w3.org/2000/svg">
<g filter="url(#filter0_d_373_686)">
<rect x="9" y="51.0776" width="338.565" height="426.922" rx="15" fill="#FEA3E2"/>
<rect x="6.5" y="48.5776" width="343.565" height="431.922" rx="17.5" stroke="white" stroke-width="5"/>
</g>
<g filter="url(#filter1_d_373_686)">
<path d="M69.1777 29.0985C69.1777 24.6837 72.0752 20.7755 76.3301 19.598C129.081 4.99972 177.235 5 177.236 5C177.236 5 177.236 5 177.236 5H200.784L232.966 8.76097L280.196 19.8498C284.716 20.9108 287.911 24.9427 287.911 29.585V85.022C287.911 91.2226 282.301 95.9198 276.18 94.9324C202.756 83.089 156.252 83.6488 80.786 95.0828C74.7043 96.0042 69.1777 91.3193 69.1777 85.1681V29.0985Z" fill="url(#paint0_linear_373_686)"/>
<path d="M201.074 2.5169L200.929 2.5H200.784H177.236C177.153 2.5 128.736 2.50128 75.6633 17.1886C70.2962 18.6739 66.6777 23.5902 66.6777 29.0985V85.1681C66.6777 92.8723 73.5892 98.7017 81.1606 97.5546C156.396 86.1554 202.638 85.6024 275.782 97.4005C283.396 98.6287 290.411 92.7897 290.411 85.022V29.585C290.411 23.7821 286.417 18.7423 280.768 17.4159L233.537 6.32715L233.398 6.29447L233.256 6.27787L201.074 2.5169Z" stroke="white" stroke-width="5"/>
</g>
<path d="M150.886 43.9042L150.346 46.2842H145.286L149.166 31.2842H156.586L160.466 46.2842H155.406L154.846 43.9042H150.886ZM153.006 35.8842H152.746L151.766 40.0842H153.966L153.006 35.8842ZM161.395 45.6842V30.6842L166.195 30.3242V34.3042C166.781 34.0508 167.581 33.9242 168.595 33.9242C169.555 33.9242 170.361 34.0975 171.015 34.4442C171.668 34.7908 172.195 35.2575 172.595 35.8442C173.008 36.4175 173.301 37.0908 173.475 37.8642C173.661 38.6375 173.755 39.4442 173.755 40.2842C173.755 42.5375 173.235 44.1642 172.195 45.1642C171.155 46.1508 169.581 46.6442 167.475 46.6442C165.368 46.6442 163.341 46.3242 161.395 45.6842ZM166.195 38.3242V43.1442H166.935C167.521 43.1442 167.941 43.0842 168.195 42.9642C168.461 42.8442 168.595 42.5642 168.595 42.1242V37.4242H167.855C167.508 37.4242 167.228 37.4375 167.015 37.4642C166.801 37.4908 166.615 37.5775 166.455 37.7242C166.295 37.8575 166.208 38.0575 166.195 38.3242ZM175.192 40.2842C175.192 38.1375 175.692 36.5442 176.692 35.5042C177.692 34.4508 179.312 33.9242 181.552 33.9242C183.792 33.9242 185.412 34.4508 186.412 35.5042C187.412 36.5442 187.912 38.1375 187.912 40.2842C187.912 42.4308 187.412 44.0308 186.412 45.0842C185.412 46.1242 183.792 46.6442 181.552 46.6442C179.365 46.6442 177.759 46.1308 176.732 45.1042C175.705 44.0775 175.192 42.4708 175.192 40.2842ZM180.352 38.4442V43.1442H181.092C181.679 43.1442 182.099 43.0842 182.352 42.9642C182.619 42.8442 182.752 42.5642 182.752 42.1242V37.4242H182.012C181.425 37.4242 180.999 37.4842 180.732 37.6042C180.479 37.7242 180.352 38.0042 180.352 38.4442ZM189.592 34.2842H194.392V43.1442H195.132C195.719 43.1442 196.139 43.0842 196.392 42.9642C196.659 42.8442 196.792 42.5642 196.792 42.1242V34.2842H201.592V46.2842H199.192L197.792 44.9242C196.832 46.0708 195.465 46.6442 193.692 46.6442C192.265 46.6442 191.225 46.3442 190.572 45.7442C189.919 45.1308 189.592 44.1108 189.592 42.6842V34.2842ZM204.472 37.3842H203.272V34.2842H204.472V32.3642L209.272 31.1642V34.2842H210.932V37.3842H209.272V42.8442C209.472 42.8842 209.692 42.9242 209.932 42.9642C210.172 42.9908 210.426 43.0108 210.692 43.0242L210.472 46.5442C208.286 46.5442 206.859 46.4242 206.192 46.1842C205.632 45.9842 205.206 45.7308 204.912 45.4242C204.619 45.1042 204.472 44.6375 204.472 44.0242V37.3842Z" fill="white"/>
<g filter="url(#filter2_d_373_686)">
<rect x="325" y="278.644" width="39" height="61.1233" rx="5" fill="#F8D5E7"/>
<rect x="325" y="278.644" width="39" height="61.1233" rx="5" fill="black" fill-opacity="0.2"/>
</g>
<path d="M343.656 316.808C344.722 316.808 345.602 317.155 346.296 317.848C347.016 318.542 347.376 319.448 347.376 320.568C347.376 321.688 347.016 322.595 346.296 323.288C345.602 323.982 344.722 324.328 343.656 324.328C342.589 324.328 341.696 323.968 340.976 323.248C340.256 322.528 339.896 321.635 339.896 320.568C339.896 319.448 340.256 318.542 340.976 317.848C341.696 317.155 342.589 316.808 343.656 316.808ZM352.096 301.008C352.096 301.968 352.029 302.835 351.896 303.608C351.789 304.382 351.602 305.115 351.336 305.808C351.096 306.502 350.762 307.195 350.336 307.888C349.936 308.555 349.456 309.275 348.896 310.048C348.176 311.008 347.642 311.835 347.296 312.528C346.949 313.195 346.776 313.995 346.776 314.928H340.376C340.376 314.022 340.429 313.222 340.536 312.528C340.669 311.808 340.842 311.142 341.056 310.528C341.296 309.915 341.589 309.328 341.936 308.768C342.282 308.208 342.669 307.622 343.096 307.008C343.496 306.448 343.829 305.942 344.096 305.488C344.362 305.035 344.589 304.595 344.776 304.168C344.962 303.715 345.096 303.248 345.176 302.768C345.256 302.288 345.296 301.755 345.296 301.168V301.128C345.296 300.595 345.016 300.328 344.456 300.328C343.922 300.328 343.656 300.595 343.656 301.128V303.288L337.256 303.688L336.856 301.008C336.856 298.768 337.522 297.035 338.856 295.808C340.189 294.555 342.056 293.928 344.456 293.928C346.882 293.928 348.762 294.555 350.096 295.808C351.429 297.035 352.096 298.768 352.096 301.008Z" fill="#9E8894"/>
<g filter="url(#filter3_d_373_686)">
<rect x="325" y="210.938" width="39" height="62.0636" rx="5" fill="#F8D5E7"/>
<rect x="325" y="210.938" width="39" height="62.0636" rx="5" fill="black" fill-opacity="0.2"/>
</g>
<path d="M341.829 228.236C340.536 227.888 339.234 228.874 339.234 230.2C339.234 230.383 339.182 230.565 339.083 230.724L337.841 232.725C337.095 233.928 336.767 235.328 336.908 236.709C337.023 237.833 336.769 238.973 336.183 239.965L335.863 240.508C335.121 241.763 334.799 243.207 334.943 244.631L335.118 246.36C335.163 246.807 335.021 247.258 334.724 247.61C333.465 249.099 334.139 251.327 336 251.829L347.615 254.961C349.454 255.457 351.439 254.684 352.477 253.068C352.921 252.375 353.158 251.576 353.158 250.767L353.158 249.146C353.158 247.977 353.525 246.825 354.209 245.85C355.012 244.704 355.443 243.352 355.443 241.978L355.443 241.602C355.443 240.451 355.757 239.312 356.352 238.305L357.349 236.618C357.649 236.11 357.807 235.536 357.807 234.956C357.807 233.524 356.853 232.287 355.458 231.911L341.829 228.236Z" fill="#C6AAB9"/>
<path d="M341.829 228.236C340.536 227.888 339.234 228.874 339.234 230.2C339.234 230.383 339.182 230.565 339.083 230.724L337.841 232.725C337.095 233.928 336.767 235.328 336.908 236.709C337.023 237.833 336.769 238.973 336.183 239.965L335.863 240.508C335.121 241.763 334.799 243.207 334.943 244.631L335.118 246.36C335.163 246.807 335.021 247.258 334.724 247.61C333.465 249.099 334.139 251.327 336 251.829L347.615 254.961C349.454 255.457 351.439 254.684 352.477 253.068C352.921 252.375 353.158 251.576 353.158 250.767L353.158 249.146C353.158 247.977 353.525 246.825 354.209 245.85C355.012 244.704 355.443 243.352 355.443 241.978L355.443 241.602C355.443 240.451 355.757 239.312 356.352 238.305L357.349 236.618C357.649 236.11 357.807 235.536 357.807 234.956C357.807 233.524 356.853 232.287 355.458 231.911L341.829 228.236Z" fill="black" fill-opacity="0.2"/>
<path d="M341.829 228.236C340.536 227.888 339.234 228.874 339.234 230.2C339.234 230.383 339.182 230.565 339.083 230.724L337.841 232.725C337.095 233.928 336.767 235.328 336.908 236.709C337.023 237.833 336.769 238.973 336.183 239.965L335.863 240.508C335.121 241.763 334.799 243.207 334.943 244.631L335.118 246.36C335.163 246.807 335.021 247.258 334.724 247.61C333.465 249.099 334.139 251.327 336 251.829L347.615 254.961C349.454 255.457 351.439 254.684 352.477 253.068C352.921 252.375 353.158 251.576 353.158 250.767L353.158 249.146C353.158 247.977 353.525 246.825 354.209 245.85C355.012 244.704 355.443 243.352 355.443 241.978L355.443 241.602C355.443 240.451 355.757 239.312 356.352 238.305L357.349 236.618C357.649 236.11 357.807 235.536 357.807 234.956C357.807 233.524 356.853 232.287 355.458 231.911L341.829 228.236Z" stroke="#C6AAB9"/>
<path d="M341.677 236.125L352.518 239.048" stroke="#C6AAB9" stroke-width="1.5" stroke-linecap="round"/>
<path d="M341.198 238.337L351.678 241.163" stroke="#C6AAB9" stroke-width="1.5" stroke-linecap="round"/>
<path d="M340.091 240.416L351.113 243.388" stroke="#C6AAB9" stroke-width="1.5" stroke-linecap="round"/>
<path d="M339.46 242.49L350.543 245.479" stroke="#C6AAB9" stroke-width="1.5" stroke-linecap="round"/>
<path d="M339.145 244.713L349.987 247.637" stroke="#C6AAB9" stroke-width="1.5" stroke-linecap="round"/>
<path d="M338.884 250.885L338.884 250.886C338.97 251.171 339.181 251.388 339.456 251.486C339.714 251.579 339.982 251.55 340.2 251.46C340.669 251.265 340.935 250.799 340.927 250.295L340.927 250.278C340.904 249.665 340.731 248.584 340.404 247.572C340.864 246.819 341.125 246.117 341.225 245.434C341.339 244.656 341.236 243.954 341.047 243.296C340.958 242.986 340.673 242.775 340.343 242.774C340.139 242.774 339.948 242.854 339.806 242.987C339.815 242.714 339.816 242.437 339.805 242.167C339.779 241.594 339.692 240.981 339.449 240.476L338.884 250.885ZM338.884 250.885C338.819 250.67 338.732 250.391 338.628 250.059C338.496 249.636 338.338 249.128 338.164 248.559M338.884 250.885L338.164 248.559M338.164 248.559C337.989 248.544 337.822 248.535 337.655 248.527C337.619 248.525 337.582 248.523 337.545 248.521C337.219 248.503 336.852 248.48 336.495 248.381C335.691 248.158 335.109 247.61 334.522 246.551C334.376 246.288 334.41 245.96 334.608 245.721C334.655 245.664 334.709 245.615 334.769 245.575C333.97 245.299 333.097 244.779 332.387 243.771C332.212 243.522 332.214 243.189 332.391 242.932C332.438 242.864 332.495 242.804 332.558 242.755C332.205 242.617 331.858 242.422 331.562 242.137L338.164 248.559ZM330.928 239.244C331.073 238.954 331.333 238.722 331.546 238.56C331.782 238.382 332.062 238.215 332.351 238.073C332.895 237.807 333.624 237.555 334.239 237.599C334.554 237.622 334.801 237.773 334.962 237.898C335.134 238.031 335.289 238.197 335.423 238.361C335.507 238.463 335.59 238.573 335.672 238.688C335.696 238.54 335.764 238.398 335.874 238.282C336.098 238.047 336.445 237.973 336.738 238.097C337.167 238.28 337.715 238.629 338.201 239.028C338.677 239.418 339.187 239.932 339.449 240.476L330.928 239.244ZM330.928 239.244C330.802 239.498 330.772 239.78 330.769 240C330.767 240.238 330.797 240.491 330.851 240.735C330.954 241.197 331.172 241.762 331.561 242.136L330.928 239.244ZM333.788 244.178C334.712 244.938 335.742 245.083 336.413 245.146L333.788 244.178ZM333.788 244.178C333.496 244.169 333.179 244.133 332.838 244.063L333.013 243.335L333.788 244.178ZM336.579 245.161C336.53 245.157 336.479 245.152 336.425 245.147C336.408 245.183 336.366 245.29 336.39 245.44L337.137 245.305C337.122 245.209 336.911 245.19 336.579 245.161Z" fill="#C6AAB9"/>
<path d="M338.884 250.885L338.884 250.886C338.97 251.171 339.181 251.388 339.456 251.486C339.714 251.579 339.982 251.55 340.2 251.46C340.669 251.265 340.935 250.799 340.927 250.295L340.927 250.278C340.904 249.665 340.731 248.584 340.404 247.572C340.864 246.819 341.125 246.117 341.225 245.434C341.339 244.656 341.236 243.954 341.047 243.296C340.958 242.986 340.673 242.775 340.343 242.774C340.139 242.774 339.948 242.854 339.806 242.987C339.815 242.714 339.816 242.437 339.805 242.167C339.779 241.594 339.692 240.981 339.449 240.476L338.884 250.885ZM338.884 250.885C338.819 250.67 338.732 250.391 338.628 250.059C338.496 249.636 338.338 249.128 338.164 248.559M338.884 250.885L338.164 248.559M338.164 248.559C337.989 248.544 337.822 248.535 337.655 248.527C337.619 248.525 337.582 248.523 337.545 248.521C337.219 248.503 336.852 248.48 336.495 248.381C335.691 248.158 335.109 247.61 334.522 246.551C334.376 246.288 334.41 245.96 334.608 245.721C334.655 245.664 334.709 245.615 334.769 245.575C333.97 245.299 333.097 244.779 332.387 243.771C332.212 243.522 332.214 243.189 332.391 242.932C332.438 242.864 332.495 242.804 332.558 242.755C332.205 242.617 331.858 242.422 331.562 242.137L338.164 248.559ZM330.928 239.244C331.073 238.954 331.333 238.722 331.546 238.56C331.782 238.382 332.062 238.215 332.351 238.073C332.895 237.807 333.624 237.555 334.239 237.599C334.554 237.622 334.801 237.773 334.962 237.898C335.134 238.031 335.289 238.197 335.423 238.361C335.507 238.463 335.59 238.573 335.672 238.688C335.696 238.54 335.764 238.398 335.874 238.282C336.098 238.047 336.445 237.973 336.738 238.097C337.167 238.28 337.715 238.629 338.201 239.028C338.677 239.418 339.187 239.932 339.449 240.476L330.928 239.244ZM330.928 239.244C330.802 239.498 330.772 239.78 330.769 240C330.767 240.238 330.797 240.491 330.851 240.735C330.954 241.197 331.172 241.762 331.561 242.136L330.928 239.244ZM333.788 244.178C334.712 244.938 335.742 245.083 336.413 245.146L333.788 244.178ZM333.788 244.178C333.496 244.169 333.179 244.133 332.838 244.063L333.013 243.335L333.788 244.178ZM336.579 245.161C336.53 245.157 336.479 245.152 336.425 245.147C336.408 245.183 336.366 245.29 336.39 245.44L337.137 245.305C337.122 245.209 336.911 245.19 336.579 245.161Z" fill="black" fill-opacity="0.2"/>
<path d="M338.884 250.885L338.884 250.886C338.97 251.171 339.181 251.388 339.456 251.486C339.714 251.579 339.982 251.55 340.2 251.46C340.669 251.265 340.935 250.799 340.927 250.295L340.927 250.278C340.904 249.665 340.731 248.584 340.404 247.572C340.864 246.819 341.125 246.117 341.225 245.434C341.339 244.656 341.236 243.954 341.047 243.296C340.958 242.986 340.673 242.775 340.343 242.774C340.139 242.774 339.948 242.854 339.806 242.987C339.815 242.714 339.816 242.437 339.805 242.167C339.779 241.594 339.692 240.981 339.449 240.476L338.884 250.885ZM338.884 250.885C338.819 250.67 338.732 250.391 338.628 250.059C338.496 249.636 338.338 249.128 338.164 248.559M338.884 250.885L338.164 248.559M338.164 248.559C337.989 248.544 337.822 248.535 337.655 248.527C337.619 248.525 337.582 248.523 337.545 248.521C337.219 248.503 336.852 248.48 336.495 248.381C335.691 248.158 335.109 247.61 334.522 246.551C334.376 246.288 334.41 245.96 334.608 245.721C334.655 245.664 334.709 245.615 334.769 245.575C333.97 245.299 333.097 244.779 332.387 243.771C332.212 243.522 332.214 243.189 332.391 242.932C332.438 242.864 332.495 242.804 332.558 242.755C332.205 242.617 331.858 242.422 331.562 242.137L338.164 248.559ZM330.928 239.244C331.073 238.954 331.333 238.722 331.546 238.56C331.782 238.382 332.062 238.215 332.351 238.073C332.895 237.807 333.624 237.555 334.239 237.599C334.554 237.622 334.801 237.773 334.962 237.898C335.134 238.031 335.289 238.197 335.423 238.361C335.507 238.463 335.59 238.573 335.672 238.688C335.696 238.54 335.764 238.398 335.874 238.282C336.098 238.047 336.445 237.973 336.738 238.097C337.167 238.28 337.715 238.629 338.201 239.028C338.677 239.418 339.187 239.932 339.449 240.476L330.928 239.244ZM330.928 239.244C330.802 239.498 330.772 239.78 330.769 240C330.767 240.238 330.797 240.491 330.851 240.735C330.954 241.197 331.172 241.762 331.561 242.136L330.928 239.244ZM333.788 244.178C334.712 244.938 335.742 245.083 336.413 245.146L333.788 244.178ZM333.788 244.178C333.496 244.169 333.179 244.133 332.838 244.063L333.013 243.335L333.788 244.178ZM336.579 245.161C336.53 245.157 336.479 245.152 336.425 245.147C336.408 245.183 336.366 245.29 336.39 245.44L337.137 245.305C337.122 245.209 336.911 245.19 336.579 245.161Z" stroke="#C6AAB9" stroke-width="1.5" stroke-linejoin="round"/>
<path d="M66.48 120.897V123.201H60.72V114.201H63.6V120.897H66.48ZM66.9828 119.601C66.9828 118.313 67.2828 117.357 67.8828 116.733C68.4828 116.101 69.4548 115.785 70.7988 115.785C72.1428 115.785 73.1148 116.101 73.7148 116.733C74.3148 117.357 74.6148 118.313 74.6148 119.601C74.6148 120.889 74.3148 121.849 73.7148 122.481C73.1148 123.105 72.1428 123.417 70.7988 123.417C69.4868 123.417 68.5228 123.109 67.9068 122.493C67.2908 121.877 66.9828 120.913 66.9828 119.601ZM70.0788 118.497V121.317H70.5228C70.8748 121.317 71.1268 121.281 71.2788 121.209C71.4388 121.137 71.5188 120.969 71.5188 120.705V117.885H71.0748C70.7228 117.885 70.4668 117.921 70.3068 117.993C70.1548 118.065 70.0788 118.233 70.0788 118.497ZM75.7669 123.201V116.001H77.2069L77.9989 116.805C78.5749 116.277 79.2869 115.937 80.1349 115.785L80.3029 118.509C80.1909 118.509 80.0549 118.525 79.8949 118.557C79.7349 118.589 79.5709 118.629 79.4029 118.677C79.2429 118.725 79.0949 118.785 78.9589 118.857C78.8229 118.921 78.7189 118.997 78.6469 119.085V123.201H75.7669ZM83.9772 120.753V121.257C84.1212 121.273 84.2652 121.285 84.4092 121.293C84.5532 121.301 84.6972 121.305 84.8412 121.305C85.7372 121.305 86.6412 121.161 87.5532 120.873L87.8892 122.985C86.8092 123.273 85.7452 123.417 84.6972 123.417C83.3532 123.417 82.3812 123.105 81.7812 122.481C81.1812 121.849 80.8812 120.889 80.8812 119.601C80.8812 118.313 81.1812 117.357 81.7812 116.733C82.3892 116.101 83.3612 115.785 84.6972 115.785C85.3692 115.785 85.9292 115.829 86.3772 115.917C86.8252 115.997 87.1852 116.137 87.4572 116.337C87.7372 116.529 87.9332 116.793 88.0452 117.129C88.1652 117.457 88.2252 117.873 88.2252 118.377C88.2252 118.793 88.1532 119.153 88.0092 119.457C87.8732 119.753 87.6412 119.997 87.3132 120.189C86.9852 120.381 86.5492 120.525 86.0052 120.621C85.4612 120.709 84.7852 120.753 83.9772 120.753ZM83.9772 118.497V119.085H84.5652C84.9172 119.085 85.1692 119.049 85.3212 118.977C85.4812 118.905 85.5612 118.737 85.5612 118.473V117.885H84.9732C84.6212 117.885 84.3652 117.921 84.2052 117.993C84.0532 118.065 83.9772 118.233 83.9772 118.497ZM93.334 123.201V118.161H93.13C93.002 118.161 92.878 118.165 92.758 118.173C92.646 118.181 92.546 118.209 92.458 118.257C92.37 118.297 92.302 118.361 92.254 118.449C92.206 118.537 92.182 118.661 92.182 118.821V123.201H89.302V116.001H90.742L91.39 116.661C91.974 116.077 92.742 115.785 93.694 115.785C94.638 115.785 95.326 115.981 95.758 116.373C96.358 115.981 97.038 115.785 97.798 115.785C98.574 115.785 99.174 115.933 99.598 116.229C100.03 116.517 100.246 116.921 100.246 117.441V123.201H97.366V118.161H97.162C97.05 118.161 96.938 118.165 96.826 118.173C96.714 118.181 96.614 118.205 96.526 118.245C96.446 118.277 96.374 118.333 96.31 118.413C96.254 118.493 96.222 118.601 96.214 118.737V123.201H93.334ZM108.084 123.201H105.204V116.361L108.084 116.001V123.201ZM105.048 114.645C105.048 114.429 105.072 114.249 105.12 114.105C105.168 113.953 105.252 113.833 105.372 113.745C105.492 113.649 105.656 113.581 105.864 113.541C106.072 113.501 106.336 113.481 106.656 113.481C106.976 113.481 107.236 113.501 107.436 113.541C107.644 113.581 107.808 113.649 107.928 113.745C108.048 113.833 108.132 113.953 108.18 114.105C108.228 114.249 108.252 114.429 108.252 114.645C108.252 114.861 108.228 115.041 108.18 115.185C108.132 115.329 108.048 115.449 107.928 115.545C107.808 115.633 107.644 115.697 107.436 115.737C107.236 115.769 106.976 115.785 106.656 115.785C106.424 115.785 106.208 115.777 106.008 115.761C105.816 115.745 105.648 115.701 105.504 115.629C105.36 115.549 105.248 115.433 105.168 115.281C105.088 115.129 105.048 114.917 105.048 114.645ZM113.561 123.201V118.161H113.357C113.229 118.161 113.105 118.165 112.985 118.173C112.873 118.181 112.773 118.209 112.685 118.257C112.597 118.297 112.529 118.361 112.481 118.449C112.433 118.537 112.409 118.661 112.409 118.821V123.201H109.529V116.001H110.969L111.617 116.661C112.201 116.077 112.969 115.785 113.921 115.785C114.865 115.785 115.553 115.981 115.985 116.373C116.585 115.981 117.265 115.785 118.025 115.785C118.801 115.785 119.401 115.933 119.825 116.229C120.257 116.517 120.473 116.921 120.473 117.441V123.201H117.593V118.161H117.389C117.277 118.161 117.165 118.165 117.053 118.173C116.941 118.181 116.841 118.205 116.753 118.245C116.673 118.277 116.601 118.333 116.537 118.413C116.481 118.493 116.449 118.601 116.441 118.737V123.201H113.561ZM121.833 125.577V116.001H123.273L123.801 116.721C124.225 116.097 125.009 115.785 126.153 115.785C126.729 115.785 127.213 115.889 127.605 116.097C127.997 116.305 128.313 116.585 128.553 116.937C128.801 117.281 128.977 117.685 129.081 118.149C129.193 118.613 129.249 119.097 129.249 119.601C129.249 120.089 129.201 120.549 129.105 120.981C129.009 121.413 128.849 121.797 128.625 122.133C128.401 122.461 128.105 122.721 127.737 122.913C127.369 123.105 126.913 123.201 126.369 123.201H124.713V125.361L121.833 125.577ZM124.713 118.425V121.317H125.157C125.509 121.317 125.761 121.281 125.913 121.209C126.073 121.137 126.153 120.969 126.153 120.705V117.885H125.709C125.501 117.885 125.333 117.893 125.205 117.909C125.077 117.925 124.965 117.977 124.869 118.065C124.773 118.145 124.721 118.265 124.713 118.425ZM131.096 116.289C131.712 115.953 132.556 115.785 133.628 115.785C134.708 115.785 135.696 115.933 136.592 116.229L136.256 118.185C135.88 118.073 135.508 117.993 135.14 117.945C134.772 117.897 134.396 117.873 134.012 117.873C133.9 117.873 133.76 117.877 133.592 117.885C133.432 117.893 133.248 117.909 133.04 117.933V118.389C133.48 118.389 133.932 118.413 134.396 118.461C134.86 118.501 135.28 118.605 135.656 118.773C136.04 118.933 136.352 119.177 136.592 119.505C136.84 119.825 136.964 120.265 136.964 120.825C136.964 121.217 136.92 121.569 136.832 121.881C136.744 122.185 136.608 122.429 136.424 122.613C136.232 122.797 136.032 122.945 135.824 123.057C135.624 123.169 135.36 123.249 135.032 123.297C134.776 123.337 134.5 123.365 134.204 123.381C133.916 123.405 133.604 123.417 133.268 123.417C132.092 123.417 131.016 123.277 130.04 122.997L130.4 120.957C130.808 121.077 131.228 121.169 131.66 121.233C132.092 121.297 132.544 121.329 133.016 121.329C133.232 121.329 133.436 121.325 133.628 121.317C133.828 121.309 134.02 121.293 134.204 121.269V120.813C133.436 120.813 132.792 120.765 132.272 120.669C131.76 120.565 131.344 120.409 131.024 120.201C130.712 119.993 130.488 119.721 130.352 119.385C130.224 119.049 130.16 118.649 130.16 118.185C130.16 117.257 130.472 116.625 131.096 116.289ZM137.826 116.001H140.706V121.317H141.15C141.502 121.317 141.754 121.281 141.906 121.209C142.066 121.137 142.146 120.969 142.146 120.705V116.001H145.026V123.201H143.586L142.746 122.385C142.17 123.073 141.35 123.417 140.286 123.417C139.43 123.417 138.806 123.237 138.414 122.877C138.022 122.509 137.826 121.897 137.826 121.041V116.001ZM150.498 123.201V118.161H150.294C150.166 118.161 150.042 118.165 149.922 118.173C149.81 118.181 149.71 118.209 149.622 118.257C149.534 118.297 149.466 118.361 149.418 118.449C149.37 118.537 149.346 118.661 149.346 118.821V123.201H146.466V116.001H147.906L148.554 116.661C149.138 116.077 149.906 115.785 150.858 115.785C151.802 115.785 152.49 115.981 152.922 116.373C153.522 115.981 154.202 115.785 154.962 115.785C155.738 115.785 156.338 115.933 156.762 116.229C157.194 116.517 157.41 116.921 157.41 117.441V123.201H154.53V118.161H154.326C154.214 118.161 154.102 118.165 153.99 118.173C153.878 118.181 153.778 118.205 153.69 118.245C153.61 118.277 153.538 118.333 153.474 118.413C153.418 118.493 153.386 118.601 153.378 118.737V123.201H150.498Z" fill="#0D1E4C"/>
<path d="M61.908 137.609V145.409H65.856V146.201H61.044V137.609H61.908ZM66.4443 143.297C66.4443 141.521 67.6923 140.237 69.3963 140.237C71.1003 140.237 72.3483 141.521 72.3483 143.297C72.3483 145.061 71.1003 146.345 69.3963 146.345C67.6923 146.345 66.4443 145.061 66.4443 143.297ZM67.2843 143.285C67.2843 144.653 68.1483 145.601 69.3963 145.601C70.6323 145.601 71.5083 144.653 71.5083 143.285C71.5083 141.941 70.6323 140.981 69.3963 140.981C68.1483 140.981 67.2843 141.941 67.2843 143.285ZM76.7086 140.321V141.065H76.2526C75.1846 141.065 74.5006 141.785 74.5006 142.889V146.201H73.6726V140.393H74.4526L74.5126 141.293C74.7406 140.669 75.3526 140.261 76.1686 140.261C76.3486 140.261 76.5046 140.273 76.7086 140.321ZM80.0227 146.345C78.3187 146.345 77.1787 145.121 77.1787 143.297C77.1787 141.485 78.3067 140.237 79.9627 140.237C81.5347 140.237 82.6027 141.353 82.6027 142.997V143.405H77.9827C78.0427 144.821 78.7867 145.637 80.0347 145.637C80.9827 145.637 81.5947 145.229 81.8107 144.461H82.6027C82.2907 145.685 81.3907 146.345 80.0227 146.345ZM79.9627 140.945C78.8707 140.945 78.1507 141.665 78.0067 142.805H81.7747C81.7747 141.689 81.0547 140.945 79.9627 140.945ZM84.7545 146.201H83.9265V140.393H84.6465L84.7425 141.221C85.0305 140.609 85.6785 140.237 86.4945 140.237C87.4065 140.237 88.0905 140.717 88.3665 141.473C88.6305 140.717 89.3385 140.237 90.2745 140.237C91.5345 140.237 92.3625 141.053 92.3625 142.397V146.201H91.5585V142.565C91.5585 141.569 91.0065 140.981 90.1185 140.981C89.1465 140.981 88.5705 141.713 88.5705 142.613V146.201H87.7545V142.553C87.7545 141.569 87.1905 140.993 86.3145 140.993C85.3425 140.993 84.7545 141.713 84.7545 142.601V146.201ZM97.7642 138.797C97.4282 138.797 97.1522 138.521 97.1522 138.185C97.1522 137.849 97.4282 137.561 97.7642 137.561C98.1002 137.561 98.3882 137.849 98.3882 138.185C98.3882 138.521 98.1002 138.797 97.7642 138.797ZM97.3562 146.201V140.393H98.1842V146.201H97.3562ZM100.739 146.201H99.9109V140.393H100.631L100.727 141.221C101.015 140.609 101.663 140.237 102.479 140.237C103.391 140.237 104.075 140.717 104.351 141.473C104.615 140.717 105.323 140.237 106.259 140.237C107.519 140.237 108.347 141.053 108.347 142.397V146.201H107.543V142.565C107.543 141.569 106.991 140.981 106.103 140.981C105.131 140.981 104.555 141.713 104.555 142.613V146.201H103.739V142.553C103.739 141.569 103.175 140.993 102.299 140.993C101.327 140.993 100.739 141.713 100.739 142.601V146.201ZM110.012 148.733V140.393H110.732L110.816 141.569C111.224 140.669 112.04 140.237 113.012 140.237C114.692 140.237 115.7 141.521 115.7 143.273C115.7 145.025 114.728 146.345 113.012 146.345C112.028 146.345 111.248 145.925 110.84 145.085V148.733H110.012ZM110.852 143.297C110.852 144.629 111.596 145.601 112.868 145.601C114.128 145.601 114.86 144.629 114.86 143.297C114.86 141.953 114.128 140.993 112.868 140.993C111.596 140.993 110.852 141.953 110.852 143.297ZM116.528 144.569H117.32C117.32 145.241 117.824 145.661 118.64 145.661C119.54 145.661 120.068 145.277 120.068 144.653C120.068 144.173 119.828 143.897 119.144 143.729L118.148 143.477C117.14 143.225 116.648 142.697 116.648 141.905C116.648 140.885 117.5 140.237 118.748 140.237C119.972 140.237 120.764 140.909 120.8 141.989H119.996C119.972 141.317 119.504 140.921 118.724 140.921C117.908 140.921 117.452 141.269 117.452 141.893C117.452 142.337 117.764 142.649 118.4 142.805L119.396 143.057C120.404 143.309 120.86 143.777 120.86 144.617C120.86 145.661 119.972 146.345 118.652 146.345C117.344 146.345 116.528 145.649 116.528 144.569ZM126.303 140.393H127.131V146.201H126.411L126.303 145.217C125.979 145.889 125.175 146.345 124.263 146.345C122.895 146.345 122.151 145.409 122.151 143.993V140.381H122.991V143.729C122.991 145.109 123.603 145.601 124.527 145.601C125.643 145.601 126.303 144.857 126.303 143.477V140.393ZM129.684 146.201H128.856V140.393H129.576L129.672 141.221C129.96 140.609 130.608 140.237 131.424 140.237C132.336 140.237 133.02 140.717 133.296 141.473C133.56 140.717 134.268 140.237 135.204 140.237C136.464 140.237 137.292 141.053 137.292 142.397V146.201H136.488V142.565C136.488 141.569 135.936 140.981 135.048 140.981C134.076 140.981 133.5 141.713 133.5 142.613V146.201H132.684V142.553C132.684 141.569 132.12 140.993 131.244 140.993C130.272 140.993 129.684 141.713 129.684 142.601V146.201Z" fill="#0D1E4C"/>
<g filter="url(#filter4_d_373_686)">
<path d="M325 149.173C325 146.411 327.239 144.173 330 144.173H359C361.761 144.173 364 146.411 364 149.173V200.296C364 203.058 361.761 205.296 359 205.296H330C327.239 205.296 325 203.058 325 200.296V149.173Z" fill="#F8D5E7"/>
</g>
<path d="M28 74.8847C28 72.1233 30.2386 69.8848 33 69.8848H325C327.761 69.8848 330 72.1233 330 74.8848V449.193C330 454.716 325.523 459.193 320 459.193H33C30.2386 459.193 28 456.954 28 454.193V74.8847Z" fill="#F8D5E7"/>
<path d="M347 163.351C347 163.565 346.871 163.878 346.417 164.183C345.97 164.484 345.295 164.702 344.5 164.702C343.705 164.702 343.03 164.484 342.583 164.183C342.129 163.878 342 163.565 342 163.351C342 163.137 342.129 162.823 342.583 162.519C343.03 162.218 343.705 162 344.5 162C345.295 162 345.97 162.218 346.417 162.519C346.871 162.823 347 163.137 347 163.351Z" stroke="#FB80D6" stroke-width="2"/>
<ellipse cx="344.5" cy="179.437" rx="11.5" ry="9.87376" fill="#FB80D6"/>
<path d="M353.5 175.814C353.5 180.263 349.618 184.128 344.5 184.128C339.382 184.128 335.5 180.263 335.5 175.814C335.5 171.365 339.382 167.5 344.5 167.5C349.618 167.5 353.5 171.365 353.5 175.814Z" fill="#FFC8E4" stroke="#FEA3E2" stroke-width="5"/>
<rect x="343" y="164" width="3" height="1.88072" rx="0.940358" fill="#FB80D6"/>
<path d="M341.323 179.671L343.301 174.602L346.461 177.26L341.323 179.671Z" fill="#FEA3E2"/>
<path d="M348.439 172.191L343.301 174.602L346.461 177.26L348.439 172.191Z" fill="#FB80D6"/>
<path d="M68.64 119.427V122.499H60.96V110.499H64.8V119.427H68.64ZM69.3104 117.699C69.3104 115.982 69.7104 114.707 70.5104 113.875C71.3104 113.032 72.6064 112.611 74.3984 112.611C76.1904 112.611 77.4864 113.032 78.2864 113.875C79.0864 114.707 79.4864 115.982 79.4864 117.699C79.4864 119.416 79.0864 120.696 78.2864 121.539C77.4864 122.371 76.1904 122.787 74.3984 122.787C72.649 122.787 71.3637 122.376 70.5424 121.555C69.721 120.734 69.3104 119.448 69.3104 117.699ZM73.4384 116.227V119.987H74.0304C74.4997 119.987 74.8357 119.939 75.0384 119.843C75.2517 119.747 75.3584 119.523 75.3584 119.171V115.411H74.7664C74.297 115.411 73.9557 115.459 73.7424 115.555C73.5397 115.651 73.4384 115.875 73.4384 116.227ZM81.0225 122.499V112.899H82.9425L83.9985 113.971C84.7665 113.267 85.7158 112.814 86.8465 112.611L87.0705 116.243C86.9212 116.243 86.7398 116.264 86.5265 116.307C86.3132 116.35 86.0945 116.403 85.8705 116.467C85.6572 116.531 85.4598 116.611 85.2785 116.707C85.0972 116.792 84.9585 116.894 84.8625 117.011V122.499H81.0225ZM91.9696 119.235V119.907C92.1616 119.928 92.3536 119.944 92.5456 119.955C92.7376 119.966 92.9296 119.971 93.1216 119.971C94.3163 119.971 95.5216 119.779 96.7376 119.395L97.1856 122.211C95.7456 122.595 94.327 122.787 92.9296 122.787C91.1376 122.787 89.8416 122.371 89.0416 121.539C88.2416 120.696 87.8416 119.416 87.8416 117.699C87.8416 115.982 88.2416 114.707 89.0416 113.875C89.8523 113.032 91.1483 112.611 92.9296 112.611C93.8256 112.611 94.5723 112.67 95.1696 112.787C95.767 112.894 96.247 113.08 96.6096 113.347C96.983 113.603 97.2443 113.955 97.3936 114.403C97.5536 114.84 97.6336 115.395 97.6336 116.067C97.6336 116.622 97.5376 117.102 97.3456 117.507C97.1643 117.902 96.855 118.227 96.4176 118.483C95.9803 118.739 95.399 118.931 94.6736 119.059C93.9483 119.176 93.047 119.235 91.9696 119.235ZM91.9696 116.227V117.011H92.7536C93.223 117.011 93.559 116.963 93.7616 116.867C93.975 116.771 94.0816 116.547 94.0816 116.195V115.411H93.2976C92.8283 115.411 92.487 115.459 92.2736 115.555C92.071 115.651 91.9696 115.875 91.9696 116.227ZM104.445 122.499V115.779H104.173C104.003 115.779 103.837 115.784 103.677 115.795C103.528 115.806 103.395 115.843 103.277 115.907C103.16 115.96 103.069 116.046 103.005 116.163C102.941 116.28 102.909 116.446 102.909 116.659V122.499H99.0694V112.899H100.989L101.853 113.779C102.632 113 103.656 112.611 104.925 112.611C106.184 112.611 107.101 112.872 107.677 113.395C108.477 112.872 109.384 112.611 110.397 112.611C111.432 112.611 112.232 112.808 112.797 113.203C113.373 113.587 113.661 114.126 113.661 114.819V122.499H109.821V115.779H109.549C109.4 115.779 109.251 115.784 109.101 115.795C108.952 115.806 108.819 115.838 108.701 115.891C108.595 115.934 108.499 116.008 108.413 116.115C108.339 116.222 108.296 116.366 108.285 116.547V122.499H104.445ZM124.113 122.499H120.273V113.379L124.113 112.899V122.499ZM120.065 111.091C120.065 110.803 120.097 110.563 120.161 110.371C120.225 110.168 120.337 110.008 120.497 109.891C120.657 109.763 120.875 109.672 121.153 109.619C121.43 109.566 121.782 109.539 122.209 109.539C122.635 109.539 122.982 109.566 123.249 109.619C123.526 109.672 123.745 109.763 123.905 109.891C124.065 110.008 124.177 110.168 124.241 110.371C124.305 110.563 124.337 110.803 124.337 111.091C124.337 111.379 124.305 111.619 124.241 111.811C124.177 112.003 124.065 112.163 123.905 112.291C123.745 112.408 123.526 112.494 123.249 112.547C122.982 112.59 122.635 112.611 122.209 112.611C121.899 112.611 121.611 112.6 121.345 112.579C121.089 112.558 120.865 112.499 120.673 112.403C120.481 112.296 120.331 112.142 120.225 111.939C120.118 111.736 120.065 111.454 120.065 111.091ZM131.414 122.499V115.779H131.142C130.971 115.779 130.806 115.784 130.646 115.795C130.497 115.806 130.363 115.843 130.246 115.907C130.129 115.96 130.038 116.046 129.974 116.163C129.91 116.28 129.878 116.446 129.878 116.659V122.499H126.038V112.899H127.958L128.822 113.779C129.601 113 130.625 112.611 131.894 112.611C133.153 112.611 134.07 112.872 134.646 113.395C135.446 112.872 136.353 112.611 137.366 112.611C138.401 112.611 139.201 112.808 139.766 113.203C140.342 113.587 140.63 114.126 140.63 114.819V122.499H136.79V115.779H136.518C136.369 115.779 136.219 115.784 136.07 115.795C135.921 115.806 135.787 115.838 135.67 115.891C135.563 115.934 135.467 116.008 135.382 116.115C135.307 116.222 135.265 116.366 135.254 116.547V122.499H131.414ZM142.444 125.667V112.899H144.364L145.068 113.859C145.634 113.027 146.679 112.611 148.204 112.611C148.972 112.611 149.618 112.75 150.14 113.027C150.663 113.304 151.084 113.678 151.404 114.147C151.735 114.606 151.97 115.144 152.108 115.763C152.258 116.382 152.332 117.027 152.332 117.699C152.332 118.35 152.268 118.963 152.14 119.539C152.012 120.115 151.799 120.627 151.5 121.075C151.202 121.512 150.807 121.859 150.316 122.115C149.826 122.371 149.218 122.499 148.492 122.499H146.284V125.379L142.444 125.667ZM146.284 116.131V119.987H146.876C147.346 119.987 147.682 119.939 147.884 119.843C148.098 119.747 148.204 119.523 148.204 119.171V115.411H147.612C147.335 115.411 147.111 115.422 146.94 115.443C146.77 115.464 146.62 115.534 146.492 115.651C146.364 115.758 146.295 115.918 146.284 116.131ZM154.794 113.283C155.616 112.835 156.741 112.611 158.17 112.611C159.61 112.611 160.928 112.808 162.122 113.203L161.674 115.811C161.173 115.662 160.677 115.555 160.186 115.491C159.696 115.427 159.194 115.395 158.682 115.395C158.533 115.395 158.346 115.4 158.122 115.411C157.909 115.422 157.664 115.443 157.386 115.475V116.083C157.973 116.083 158.576 116.115 159.194 116.179C159.813 116.232 160.373 116.371 160.874 116.595C161.386 116.808 161.802 117.134 162.122 117.571C162.453 117.998 162.618 118.584 162.618 119.331C162.618 119.854 162.56 120.323 162.442 120.739C162.325 121.144 162.144 121.47 161.898 121.715C161.642 121.96 161.376 122.158 161.098 122.307C160.832 122.456 160.48 122.563 160.042 122.627C159.701 122.68 159.333 122.718 158.938 122.739C158.554 122.771 158.138 122.787 157.69 122.787C156.122 122.787 154.688 122.6 153.386 122.227L153.866 119.507C154.41 119.667 154.97 119.79 155.546 119.875C156.122 119.96 156.725 120.003 157.354 120.003C157.642 120.003 157.914 119.998 158.17 119.987C158.437 119.976 158.693 119.955 158.938 119.923V119.315C157.914 119.315 157.056 119.251 156.362 119.123C155.68 118.984 155.125 118.776 154.698 118.499C154.282 118.222 153.984 117.859 153.802 117.411C153.632 116.963 153.546 116.43 153.546 115.811C153.546 114.574 153.962 113.731 154.794 113.283ZM163.768 112.899H167.608V119.987H168.2C168.669 119.987 169.005 119.939 169.208 119.843C169.421 119.747 169.528 119.523 169.528 119.171V112.899H173.368V122.499H171.448L170.328 121.411C169.56 122.328 168.467 122.787 167.048 122.787C165.907 122.787 165.075 122.547 164.552 122.067C164.029 121.576 163.768 120.76 163.768 119.619V112.899ZM180.664 122.499V115.779H180.392C180.221 115.779 180.056 115.784 179.896 115.795C179.747 115.806 179.613 115.843 179.496 115.907C179.379 115.96 179.288 116.046 179.224 116.163C179.16 116.28 179.128 116.446 179.128 116.659V122.499H175.288V112.899H177.208L178.072 113.779C178.851 113 179.875 112.611 181.144 112.611C182.403 112.611 183.32 112.872 183.896 113.395C184.696 112.872 185.603 112.611 186.616 112.611C187.651 112.611 188.451 112.808 189.016 113.203C189.592 113.587 189.88 114.126 189.88 114.819V122.499H186.04V115.779H185.768C185.619 115.779 185.469 115.784 185.32 115.795C185.171 115.806 185.037 115.838 184.92 115.891C184.813 115.934 184.717 116.008 184.632 116.115C184.557 116.222 184.515 116.366 184.504 116.547V122.499H180.664Z" fill="#0D1E4C"/>
<path d="M62.544 139.043V149.443H67.808V150.499H61.392V139.043H62.544ZM68.5924 146.627C68.5924 144.259 70.2564 142.547 72.5284 142.547C74.8004 142.547 76.4644 144.259 76.4644 146.627C76.4644 148.979 74.8004 150.691 72.5284 150.691C70.2564 150.691 68.5924 148.979 68.5924 146.627ZM69.7124 146.611C69.7124 148.435 70.8644 149.699 72.5284 149.699C74.1764 149.699 75.3444 148.435 75.3444 146.611C75.3444 144.819 74.1764 143.539 72.5284 143.539C70.8644 143.539 69.7124 144.819 69.7124 146.611ZM82.2781 142.659V143.651H81.6701C80.2461 143.651 79.3341 144.611 79.3341 146.083V150.499H78.2301V142.755H79.2701L79.3501 143.955C79.6541 143.123 80.4701 142.579 81.5581 142.579C81.7981 142.579 82.0061 142.595 82.2781 142.659ZM86.6969 150.691C84.4249 150.691 82.9049 149.059 82.9049 146.627C82.9049 144.211 84.4089 142.547 86.6169 142.547C88.7129 142.547 90.1369 144.035 90.1369 146.227V146.771H83.9769C84.0569 148.659 85.0489 149.747 86.7129 149.747C87.9769 149.747 88.7929 149.203 89.0809 148.179H90.1369C89.7209 149.811 88.5209 150.691 86.6969 150.691ZM86.6169 143.491C85.1609 143.491 84.2009 144.451 84.0089 145.971H89.0329C89.0329 144.483 88.0729 143.491 86.6169 143.491ZM93.006 150.499H91.902V142.755H92.862L92.99 143.859C93.374 143.043 94.238 142.547 95.326 142.547C96.542 142.547 97.454 143.187 97.822 144.195C98.174 143.187 99.118 142.547 100.366 142.547C102.046 142.547 103.15 143.635 103.15 145.427V150.499H102.078V145.651C102.078 144.323 101.342 143.539 100.158 143.539C98.862 143.539 98.094 144.515 98.094 145.715V150.499H97.006V145.635C97.006 144.323 96.254 143.555 95.086 143.555C93.79 143.555 93.006 144.515 93.006 145.699V150.499ZM110.352 140.627C109.904 140.627 109.536 140.259 109.536 139.811C109.536 139.363 109.904 138.979 110.352 138.979C110.8 138.979 111.184 139.363 111.184 139.811C111.184 140.259 110.8 140.627 110.352 140.627ZM109.808 150.499V142.755H110.912V150.499H109.808ZM114.319 150.499H113.215V142.755H114.174L114.303 143.859C114.687 143.043 115.551 142.547 116.639 142.547C117.855 142.547 118.767 143.187 119.135 144.195C119.487 143.187 120.431 142.547 121.679 142.547C123.359 142.547 124.463 143.635 124.463 145.427V150.499H123.391V145.651C123.391 144.323 122.655 143.539 121.47 143.539C120.175 143.539 119.407 144.515 119.407 145.715V150.499H118.319V145.635C118.319 144.323 117.567 143.555 116.399 143.555C115.103 143.555 114.319 144.515 114.319 145.699V150.499ZM126.683 153.875V142.755H127.643L127.755 144.323C128.299 143.123 129.387 142.547 130.683 142.547C132.923 142.547 134.267 144.259 134.267 146.595C134.267 148.931 132.971 150.691 130.683 150.691C129.371 150.691 128.331 150.131 127.787 149.011V153.875H126.683ZM127.803 146.627C127.803 148.403 128.795 149.699 130.491 149.699C132.171 149.699 133.147 148.403 133.147 146.627C133.147 144.835 132.171 143.555 130.491 143.555C128.795 143.555 127.803 144.835 127.803 146.627ZM135.371 148.323H136.427C136.427 149.219 137.099 149.779 138.187 149.779C139.387 149.779 140.091 149.267 140.091 148.435C140.091 147.795 139.771 147.427 138.859 147.203L137.531 146.867C136.187 146.531 135.531 145.827 135.531 144.771C135.531 143.411 136.667 142.547 138.331 142.547C139.963 142.547 141.019 143.443 141.067 144.883H139.995C139.963 143.987 139.339 143.459 138.299 143.459C137.211 143.459 136.603 143.923 136.603 144.755C136.603 145.347 137.019 145.763 137.867 145.971L139.195 146.307C140.539 146.643 141.147 147.267 141.147 148.387C141.147 149.779 139.963 150.691 138.203 150.691C136.459 150.691 135.371 149.763 135.371 148.323ZM148.405 142.755H149.509V150.499H148.549L148.405 149.187C147.973 150.083 146.901 150.691 145.685 150.691C143.861 150.691 142.868 149.443 142.868 147.555V142.739H143.989V147.203C143.989 149.043 144.805 149.699 146.036 149.699C147.525 149.699 148.405 148.707 148.405 146.867V142.755ZM152.912 150.499H151.808V142.755H152.768L152.896 143.859C153.28 143.043 154.144 142.547 155.232 142.547C156.448 142.547 157.36 143.187 157.728 144.195C158.08 143.187 159.024 142.547 160.272 142.547C161.952 142.547 163.056 143.635 163.056 145.427V150.499H161.984V145.651C161.984 144.323 161.248 143.539 160.064 143.539C158.768 143.539 158 144.515 158 145.715V150.499H156.912V145.635C156.912 144.323 156.16 143.555 154.992 143.555C153.696 143.555 152.912 144.515 152.912 145.699V150.499Z" fill="#0D1E4C"/>
<defs>
<filter id="filter0_d_373_686" x="0" y="46.0776" width="356.565" height="444.922" filterUnits="userSpaceOnUse" color-interpolation-filters="sRGB">
<feFlood flood-opacity="0" result="BackgroundImageFix"/>
<feColorMatrix in="SourceAlpha" type="matrix" values="0 0 0 0 0 0 0 0 0 0 0 0 0 0 0 0 0 0 127 0" result="hardAlpha"/>
<feOffset dy="4"/>
<feGaussianBlur stdDeviation="2"/>
<feComposite in2="hardAlpha" operator="out"/>
<feColorMatrix type="matrix" values="0 0 0 0 0 0 0 0 0 0 0 0 0 0 0 0 0 0 0.25 0"/>
<feBlend mode="normal" in2="BackgroundImageFix" result="effect1_dropShadow_373_686"/>
<feBlend mode="normal" in="SourceGraphic" in2="effect1_dropShadow_373_686" result="shape"/>
</filter>
<filter id="filter1_d_373_686" x="60.1777" y="0" width="236.733" height="108.199" filterUnits="userSpaceOnUse" color-interpolation-filters="sRGB">
<feFlood flood-opacity="0" result="BackgroundImageFix"/>
<feColorMatrix in="SourceAlpha" type="matrix" values="0 0 0 0 0 0 0 0 0 0 0 0 0 0 0 0 0 0 127 0" result="hardAlpha"/>
<feOffset dy="4"/>
<feGaussianBlur stdDeviation="2"/>
<feComposite in2="hardAlpha" operator="out"/>
<feColorMatrix type="matrix" values="0 0 0 0 0 0 0 0 0 0 0 0 0 0 0 0 0 0 0.25 0"/>
<feBlend mode="normal" in2="BackgroundImageFix" result="effect1_dropShadow_373_686"/>
<feBlend mode="normal" in="SourceGraphic" in2="effect1_dropShadow_373_686" result="shape"/>
</filter>
<filter id="filter2_d_373_686" x="321" y="278.644" width="47" height="69.1233" filterUnits="userSpaceOnUse" color-interpolation-filters="sRGB">
<feFlood flood-opacity="0" result="BackgroundImageFix"/>
<feColorMatrix in="SourceAlpha" type="matrix" values="0 0 0 0 0 0 0 0 0 0 0 0 0 0 0 0 0 0 127 0" result="hardAlpha"/>
<feOffset dy="4"/>
<feGaussianBlur stdDeviation="2"/>
<feComposite in2="hardAlpha" operator="out"/>
<feColorMatrix type="matrix" values="0 0 0 0 0 0 0 0 0 0 0 0 0 0 0 0 0 0 0.25 0"/>
<feBlend mode="normal" in2="BackgroundImageFix" result="effect1_dropShadow_373_686"/>
<feBlend mode="normal" in="SourceGraphic" in2="effect1_dropShadow_373_686" result="shape"/>
</filter>
<filter id="filter3_d_373_686" x="321" y="210.938" width="47" height="70.0637" filterUnits="userSpaceOnUse" color-interpolation-filters="sRGB">
<feFlood flood-opacity="0" result="BackgroundImageFix"/>
<feColorMatrix in="SourceAlpha" type="matrix" values="0 0 0 0 0 0 0 0 0 0 0 0 0 0 0 0 0 0 127 0" result="hardAlpha"/>
<feOffset dy="4"/>
<feGaussianBlur stdDeviation="2"/>
<feComposite in2="hardAlpha" operator="out"/>
<feColorMatrix type="matrix" values="0 0 0 0 0 0 0 0 0 0 0 0 0 0 0 0 0 0 0.25 0"/>
<feBlend mode="normal" in2="BackgroundImageFix" result="effect1_dropShadow_373_686"/>
<feBlend mode="normal" in="SourceGraphic" in2="effect1_dropShadow_373_686" result="shape"/>
</filter>
<filter id="filter4_d_373_686" x="321" y="144.173" width="47" height="69.1233" filterUnits="userSpaceOnUse" color-interpolation-filters="sRGB">
<feFlood flood-opacity="0" result="BackgroundImageFix"/>
<feColorMatrix in="SourceAlpha" type="matrix" values="0 0 0 0 0 0 0 0 0 0 0 0 0 0 0 0 0 0 127 0" result="hardAlpha"/>
<feOffset dy="4"/>
<feGaussianBlur stdDeviation="2"/>
<feComposite in2="hardAlpha" operator="out"/>
<feColorMatrix type="matrix" values="0 0 0 0 0 0 0 0 0 0 0 0 0 0 0 0 0 0 0.25 0"/>
<feBlend mode="normal" in2="BackgroundImageFix" result="effect1_dropShadow_373_686"/>
<feBlend mode="normal" in="SourceGraphic" in2="effect1_dropShadow_373_686" result="shape"/>
</filter>
<linearGradient id="paint0_linear_373_686" x1="178.544" y1="5" x2="178.544" y2="86.8111" gradientUnits="userSpaceOnUse">
<stop stop-color="#0E959B"/>
<stop offset="1" stop-color="#1A6A6D"/>
</linearGradient>
</defs>
</svg>
