<svg width="42" height="42" viewBox="0 0 42 42" fill="none" xmlns="http://www.w3.org/2000/svg">
<rect x="2" y="2" width="38" height="38" rx="19" fill="#F4A9C6" stroke="#F37074" stroke-width="4"/>
<path d="M23.9021 21.0016L29.9078 15.0733C29.9081 15.0731 29.9084 15.0728 29.9087 15.0725C30.1003 14.8846 30.2515 14.6596 30.3531 14.4112C30.4543 14.1639 30.5042 13.8986 30.4997 13.6315C30.4985 13.0666 30.2735 12.5252 29.874 12.1257C29.4734 11.7251 28.93 11.5 28.3634 11.5V11.5L28.3577 11.5C28.0877 11.5031 27.8211 11.5607 27.5739 11.6693C27.3292 11.7768 27.1086 11.9321 26.9248 12.1261L21 18.0506L15.0374 12.0882C14.6671 11.718 14.1661 11.5066 13.6428 11.5L13.6428 11.5H13.6366C13.07 11.5 12.5266 11.7251 12.126 12.1257C11.7253 12.5263 11.5003 13.0697 11.5003 13.6362V13.6455L11.5006 13.6548C11.5193 14.1588 11.7303 14.6365 12.0903 14.9897L18.0979 20.9971L12.0922 26.9254C12.0919 26.9256 12.0917 26.9259 12.0914 26.9261C11.8998 27.1141 11.7485 27.3391 11.6469 27.5876L12.1071 27.7758L11.6469 27.5876C11.5457 27.8348 11.4958 28.1001 11.5003 28.3672C11.5015 28.9321 11.7265 29.4735 12.126 29.873C12.5266 30.2736 13.07 30.4987 13.6366 30.4987V30.4987L13.6425 30.4987C13.9073 30.4955 14.1688 30.44 14.412 30.3352C14.6539 30.231 14.8728 30.0802 15.0564 29.8915L20.9977 23.9504L26.8785 29.9082L26.8801 29.9098C27.0763 30.1068 27.3113 30.2608 27.5703 30.3621C27.8259 30.4622 28.0994 30.5086 28.3737 30.4987C28.9366 30.496 29.4758 30.2712 29.874 29.873C30.2747 29.4724 30.4997 28.929 30.4997 28.3625V28.3532L30.4994 28.3439C30.4807 27.8399 30.2696 27.3622 29.9096 27.009C29.909 27.0083 29.9083 27.0076 29.9076 27.0069L23.9021 21.0016Z" fill="white" stroke="white"/>
</svg>
