<svg width="718" height="521" viewBox="0 0 718 521" fill="none" xmlns="http://www.w3.org/2000/svg">
<g id="menu">
<g id="menu block">
<g id="outline" filter="url(#filter0_d_373_90)">
<rect x="9" y="54" width="647" height="454" rx="15" fill="#FEA3E2"/>
<rect x="6.5" y="51.5" width="652" height="459" rx="17.5" stroke="white" stroke-width="5"/>
</g>
<g id="title" filter="url(#filter1_d_373_90)">
<path d="M124 31.1849C124 26.2983 127.535 22.1218 132.361 21.3545C235.223 4.99959 330.499 5 330.5 5C330.5 5 330.5 5 330.5 5H375.5L437 8.99951L533.295 21.5804C538.275 22.231 542 26.4741 542 31.4961V91.7144C542 97.6138 536.881 102.226 531.007 101.68C380.317 87.6755 289.809 88.3338 134.928 101.759C129.078 102.266 124 97.6625 124 91.7907V31.1849Z" fill="url(#paint0_linear_373_90)"/>
<path d="M375.662 2.50527L375.581 2.5H375.5H330.5C330.457 2.5 235.025 2.49959 131.968 18.8855C125.917 19.8475 121.5 25.08 121.5 31.1849V91.7907C121.5 99.1465 127.852 104.882 135.144 104.249C289.891 90.836 380.249 90.18 530.776 104.17C538.098 104.85 544.5 99.1037 544.5 91.7144V31.4961C544.5 25.2186 539.844 19.9147 533.619 19.1015L437.324 6.52058L437.243 6.51005L437.162 6.50478L375.662 2.50527Z" stroke="white" stroke-width="5"/>
</g>
<path id="FAQs" d="M299.508 35.72V42.88H291.348V54H281.748V24H301.428L300.228 31.68H291.348V35.72H299.508ZM312.566 49.24L311.486 54H301.366L309.126 24H323.966L331.726 54H321.606L320.486 49.24H312.566ZM316.806 33.2H316.286L314.326 41.6H318.726L316.806 33.2ZM349.664 54.72V52.88L345.584 54C342.97 54 340.797 53.68 339.064 53.04C337.357 52.3733 335.984 51.4133 334.944 50.16C333.93 48.88 333.21 47.32 332.784 45.48C332.357 43.6133 332.144 41.4667 332.144 39.04C332.144 36.2933 332.384 33.9333 332.864 31.96C333.344 29.96 334.13 28.32 335.224 27.04C336.317 25.76 337.77 24.8133 339.584 24.2C341.397 23.5867 343.624 23.28 346.264 23.28C348.904 23.28 351.13 23.5867 352.944 24.2C354.757 24.8133 356.224 25.7733 357.344 27.08C358.464 28.36 359.264 30 359.744 32C360.224 33.9733 360.464 36.32 360.464 39.04C360.464 41.0933 360.25 42.9333 359.824 44.56C359.397 46.16 358.757 47.6 357.904 48.88L361.384 50.88L358.864 56.4L349.664 54.72ZM342.464 34.04V46.52H346.464C347.797 46.52 348.744 46.3733 349.304 46.08C349.89 45.76 350.184 45.0533 350.184 43.96V31.48H346.144C344.864 31.48 343.93 31.64 343.344 31.96C342.757 32.2533 342.464 32.9467 342.464 34.04ZM366.138 30.96C368.191 29.84 371.005 29.28 374.578 29.28C378.178 29.28 381.471 29.7733 384.458 30.76L383.338 37.28C382.085 36.9067 380.845 36.64 379.618 36.48C378.391 36.32 377.138 36.24 375.858 36.24C375.485 36.24 375.018 36.2533 374.458 36.28C373.925 36.3067 373.311 36.36 372.618 36.44V37.96C374.085 37.96 375.591 38.04 377.138 38.2C378.685 38.3333 380.085 38.68 381.338 39.24C382.618 39.7733 383.658 40.5867 384.458 41.68C385.285 42.7467 385.698 44.2133 385.698 46.08C385.698 47.3867 385.551 48.56 385.258 49.6C384.965 50.6133 384.511 51.4267 383.898 52.04C383.258 52.6533 382.591 53.1467 381.898 53.52C381.231 53.8933 380.351 54.16 379.258 54.32C378.405 54.4533 377.485 54.5467 376.498 54.6C375.538 54.68 374.498 54.72 373.378 54.72C369.458 54.72 365.871 54.2533 362.618 53.32L363.818 46.52C365.178 46.92 366.578 47.2267 368.018 47.44C369.458 47.6533 370.965 47.76 372.538 47.76C373.258 47.76 373.938 47.7467 374.578 47.72C375.245 47.6933 375.885 47.64 376.498 47.56V46.04C373.938 46.04 371.791 45.88 370.058 45.56C368.351 45.2133 366.965 44.6933 365.898 44C364.858 43.3067 364.111 42.4 363.658 41.28C363.231 40.16 363.018 38.8267 363.018 37.28C363.018 34.1867 364.058 32.08 366.138 30.96Z" fill="white"/>
</g>
<g id="about-button">
<path id="tab 1" d="M636 144C636 141.239 638.239 139 641 139H709C711.761 139 714 141.239 714 144V223C714 225.761 711.761 228 709 228H641C638.239 228 636 225.761 636 223V144Z" fill="#C6AAB9"/>
<g id="compass icon">
<circle id="Ellipse 13" cx="675.076" cy="159.283" r="4.28302" stroke="#9E8894" stroke-width="2"/>
<circle id="Ellipse 11" cx="675.076" cy="189.925" r="20.0755" fill="#9E8894"/>
<circle id="Ellipse 12" cx="675.076" cy="184.642" r="17.5755" fill="#DDC5D2" stroke="#C5AEBB" stroke-width="5"/>
<rect id="Rectangle 38" x="672.962" y="161.396" width="4.22642" height="4.22642" rx="1" fill="#9E8894"/>
<g id="Frame 16">
<path id="Rectangle 36" d="M667.949 192.42L671.769 181.931L677.949 187.459L667.949 192.42Z" fill="#C5AEBB"/>
<path id="Rectangle 37" d="M681.769 176.97L671.769 181.931L677.949 187.459L681.769 176.97Z" fill="#9E8894"/>
</g>
</g>
</g>
<g id="mod-button">
<g id="tab 2" filter="url(#filter2_d_373_90)">
<rect x="636" y="236" width="78" height="89" rx="5" fill="#F8D5E7"/>
<rect x="636" y="236" width="78" height="89" rx="5" fill="black" fill-opacity="0.2"/>
</g>
<g id="moderation icon">
<g id="Group 6">
<g id="Rectangle 23">
<path d="M666.488 259.213C666.488 257.237 668.38 255.811 670.28 256.356L694.996 263.443C697.32 264.109 698.921 266.234 698.921 268.652C698.921 269.573 698.686 270.478 698.239 271.283L695.437 276.327C694.859 277.367 694.556 278.537 694.556 279.727L694.556 284.107C694.556 285.476 694.154 286.816 693.401 287.959L691.492 290.855C690.738 291.999 690.337 293.338 690.337 294.707L690.337 299.825C690.337 301.1 689.988 302.352 689.329 303.443L689.137 303.761C687.503 306.468 684.256 307.743 681.215 306.871L660.164 300.835C657.197 299.984 656.047 296.392 657.967 293.975C658.665 293.098 658.995 291.985 658.889 290.869L658.387 285.605C658.253 284.196 658.549 282.779 659.237 281.542L661.489 277.488C662.178 276.248 662.474 274.829 662.338 273.418L662.035 270.266C661.894 268.805 662.217 267.336 662.957 266.068L666.083 260.711C666.349 260.256 666.488 259.739 666.488 259.213Z" fill="#C6AAB9"/>
<path d="M666.488 259.213C666.488 257.237 668.38 255.811 670.28 256.356L694.996 263.443C697.32 264.109 698.921 266.234 698.921 268.652C698.921 269.573 698.686 270.478 698.239 271.283L695.437 276.327C694.859 277.367 694.556 278.537 694.556 279.727L694.556 284.107C694.556 285.476 694.154 286.816 693.401 287.959L691.492 290.855C690.738 291.999 690.337 293.338 690.337 294.707L690.337 299.825C690.337 301.1 689.988 302.352 689.329 303.443L689.137 303.761C687.503 306.468 684.256 307.743 681.215 306.871L660.164 300.835C657.197 299.984 656.047 296.392 657.967 293.975C658.665 293.098 658.995 291.985 658.889 290.869L658.387 285.605C658.253 284.196 658.549 282.779 659.237 281.542L661.489 277.488C662.178 276.248 662.474 274.829 662.338 273.418L662.035 270.266C661.894 268.805 662.217 267.336 662.957 266.068L666.083 260.711C666.349 260.256 666.488 259.739 666.488 259.213Z" fill="black" fill-opacity="0.2"/>
<path d="M666.488 259.213C666.488 257.237 668.38 255.811 670.28 256.356L694.996 263.443C697.32 264.109 698.921 266.234 698.921 268.652C698.921 269.573 698.686 270.478 698.239 271.283L695.437 276.327C694.859 277.367 694.556 278.537 694.556 279.727L694.556 284.107C694.556 285.476 694.154 286.816 693.401 287.959L691.492 290.855C690.738 291.999 690.337 293.338 690.337 294.707L690.337 299.825C690.337 301.1 689.988 302.352 689.329 303.443L689.137 303.761C687.503 306.468 684.256 307.743 681.215 306.871L660.164 300.835C657.197 299.984 656.047 296.392 657.967 293.975C658.665 293.098 658.995 291.985 658.889 290.869L658.387 285.605C658.253 284.196 658.549 282.779 659.237 281.542L661.489 277.488C662.178 276.248 662.474 274.829 662.338 273.418L662.035 270.266C661.894 268.805 662.217 267.336 662.957 266.068L666.083 260.711C666.349 260.256 666.488 259.739 666.488 259.213Z" stroke="#C6AAB9" stroke-width="2"/>
</g>
<path id="Vector 2" d="M670.068 270.85L690.087 276.59" stroke="#C6AAB9" stroke-width="2" stroke-linecap="round"/>
<path id="Vector 3" d="M669.184 275.192L688.536 280.741" stroke="#C6AAB9" stroke-width="2" stroke-linecap="round"/>
<path id="Vector 4" d="M667.139 279.274L687.492 285.11" stroke="#C6AAB9" stroke-width="2" stroke-linecap="round"/>
<path id="Vector 5" d="M665.975 283.348L686.439 289.216" stroke="#C6AAB9" stroke-width="2" stroke-linecap="round"/>
<path id="Vector 6" d="M665.394 287.713L685.412 293.453" stroke="#C6AAB9" stroke-width="2" stroke-linecap="round"/>
</g>
<g id="Vector">
<path d="M665.288 299.678L665.288 299.679C665.406 300.093 665.697 300.422 666.099 300.575C666.481 300.72 666.883 300.676 667.212 300.531C667.907 300.223 668.299 299.497 668.287 298.695L668.287 298.674C668.244 297.473 667.911 295.281 667.276 293.275C668.17 291.768 668.659 290.391 668.841 289.072C669.039 287.632 668.862 286.326 668.525 285.078C668.411 284.655 668.031 284.366 667.59 284.366C667.149 284.366 666.751 284.656 666.611 285.078C666.495 285.426 666.307 285.895 666.082 286.399C666.09 286.307 666.098 286.214 666.106 286.12C666.195 285.053 666.261 283.868 666.214 282.75C666.168 281.649 666.012 280.521 665.601 279.615L665.288 299.678ZM665.288 299.678C665.162 299.235 665 298.682 664.808 298.029C664.547 297.14 664.231 296.065 663.88 294.83M665.288 299.678L663.88 294.83M658.586 283.594C659.002 283.837 658.14 285.318 655.482 285.198C655.286 284.969 655.095 284.716 654.91 284.437L654.071 285.007L653.83 285.985C654.237 286.073 654.623 286.133 654.989 286.168C656.959 288.247 659.328 288.469 660.656 288.593C661.267 288.65 661.658 288.687 661.686 288.875M658.586 283.594L666.25 299.377C666.113 298.894 665.949 298.333 665.756 297.679C665.46 296.669 665.097 295.436 664.67 293.919M658.586 283.594C658.182 283.356 657.485 283.264 656.677 283.157C655.258 282.969 653.498 282.736 652.383 281.595C651.481 280.672 651.086 278.402 651.472 277.584L658.586 283.594ZM661.686 288.875C661.761 289.384 660.579 290.424 659.274 290.65C659.178 290.485 659.079 290.305 658.977 290.109L658.087 290.593L657.767 291.55C658.088 291.648 658.412 291.692 658.729 291.694C659.987 293.587 661.082 293.648 662.761 293.743C663.323 293.775 663.95 293.81 664.67 293.919M661.686 288.875L660.697 289.052C660.739 289.333 660.903 289.508 661.016 289.589C661.083 289.637 661.138 289.658 661.155 289.664M661.686 288.875L661.155 289.664M664.67 293.919L664.49 294.908C664.279 294.876 664.076 294.85 663.88 294.83M664.67 293.919L663.707 294.217C663.765 294.426 663.823 294.63 663.88 294.83M663.88 294.83C663.454 294.786 663.06 294.763 662.674 294.741C662.606 294.738 662.538 294.734 662.47 294.73C661.865 294.695 661.224 294.65 660.607 294.468C659.254 294.07 658.252 293.097 657.198 291.077C657.012 290.721 657.064 290.281 657.33 289.964C657.596 289.647 658.022 289.518 658.408 289.636C658.773 289.748 659.235 289.69 659.693 289.498C659.387 289.459 659.05 289.405 658.698 289.328C656.994 288.958 654.867 288.048 653.232 285.577C653.009 285.24 653.019 284.794 653.257 284.452C653.495 284.111 653.913 283.943 654.312 284.03C655.273 284.238 656.002 284.237 656.534 284.151C656.527 284.15 656.52 284.149 656.513 284.148C656.487 284.145 656.461 284.141 656.434 284.138C656.153 284.1 655.847 284.059 655.533 284.008C654.312 283.809 652.763 283.437 651.657 282.305C651.021 281.654 650.644 280.646 650.465 279.783C650.371 279.333 650.321 278.872 650.324 278.448C650.328 278.048 650.38 277.582 650.569 277.182C650.787 276.716 651.198 276.314 651.58 276.006C651.99 275.677 652.484 275.363 653 275.094C653.983 274.582 655.257 274.124 656.296 274.203C656.777 274.239 657.165 274.487 657.434 274.709C657.719 274.943 657.983 275.243 658.222 275.552C658.701 276.172 659.176 276.962 659.598 277.699C659.749 277.961 659.892 278.215 660.028 278.455C660.066 278.524 660.104 278.591 660.141 278.657C660.037 278 659.821 277.257 659.461 276.532C659.274 276.155 659.35 275.693 659.651 275.381C659.952 275.07 660.411 274.978 660.795 275.152C661.546 275.492 662.528 276.154 663.406 276.92C664.272 277.676 665.158 278.636 665.601 279.615L663.88 294.83ZM661.155 289.664C661.156 289.664 661.156 289.664 661.157 289.664C661.163 289.666 661.162 289.666 661.155 289.664ZM660.932 277.568C660.548 277.305 660.196 277.101 659.924 276.978L660.359 276.065L661.258 275.598C661.478 276.041 661.656 276.491 661.797 276.935C662.947 277.769 664.197 278.968 664.688 280.051C665.546 281.944 665.186 285.443 664.947 287.761L660.932 277.568Z" fill="#C6AAB9"/>
<path d="M665.288 299.678L665.288 299.679C665.406 300.093 665.697 300.422 666.099 300.575C666.481 300.72 666.883 300.676 667.212 300.531C667.907 300.223 668.299 299.497 668.287 298.695L668.287 298.674C668.244 297.473 667.911 295.281 667.276 293.275C668.17 291.768 668.659 290.391 668.841 289.072C669.039 287.632 668.862 286.326 668.525 285.078C668.411 284.655 668.031 284.366 667.59 284.366C667.149 284.366 666.751 284.656 666.611 285.078C666.495 285.426 666.307 285.895 666.082 286.399C666.09 286.307 666.098 286.214 666.106 286.12C666.195 285.053 666.261 283.868 666.214 282.75C666.168 281.649 666.012 280.521 665.601 279.615L665.288 299.678ZM665.288 299.678C665.162 299.235 665 298.682 664.808 298.029C664.547 297.14 664.231 296.065 663.88 294.83M665.288 299.678L663.88 294.83M658.586 283.594C659.002 283.837 658.14 285.318 655.482 285.198C655.286 284.969 655.095 284.716 654.91 284.437L654.071 285.007L653.83 285.985C654.237 286.073 654.623 286.133 654.989 286.168C656.959 288.247 659.328 288.469 660.656 288.593C661.267 288.65 661.658 288.687 661.686 288.875M658.586 283.594L666.25 299.377C666.113 298.894 665.949 298.333 665.756 297.679C665.46 296.669 665.097 295.436 664.67 293.919M658.586 283.594C658.182 283.356 657.485 283.264 656.677 283.157C655.258 282.969 653.498 282.736 652.383 281.595C651.481 280.672 651.086 278.402 651.472 277.584L658.586 283.594ZM661.686 288.875C661.761 289.384 660.579 290.424 659.274 290.65C659.178 290.485 659.079 290.305 658.977 290.109L658.087 290.593L657.767 291.55C658.088 291.648 658.412 291.692 658.729 291.694C659.987 293.587 661.082 293.648 662.761 293.743C663.323 293.775 663.95 293.81 664.67 293.919M661.686 288.875L660.697 289.052C660.739 289.333 660.903 289.508 661.016 289.589C661.083 289.637 661.138 289.658 661.155 289.664M661.686 288.875L661.155 289.664M664.67 293.919L664.49 294.908C664.279 294.876 664.076 294.85 663.88 294.83M664.67 293.919L663.707 294.217C663.765 294.426 663.823 294.63 663.88 294.83M663.88 294.83C663.454 294.786 663.06 294.763 662.674 294.741C662.606 294.738 662.538 294.734 662.47 294.73C661.865 294.695 661.224 294.65 660.607 294.468C659.254 294.07 658.252 293.097 657.198 291.077C657.012 290.721 657.064 290.281 657.33 289.964C657.596 289.647 658.022 289.518 658.408 289.636C658.773 289.748 659.235 289.69 659.693 289.498C659.387 289.459 659.05 289.405 658.698 289.328C656.994 288.958 654.867 288.048 653.232 285.577C653.009 285.24 653.019 284.794 653.257 284.452C653.495 284.111 653.913 283.943 654.312 284.03C655.273 284.238 656.002 284.237 656.534 284.151C656.527 284.15 656.52 284.149 656.513 284.148C656.487 284.145 656.461 284.141 656.434 284.138C656.153 284.1 655.847 284.059 655.533 284.008C654.312 283.809 652.763 283.437 651.657 282.305C651.021 281.654 650.644 280.646 650.465 279.783C650.371 279.333 650.321 278.872 650.324 278.448C650.328 278.048 650.38 277.582 650.569 277.182C650.787 276.716 651.198 276.314 651.58 276.006C651.99 275.677 652.484 275.363 653 275.094C653.983 274.582 655.257 274.124 656.296 274.203C656.777 274.239 657.165 274.487 657.434 274.709C657.719 274.943 657.983 275.243 658.222 275.552C658.701 276.172 659.176 276.962 659.598 277.699C659.749 277.961 659.892 278.215 660.028 278.455C660.066 278.524 660.104 278.591 660.141 278.657C660.037 278 659.821 277.257 659.461 276.532C659.274 276.155 659.35 275.693 659.651 275.381C659.952 275.07 660.411 274.978 660.795 275.152C661.546 275.492 662.528 276.154 663.406 276.92C664.272 277.676 665.158 278.636 665.601 279.615L663.88 294.83ZM661.155 289.664C661.156 289.664 661.156 289.664 661.157 289.664C661.163 289.666 661.162 289.666 661.155 289.664ZM660.932 277.568C660.548 277.305 660.196 277.101 659.924 276.978L660.359 276.065L661.258 275.598C661.478 276.041 661.656 276.491 661.797 276.935C662.947 277.769 664.197 278.968 664.688 280.051C665.546 281.944 665.186 285.443 664.947 287.761L660.932 277.568Z" fill="black" fill-opacity="0.2"/>
<path d="M665.288 299.678L665.288 299.679C665.406 300.093 665.697 300.422 666.099 300.575C666.481 300.72 666.883 300.676 667.212 300.531C667.907 300.223 668.299 299.497 668.287 298.695L668.287 298.674C668.244 297.473 667.911 295.281 667.276 293.275C668.17 291.768 668.659 290.391 668.841 289.072C669.039 287.632 668.862 286.326 668.525 285.078C668.411 284.655 668.031 284.366 667.59 284.366C667.149 284.366 666.751 284.656 666.611 285.078C666.495 285.426 666.307 285.895 666.082 286.399C666.09 286.307 666.098 286.214 666.106 286.12C666.195 285.053 666.261 283.868 666.214 282.75C666.168 281.649 666.012 280.521 665.601 279.615L665.288 299.678ZM665.288 299.678C665.162 299.235 665 298.682 664.808 298.029C664.547 297.14 664.231 296.065 663.88 294.83M665.288 299.678L663.88 294.83M658.586 283.594C659.002 283.837 658.14 285.318 655.482 285.198C655.286 284.969 655.095 284.716 654.91 284.437L654.071 285.007L653.83 285.985C654.237 286.073 654.623 286.133 654.989 286.168C656.959 288.247 659.328 288.469 660.656 288.593C661.267 288.65 661.658 288.687 661.686 288.875M658.586 283.594L666.25 299.377C666.113 298.894 665.949 298.333 665.756 297.679C665.46 296.669 665.097 295.436 664.67 293.919M658.586 283.594C658.182 283.356 657.485 283.264 656.677 283.157C655.258 282.969 653.498 282.736 652.383 281.595C651.481 280.672 651.086 278.402 651.472 277.584L658.586 283.594ZM661.686 288.875C661.761 289.384 660.579 290.424 659.274 290.65C659.178 290.485 659.079 290.305 658.977 290.109L658.087 290.593L657.767 291.55C658.088 291.648 658.412 291.692 658.729 291.694C659.987 293.587 661.082 293.648 662.761 293.743C663.323 293.775 663.95 293.81 664.67 293.919M661.686 288.875L660.697 289.052C660.739 289.333 660.903 289.508 661.016 289.589C661.083 289.637 661.138 289.658 661.155 289.664M661.686 288.875L661.155 289.664M664.67 293.919L664.49 294.908C664.279 294.876 664.076 294.85 663.88 294.83M664.67 293.919L663.707 294.217C663.765 294.426 663.823 294.63 663.88 294.83M663.88 294.83C663.454 294.786 663.06 294.763 662.674 294.741C662.606 294.738 662.538 294.734 662.47 294.73C661.865 294.695 661.224 294.65 660.607 294.468C659.254 294.07 658.252 293.097 657.198 291.077C657.012 290.721 657.064 290.281 657.33 289.964C657.596 289.647 658.022 289.518 658.408 289.636C658.773 289.748 659.235 289.69 659.693 289.498C659.387 289.459 659.05 289.405 658.698 289.328C656.994 288.958 654.867 288.048 653.232 285.577C653.009 285.24 653.019 284.794 653.257 284.452C653.495 284.111 653.913 283.943 654.312 284.03C655.273 284.238 656.002 284.237 656.534 284.151C656.527 284.15 656.52 284.149 656.513 284.148C656.487 284.145 656.461 284.141 656.434 284.138C656.153 284.1 655.847 284.059 655.533 284.008C654.312 283.809 652.763 283.437 651.657 282.305C651.021 281.654 650.644 280.646 650.465 279.783C650.371 279.333 650.321 278.872 650.324 278.448C650.328 278.048 650.38 277.582 650.569 277.182C650.787 276.716 651.198 276.314 651.58 276.006C651.99 275.677 652.484 275.363 653 275.094C653.983 274.582 655.257 274.124 656.296 274.203C656.777 274.239 657.165 274.487 657.434 274.709C657.719 274.943 657.983 275.243 658.222 275.552C658.701 276.172 659.176 276.962 659.598 277.699C659.749 277.961 659.892 278.215 660.028 278.455C660.066 278.524 660.104 278.591 660.141 278.657C660.037 278 659.821 277.257 659.461 276.532C659.274 276.155 659.35 275.693 659.651 275.381C659.952 275.07 660.411 274.978 660.795 275.152C661.546 275.492 662.528 276.154 663.406 276.92C664.272 277.676 665.158 278.636 665.601 279.615L663.88 294.83ZM661.155 289.664C661.156 289.664 661.156 289.664 661.157 289.664C661.163 289.666 661.162 289.666 661.155 289.664ZM660.932 277.568C660.548 277.305 660.196 277.101 659.924 276.978L660.359 276.065L661.258 275.598C661.478 276.041 661.656 276.491 661.797 276.935C662.947 277.769 664.197 278.968 664.688 280.051C665.546 281.944 665.186 285.443 664.947 287.761L660.932 277.568Z" stroke="#C6AAB9" stroke-width="2" stroke-linejoin="round"/>
</g>
<g id="Vector_2">
<path d="M665.288 299.678L665.288 299.679C665.406 300.093 665.697 300.422 666.099 300.575C666.481 300.72 666.883 300.676 667.212 300.531C667.907 300.223 668.299 299.497 668.287 298.695L668.287 298.674C668.244 297.473 667.911 295.281 667.276 293.275C668.17 291.768 668.659 290.391 668.841 289.072C669.039 287.632 668.862 286.326 668.525 285.078C668.411 284.655 668.031 284.366 667.59 284.366C667.149 284.366 666.751 284.656 666.611 285.078C666.495 285.426 666.307 285.895 666.082 286.399C666.09 286.307 666.098 286.214 666.106 286.12C666.195 285.053 666.261 283.868 666.214 282.75C666.168 281.649 666.012 280.521 665.601 279.615L665.288 299.678ZM665.288 299.678C665.162 299.235 665 298.682 664.808 298.029C664.547 297.14 664.231 296.065 663.88 294.83M665.288 299.678L663.88 294.83M658.586 283.594C659.002 283.838 658.14 285.318 655.482 285.198C655.286 284.969 655.095 284.716 654.91 284.438L654.071 285.007L653.83 285.985C654.237 286.073 654.623 286.133 654.989 286.168C656.959 288.247 659.328 288.469 660.656 288.593C661.267 288.65 661.658 288.687 661.686 288.875M658.586 283.594L666.25 299.377C666.113 298.894 665.949 298.333 665.756 297.679C665.46 296.669 665.097 295.436 664.67 293.919M658.586 283.594C658.182 283.357 657.485 283.264 656.677 283.157C655.258 282.969 653.498 282.736 652.383 281.595C651.481 280.672 651.086 278.402 651.472 277.584L658.586 283.594ZM661.686 288.875C661.761 289.384 660.579 290.425 659.274 290.65C659.178 290.485 659.079 290.305 658.977 290.109L658.087 290.593L657.767 291.55C658.088 291.649 658.412 291.692 658.729 291.694C659.987 293.587 661.082 293.649 662.761 293.743C663.323 293.775 663.95 293.81 664.67 293.919M661.686 288.875L660.697 289.052C660.739 289.333 660.903 289.508 661.016 289.589C661.083 289.637 661.138 289.658 661.155 289.664M661.686 288.875L661.155 289.664M664.67 293.919L664.49 294.908C664.279 294.876 664.076 294.85 663.88 294.83M664.67 293.919L663.707 294.218C663.765 294.426 663.823 294.63 663.88 294.83M663.88 294.83C663.454 294.786 663.06 294.763 662.674 294.741C662.606 294.738 662.538 294.734 662.47 294.73C661.865 294.695 661.224 294.65 660.607 294.468C659.254 294.07 658.252 293.097 657.198 291.077C657.012 290.721 657.064 290.281 657.33 289.964C657.596 289.647 658.022 289.518 658.408 289.636C658.773 289.748 659.235 289.69 659.693 289.499C659.387 289.459 659.05 289.405 658.698 289.328C656.994 288.958 654.867 288.048 653.232 285.577C653.009 285.24 653.019 284.794 653.257 284.452C653.495 284.111 653.913 283.943 654.312 284.03C655.273 284.238 656.002 284.237 656.534 284.151C656.527 284.15 656.52 284.149 656.513 284.148C656.487 284.145 656.461 284.141 656.434 284.138C656.153 284.1 655.847 284.059 655.533 284.008C654.312 283.809 652.763 283.437 651.657 282.305C651.021 281.654 650.644 280.646 650.465 279.783C650.371 279.333 650.321 278.872 650.324 278.448C650.328 278.048 650.38 277.582 650.569 277.182C650.787 276.716 651.198 276.314 651.58 276.006C651.99 275.677 652.484 275.363 653 275.094C653.983 274.582 655.257 274.124 656.296 274.203C656.777 274.239 657.165 274.487 657.434 274.709C657.719 274.943 657.983 275.243 658.222 275.552C658.701 276.172 659.176 276.962 659.598 277.699C659.749 277.961 659.892 278.215 660.028 278.455C660.066 278.524 660.104 278.591 660.141 278.657C660.037 278 659.821 277.257 659.461 276.532C659.274 276.155 659.35 275.693 659.651 275.381C659.952 275.07 660.411 274.978 660.795 275.152C661.546 275.492 662.528 276.154 663.406 276.92C664.272 277.676 665.158 278.636 665.601 279.615L663.88 294.83ZM661.155 289.664C661.156 289.664 661.156 289.664 661.157 289.664C661.163 289.666 661.162 289.666 661.155 289.664ZM660.932 277.568C660.548 277.305 660.196 277.102 659.924 276.978L660.359 276.065L661.258 275.598C661.478 276.041 661.656 276.491 661.797 276.935C662.947 277.769 664.197 278.968 664.688 280.051C665.546 281.944 665.186 285.443 664.947 287.761L660.932 277.568Z" fill="#C6AAB9"/>
<path d="M665.288 299.678L665.288 299.679C665.406 300.093 665.697 300.422 666.099 300.575C666.481 300.72 666.883 300.676 667.212 300.531C667.907 300.223 668.299 299.497 668.287 298.695L668.287 298.674C668.244 297.473 667.911 295.281 667.276 293.275C668.17 291.768 668.659 290.391 668.841 289.072C669.039 287.632 668.862 286.326 668.525 285.078C668.411 284.655 668.031 284.366 667.59 284.366C667.149 284.366 666.751 284.656 666.611 285.078C666.495 285.426 666.307 285.895 666.082 286.399C666.09 286.307 666.098 286.214 666.106 286.12C666.195 285.053 666.261 283.868 666.214 282.75C666.168 281.649 666.012 280.521 665.601 279.615L665.288 299.678ZM665.288 299.678C665.162 299.235 665 298.682 664.808 298.029C664.547 297.14 664.231 296.065 663.88 294.83M665.288 299.678L663.88 294.83M658.586 283.594C659.002 283.838 658.14 285.318 655.482 285.198C655.286 284.969 655.095 284.716 654.91 284.438L654.071 285.007L653.83 285.985C654.237 286.073 654.623 286.133 654.989 286.168C656.959 288.247 659.328 288.469 660.656 288.593C661.267 288.65 661.658 288.687 661.686 288.875M658.586 283.594L666.25 299.377C666.113 298.894 665.949 298.333 665.756 297.679C665.46 296.669 665.097 295.436 664.67 293.919M658.586 283.594C658.182 283.357 657.485 283.264 656.677 283.157C655.258 282.969 653.498 282.736 652.383 281.595C651.481 280.672 651.086 278.402 651.472 277.584L658.586 283.594ZM661.686 288.875C661.761 289.384 660.579 290.425 659.274 290.65C659.178 290.485 659.079 290.305 658.977 290.109L658.087 290.593L657.767 291.55C658.088 291.649 658.412 291.692 658.729 291.694C659.987 293.587 661.082 293.649 662.761 293.743C663.323 293.775 663.95 293.81 664.67 293.919M661.686 288.875L660.697 289.052C660.739 289.333 660.903 289.508 661.016 289.589C661.083 289.637 661.138 289.658 661.155 289.664M661.686 288.875L661.155 289.664M664.67 293.919L664.49 294.908C664.279 294.876 664.076 294.85 663.88 294.83M664.67 293.919L663.707 294.218C663.765 294.426 663.823 294.63 663.88 294.83M663.88 294.83C663.454 294.786 663.06 294.763 662.674 294.741C662.606 294.738 662.538 294.734 662.47 294.73C661.865 294.695 661.224 294.65 660.607 294.468C659.254 294.07 658.252 293.097 657.198 291.077C657.012 290.721 657.064 290.281 657.33 289.964C657.596 289.647 658.022 289.518 658.408 289.636C658.773 289.748 659.235 289.69 659.693 289.499C659.387 289.459 659.05 289.405 658.698 289.328C656.994 288.958 654.867 288.048 653.232 285.577C653.009 285.24 653.019 284.794 653.257 284.452C653.495 284.111 653.913 283.943 654.312 284.03C655.273 284.238 656.002 284.237 656.534 284.151C656.527 284.15 656.52 284.149 656.513 284.148C656.487 284.145 656.461 284.141 656.434 284.138C656.153 284.1 655.847 284.059 655.533 284.008C654.312 283.809 652.763 283.437 651.657 282.305C651.021 281.654 650.644 280.646 650.465 279.783C650.371 279.333 650.321 278.872 650.324 278.448C650.328 278.048 650.38 277.582 650.569 277.182C650.787 276.716 651.198 276.314 651.58 276.006C651.99 275.677 652.484 275.363 653 275.094C653.983 274.582 655.257 274.124 656.296 274.203C656.777 274.239 657.165 274.487 657.434 274.709C657.719 274.943 657.983 275.243 658.222 275.552C658.701 276.172 659.176 276.962 659.598 277.699C659.749 277.961 659.892 278.215 660.028 278.455C660.066 278.524 660.104 278.591 660.141 278.657C660.037 278 659.821 277.257 659.461 276.532C659.274 276.155 659.35 275.693 659.651 275.381C659.952 275.07 660.411 274.978 660.795 275.152C661.546 275.492 662.528 276.154 663.406 276.92C664.272 277.676 665.158 278.636 665.601 279.615L663.88 294.83ZM661.155 289.664C661.156 289.664 661.156 289.664 661.157 289.664C661.163 289.666 661.162 289.666 661.155 289.664ZM660.932 277.568C660.548 277.305 660.196 277.102 659.924 276.978L660.359 276.065L661.258 275.598C661.478 276.041 661.656 276.491 661.797 276.935C662.947 277.769 664.197 278.968 664.688 280.051C665.546 281.944 665.186 285.443 664.947 287.761L660.932 277.568Z" fill="black" fill-opacity="0.2"/>
<path d="M665.288 299.678L665.288 299.679C665.406 300.093 665.697 300.422 666.099 300.575C666.481 300.72 666.883 300.676 667.212 300.531C667.907 300.223 668.299 299.497 668.287 298.695L668.287 298.674C668.244 297.473 667.911 295.281 667.276 293.275C668.17 291.768 668.659 290.391 668.841 289.072C669.039 287.632 668.862 286.326 668.525 285.078C668.411 284.655 668.031 284.366 667.59 284.366C667.149 284.366 666.751 284.656 666.611 285.078C666.495 285.426 666.307 285.895 666.082 286.399C666.09 286.307 666.098 286.214 666.106 286.12C666.195 285.053 666.261 283.868 666.214 282.75C666.168 281.649 666.012 280.521 665.601 279.615L665.288 299.678ZM665.288 299.678C665.162 299.235 665 298.682 664.808 298.029C664.547 297.14 664.231 296.065 663.88 294.83M665.288 299.678L663.88 294.83M658.586 283.594C659.002 283.838 658.14 285.318 655.482 285.198C655.286 284.969 655.095 284.716 654.91 284.438L654.071 285.007L653.83 285.985C654.237 286.073 654.623 286.133 654.989 286.168C656.959 288.247 659.328 288.469 660.656 288.593C661.267 288.65 661.658 288.687 661.686 288.875M658.586 283.594L666.25 299.377C666.113 298.894 665.949 298.333 665.756 297.679C665.46 296.669 665.097 295.436 664.67 293.919M658.586 283.594C658.182 283.357 657.485 283.264 656.677 283.157C655.258 282.969 653.498 282.736 652.383 281.595C651.481 280.672 651.086 278.402 651.472 277.584L658.586 283.594ZM661.686 288.875C661.761 289.384 660.579 290.425 659.274 290.65C659.178 290.485 659.079 290.305 658.977 290.109L658.087 290.593L657.767 291.55C658.088 291.649 658.412 291.692 658.729 291.694C659.987 293.587 661.082 293.649 662.761 293.743C663.323 293.775 663.95 293.81 664.67 293.919M661.686 288.875L660.697 289.052C660.739 289.333 660.903 289.508 661.016 289.589C661.083 289.637 661.138 289.658 661.155 289.664M661.686 288.875L661.155 289.664M664.67 293.919L664.49 294.908C664.279 294.876 664.076 294.85 663.88 294.83M664.67 293.919L663.707 294.218C663.765 294.426 663.823 294.63 663.88 294.83M663.88 294.83C663.454 294.786 663.06 294.763 662.674 294.741C662.606 294.738 662.538 294.734 662.47 294.73C661.865 294.695 661.224 294.65 660.607 294.468C659.254 294.07 658.252 293.097 657.198 291.077C657.012 290.721 657.064 290.281 657.33 289.964C657.596 289.647 658.022 289.518 658.408 289.636C658.773 289.748 659.235 289.69 659.693 289.499C659.387 289.459 659.05 289.405 658.698 289.328C656.994 288.958 654.867 288.048 653.232 285.577C653.009 285.24 653.019 284.794 653.257 284.452C653.495 284.111 653.913 283.943 654.312 284.03C655.273 284.238 656.002 284.237 656.534 284.151C656.527 284.15 656.52 284.149 656.513 284.148C656.487 284.145 656.461 284.141 656.434 284.138C656.153 284.1 655.847 284.059 655.533 284.008C654.312 283.809 652.763 283.437 651.657 282.305C651.021 281.654 650.644 280.646 650.465 279.783C650.371 279.333 650.321 278.872 650.324 278.448C650.328 278.048 650.38 277.582 650.569 277.182C650.787 276.716 651.198 276.314 651.58 276.006C651.99 275.677 652.484 275.363 653 275.094C653.983 274.582 655.257 274.124 656.296 274.203C656.777 274.239 657.165 274.487 657.434 274.709C657.719 274.943 657.983 275.243 658.222 275.552C658.701 276.172 659.176 276.962 659.598 277.699C659.749 277.961 659.892 278.215 660.028 278.455C660.066 278.524 660.104 278.591 660.141 278.657C660.037 278 659.821 277.257 659.461 276.532C659.274 276.155 659.35 275.693 659.651 275.381C659.952 275.07 660.411 274.978 660.795 275.152C661.546 275.492 662.528 276.154 663.406 276.92C664.272 277.676 665.158 278.636 665.601 279.615L663.88 294.83ZM661.155 289.664C661.156 289.664 661.156 289.664 661.157 289.664C661.163 289.666 661.162 289.666 661.155 289.664ZM660.932 277.568C660.548 277.305 660.196 277.102 659.924 276.978L660.359 276.065L661.258 275.598C661.478 276.041 661.656 276.491 661.797 276.935C662.947 277.769 664.197 278.968 664.688 280.051C665.546 281.944 665.186 285.443 664.947 287.761L660.932 277.568Z" stroke="#C6AAB9" stroke-width="2" stroke-linejoin="round"/>
</g>
</g>
</g>
<g id="active tab">
<path id="Union" fill-rule="evenodd" clip-rule="evenodd" d="M34 74C28.4772 74 24 78.4772 24 84V478C24 483.523 28.4772 488 34 488H631C636.523 488 641 483.523 641 478V422H709C711.761 422 714 419.761 714 417V338C714 335.239 711.761 333 709 333H641V84C641 78.4772 636.523 74 631 74H34Z" fill="#F8D5E7"/>
<path id="faqs" d="M673.773 388.32C675.373 388.32 676.693 388.84 677.733 389.88C678.813 390.92 679.353 392.28 679.353 393.96C679.353 395.64 678.813 397 677.733 398.04C676.693 399.08 675.373 399.6 673.773 399.6C672.173 399.6 670.833 399.06 669.753 397.98C668.673 396.9 668.133 395.56 668.133 393.96C668.133 392.28 668.673 390.92 669.753 389.88C670.833 388.84 672.173 388.32 673.773 388.32ZM686.433 364.62C686.433 366.06 686.333 367.36 686.133 368.52C685.973 369.68 685.693 370.78 685.293 371.82C684.933 372.86 684.433 373.9 683.793 374.94C683.193 375.94 682.473 377.02 681.633 378.18C680.553 379.62 679.753 380.86 679.233 381.9C678.713 382.9 678.453 384.1 678.453 385.5H668.853C668.853 384.14 668.933 382.94 669.093 381.9C669.293 380.82 669.553 379.82 669.873 378.9C670.233 377.98 670.673 377.1 671.193 376.26C671.713 375.42 672.293 374.54 672.933 373.62C673.533 372.78 674.033 372.02 674.433 371.34C674.833 370.66 675.173 370 675.453 369.36C675.733 368.68 675.933 367.98 676.053 367.26C676.173 366.54 676.233 365.74 676.233 364.86V364.8C676.233 364 675.813 363.6 674.973 363.6C674.173 363.6 673.773 364 673.773 364.8V368.04L664.173 368.64L663.573 364.62C663.573 361.26 664.573 358.66 666.573 356.82C668.573 354.94 671.373 354 674.973 354C678.613 354 681.433 354.94 683.433 356.82C685.433 358.66 686.433 361.26 686.433 364.62Z" fill="#FEA3E2"/>
</g>
<g id="back-button">
<g id="Rectangle 19" filter="url(#filter3_d_373_90)">
<rect x="629" y="41" width="42" height="42" rx="21" fill="#F4A9C6"/>
<rect x="631" y="43" width="38" height="38" rx="19" stroke="#F37074" stroke-width="4"/>
</g>
<path id="Vector_3" d="M652.902 62.0016L658.908 56.0733C658.908 56.0731 658.908 56.0728 658.909 56.0725C659.1 55.8846 659.252 55.6596 659.353 55.4112C659.454 55.1639 659.504 54.8986 659.5 54.6315C659.498 54.0666 659.274 53.5252 658.874 53.1257C658.473 52.7251 657.93 52.5 657.363 52.5V52.5L657.358 52.5C657.088 52.5031 656.821 52.5607 656.574 52.6693C656.329 52.7768 656.109 52.9321 655.925 53.1261L650 59.0506L644.037 53.0882C643.667 52.718 643.166 52.5066 642.643 52.5L642.643 52.5H642.637C642.07 52.5 641.527 52.7251 641.126 53.1257C640.725 53.5263 640.5 54.0697 640.5 54.6362V54.6455L640.501 54.6548C640.519 55.1588 640.73 55.6365 641.09 55.9897L647.098 61.9971L641.092 67.9254C641.092 67.9256 641.092 67.9259 641.091 67.9261C640.9 68.1141 640.749 68.3391 640.647 68.5876L641.107 68.7758L640.647 68.5876C640.546 68.8348 640.496 69.1001 640.5 69.3672C640.502 69.9321 640.726 70.4735 641.126 70.873C641.527 71.2736 642.07 71.4987 642.637 71.4987V71.4987L642.643 71.4987C642.907 71.4955 643.169 71.44 643.412 71.3352C643.654 71.231 643.873 71.0802 644.056 70.8915L649.998 64.9504L655.879 70.9082L655.88 70.9098C656.076 71.1068 656.311 71.2608 656.57 71.3621C656.826 71.4622 657.099 71.5086 657.374 71.4987C657.937 71.496 658.476 71.2712 658.874 70.873C659.275 70.4724 659.5 69.929 659.5 69.3625V69.3532L659.499 69.3439C659.481 68.8399 659.27 68.3622 658.91 68.009C658.909 68.0083 658.908 68.0076 658.908 68.0069L652.902 62.0016Z" fill="white" stroke="white"/>
</g>
</g>
<defs>
<filter id="filter0_d_373_90" x="0" y="49" width="665" height="472" filterUnits="userSpaceOnUse" color-interpolation-filters="sRGB">
<feFlood flood-opacity="0" result="BackgroundImageFix"/>
<feColorMatrix in="SourceAlpha" type="matrix" values="0 0 0 0 0 0 0 0 0 0 0 0 0 0 0 0 0 0 127 0" result="hardAlpha"/>
<feOffset dy="4"/>
<feGaussianBlur stdDeviation="2"/>
<feComposite in2="hardAlpha" operator="out"/>
<feColorMatrix type="matrix" values="0 0 0 0 0 0 0 0 0 0 0 0 0 0 0 0 0 0 0.25 0"/>
<feBlend mode="normal" in2="BackgroundImageFix" result="effect1_dropShadow_373_90"/>
<feBlend mode="normal" in="SourceGraphic" in2="effect1_dropShadow_373_90" result="shape"/>
</filter>
<filter id="filter1_d_373_90" x="115" y="0" width="436" height="114.797" filterUnits="userSpaceOnUse" color-interpolation-filters="sRGB">
<feFlood flood-opacity="0" result="BackgroundImageFix"/>
<feColorMatrix in="SourceAlpha" type="matrix" values="0 0 0 0 0 0 0 0 0 0 0 0 0 0 0 0 0 0 127 0" result="hardAlpha"/>
<feOffset dy="4"/>
<feGaussianBlur stdDeviation="2"/>
<feComposite in2="hardAlpha" operator="out"/>
<feColorMatrix type="matrix" values="0 0 0 0 0 0 0 0 0 0 0 0 0 0 0 0 0 0 0.25 0"/>
<feBlend mode="normal" in2="BackgroundImageFix" result="effect1_dropShadow_373_90"/>
<feBlend mode="normal" in="SourceGraphic" in2="effect1_dropShadow_373_90" result="shape"/>
</filter>
<filter id="filter2_d_373_90" x="632" y="236" width="86" height="97" filterUnits="userSpaceOnUse" color-interpolation-filters="sRGB">
<feFlood flood-opacity="0" result="BackgroundImageFix"/>
<feColorMatrix in="SourceAlpha" type="matrix" values="0 0 0 0 0 0 0 0 0 0 0 0 0 0 0 0 0 0 127 0" result="hardAlpha"/>
<feOffset dy="4"/>
<feGaussianBlur stdDeviation="2"/>
<feComposite in2="hardAlpha" operator="out"/>
<feColorMatrix type="matrix" values="0 0 0 0 0 0 0 0 0 0 0 0 0 0 0 0 0 0 0.25 0"/>
<feBlend mode="normal" in2="BackgroundImageFix" result="effect1_dropShadow_373_90"/>
<feBlend mode="normal" in="SourceGraphic" in2="effect1_dropShadow_373_90" result="shape"/>
</filter>
<filter id="filter3_d_373_90" x="623" y="37" width="58" height="58" filterUnits="userSpaceOnUse" color-interpolation-filters="sRGB">
<feFlood flood-opacity="0" result="BackgroundImageFix"/>
<feColorMatrix in="SourceAlpha" type="matrix" values="0 0 0 0 0 0 0 0 0 0 0 0 0 0 0 0 0 0 127 0" result="hardAlpha"/>
<feOffset dx="2" dy="4"/>
<feGaussianBlur stdDeviation="4"/>
<feComposite in2="hardAlpha" operator="out"/>
<feColorMatrix type="matrix" values="0 0 0 0 0 0 0 0 0 0 0 0 0 0 0 0 0 0 0.25 0"/>
<feBlend mode="normal" in2="BackgroundImageFix" result="effect1_dropShadow_373_90"/>
<feBlend mode="normal" in="SourceGraphic" in2="effect1_dropShadow_373_90" result="shape"/>
</filter>
<linearGradient id="paint0_linear_373_90" x1="333" y1="5" x2="333" y2="92" gradientUnits="userSpaceOnUse">
<stop stop-color="#0E959B"/>
<stop offset="1" stop-color="#1A6A6D"/>
</linearGradient>
</defs>
</svg>
