<svg width="718" height="521" viewBox="0 0 718 521" fill="none" xmlns="http://www.w3.org/2000/svg">
<g id="menu">
<g id="menu block">
<g id="outline" filter="url(#filter0_d_373_86)">
<rect x="9" y="54" width="647" height="454" rx="15" fill="#FEA3E2"/>
<rect x="6.5" y="51.5" width="652" height="459" rx="17.5" stroke="white" stroke-width="5"/>
</g>
<g id="title" filter="url(#filter1_d_373_86)">
<path d="M124 31.1849C124 26.2983 127.535 22.1218 132.361 21.3545C235.223 4.99959 330.499 5 330.5 5C330.5 5 330.5 5 330.5 5H375.5L437 8.99951L533.295 21.5804C538.275 22.231 542 26.4741 542 31.4961V91.7144C542 97.6138 536.881 102.226 531.007 101.68C380.317 87.6755 289.809 88.3338 134.928 101.759C129.078 102.266 124 97.6625 124 91.7907V31.1849Z" fill="url(#paint0_linear_373_86)"/>
<path d="M375.662 2.50527L375.581 2.5H375.5H330.5C330.457 2.5 235.025 2.49959 131.968 18.8855C125.917 19.8475 121.5 25.08 121.5 31.1849V91.7907C121.5 99.1465 127.852 104.882 135.144 104.249C289.891 90.836 380.249 90.18 530.776 104.17C538.098 104.85 544.5 99.1037 544.5 91.7144V31.4961C544.5 25.2186 539.844 19.9147 533.619 19.1015L437.324 6.52058L437.243 6.51005L437.162 6.50478L375.662 2.50527Z" stroke="white" stroke-width="5"/>
</g>
<path id="Moderation" d="M216.382 39.44L215.822 54H205.782L207.622 24H220.142L223.862 39.28H224.222L227.942 24H240.502L242.302 54H232.262L231.702 39.44H231.382L227.702 54H220.382L216.662 39.44H216.382ZM244.928 42C244.928 37.7067 245.928 34.52 247.928 32.44C249.928 30.3333 253.168 29.28 257.648 29.28C262.128 29.28 265.368 30.3333 267.368 32.44C269.368 34.52 270.368 37.7067 270.368 42C270.368 46.2933 269.368 49.4933 267.368 51.6C265.368 53.68 262.128 54.72 257.648 54.72C253.275 54.72 250.062 53.6933 248.008 51.64C245.955 49.5867 244.928 46.3733 244.928 42ZM255.248 38.32V47.72H256.728C257.902 47.72 258.742 47.6 259.248 47.36C259.782 47.12 260.048 46.56 260.048 45.68V36.28H258.568C257.395 36.28 256.542 36.4 256.008 36.64C255.502 36.88 255.248 37.44 255.248 38.32ZM297.969 22.08V54H293.169L291.089 52C289.729 53.8133 287.222 54.72 283.569 54.72C281.649 54.72 280.035 54.3733 278.729 53.68C277.422 52.9867 276.355 52.0667 275.529 50.92C274.729 49.7467 274.142 48.3867 273.769 46.84C273.422 45.2933 273.249 43.68 273.249 42C273.249 40.4 273.409 38.88 273.729 37.44C274.049 35.9733 274.582 34.6933 275.329 33.6C276.075 32.5067 277.062 31.64 278.289 31C279.515 30.3333 281.035 30 282.849 30H288.369V22.8L297.969 22.08ZM283.569 38.32V47.72H285.049C286.142 47.72 286.942 47.6267 287.449 47.44C287.982 47.2267 288.289 46.7467 288.369 46V36.28H286.889C285.715 36.28 284.862 36.4 284.329 36.64C283.822 36.88 283.569 37.44 283.569 38.32ZM312.123 45.84V47.52C312.603 47.5733 313.083 47.6133 313.563 47.64C314.043 47.6667 314.523 47.68 315.003 47.68C317.99 47.68 321.003 47.2 324.043 46.24L325.163 53.28C321.563 54.24 318.017 54.72 314.523 54.72C310.043 54.72 306.803 53.68 304.803 51.6C302.803 49.4933 301.803 46.2933 301.803 42C301.803 37.7067 302.803 34.52 304.803 32.44C306.83 30.3333 310.07 29.28 314.523 29.28C316.763 29.28 318.63 29.4267 320.123 29.72C321.617 29.9867 322.817 30.4533 323.723 31.12C324.657 31.76 325.31 32.64 325.683 33.76C326.083 34.8533 326.283 36.24 326.283 37.92C326.283 39.3067 326.043 40.5067 325.563 41.52C325.11 42.5067 324.337 43.32 323.243 43.96C322.15 44.6 320.697 45.08 318.883 45.4C317.07 45.6933 314.817 45.84 312.123 45.84ZM312.123 38.32V40.28H314.083C315.257 40.28 316.097 40.16 316.603 39.92C317.137 39.68 317.403 39.12 317.403 38.24V36.28H315.443C314.27 36.28 313.417 36.4 312.883 36.64C312.377 36.88 312.123 37.44 312.123 38.32ZM329.873 54V30H334.673L337.313 32.68C339.233 30.92 341.606 29.7867 344.433 29.28L344.993 38.36C344.619 38.36 344.166 38.4133 343.633 38.52C343.099 38.6267 342.553 38.76 341.993 38.92C341.459 39.08 340.966 39.28 340.513 39.52C340.059 39.7333 339.713 39.9867 339.473 40.28V54H329.873ZM359.24 29.28C366.92 29.28 370.76 31.92 370.76 37.2V54H365.96L363.24 51.28C362.76 51.8133 362.187 52.2933 361.52 52.72C360.88 53.1467 360.187 53.5067 359.44 53.8C358.694 54.0933 357.934 54.32 357.16 54.48C356.387 54.64 355.64 54.72 354.92 54.72C353.56 54.72 352.334 54.5733 351.24 54.28C350.174 54.0133 349.267 53.5733 348.52 52.96C347.774 52.3467 347.2 51.5333 346.8 50.52C346.4 49.5067 346.2 48.2667 346.2 46.8C346.2 41.04 350.547 38.16 359.24 38.16H361.16V36.44C360.654 36.4133 360.187 36.3867 359.76 36.36C359.36 36.3333 358.987 36.32 358.64 36.32C355.04 36.32 351.934 36.76 349.32 37.64L348.16 30.76C351.36 29.7733 355.054 29.28 359.24 29.28ZM355.88 45.76V47.72H357.88C359.267 47.72 360.174 47.56 360.6 47.24C360.974 46.8933 361.16 46.48 361.16 46V43.72H359.2C358.054 43.72 357.214 43.84 356.68 44.08C356.147 44.32 355.88 44.88 355.88 45.76ZM376.028 36.2H373.628V30H376.028V26.16L385.628 23.76V30H388.948V36.2H385.628V47.12C386.028 47.2 386.468 47.28 386.948 47.36C387.428 47.4133 387.935 47.4533 388.468 47.48L388.028 54.52C383.655 54.52 380.801 54.28 379.468 53.8C378.348 53.4 377.495 52.8933 376.908 52.28C376.321 51.64 376.028 50.7067 376.028 49.48V36.2ZM402.129 54H392.529V31.2L402.129 30V54ZM392.009 25.48C392.009 24.76 392.089 24.16 392.249 23.68C392.409 23.1733 392.689 22.7733 393.089 22.48C393.489 22.16 394.036 21.9333 394.729 21.8C395.422 21.6667 396.302 21.6 397.369 21.6C398.436 21.6 399.302 21.6667 399.969 21.8C400.662 21.9333 401.209 22.16 401.609 22.48C402.009 22.7733 402.289 23.1733 402.449 23.68C402.609 24.16 402.689 24.76 402.689 25.48C402.689 26.2 402.609 26.8 402.449 27.28C402.289 27.76 402.009 28.16 401.609 28.48C401.209 28.7733 400.662 28.9867 399.969 29.12C399.302 29.2267 398.436 29.28 397.369 29.28C396.596 29.28 395.876 29.2533 395.209 29.2C394.569 29.1467 394.009 29 393.529 28.76C393.049 28.4933 392.676 28.1067 392.409 27.6C392.142 27.0933 392.009 26.3867 392.009 25.48ZM405.983 42C405.983 37.7067 406.983 34.52 408.983 32.44C410.983 30.3333 414.223 29.28 418.703 29.28C423.183 29.28 426.423 30.3333 428.423 32.44C430.423 34.52 431.423 37.7067 431.423 42C431.423 46.2933 430.423 49.4933 428.423 51.6C426.423 53.68 423.183 54.72 418.703 54.72C414.33 54.72 411.116 53.6933 409.063 51.64C407.01 49.5867 405.983 46.3733 405.983 42ZM416.303 38.32V47.72H417.783C418.956 47.72 419.796 47.6 420.303 47.36C420.836 47.12 421.103 46.56 421.103 45.68V36.28H419.623C418.45 36.28 417.596 36.4 417.063 36.64C416.556 36.88 416.303 37.44 416.303 38.32ZM435.263 30H440.063L442.463 32.4C445.423 30.32 448.623 29.28 452.063 29.28C454.33 29.28 456.09 29.7733 457.343 30.76C458.623 31.72 459.263 33.0667 459.263 34.8V54H449.663V37.2H448.183C447.09 37.2 446.263 37.32 445.703 37.56C445.143 37.7733 444.863 38.2667 444.863 39.04V54H435.263V30Z" fill="white"/>
</g>
<g id="faq-button">
<g id="tab 3" filter="url(#filter2_d_373_86)">
<rect x="636" y="333" width="78" height="89" rx="5" fill="#F8D5E7"/>
<rect x="636" y="333" width="78" height="89" rx="5" fill="black" fill-opacity="0.2"/>
</g>
<path id="faqs" d="M673.773 388.32C675.373 388.32 676.693 388.84 677.733 389.88C678.813 390.92 679.353 392.28 679.353 393.96C679.353 395.64 678.813 397 677.733 398.04C676.693 399.08 675.373 399.6 673.773 399.6C672.173 399.6 670.833 399.06 669.753 397.98C668.673 396.9 668.133 395.56 668.133 393.96C668.133 392.28 668.673 390.92 669.753 389.88C670.833 388.84 672.173 388.32 673.773 388.32ZM686.433 364.62C686.433 366.06 686.333 367.36 686.133 368.52C685.973 369.68 685.693 370.78 685.293 371.82C684.933 372.86 684.433 373.9 683.793 374.94C683.193 375.94 682.473 377.02 681.633 378.18C680.553 379.62 679.753 380.86 679.233 381.9C678.713 382.9 678.453 384.1 678.453 385.5H668.853C668.853 384.14 668.933 382.94 669.093 381.9C669.293 380.82 669.553 379.82 669.873 378.9C670.233 377.98 670.673 377.1 671.193 376.26C671.713 375.42 672.293 374.54 672.933 373.62C673.533 372.78 674.033 372.02 674.433 371.34C674.833 370.66 675.173 370 675.453 369.36C675.733 368.68 675.933 367.98 676.053 367.26C676.173 366.54 676.233 365.74 676.233 364.86V364.8C676.233 364 675.813 363.6 674.973 363.6C674.173 363.6 673.773 364 673.773 364.8V368.04L664.173 368.64L663.573 364.62C663.573 361.26 664.573 358.66 666.573 356.82C668.573 354.94 671.373 354 674.973 354C678.613 354 681.433 354.94 683.433 356.82C685.433 358.66 686.433 361.26 686.433 364.62Z" fill="#9E8894"/>
</g>
<g id="about-button">
<path id="tab 1" d="M636 144C636 141.239 638.239 139 641 139H709C711.761 139 714 141.239 714 144V223C714 225.761 711.761 228 709 228H641C638.239 228 636 225.761 636 223V144Z" fill="#C6AAB9"/>
<g id="compass icon">
<circle id="Ellipse 13" cx="675.076" cy="159.283" r="4.28302" stroke="#9E8894" stroke-width="2"/>
<circle id="Ellipse 11" cx="675.076" cy="189.925" r="20.0755" fill="#9E8894"/>
<circle id="Ellipse 12" cx="675.076" cy="184.642" r="17.5755" fill="#DDC5D2" stroke="#C5AEBB" stroke-width="5"/>
<g id="Frame 16">
<path id="Rectangle 36" d="M667.949 192.42L671.769 181.931L677.949 187.459L667.949 192.42Z" fill="#C5AEBB"/>
<path id="Rectangle 37" d="M681.769 176.97L671.769 181.931L677.949 187.459L681.769 176.97Z" fill="#9E8894"/>
</g>
</g>
</g>
<g id="active tab">
<path id="Union" fill-rule="evenodd" clip-rule="evenodd" d="M34 74C28.4772 74 24 78.4772 24 84V478C24 483.523 28.4772 488 34 488H631C636.523 488 641 483.523 641 478V325H709C711.761 325 714 322.761 714 320V241C714 238.239 711.761 236 709 236H641V84C641 78.4772 636.523 74 631 74H34Z" fill="#F8D5E7"/>
<g id="moderation icon">
<g id="Group 6">
<path id="Rectangle 23" d="M666.488 259.213C666.488 257.237 668.38 255.811 670.28 256.356L694.996 263.443C697.32 264.109 698.921 266.234 698.921 268.652C698.921 269.573 698.686 270.478 698.239 271.283L695.437 276.327C694.859 277.367 694.556 278.537 694.556 279.727L694.556 284.107C694.556 285.476 694.154 286.816 693.401 287.959L691.492 290.855C690.738 291.999 690.337 293.338 690.337 294.707L690.337 299.825C690.337 301.1 689.988 302.352 689.329 303.443L689.137 303.761C687.503 306.468 684.256 307.743 681.215 306.871L660.164 300.835C657.197 299.984 656.047 296.392 657.967 293.975C658.665 293.098 658.995 291.985 658.889 290.869L658.387 285.605C658.253 284.196 658.549 282.779 659.237 281.542L661.489 277.488C662.178 276.248 662.474 274.829 662.338 273.418L662.035 270.266C661.894 268.805 662.217 267.336 662.957 266.068L666.083 260.711C666.349 260.256 666.488 259.739 666.488 259.213Z" fill="#FEA3E2"/>
<g id="Group 7">
<path id="Vector 2" d="M669.068 270.85L689.087 276.59" stroke="#F8D5E7" stroke-width="2" stroke-linecap="round"/>
<path id="Vector 3" d="M668.184 275.192L687.536 280.741" stroke="#F8D5E7" stroke-width="2" stroke-linecap="round"/>
<path id="Vector 4" d="M666.139 279.274L686.492 285.11" stroke="#F8D5E7" stroke-width="2" stroke-linecap="round"/>
<path id="Vector 5" d="M664.975 283.348L685.439 289.216" stroke="#F8D5E7" stroke-width="2" stroke-linecap="round"/>
<path id="Vector 6" d="M664.394 287.713L684.412 293.453" stroke="#F8D5E7" stroke-width="2" stroke-linecap="round"/>
</g>
</g>
<path id="Vector" d="M665.288 299.678L665.288 299.679C665.406 300.093 665.697 300.422 666.099 300.575C666.481 300.72 666.883 300.676 667.212 300.531C667.907 300.223 668.299 299.497 668.287 298.695L668.287 298.674C668.244 297.473 667.911 295.281 667.276 293.275C668.17 291.768 668.659 290.391 668.841 289.072C669.039 287.632 668.862 286.326 668.525 285.078C668.411 284.655 668.031 284.366 667.59 284.366C667.149 284.366 666.751 284.656 666.611 285.078C666.495 285.426 666.307 285.895 666.082 286.399C666.09 286.307 666.098 286.214 666.106 286.12C666.195 285.053 666.261 283.868 666.214 282.75C666.168 281.649 666.012 280.521 665.601 279.615L665.288 299.678ZM665.288 299.678C665.162 299.235 665 298.682 664.808 298.029C664.547 297.14 664.231 296.065 663.88 294.83M665.288 299.678L663.88 294.83M658.586 283.594C659.002 283.837 658.14 285.318 655.482 285.198C655.286 284.969 655.095 284.716 654.91 284.437L654.071 285.007L653.83 285.985C654.237 286.073 654.623 286.133 654.989 286.168C656.959 288.247 659.328 288.469 660.656 288.593C661.267 288.65 661.658 288.687 661.686 288.875M658.586 283.594L666.25 299.377C666.113 298.894 665.949 298.333 665.756 297.679C665.46 296.669 665.097 295.436 664.67 293.919M658.586 283.594C658.182 283.356 657.485 283.264 656.677 283.157C655.258 282.969 653.498 282.736 652.383 281.595C651.481 280.672 651.086 278.402 651.472 277.584L658.586 283.594ZM661.686 288.875C661.761 289.384 660.579 290.424 659.274 290.65C659.178 290.485 659.079 290.305 658.977 290.109L658.087 290.593L657.767 291.55C658.088 291.648 658.412 291.692 658.729 291.694C659.987 293.587 661.082 293.648 662.761 293.743C663.323 293.775 663.95 293.81 664.67 293.919M661.686 288.875L660.697 289.052C660.739 289.333 660.903 289.508 661.016 289.589C661.083 289.637 661.138 289.658 661.155 289.664M661.686 288.875L661.155 289.664M664.67 293.919L664.49 294.908C664.279 294.876 664.076 294.85 663.88 294.83M664.67 293.919L663.707 294.217C663.765 294.426 663.823 294.63 663.88 294.83M663.88 294.83C663.454 294.786 663.06 294.763 662.674 294.741C662.606 294.738 662.538 294.734 662.47 294.73C661.865 294.695 661.224 294.65 660.607 294.468C659.254 294.07 658.252 293.097 657.198 291.077C657.012 290.721 657.064 290.281 657.33 289.964C657.596 289.647 658.022 289.518 658.408 289.636C658.773 289.748 659.235 289.69 659.693 289.498C659.387 289.459 659.05 289.405 658.698 289.328C656.994 288.958 654.867 288.048 653.232 285.577C653.009 285.24 653.019 284.794 653.257 284.452C653.495 284.111 653.913 283.943 654.312 284.03C655.273 284.238 656.002 284.237 656.534 284.151C656.527 284.15 656.52 284.149 656.513 284.148C656.487 284.145 656.461 284.141 656.434 284.138C656.153 284.1 655.847 284.059 655.533 284.008C654.312 283.809 652.763 283.437 651.657 282.305C651.021 281.654 650.644 280.646 650.465 279.783C650.371 279.333 650.321 278.872 650.324 278.448C650.328 278.048 650.38 277.582 650.569 277.182C650.787 276.716 651.198 276.314 651.58 276.006C651.99 275.677 652.484 275.363 653 275.094C653.983 274.582 655.257 274.124 656.296 274.203C656.777 274.239 657.165 274.487 657.434 274.709C657.719 274.943 657.983 275.243 658.222 275.552C658.701 276.172 659.176 276.962 659.598 277.699C659.749 277.961 659.892 278.215 660.028 278.455C660.066 278.524 660.104 278.591 660.141 278.657C660.037 278 659.821 277.257 659.461 276.532C659.274 276.155 659.35 275.693 659.651 275.381C659.952 275.07 660.411 274.978 660.795 275.152C661.546 275.492 662.528 276.154 663.406 276.92C664.272 277.676 665.158 278.636 665.601 279.615L663.88 294.83ZM661.155 289.664C661.156 289.664 661.156 289.664 661.157 289.664C661.163 289.666 661.162 289.666 661.155 289.664ZM660.932 277.568C660.548 277.305 660.196 277.101 659.924 276.978L660.359 276.065L661.258 275.598C661.478 276.041 661.656 276.491 661.797 276.935C662.947 277.769 664.197 278.968 664.688 280.051C665.546 281.944 665.186 285.443 664.947 287.761L660.932 277.568Z" fill="#FFC8E4" stroke="#FEA3E2" stroke-width="2" stroke-linejoin="round"/>
<path id="Vector_2" d="M665.288 299.678L665.288 299.679C665.406 300.093 665.697 300.422 666.099 300.575C666.481 300.72 666.883 300.676 667.212 300.531C667.907 300.223 668.299 299.497 668.287 298.695L668.287 298.674C668.244 297.473 667.911 295.281 667.276 293.275C668.17 291.768 668.659 290.391 668.841 289.072C669.039 287.632 668.862 286.326 668.525 285.078C668.411 284.655 668.031 284.366 667.59 284.366C667.149 284.366 666.751 284.656 666.611 285.078C666.495 285.426 666.307 285.895 666.082 286.399C666.09 286.307 666.098 286.214 666.106 286.12C666.195 285.053 666.261 283.868 666.214 282.75C666.168 281.649 666.012 280.521 665.601 279.615L665.288 299.678ZM665.288 299.678C665.162 299.235 665 298.682 664.808 298.029C664.547 297.14 664.231 296.065 663.88 294.83M665.288 299.678L663.88 294.83M658.586 283.594C659.002 283.838 658.14 285.318 655.482 285.198C655.286 284.969 655.095 284.716 654.91 284.438L654.071 285.007L653.83 285.985C654.237 286.073 654.623 286.133 654.989 286.168C656.959 288.247 659.328 288.469 660.656 288.593C661.267 288.65 661.658 288.687 661.686 288.875M658.586 283.594L666.25 299.377C666.113 298.894 665.949 298.333 665.756 297.679C665.46 296.669 665.097 295.436 664.67 293.919M658.586 283.594C658.182 283.357 657.485 283.264 656.677 283.157C655.258 282.969 653.498 282.736 652.383 281.595C651.481 280.672 651.086 278.402 651.472 277.584L658.586 283.594ZM661.686 288.875C661.761 289.384 660.579 290.425 659.274 290.65C659.178 290.485 659.079 290.305 658.977 290.109L658.087 290.593L657.767 291.55C658.088 291.649 658.412 291.692 658.729 291.694C659.987 293.587 661.082 293.649 662.761 293.743C663.323 293.775 663.95 293.81 664.67 293.919M661.686 288.875L660.697 289.052C660.739 289.333 660.903 289.508 661.016 289.589C661.083 289.637 661.138 289.658 661.155 289.664M661.686 288.875L661.155 289.664M664.67 293.919L664.49 294.908C664.279 294.876 664.076 294.85 663.88 294.83M664.67 293.919L663.707 294.218C663.765 294.426 663.823 294.63 663.88 294.83M663.88 294.83C663.454 294.786 663.06 294.763 662.674 294.741C662.606 294.738 662.538 294.734 662.47 294.73C661.865 294.695 661.224 294.65 660.607 294.468C659.254 294.07 658.252 293.097 657.198 291.077C657.012 290.721 657.064 290.281 657.33 289.964C657.596 289.647 658.022 289.518 658.408 289.636C658.773 289.748 659.235 289.69 659.693 289.499C659.387 289.459 659.05 289.405 658.698 289.328C656.994 288.958 654.867 288.048 653.232 285.577C653.009 285.24 653.019 284.794 653.257 284.452C653.495 284.111 653.913 283.943 654.312 284.03C655.273 284.238 656.002 284.237 656.534 284.151C656.527 284.15 656.52 284.149 656.513 284.148C656.487 284.145 656.461 284.141 656.434 284.138C656.153 284.1 655.847 284.059 655.533 284.008C654.312 283.809 652.763 283.437 651.657 282.305C651.021 281.654 650.644 280.646 650.465 279.783C650.371 279.333 650.321 278.872 650.324 278.448C650.328 278.048 650.38 277.582 650.569 277.182C650.787 276.716 651.198 276.314 651.58 276.006C651.99 275.677 652.484 275.363 653 275.094C653.983 274.582 655.257 274.124 656.296 274.203C656.777 274.239 657.165 274.487 657.434 274.709C657.719 274.943 657.983 275.243 658.222 275.552C658.701 276.172 659.176 276.962 659.598 277.699C659.749 277.961 659.892 278.215 660.028 278.455C660.066 278.524 660.104 278.591 660.141 278.657C660.037 278 659.821 277.257 659.461 276.532C659.274 276.155 659.35 275.693 659.651 275.381C659.952 275.07 660.411 274.978 660.795 275.152C661.546 275.492 662.528 276.154 663.406 276.92C664.272 277.676 665.158 278.636 665.601 279.615L663.88 294.83ZM661.155 289.664C661.156 289.664 661.156 289.664 661.157 289.664C661.163 289.666 661.162 289.666 661.155 289.664ZM660.932 277.568C660.548 277.305 660.196 277.102 659.924 276.978L660.359 276.065L661.258 275.598C661.478 276.041 661.656 276.491 661.797 276.935C662.947 277.769 664.197 278.968 664.688 280.051C665.546 281.944 665.186 285.443 664.947 287.761L660.932 277.568Z" fill="#FFC8E4" stroke="#FEA3E2" stroke-width="2" stroke-linejoin="round"/>
</g>
</g>
<g id="back-button">
<g id="Rectangle 19" filter="url(#filter3_d_373_86)">
<rect x="629" y="41" width="42" height="42" rx="21" fill="#F4A9C6"/>
<rect x="631" y="43" width="38" height="38" rx="19" stroke="#F37074" stroke-width="4"/>
</g>
<path id="Vector_3" d="M652.902 62.0016L658.908 56.0733C658.908 56.0731 658.908 56.0728 658.909 56.0725C659.1 55.8846 659.252 55.6596 659.353 55.4112C659.454 55.1639 659.504 54.8986 659.5 54.6315C659.498 54.0666 659.274 53.5252 658.874 53.1257C658.473 52.7251 657.93 52.5 657.363 52.5V52.5L657.358 52.5C657.088 52.5031 656.821 52.5607 656.574 52.6693C656.329 52.7768 656.109 52.9321 655.925 53.1261L650 59.0506L644.037 53.0882C643.667 52.718 643.166 52.5066 642.643 52.5L642.643 52.5H642.637C642.07 52.5 641.527 52.7251 641.126 53.1257C640.725 53.5263 640.5 54.0697 640.5 54.6362V54.6455L640.501 54.6548C640.519 55.1588 640.73 55.6365 641.09 55.9897L647.098 61.9971L641.092 67.9254C641.092 67.9256 641.092 67.9259 641.091 67.9261C640.9 68.1141 640.749 68.3391 640.647 68.5876L641.107 68.7758L640.647 68.5876C640.546 68.8348 640.496 69.1001 640.5 69.3672C640.502 69.9321 640.726 70.4735 641.126 70.873C641.527 71.2736 642.07 71.4987 642.637 71.4987V71.4987L642.643 71.4987C642.907 71.4955 643.169 71.44 643.412 71.3352C643.654 71.231 643.873 71.0802 644.056 70.8915L649.998 64.9504L655.879 70.9082L655.88 70.9098C656.076 71.1068 656.311 71.2608 656.57 71.3621C656.826 71.4622 657.099 71.5086 657.374 71.4987C657.937 71.496 658.476 71.2712 658.874 70.873C659.275 70.4724 659.5 69.929 659.5 69.3625V69.3532L659.499 69.3439C659.481 68.8399 659.27 68.3622 658.91 68.009C658.909 68.0083 658.908 68.0076 658.908 68.0069L652.902 62.0016Z" fill="white" stroke="white"/>
</g>
</g>
<defs>
<filter id="filter0_d_373_86" x="0" y="49" width="665" height="472" filterUnits="userSpaceOnUse" color-interpolation-filters="sRGB">
<feFlood flood-opacity="0" result="BackgroundImageFix"/>
<feColorMatrix in="SourceAlpha" type="matrix" values="0 0 0 0 0 0 0 0 0 0 0 0 0 0 0 0 0 0 127 0" result="hardAlpha"/>
<feOffset dy="4"/>
<feGaussianBlur stdDeviation="2"/>
<feComposite in2="hardAlpha" operator="out"/>
<feColorMatrix type="matrix" values="0 0 0 0 0 0 0 0 0 0 0 0 0 0 0 0 0 0 0.25 0"/>
<feBlend mode="normal" in2="BackgroundImageFix" result="effect1_dropShadow_373_86"/>
<feBlend mode="normal" in="SourceGraphic" in2="effect1_dropShadow_373_86" result="shape"/>
</filter>
<filter id="filter1_d_373_86" x="115" y="0" width="436" height="114.797" filterUnits="userSpaceOnUse" color-interpolation-filters="sRGB">
<feFlood flood-opacity="0" result="BackgroundImageFix"/>
<feColorMatrix in="SourceAlpha" type="matrix" values="0 0 0 0 0 0 0 0 0 0 0 0 0 0 0 0 0 0 127 0" result="hardAlpha"/>
<feOffset dy="4"/>
<feGaussianBlur stdDeviation="2"/>
<feComposite in2="hardAlpha" operator="out"/>
<feColorMatrix type="matrix" values="0 0 0 0 0 0 0 0 0 0 0 0 0 0 0 0 0 0 0.25 0"/>
<feBlend mode="normal" in2="BackgroundImageFix" result="effect1_dropShadow_373_86"/>
<feBlend mode="normal" in="SourceGraphic" in2="effect1_dropShadow_373_86" result="shape"/>
</filter>
<filter id="filter2_d_373_86" x="632" y="333" width="86" height="97" filterUnits="userSpaceOnUse" color-interpolation-filters="sRGB">
<feFlood flood-opacity="0" result="BackgroundImageFix"/>
<feColorMatrix in="SourceAlpha" type="matrix" values="0 0 0 0 0 0 0 0 0 0 0 0 0 0 0 0 0 0 127 0" result="hardAlpha"/>
<feOffset dy="4"/>
<feGaussianBlur stdDeviation="2"/>
<feComposite in2="hardAlpha" operator="out"/>
<feColorMatrix type="matrix" values="0 0 0 0 0 0 0 0 0 0 0 0 0 0 0 0 0 0 0.25 0"/>
<feBlend mode="normal" in2="BackgroundImageFix" result="effect1_dropShadow_373_86"/>
<feBlend mode="normal" in="SourceGraphic" in2="effect1_dropShadow_373_86" result="shape"/>
</filter>
<filter id="filter3_d_373_86" x="623" y="37" width="58" height="58" filterUnits="userSpaceOnUse" color-interpolation-filters="sRGB">
<feFlood flood-opacity="0" result="BackgroundImageFix"/>
<feColorMatrix in="SourceAlpha" type="matrix" values="0 0 0 0 0 0 0 0 0 0 0 0 0 0 0 0 0 0 127 0" result="hardAlpha"/>
<feOffset dx="2" dy="4"/>
<feGaussianBlur stdDeviation="4"/>
<feComposite in2="hardAlpha" operator="out"/>
<feColorMatrix type="matrix" values="0 0 0 0 0 0 0 0 0 0 0 0 0 0 0 0 0 0 0.25 0"/>
<feBlend mode="normal" in2="BackgroundImageFix" result="effect1_dropShadow_373_86"/>
<feBlend mode="normal" in="SourceGraphic" in2="effect1_dropShadow_373_86" result="shape"/>
</filter>
<linearGradient id="paint0_linear_373_86" x1="333" y1="5" x2="333" y2="92" gradientUnits="userSpaceOnUse">
<stop stop-color="#0E959B"/>
<stop offset="1" stop-color="#1A6A6D"/>
</linearGradient>
</defs>
</svg>
