<svg width="718" height="521" viewBox="0 0 718 521" fill="none" xmlns="http://www.w3.org/2000/svg">
<g id="menu">
<g id="menu block">
<g id="outline" filter="url(#filter0_d_373_82)">
<rect x="9" y="54" width="647" height="454" rx="15" fill="#FEA3E2"/>
<rect x="6.5" y="51.5" width="652" height="459" rx="17.5" stroke="white" stroke-width="5"/>
</g>
<g id="title" filter="url(#filter1_d_373_82)">
<path d="M124 31.1849C124 26.2983 127.535 22.1218 132.361 21.3545C235.223 4.99959 330.499 5 330.5 5C330.5 5 330.5 5 330.5 5H375.5L437 8.99951L533.295 21.5804C538.275 22.231 542 26.4741 542 31.4961V91.7144C542 97.6138 536.881 102.226 531.007 101.68C380.317 87.6755 289.809 88.3338 134.928 101.759C129.078 102.266 124 97.6625 124 91.7907V31.1849Z" fill="url(#paint0_linear_373_82)"/>
<path d="M375.662 2.50527L375.581 2.5H375.5H330.5C330.457 2.5 235.025 2.49959 131.968 18.8855C125.917 19.8475 121.5 25.08 121.5 31.1849V91.7907C121.5 99.1465 127.852 104.882 135.144 104.249C289.891 90.836 380.249 90.18 530.776 104.17C538.098 104.85 544.5 99.1037 544.5 91.7144V31.4961C544.5 25.2186 539.844 19.9147 533.619 19.1015L437.324 6.52058L437.243 6.51005L437.162 6.50478L375.662 2.50527Z" stroke="white" stroke-width="5"/>
</g>
<path id="About" d="M277.683 49.24L276.603 54H266.483L274.243 24H289.083L296.843 54H286.723L285.603 49.24H277.683ZM281.923 33.2H281.403L279.443 41.6H283.843L281.923 33.2ZM298.701 52.8V22.8L308.301 22.08V30.04C309.474 29.5333 311.074 29.28 313.101 29.28C315.021 29.28 316.634 29.6267 317.941 30.32C319.247 31.0133 320.301 31.9467 321.101 33.12C321.927 34.2667 322.514 35.6133 322.861 37.16C323.234 38.7067 323.421 40.32 323.421 42C323.421 46.5067 322.381 49.76 320.301 51.76C318.221 53.7333 315.074 54.72 310.861 54.72C306.647 54.72 302.594 54.08 298.701 52.8ZM308.301 38.08V47.72H309.781C310.954 47.72 311.794 47.6 312.301 47.36C312.834 47.12 313.101 46.56 313.101 45.68V36.28H311.621C310.927 36.28 310.367 36.3067 309.941 36.36C309.514 36.4133 309.141 36.5867 308.821 36.88C308.501 37.1467 308.327 37.5467 308.301 38.08ZM326.295 42C326.295 37.7067 327.295 34.52 329.295 32.44C331.295 30.3333 334.535 29.28 339.015 29.28C343.495 29.28 346.735 30.3333 348.735 32.44C350.735 34.52 351.735 37.7067 351.735 42C351.735 46.2933 350.735 49.4933 348.735 51.6C346.735 53.68 343.495 54.72 339.015 54.72C334.642 54.72 331.429 53.6933 329.375 51.64C327.322 49.5867 326.295 46.3733 326.295 42ZM336.615 38.32V47.72H338.095C339.269 47.72 340.109 47.6 340.615 47.36C341.149 47.12 341.415 46.56 341.415 45.68V36.28H339.935C338.762 36.28 337.909 36.4 337.375 36.64C336.869 36.88 336.615 37.44 336.615 38.32ZM355.096 30H364.696V47.72H366.176C367.349 47.72 368.189 47.6 368.696 47.36C369.229 47.12 369.496 46.56 369.496 45.68V30H379.096V54H374.296L371.496 51.28C369.576 53.5733 366.842 54.72 363.296 54.72C360.442 54.72 358.362 54.12 357.056 52.92C355.749 51.6933 355.096 49.6533 355.096 46.8V30ZM384.856 36.2H382.456V30H384.856V26.16L394.456 23.76V30H397.776V36.2H394.456V47.12C394.856 47.2 395.296 47.28 395.776 47.36C396.256 47.4133 396.763 47.4533 397.296 47.48L396.856 54.52C392.483 54.52 389.629 54.28 388.296 53.8C387.176 53.4 386.323 52.8933 385.736 52.28C385.149 51.64 384.856 50.7067 384.856 49.48V36.2Z" fill="white"/>
</g>
<g id="faq-button">
<g id="tab 3" filter="url(#filter2_d_373_82)">
<rect x="636" y="333" width="78" height="89" rx="5" fill="#F8D5E7"/>
<rect x="636" y="333" width="78" height="89" rx="5" fill="black" fill-opacity="0.2"/>
</g>
<path id="faqs" d="M673.773 388.32C675.373 388.32 676.693 388.84 677.733 389.88C678.813 390.92 679.353 392.28 679.353 393.96C679.353 395.64 678.813 397 677.733 398.04C676.693 399.08 675.373 399.6 673.773 399.6C672.173 399.6 670.833 399.06 669.753 397.98C668.673 396.9 668.133 395.56 668.133 393.96C668.133 392.28 668.673 390.92 669.753 389.88C670.833 388.84 672.173 388.32 673.773 388.32ZM686.433 364.62C686.433 366.06 686.333 367.36 686.133 368.52C685.973 369.68 685.693 370.78 685.293 371.82C684.933 372.86 684.433 373.9 683.793 374.94C683.193 375.94 682.473 377.02 681.633 378.18C680.553 379.62 679.753 380.86 679.233 381.9C678.713 382.9 678.453 384.1 678.453 385.5H668.853C668.853 384.14 668.933 382.94 669.093 381.9C669.293 380.82 669.553 379.82 669.873 378.9C670.233 377.98 670.673 377.1 671.193 376.26C671.713 375.42 672.293 374.54 672.933 373.62C673.533 372.78 674.033 372.02 674.433 371.34C674.833 370.66 675.173 370 675.453 369.36C675.733 368.68 675.933 367.98 676.053 367.26C676.173 366.54 676.233 365.74 676.233 364.86V364.8C676.233 364 675.813 363.6 674.973 363.6C674.173 363.6 673.773 364 673.773 364.8V368.04L664.173 368.64L663.573 364.62C663.573 361.26 664.573 358.66 666.573 356.82C668.573 354.94 671.373 354 674.973 354C678.613 354 681.433 354.94 683.433 356.82C685.433 358.66 686.433 361.26 686.433 364.62Z" fill="#9E8894"/>
</g>
<g id="mod-button">
<g id="tab 2" filter="url(#filter3_d_373_82)">
<rect x="636" y="236" width="78" height="89" rx="5" fill="#F8D5E7"/>
<rect x="636" y="236" width="78" height="89" rx="5" fill="black" fill-opacity="0.2"/>
</g>
<g id="moderation icon">
<g id="Group 6">
<g id="Rectangle 23">
<path d="M666.49 259.213C666.49 257.237 668.382 255.811 670.282 256.356L694.998 263.443C697.322 264.109 698.923 266.234 698.923 268.652C698.923 269.573 698.688 270.478 698.241 271.283L695.439 276.327C694.861 277.367 694.558 278.537 694.558 279.727L694.558 284.107C694.558 285.476 694.156 286.816 693.403 287.959L691.494 290.855C690.74 291.999 690.338 293.338 690.338 294.707L690.338 299.825C690.338 301.1 689.99 302.352 689.331 303.443L689.139 303.761C687.505 306.468 684.258 307.743 681.217 306.871L660.166 300.835C657.199 299.984 656.049 296.392 657.969 293.975C658.667 293.098 658.997 291.985 658.891 290.869L658.389 285.605C658.255 284.196 658.551 282.779 659.239 281.542L661.491 277.488C662.18 276.248 662.475 274.829 662.34 273.418L662.037 270.266C661.896 268.805 662.219 267.336 662.959 266.068L666.085 260.711C666.351 260.256 666.49 259.739 666.49 259.213Z" fill="#C6AAB9"/>
<path d="M666.49 259.213C666.49 257.237 668.382 255.811 670.282 256.356L694.998 263.443C697.322 264.109 698.923 266.234 698.923 268.652C698.923 269.573 698.688 270.478 698.241 271.283L695.439 276.327C694.861 277.367 694.558 278.537 694.558 279.727L694.558 284.107C694.558 285.476 694.156 286.816 693.403 287.959L691.494 290.855C690.74 291.999 690.338 293.338 690.338 294.707L690.338 299.825C690.338 301.1 689.99 302.352 689.331 303.443L689.139 303.761C687.505 306.468 684.258 307.743 681.217 306.871L660.166 300.835C657.199 299.984 656.049 296.392 657.969 293.975C658.667 293.098 658.997 291.985 658.891 290.869L658.389 285.605C658.255 284.196 658.551 282.779 659.239 281.542L661.491 277.488C662.18 276.248 662.475 274.829 662.34 273.418L662.037 270.266C661.896 268.805 662.219 267.336 662.959 266.068L666.085 260.711C666.351 260.256 666.49 259.739 666.49 259.213Z" fill="black" fill-opacity="0.2"/>
<path d="M666.49 259.213C666.49 257.237 668.382 255.811 670.282 256.356L694.998 263.443C697.322 264.109 698.923 266.234 698.923 268.652C698.923 269.573 698.688 270.478 698.241 271.283L695.439 276.327C694.861 277.367 694.558 278.537 694.558 279.727L694.558 284.107C694.558 285.476 694.156 286.816 693.403 287.959L691.494 290.855C690.74 291.999 690.338 293.338 690.338 294.707L690.338 299.825C690.338 301.1 689.99 302.352 689.331 303.443L689.139 303.761C687.505 306.468 684.258 307.743 681.217 306.871L660.166 300.835C657.199 299.984 656.049 296.392 657.969 293.975C658.667 293.098 658.997 291.985 658.891 290.869L658.389 285.605C658.255 284.196 658.551 282.779 659.239 281.542L661.491 277.488C662.18 276.248 662.475 274.829 662.34 273.418L662.037 270.266C661.896 268.805 662.219 267.336 662.959 266.068L666.085 260.711C666.351 260.256 666.49 259.739 666.49 259.213Z" stroke="#C6AAB9" stroke-width="2"/>
</g>
<path id="Vector 2" d="M670.07 270.85L690.089 276.59" stroke="#C6AAB9" stroke-width="2" stroke-linecap="round"/>
<path id="Vector 3" d="M669.186 275.192L688.537 280.741" stroke="#C6AAB9" stroke-width="2" stroke-linecap="round"/>
<path id="Vector 4" d="M667.141 279.274L687.494 285.11" stroke="#C6AAB9" stroke-width="2" stroke-linecap="round"/>
<path id="Vector 5" d="M665.977 283.348L686.441 289.216" stroke="#C6AAB9" stroke-width="2" stroke-linecap="round"/>
<path id="Vector 6" d="M665.395 287.713L685.414 293.453" stroke="#C6AAB9" stroke-width="2" stroke-linecap="round"/>
</g>
<g id="Vector">
<path d="M665.29 299.678L665.29 299.679C665.408 300.093 665.699 300.422 666.101 300.575C666.483 300.72 666.885 300.676 667.214 300.531C667.909 300.223 668.301 299.497 668.289 298.695L668.289 298.674C668.246 297.473 667.913 295.281 667.279 293.275C668.172 291.768 668.662 290.391 668.843 289.072C669.042 287.632 668.864 286.326 668.527 285.078C668.413 284.655 668.033 284.366 667.592 284.366C667.151 284.366 666.753 284.656 666.613 285.078C666.497 285.426 666.309 285.895 666.084 286.399C666.092 286.307 666.1 286.214 666.108 286.12C666.198 285.053 666.263 283.868 666.216 282.75C666.171 281.649 666.014 280.521 665.603 279.615L665.29 299.678ZM665.29 299.678C665.164 299.235 665.002 298.682 664.81 298.029C664.549 297.14 664.234 296.065 663.882 294.83M665.29 299.678L663.882 294.83M658.588 283.594C659.004 283.837 658.142 285.318 655.484 285.198C655.288 284.969 655.097 284.716 654.912 284.437L654.073 285.007L653.833 285.985C654.24 286.073 654.626 286.133 654.991 286.168C656.961 288.247 659.33 288.469 660.658 288.593C661.27 288.65 661.66 288.687 661.688 288.875M658.588 283.594L666.253 299.377C666.115 298.894 665.951 298.333 665.758 297.679C665.462 296.669 665.099 295.436 664.672 293.919M658.588 283.594C658.184 283.356 657.487 283.264 656.679 283.157C655.26 282.969 653.5 282.736 652.385 281.595C651.483 280.672 651.088 278.402 651.474 277.584L658.588 283.594ZM661.688 288.875C661.763 289.384 660.581 290.424 659.277 290.65C659.18 290.485 659.081 290.305 658.979 290.109L658.089 290.593L657.769 291.55C658.09 291.648 658.414 291.692 658.732 291.694C659.989 293.587 661.084 293.648 662.763 293.743C663.325 293.775 663.952 293.81 664.672 293.919M661.688 288.875L660.699 289.052C660.741 289.333 660.905 289.508 661.019 289.589C661.086 289.637 661.14 289.658 661.158 289.664M661.688 288.875L661.158 289.664M664.672 293.919L664.493 294.908C664.281 294.876 664.078 294.85 663.882 294.83M664.672 293.919L663.709 294.217C663.767 294.426 663.825 294.63 663.882 294.83M663.882 294.83C663.456 294.786 663.062 294.763 662.676 294.741C662.608 294.738 662.54 294.734 662.473 294.73C661.867 294.695 661.226 294.65 660.609 294.468C659.256 294.07 658.254 293.097 657.2 291.077C657.014 290.721 657.066 290.281 657.332 289.964C657.598 289.647 658.024 289.518 658.41 289.636C658.775 289.748 659.237 289.69 659.695 289.498C659.389 289.459 659.052 289.405 658.7 289.328C656.996 288.958 654.869 288.048 653.234 285.577C653.011 285.24 653.021 284.794 653.259 284.452C653.497 284.111 653.916 283.943 654.314 284.03C655.275 284.238 656.004 284.237 656.536 284.151C656.529 284.15 656.523 284.149 656.516 284.148C656.489 284.145 656.463 284.141 656.436 284.138C656.155 284.1 655.849 284.059 655.535 284.008C654.314 283.809 652.766 283.437 651.66 282.305C651.023 281.654 650.647 280.646 650.467 279.783C650.374 279.333 650.323 278.872 650.327 278.448C650.33 278.048 650.383 277.582 650.571 277.182C650.789 276.716 651.2 276.314 651.583 276.006C651.992 275.677 652.487 275.363 653.002 275.094C653.985 274.582 655.26 274.124 656.298 274.203C656.779 274.239 657.167 274.487 657.436 274.709C657.721 274.943 657.985 275.243 658.224 275.552C658.703 276.172 659.178 276.962 659.6 277.699C659.751 277.961 659.894 278.215 660.03 278.455C660.068 278.524 660.106 278.591 660.144 278.657C660.039 278 659.823 277.257 659.463 276.532C659.276 276.155 659.352 275.693 659.653 275.381C659.954 275.07 660.414 274.978 660.797 275.152C661.548 275.492 662.53 276.154 663.408 276.92C664.275 277.676 665.16 278.636 665.603 279.615L663.882 294.83ZM661.158 289.664C661.158 289.664 661.159 289.664 661.159 289.664C661.166 289.666 661.165 289.666 661.158 289.664ZM660.935 277.568C660.55 277.305 660.198 277.101 659.926 276.978L660.362 276.065L661.26 275.598C661.48 276.041 661.658 276.491 661.799 276.935C662.949 277.769 664.199 278.968 664.69 280.051C665.549 281.944 665.188 285.443 664.949 287.761L660.935 277.568Z" fill="#C6AAB9"/>
<path d="M665.29 299.678L665.29 299.679C665.408 300.093 665.699 300.422 666.101 300.575C666.483 300.72 666.885 300.676 667.214 300.531C667.909 300.223 668.301 299.497 668.289 298.695L668.289 298.674C668.246 297.473 667.913 295.281 667.279 293.275C668.172 291.768 668.662 290.391 668.843 289.072C669.042 287.632 668.864 286.326 668.527 285.078C668.413 284.655 668.033 284.366 667.592 284.366C667.151 284.366 666.753 284.656 666.613 285.078C666.497 285.426 666.309 285.895 666.084 286.399C666.092 286.307 666.1 286.214 666.108 286.12C666.198 285.053 666.263 283.868 666.216 282.75C666.171 281.649 666.014 280.521 665.603 279.615L665.29 299.678ZM665.29 299.678C665.164 299.235 665.002 298.682 664.81 298.029C664.549 297.14 664.234 296.065 663.882 294.83M665.29 299.678L663.882 294.83M658.588 283.594C659.004 283.837 658.142 285.318 655.484 285.198C655.288 284.969 655.097 284.716 654.912 284.437L654.073 285.007L653.833 285.985C654.24 286.073 654.626 286.133 654.991 286.168C656.961 288.247 659.33 288.469 660.658 288.593C661.27 288.65 661.66 288.687 661.688 288.875M658.588 283.594L666.253 299.377C666.115 298.894 665.951 298.333 665.758 297.679C665.462 296.669 665.099 295.436 664.672 293.919M658.588 283.594C658.184 283.356 657.487 283.264 656.679 283.157C655.26 282.969 653.5 282.736 652.385 281.595C651.483 280.672 651.088 278.402 651.474 277.584L658.588 283.594ZM661.688 288.875C661.763 289.384 660.581 290.424 659.277 290.65C659.18 290.485 659.081 290.305 658.979 290.109L658.089 290.593L657.769 291.55C658.09 291.648 658.414 291.692 658.732 291.694C659.989 293.587 661.084 293.648 662.763 293.743C663.325 293.775 663.952 293.81 664.672 293.919M661.688 288.875L660.699 289.052C660.741 289.333 660.905 289.508 661.019 289.589C661.086 289.637 661.14 289.658 661.158 289.664M661.688 288.875L661.158 289.664M664.672 293.919L664.493 294.908C664.281 294.876 664.078 294.85 663.882 294.83M664.672 293.919L663.709 294.217C663.767 294.426 663.825 294.63 663.882 294.83M663.882 294.83C663.456 294.786 663.062 294.763 662.676 294.741C662.608 294.738 662.54 294.734 662.473 294.73C661.867 294.695 661.226 294.65 660.609 294.468C659.256 294.07 658.254 293.097 657.2 291.077C657.014 290.721 657.066 290.281 657.332 289.964C657.598 289.647 658.024 289.518 658.41 289.636C658.775 289.748 659.237 289.69 659.695 289.498C659.389 289.459 659.052 289.405 658.7 289.328C656.996 288.958 654.869 288.048 653.234 285.577C653.011 285.24 653.021 284.794 653.259 284.452C653.497 284.111 653.916 283.943 654.314 284.03C655.275 284.238 656.004 284.237 656.536 284.151C656.529 284.15 656.523 284.149 656.516 284.148C656.489 284.145 656.463 284.141 656.436 284.138C656.155 284.1 655.849 284.059 655.535 284.008C654.314 283.809 652.766 283.437 651.66 282.305C651.023 281.654 650.647 280.646 650.467 279.783C650.374 279.333 650.323 278.872 650.327 278.448C650.33 278.048 650.383 277.582 650.571 277.182C650.789 276.716 651.2 276.314 651.583 276.006C651.992 275.677 652.487 275.363 653.002 275.094C653.985 274.582 655.26 274.124 656.298 274.203C656.779 274.239 657.167 274.487 657.436 274.709C657.721 274.943 657.985 275.243 658.224 275.552C658.703 276.172 659.178 276.962 659.6 277.699C659.751 277.961 659.894 278.215 660.03 278.455C660.068 278.524 660.106 278.591 660.144 278.657C660.039 278 659.823 277.257 659.463 276.532C659.276 276.155 659.352 275.693 659.653 275.381C659.954 275.07 660.414 274.978 660.797 275.152C661.548 275.492 662.53 276.154 663.408 276.92C664.275 277.676 665.16 278.636 665.603 279.615L663.882 294.83ZM661.158 289.664C661.158 289.664 661.159 289.664 661.159 289.664C661.166 289.666 661.165 289.666 661.158 289.664ZM660.935 277.568C660.55 277.305 660.198 277.101 659.926 276.978L660.362 276.065L661.26 275.598C661.48 276.041 661.658 276.491 661.799 276.935C662.949 277.769 664.199 278.968 664.69 280.051C665.549 281.944 665.188 285.443 664.949 287.761L660.935 277.568Z" fill="black" fill-opacity="0.2"/>
<path d="M665.29 299.678L665.29 299.679C665.408 300.093 665.699 300.422 666.101 300.575C666.483 300.72 666.885 300.676 667.214 300.531C667.909 300.223 668.301 299.497 668.289 298.695L668.289 298.674C668.246 297.473 667.913 295.281 667.279 293.275C668.172 291.768 668.662 290.391 668.843 289.072C669.042 287.632 668.864 286.326 668.527 285.078C668.413 284.655 668.033 284.366 667.592 284.366C667.151 284.366 666.753 284.656 666.613 285.078C666.497 285.426 666.309 285.895 666.084 286.399C666.092 286.307 666.1 286.214 666.108 286.12C666.198 285.053 666.263 283.868 666.216 282.75C666.171 281.649 666.014 280.521 665.603 279.615L665.29 299.678ZM665.29 299.678C665.164 299.235 665.002 298.682 664.81 298.029C664.549 297.14 664.234 296.065 663.882 294.83M665.29 299.678L663.882 294.83M658.588 283.594C659.004 283.837 658.142 285.318 655.484 285.198C655.288 284.969 655.097 284.716 654.912 284.437L654.073 285.007L653.833 285.985C654.24 286.073 654.626 286.133 654.991 286.168C656.961 288.247 659.33 288.469 660.658 288.593C661.27 288.65 661.66 288.687 661.688 288.875M658.588 283.594L666.253 299.377C666.115 298.894 665.951 298.333 665.758 297.679C665.462 296.669 665.099 295.436 664.672 293.919M658.588 283.594C658.184 283.356 657.487 283.264 656.679 283.157C655.26 282.969 653.5 282.736 652.385 281.595C651.483 280.672 651.088 278.402 651.474 277.584L658.588 283.594ZM661.688 288.875C661.763 289.384 660.581 290.424 659.277 290.65C659.18 290.485 659.081 290.305 658.979 290.109L658.089 290.593L657.769 291.55C658.09 291.648 658.414 291.692 658.732 291.694C659.989 293.587 661.084 293.648 662.763 293.743C663.325 293.775 663.952 293.81 664.672 293.919M661.688 288.875L660.699 289.052C660.741 289.333 660.905 289.508 661.019 289.589C661.086 289.637 661.14 289.658 661.158 289.664M661.688 288.875L661.158 289.664M664.672 293.919L664.493 294.908C664.281 294.876 664.078 294.85 663.882 294.83M664.672 293.919L663.709 294.217C663.767 294.426 663.825 294.63 663.882 294.83M663.882 294.83C663.456 294.786 663.062 294.763 662.676 294.741C662.608 294.738 662.54 294.734 662.473 294.73C661.867 294.695 661.226 294.65 660.609 294.468C659.256 294.07 658.254 293.097 657.2 291.077C657.014 290.721 657.066 290.281 657.332 289.964C657.598 289.647 658.024 289.518 658.41 289.636C658.775 289.748 659.237 289.69 659.695 289.498C659.389 289.459 659.052 289.405 658.7 289.328C656.996 288.958 654.869 288.048 653.234 285.577C653.011 285.24 653.021 284.794 653.259 284.452C653.497 284.111 653.916 283.943 654.314 284.03C655.275 284.238 656.004 284.237 656.536 284.151C656.529 284.15 656.523 284.149 656.516 284.148C656.489 284.145 656.463 284.141 656.436 284.138C656.155 284.1 655.849 284.059 655.535 284.008C654.314 283.809 652.766 283.437 651.66 282.305C651.023 281.654 650.647 280.646 650.467 279.783C650.374 279.333 650.323 278.872 650.327 278.448C650.33 278.048 650.383 277.582 650.571 277.182C650.789 276.716 651.2 276.314 651.583 276.006C651.992 275.677 652.487 275.363 653.002 275.094C653.985 274.582 655.26 274.124 656.298 274.203C656.779 274.239 657.167 274.487 657.436 274.709C657.721 274.943 657.985 275.243 658.224 275.552C658.703 276.172 659.178 276.962 659.6 277.699C659.751 277.961 659.894 278.215 660.03 278.455C660.068 278.524 660.106 278.591 660.144 278.657C660.039 278 659.823 277.257 659.463 276.532C659.276 276.155 659.352 275.693 659.653 275.381C659.954 275.07 660.414 274.978 660.797 275.152C661.548 275.492 662.53 276.154 663.408 276.92C664.275 277.676 665.16 278.636 665.603 279.615L663.882 294.83ZM661.158 289.664C661.158 289.664 661.159 289.664 661.159 289.664C661.166 289.666 661.165 289.666 661.158 289.664ZM660.935 277.568C660.55 277.305 660.198 277.101 659.926 276.978L660.362 276.065L661.26 275.598C661.48 276.041 661.658 276.491 661.799 276.935C662.949 277.769 664.199 278.968 664.69 280.051C665.549 281.944 665.188 285.443 664.949 287.761L660.935 277.568Z" stroke="#C6AAB9" stroke-width="2" stroke-linejoin="round"/>
</g>
<g id="Vector_2">
<path d="M665.29 299.678L665.29 299.679C665.408 300.093 665.699 300.422 666.101 300.575C666.483 300.72 666.885 300.676 667.214 300.531C667.909 300.223 668.301 299.497 668.289 298.695L668.289 298.674C668.246 297.473 667.913 295.281 667.279 293.275C668.172 291.768 668.662 290.391 668.843 289.072C669.042 287.632 668.864 286.326 668.527 285.078C668.413 284.655 668.033 284.366 667.592 284.366C667.151 284.366 666.753 284.656 666.613 285.078C666.497 285.426 666.309 285.895 666.084 286.399C666.092 286.307 666.1 286.214 666.108 286.12C666.198 285.053 666.263 283.868 666.216 282.75C666.171 281.649 666.014 280.521 665.603 279.615L665.29 299.678ZM665.29 299.678C665.164 299.235 665.002 298.682 664.81 298.029C664.549 297.14 664.234 296.065 663.882 294.83M665.29 299.678L663.882 294.83M658.588 283.594C659.004 283.838 658.142 285.318 655.484 285.198C655.288 284.969 655.097 284.716 654.912 284.438L654.073 285.007L653.833 285.985C654.24 286.073 654.626 286.133 654.991 286.168C656.961 288.247 659.33 288.469 660.658 288.593C661.27 288.65 661.66 288.687 661.688 288.875M658.588 283.594L666.253 299.377C666.115 298.894 665.951 298.333 665.758 297.679C665.462 296.669 665.099 295.436 664.672 293.919M658.588 283.594C658.184 283.357 657.487 283.264 656.679 283.157C655.26 282.969 653.5 282.736 652.385 281.595C651.483 280.672 651.088 278.402 651.474 277.584L658.588 283.594ZM661.688 288.875C661.763 289.384 660.581 290.425 659.277 290.65C659.18 290.485 659.081 290.305 658.979 290.109L658.089 290.593L657.769 291.55C658.09 291.649 658.414 291.692 658.732 291.694C659.989 293.587 661.084 293.649 662.763 293.743C663.325 293.775 663.952 293.81 664.672 293.919M661.688 288.875L660.699 289.052C660.741 289.333 660.905 289.508 661.019 289.589C661.086 289.637 661.14 289.658 661.158 289.664M661.688 288.875L661.158 289.664M664.672 293.919L664.493 294.908C664.281 294.876 664.078 294.85 663.882 294.83M664.672 293.919L663.709 294.218C663.767 294.426 663.825 294.63 663.882 294.83M663.882 294.83C663.456 294.786 663.062 294.763 662.676 294.741C662.608 294.738 662.54 294.734 662.473 294.73C661.867 294.695 661.226 294.65 660.609 294.468C659.256 294.07 658.254 293.097 657.2 291.077C657.014 290.721 657.066 290.281 657.332 289.964C657.598 289.647 658.024 289.518 658.41 289.636C658.775 289.748 659.237 289.69 659.695 289.499C659.389 289.459 659.052 289.405 658.7 289.328C656.996 288.958 654.869 288.048 653.234 285.577C653.011 285.24 653.021 284.794 653.259 284.452C653.497 284.111 653.916 283.943 654.314 284.03C655.275 284.238 656.004 284.237 656.536 284.151C656.529 284.15 656.523 284.149 656.516 284.148C656.489 284.145 656.463 284.141 656.436 284.138C656.155 284.1 655.849 284.059 655.535 284.008C654.314 283.809 652.766 283.437 651.66 282.305C651.023 281.654 650.647 280.646 650.467 279.783C650.374 279.333 650.323 278.872 650.327 278.448C650.33 278.048 650.383 277.582 650.571 277.182C650.789 276.716 651.2 276.314 651.583 276.006C651.992 275.677 652.487 275.363 653.002 275.094C653.985 274.582 655.26 274.124 656.298 274.203C656.779 274.239 657.167 274.487 657.436 274.709C657.721 274.943 657.985 275.243 658.224 275.552C658.703 276.172 659.178 276.962 659.6 277.699C659.751 277.961 659.894 278.215 660.03 278.455C660.068 278.524 660.106 278.591 660.144 278.657C660.039 278 659.823 277.257 659.463 276.532C659.276 276.155 659.352 275.693 659.653 275.381C659.954 275.07 660.414 274.978 660.797 275.152C661.548 275.492 662.53 276.154 663.408 276.92C664.275 277.676 665.16 278.636 665.603 279.615L663.882 294.83ZM661.158 289.664C661.158 289.664 661.159 289.664 661.159 289.664C661.166 289.666 661.165 289.666 661.158 289.664ZM660.935 277.568C660.55 277.305 660.198 277.102 659.926 276.978L660.362 276.065L661.26 275.598C661.48 276.041 661.658 276.491 661.799 276.935C662.949 277.769 664.199 278.968 664.69 280.051C665.549 281.944 665.188 285.443 664.949 287.761L660.935 277.568Z" fill="#C6AAB9"/>
<path d="M665.29 299.678L665.29 299.679C665.408 300.093 665.699 300.422 666.101 300.575C666.483 300.72 666.885 300.676 667.214 300.531C667.909 300.223 668.301 299.497 668.289 298.695L668.289 298.674C668.246 297.473 667.913 295.281 667.279 293.275C668.172 291.768 668.662 290.391 668.843 289.072C669.042 287.632 668.864 286.326 668.527 285.078C668.413 284.655 668.033 284.366 667.592 284.366C667.151 284.366 666.753 284.656 666.613 285.078C666.497 285.426 666.309 285.895 666.084 286.399C666.092 286.307 666.1 286.214 666.108 286.12C666.198 285.053 666.263 283.868 666.216 282.75C666.171 281.649 666.014 280.521 665.603 279.615L665.29 299.678ZM665.29 299.678C665.164 299.235 665.002 298.682 664.81 298.029C664.549 297.14 664.234 296.065 663.882 294.83M665.29 299.678L663.882 294.83M658.588 283.594C659.004 283.838 658.142 285.318 655.484 285.198C655.288 284.969 655.097 284.716 654.912 284.438L654.073 285.007L653.833 285.985C654.24 286.073 654.626 286.133 654.991 286.168C656.961 288.247 659.33 288.469 660.658 288.593C661.27 288.65 661.66 288.687 661.688 288.875M658.588 283.594L666.253 299.377C666.115 298.894 665.951 298.333 665.758 297.679C665.462 296.669 665.099 295.436 664.672 293.919M658.588 283.594C658.184 283.357 657.487 283.264 656.679 283.157C655.26 282.969 653.5 282.736 652.385 281.595C651.483 280.672 651.088 278.402 651.474 277.584L658.588 283.594ZM661.688 288.875C661.763 289.384 660.581 290.425 659.277 290.65C659.18 290.485 659.081 290.305 658.979 290.109L658.089 290.593L657.769 291.55C658.09 291.649 658.414 291.692 658.732 291.694C659.989 293.587 661.084 293.649 662.763 293.743C663.325 293.775 663.952 293.81 664.672 293.919M661.688 288.875L660.699 289.052C660.741 289.333 660.905 289.508 661.019 289.589C661.086 289.637 661.14 289.658 661.158 289.664M661.688 288.875L661.158 289.664M664.672 293.919L664.493 294.908C664.281 294.876 664.078 294.85 663.882 294.83M664.672 293.919L663.709 294.218C663.767 294.426 663.825 294.63 663.882 294.83M663.882 294.83C663.456 294.786 663.062 294.763 662.676 294.741C662.608 294.738 662.54 294.734 662.473 294.73C661.867 294.695 661.226 294.65 660.609 294.468C659.256 294.07 658.254 293.097 657.2 291.077C657.014 290.721 657.066 290.281 657.332 289.964C657.598 289.647 658.024 289.518 658.41 289.636C658.775 289.748 659.237 289.69 659.695 289.499C659.389 289.459 659.052 289.405 658.7 289.328C656.996 288.958 654.869 288.048 653.234 285.577C653.011 285.24 653.021 284.794 653.259 284.452C653.497 284.111 653.916 283.943 654.314 284.03C655.275 284.238 656.004 284.237 656.536 284.151C656.529 284.15 656.523 284.149 656.516 284.148C656.489 284.145 656.463 284.141 656.436 284.138C656.155 284.1 655.849 284.059 655.535 284.008C654.314 283.809 652.766 283.437 651.66 282.305C651.023 281.654 650.647 280.646 650.467 279.783C650.374 279.333 650.323 278.872 650.327 278.448C650.33 278.048 650.383 277.582 650.571 277.182C650.789 276.716 651.2 276.314 651.583 276.006C651.992 275.677 652.487 275.363 653.002 275.094C653.985 274.582 655.26 274.124 656.298 274.203C656.779 274.239 657.167 274.487 657.436 274.709C657.721 274.943 657.985 275.243 658.224 275.552C658.703 276.172 659.178 276.962 659.6 277.699C659.751 277.961 659.894 278.215 660.03 278.455C660.068 278.524 660.106 278.591 660.144 278.657C660.039 278 659.823 277.257 659.463 276.532C659.276 276.155 659.352 275.693 659.653 275.381C659.954 275.07 660.414 274.978 660.797 275.152C661.548 275.492 662.53 276.154 663.408 276.92C664.275 277.676 665.16 278.636 665.603 279.615L663.882 294.83ZM661.158 289.664C661.158 289.664 661.159 289.664 661.159 289.664C661.166 289.666 661.165 289.666 661.158 289.664ZM660.935 277.568C660.55 277.305 660.198 277.102 659.926 276.978L660.362 276.065L661.26 275.598C661.48 276.041 661.658 276.491 661.799 276.935C662.949 277.769 664.199 278.968 664.69 280.051C665.549 281.944 665.188 285.443 664.949 287.761L660.935 277.568Z" fill="black" fill-opacity="0.2"/>
<path d="M665.29 299.678L665.29 299.679C665.408 300.093 665.699 300.422 666.101 300.575C666.483 300.72 666.885 300.676 667.214 300.531C667.909 300.223 668.301 299.497 668.289 298.695L668.289 298.674C668.246 297.473 667.913 295.281 667.279 293.275C668.172 291.768 668.662 290.391 668.843 289.072C669.042 287.632 668.864 286.326 668.527 285.078C668.413 284.655 668.033 284.366 667.592 284.366C667.151 284.366 666.753 284.656 666.613 285.078C666.497 285.426 666.309 285.895 666.084 286.399C666.092 286.307 666.1 286.214 666.108 286.12C666.198 285.053 666.263 283.868 666.216 282.75C666.171 281.649 666.014 280.521 665.603 279.615L665.29 299.678ZM665.29 299.678C665.164 299.235 665.002 298.682 664.81 298.029C664.549 297.14 664.234 296.065 663.882 294.83M665.29 299.678L663.882 294.83M658.588 283.594C659.004 283.838 658.142 285.318 655.484 285.198C655.288 284.969 655.097 284.716 654.912 284.438L654.073 285.007L653.833 285.985C654.24 286.073 654.626 286.133 654.991 286.168C656.961 288.247 659.33 288.469 660.658 288.593C661.27 288.65 661.66 288.687 661.688 288.875M658.588 283.594L666.253 299.377C666.115 298.894 665.951 298.333 665.758 297.679C665.462 296.669 665.099 295.436 664.672 293.919M658.588 283.594C658.184 283.357 657.487 283.264 656.679 283.157C655.26 282.969 653.5 282.736 652.385 281.595C651.483 280.672 651.088 278.402 651.474 277.584L658.588 283.594ZM661.688 288.875C661.763 289.384 660.581 290.425 659.277 290.65C659.18 290.485 659.081 290.305 658.979 290.109L658.089 290.593L657.769 291.55C658.09 291.649 658.414 291.692 658.732 291.694C659.989 293.587 661.084 293.649 662.763 293.743C663.325 293.775 663.952 293.81 664.672 293.919M661.688 288.875L660.699 289.052C660.741 289.333 660.905 289.508 661.019 289.589C661.086 289.637 661.14 289.658 661.158 289.664M661.688 288.875L661.158 289.664M664.672 293.919L664.493 294.908C664.281 294.876 664.078 294.85 663.882 294.83M664.672 293.919L663.709 294.218C663.767 294.426 663.825 294.63 663.882 294.83M663.882 294.83C663.456 294.786 663.062 294.763 662.676 294.741C662.608 294.738 662.54 294.734 662.473 294.73C661.867 294.695 661.226 294.65 660.609 294.468C659.256 294.07 658.254 293.097 657.2 291.077C657.014 290.721 657.066 290.281 657.332 289.964C657.598 289.647 658.024 289.518 658.41 289.636C658.775 289.748 659.237 289.69 659.695 289.499C659.389 289.459 659.052 289.405 658.7 289.328C656.996 288.958 654.869 288.048 653.234 285.577C653.011 285.24 653.021 284.794 653.259 284.452C653.497 284.111 653.916 283.943 654.314 284.03C655.275 284.238 656.004 284.237 656.536 284.151C656.529 284.15 656.523 284.149 656.516 284.148C656.489 284.145 656.463 284.141 656.436 284.138C656.155 284.1 655.849 284.059 655.535 284.008C654.314 283.809 652.766 283.437 651.66 282.305C651.023 281.654 650.647 280.646 650.467 279.783C650.374 279.333 650.323 278.872 650.327 278.448C650.33 278.048 650.383 277.582 650.571 277.182C650.789 276.716 651.2 276.314 651.583 276.006C651.992 275.677 652.487 275.363 653.002 275.094C653.985 274.582 655.26 274.124 656.298 274.203C656.779 274.239 657.167 274.487 657.436 274.709C657.721 274.943 657.985 275.243 658.224 275.552C658.703 276.172 659.178 276.962 659.6 277.699C659.751 277.961 659.894 278.215 660.03 278.455C660.068 278.524 660.106 278.591 660.144 278.657C660.039 278 659.823 277.257 659.463 276.532C659.276 276.155 659.352 275.693 659.653 275.381C659.954 275.07 660.414 274.978 660.797 275.152C661.548 275.492 662.53 276.154 663.408 276.92C664.275 277.676 665.16 278.636 665.603 279.615L663.882 294.83ZM661.158 289.664C661.158 289.664 661.159 289.664 661.159 289.664C661.166 289.666 661.165 289.666 661.158 289.664ZM660.935 277.568C660.55 277.305 660.198 277.102 659.926 276.978L660.362 276.065L661.26 275.598C661.48 276.041 661.658 276.491 661.799 276.935C662.949 277.769 664.199 278.968 664.69 280.051C665.549 281.944 665.188 285.443 664.949 287.761L660.935 277.568Z" stroke="#C6AAB9" stroke-width="2" stroke-linejoin="round"/>
</g>
</g>
</g>
<g id="active tab">
<path id="Union" fill-rule="evenodd" clip-rule="evenodd" d="M29 74C26.2386 74 24 76.2386 24 79V483C24 485.761 26.2386 488 29 488H631C636.523 488 641 483.523 641 478V228H709C711.761 228 714 225.761 714 223V144C714 141.239 711.761 139 709 139H641V79C641 76.2386 638.761 74 636 74H29Z" fill="#F8D5E7"/>
<g id="compass icon">
<circle id="Ellipse 13" cx="675.076" cy="159.283" r="4.28302" stroke="#FB80D6" stroke-width="2"/>
<circle id="Ellipse 11" cx="675.076" cy="189.925" r="20.0755" fill="#FB80D6"/>
<circle id="Ellipse 12" cx="675.076" cy="184.642" r="17.5755" fill="#FFC8E4" stroke="#FEA3E2" stroke-width="5"/>
<rect id="Rectangle 38" x="672.962" y="161.396" width="4.22642" height="4.22642" rx="1" fill="#FB80D6"/>
<g id="Frame 16">
<path id="Rectangle 36" d="M667.949 192.42L671.769 181.931L677.949 187.459L667.949 192.42Z" fill="#FEA3E2"/>
<path id="Rectangle 37" d="M681.769 176.97L671.769 181.931L677.949 187.459L681.769 176.97Z" fill="#FB80D6"/>
</g>
</g>
</g>
<g id="back-button">
<g id="Rectangle 19" filter="url(#filter4_d_373_82)">
<rect x="629" y="41" width="42" height="42" rx="21" fill="#F4A9C6"/>
<rect x="631" y="43" width="38" height="38" rx="19" stroke="#F37074" stroke-width="4"/>
</g>
<path id="Vector_3" d="M652.902 62.0016L658.908 56.0733C658.908 56.0731 658.908 56.0728 658.909 56.0725C659.1 55.8846 659.252 55.6596 659.353 55.4112C659.454 55.1639 659.504 54.8986 659.5 54.6315C659.498 54.0666 659.274 53.5252 658.874 53.1257C658.473 52.7251 657.93 52.5 657.363 52.5V52.5L657.358 52.5C657.088 52.5031 656.821 52.5607 656.574 52.6693C656.329 52.7768 656.109 52.9321 655.925 53.1261L650 59.0506L644.037 53.0882C643.667 52.718 643.166 52.5066 642.643 52.5L642.643 52.5H642.637C642.07 52.5 641.527 52.7251 641.126 53.1257C640.725 53.5263 640.5 54.0697 640.5 54.6362V54.6455L640.501 54.6548C640.519 55.1588 640.73 55.6365 641.09 55.9897L647.098 61.9971L641.092 67.9254C641.092 67.9256 641.092 67.9259 641.091 67.9261C640.9 68.1141 640.749 68.3391 640.647 68.5876L641.107 68.7758L640.647 68.5876C640.546 68.8348 640.496 69.1001 640.5 69.3672C640.502 69.9321 640.726 70.4735 641.126 70.873C641.527 71.2736 642.07 71.4987 642.637 71.4987V71.4987L642.643 71.4987C642.907 71.4955 643.169 71.44 643.412 71.3352C643.654 71.231 643.873 71.0802 644.056 70.8915L649.998 64.9504L655.879 70.9082L655.88 70.9098C656.076 71.1068 656.311 71.2608 656.57 71.3621C656.826 71.4622 657.099 71.5086 657.374 71.4987C657.937 71.496 658.476 71.2712 658.874 70.873C659.275 70.4724 659.5 69.929 659.5 69.3625V69.3532L659.499 69.3439C659.481 68.8399 659.27 68.3622 658.91 68.009C658.909 68.0083 658.908 68.0076 658.908 68.0069L652.902 62.0016Z" fill="white" stroke="white"/>
</g>
</g>
<defs>
<filter id="filter0_d_373_82" x="0" y="49" width="665" height="472" filterUnits="userSpaceOnUse" color-interpolation-filters="sRGB">
<feFlood flood-opacity="0" result="BackgroundImageFix"/>
<feColorMatrix in="SourceAlpha" type="matrix" values="0 0 0 0 0 0 0 0 0 0 0 0 0 0 0 0 0 0 127 0" result="hardAlpha"/>
<feOffset dy="4"/>
<feGaussianBlur stdDeviation="2"/>
<feComposite in2="hardAlpha" operator="out"/>
<feColorMatrix type="matrix" values="0 0 0 0 0 0 0 0 0 0 0 0 0 0 0 0 0 0 0.25 0"/>
<feBlend mode="normal" in2="BackgroundImageFix" result="effect1_dropShadow_373_82"/>
<feBlend mode="normal" in="SourceGraphic" in2="effect1_dropShadow_373_82" result="shape"/>
</filter>
<filter id="filter1_d_373_82" x="115" y="0" width="436" height="114.797" filterUnits="userSpaceOnUse" color-interpolation-filters="sRGB">
<feFlood flood-opacity="0" result="BackgroundImageFix"/>
<feColorMatrix in="SourceAlpha" type="matrix" values="0 0 0 0 0 0 0 0 0 0 0 0 0 0 0 0 0 0 127 0" result="hardAlpha"/>
<feOffset dy="4"/>
<feGaussianBlur stdDeviation="2"/>
<feComposite in2="hardAlpha" operator="out"/>
<feColorMatrix type="matrix" values="0 0 0 0 0 0 0 0 0 0 0 0 0 0 0 0 0 0 0.25 0"/>
<feBlend mode="normal" in2="BackgroundImageFix" result="effect1_dropShadow_373_82"/>
<feBlend mode="normal" in="SourceGraphic" in2="effect1_dropShadow_373_82" result="shape"/>
</filter>
<filter id="filter2_d_373_82" x="632" y="333" width="86" height="97" filterUnits="userSpaceOnUse" color-interpolation-filters="sRGB">
<feFlood flood-opacity="0" result="BackgroundImageFix"/>
<feColorMatrix in="SourceAlpha" type="matrix" values="0 0 0 0 0 0 0 0 0 0 0 0 0 0 0 0 0 0 127 0" result="hardAlpha"/>
<feOffset dy="4"/>
<feGaussianBlur stdDeviation="2"/>
<feComposite in2="hardAlpha" operator="out"/>
<feColorMatrix type="matrix" values="0 0 0 0 0 0 0 0 0 0 0 0 0 0 0 0 0 0 0.25 0"/>
<feBlend mode="normal" in2="BackgroundImageFix" result="effect1_dropShadow_373_82"/>
<feBlend mode="normal" in="SourceGraphic" in2="effect1_dropShadow_373_82" result="shape"/>
</filter>
<filter id="filter3_d_373_82" x="632" y="236" width="86" height="97" filterUnits="userSpaceOnUse" color-interpolation-filters="sRGB">
<feFlood flood-opacity="0" result="BackgroundImageFix"/>
<feColorMatrix in="SourceAlpha" type="matrix" values="0 0 0 0 0 0 0 0 0 0 0 0 0 0 0 0 0 0 127 0" result="hardAlpha"/>
<feOffset dy="4"/>
<feGaussianBlur stdDeviation="2"/>
<feComposite in2="hardAlpha" operator="out"/>
<feColorMatrix type="matrix" values="0 0 0 0 0 0 0 0 0 0 0 0 0 0 0 0 0 0 0.25 0"/>
<feBlend mode="normal" in2="BackgroundImageFix" result="effect1_dropShadow_373_82"/>
<feBlend mode="normal" in="SourceGraphic" in2="effect1_dropShadow_373_82" result="shape"/>
</filter>
<filter id="filter4_d_373_82" x="623" y="37" width="58" height="58" filterUnits="userSpaceOnUse" color-interpolation-filters="sRGB">
<feFlood flood-opacity="0" result="BackgroundImageFix"/>
<feColorMatrix in="SourceAlpha" type="matrix" values="0 0 0 0 0 0 0 0 0 0 0 0 0 0 0 0 0 0 127 0" result="hardAlpha"/>
<feOffset dx="2" dy="4"/>
<feGaussianBlur stdDeviation="4"/>
<feComposite in2="hardAlpha" operator="out"/>
<feColorMatrix type="matrix" values="0 0 0 0 0 0 0 0 0 0 0 0 0 0 0 0 0 0 0.25 0"/>
<feBlend mode="normal" in2="BackgroundImageFix" result="effect1_dropShadow_373_82"/>
<feBlend mode="normal" in="SourceGraphic" in2="effect1_dropShadow_373_82" result="shape"/>
</filter>
<linearGradient id="paint0_linear_373_82" x1="333" y1="5" x2="333" y2="92" gradientUnits="userSpaceOnUse">
<stop stop-color="#0E959B"/>
<stop offset="1" stop-color="#1A6A6D"/>
</linearGradient>
</defs>
</svg>
