<svg width="368" height="491" viewBox="0 0 368 491" fill="none" xmlns="http://www.w3.org/2000/svg">
<g id="menu-mod">
<g id="menu">
<g id="menu block">
<g id="menu block_2">
<g id="outline" filter="url(#filter0_d_646_185)">
<rect x="9" y="51.0776" width="338.565" height="426.922" rx="15" fill="#FEA3E2"/>
<rect x="6.5" y="48.5776" width="343.565" height="431.922" rx="17.5" stroke="white" stroke-width="5"/>
</g>
<g id="title" filter="url(#filter1_d_646_185)">
<path d="M69.1777 29.0985C69.1777 24.6837 72.0752 20.7755 76.3301 19.598C129.081 4.99972 177.235 5 177.236 5C177.236 5 177.236 5 177.236 5H200.784L232.966 8.76097L280.196 19.8498C284.716 20.9108 287.911 24.9427 287.911 29.585V85.022C287.911 91.2226 282.301 95.9198 276.18 94.9324C202.756 83.089 156.252 83.6488 80.786 95.0828C74.7043 96.0042 69.1777 91.3193 69.1777 85.1681V29.0985Z" fill="url(#paint0_linear_646_185)"/>
<path d="M201.074 2.5169L200.929 2.5H200.784H177.236C177.153 2.5 128.736 2.50128 75.6633 17.1886C70.2962 18.6739 66.6777 23.5902 66.6777 29.0985V85.1681C66.6777 92.8723 73.5892 98.7017 81.1606 97.5546C156.396 86.1554 202.638 85.6024 275.782 97.4005C283.396 98.6287 290.411 92.7897 290.411 85.022V29.585C290.411 23.7821 286.417 18.7423 280.768 17.4159L233.537 6.32715L233.398 6.29447L233.256 6.27787L201.074 2.5169Z" stroke="white" stroke-width="5"/>
</g>
<path id="Moderation" d="M120.235 39.0042L119.955 46.2842H114.935L115.855 31.2842H122.115L123.975 38.9242H124.155L126.015 31.2842H132.295L133.195 46.2842H128.175L127.895 39.0042H127.735L125.895 46.2842H122.235L120.375 39.0042H120.235ZM134.508 40.2842C134.508 38.1375 135.008 36.5442 136.008 35.5042C137.008 34.4508 138.628 33.9242 140.868 33.9242C143.108 33.9242 144.728 34.4508 145.728 35.5042C146.728 36.5442 147.228 38.1375 147.228 40.2842C147.228 42.4308 146.728 44.0308 145.728 45.0842C144.728 46.1242 143.108 46.6442 140.868 46.6442C138.682 46.6442 137.075 46.1308 136.048 45.1042C135.022 44.0775 134.508 42.4708 134.508 40.2842ZM139.668 38.4442V43.1442H140.408C140.995 43.1442 141.415 43.0842 141.668 42.9642C141.935 42.8442 142.068 42.5642 142.068 42.1242V37.4242H141.328C140.742 37.4242 140.315 37.4842 140.048 37.6042C139.795 37.7242 139.668 38.0042 139.668 38.4442ZM161.028 30.3242V46.2842H158.628L157.588 45.2842C156.908 46.1908 155.655 46.6442 153.828 46.6442C152.868 46.6442 152.062 46.4708 151.408 46.1242C150.755 45.7775 150.222 45.3175 149.808 44.7442C149.408 44.1575 149.115 43.4775 148.928 42.7042C148.755 41.9308 148.668 41.1242 148.668 40.2842C148.668 39.4842 148.748 38.7242 148.908 38.0042C149.068 37.2708 149.335 36.6308 149.708 36.0842C150.082 35.5375 150.575 35.1042 151.188 34.7842C151.802 34.4508 152.562 34.2842 153.468 34.2842H156.228V30.6842L161.028 30.3242ZM153.828 38.4442V43.1442H154.568C155.115 43.1442 155.515 43.0975 155.768 43.0042C156.035 42.8975 156.188 42.6575 156.228 42.2842V37.4242H155.488C154.902 37.4242 154.475 37.4842 154.208 37.6042C153.955 37.7242 153.828 38.0042 153.828 38.4442ZM168.106 42.2042V43.0442C168.346 43.0708 168.586 43.0908 168.826 43.1042C169.066 43.1175 169.306 43.1242 169.546 43.1242C171.039 43.1242 172.546 42.8842 174.066 42.4042L174.626 45.9242C172.826 46.4042 171.052 46.6442 169.306 46.6442C167.066 46.6442 165.446 46.1242 164.446 45.0842C163.446 44.0308 162.946 42.4308 162.946 40.2842C162.946 38.1375 163.446 36.5442 164.446 35.5042C165.459 34.4508 167.079 33.9242 169.306 33.9242C170.426 33.9242 171.359 33.9975 172.106 34.1442C172.852 34.2775 173.452 34.5108 173.906 34.8442C174.372 35.1642 174.699 35.6042 174.886 36.1642C175.086 36.7108 175.186 37.4042 175.186 38.2442C175.186 38.9375 175.066 39.5375 174.826 40.0442C174.599 40.5375 174.212 40.9442 173.666 41.2642C173.119 41.5842 172.392 41.8242 171.486 41.9842C170.579 42.1308 169.452 42.2042 168.106 42.2042ZM168.106 38.4442V39.4242H169.086C169.672 39.4242 170.092 39.3642 170.346 39.2442C170.612 39.1242 170.746 38.8442 170.746 38.4042V37.4242H169.766C169.179 37.4242 168.752 37.4842 168.486 37.6042C168.232 37.7242 168.106 38.0042 168.106 38.4442ZM176.98 46.2842V34.2842H179.38L180.7 35.6242C181.66 34.7442 182.847 34.1775 184.26 33.9242L184.54 38.4642C184.354 38.4642 184.127 38.4908 183.86 38.5442C183.594 38.5975 183.32 38.6642 183.04 38.7442C182.774 38.8242 182.527 38.9242 182.3 39.0442C182.074 39.1508 181.9 39.2775 181.78 39.4242V46.2842H176.98ZM191.664 33.9242C195.504 33.9242 197.424 35.2442 197.424 37.8842V46.2842H195.024L193.664 44.9242C193.424 45.1908 193.138 45.4308 192.804 45.6442C192.484 45.8575 192.138 46.0375 191.764 46.1842C191.391 46.3308 191.011 46.4442 190.624 46.5242C190.238 46.6042 189.864 46.6442 189.504 46.6442C188.824 46.6442 188.211 46.5708 187.664 46.4242C187.131 46.2908 186.678 46.0708 186.304 45.7642C185.931 45.4575 185.644 45.0508 185.444 44.5442C185.244 44.0375 185.144 43.4175 185.144 42.6842C185.144 39.8042 187.318 38.3642 191.664 38.3642H192.624V37.5042C192.371 37.4908 192.138 37.4775 191.924 37.4642C191.724 37.4508 191.538 37.4442 191.364 37.4442C189.564 37.4442 188.011 37.6642 186.704 38.1042L186.124 34.6642C187.724 34.1708 189.571 33.9242 191.664 33.9242ZM189.984 42.1642V43.1442H190.984C191.678 43.1442 192.131 43.0642 192.344 42.9042C192.531 42.7308 192.624 42.5242 192.624 42.2842V41.1442H191.644C191.071 41.1442 190.651 41.2042 190.384 41.3242C190.118 41.4442 189.984 41.7242 189.984 42.1642ZM200.058 37.3842H198.858V34.2842H200.058V32.3642L204.858 31.1642V34.2842H206.518V37.3842H204.858V42.8442C205.058 42.8842 205.278 42.9242 205.518 42.9642C205.758 42.9908 206.011 43.0108 206.278 43.0242L206.058 46.5442C203.871 46.5442 202.445 46.4242 201.778 46.1842C201.218 45.9842 200.791 45.7308 200.498 45.4242C200.205 45.1042 200.058 44.6375 200.058 44.0242V37.3842ZM213.109 46.2842H208.309V34.8842L213.109 34.2842V46.2842ZM208.049 32.0242C208.049 31.6642 208.089 31.3642 208.169 31.1242C208.249 30.8708 208.389 30.6708 208.589 30.5242C208.789 30.3642 209.062 30.2508 209.409 30.1842C209.755 30.1175 210.195 30.0842 210.729 30.0842C211.262 30.0842 211.695 30.1175 212.029 30.1842C212.375 30.2508 212.649 30.3642 212.849 30.5242C213.049 30.6708 213.189 30.8708 213.269 31.1242C213.349 31.3642 213.389 31.6642 213.389 32.0242C213.389 32.3842 213.349 32.6842 213.269 32.9242C213.189 33.1642 213.049 33.3642 212.849 33.5242C212.649 33.6708 212.375 33.7775 212.029 33.8442C211.695 33.8975 211.262 33.9242 210.729 33.9242C210.342 33.9242 209.982 33.9108 209.649 33.8842C209.329 33.8575 209.049 33.7842 208.809 33.6642C208.569 33.5308 208.382 33.3375 208.249 33.0842C208.115 32.8308 208.049 32.4775 208.049 32.0242ZM215.036 40.2842C215.036 38.1375 215.536 36.5442 216.536 35.5042C217.536 34.4508 219.156 33.9242 221.396 33.9242C223.636 33.9242 225.256 34.4508 226.256 35.5042C227.256 36.5442 227.756 38.1375 227.756 40.2842C227.756 42.4308 227.256 44.0308 226.256 45.0842C225.256 46.1242 223.636 46.6442 221.396 46.6442C219.209 46.6442 217.602 46.1308 216.576 45.1042C215.549 44.0775 215.036 42.4708 215.036 40.2842ZM220.196 38.4442V43.1442H220.936C221.522 43.1442 221.942 43.0842 222.196 42.9642C222.462 42.8442 222.596 42.5642 222.596 42.1242V37.4242H221.856C221.269 37.4242 220.842 37.4842 220.576 37.6042C220.322 37.7242 220.196 38.0042 220.196 38.4442ZM229.676 34.2842H232.076L233.276 35.4842C234.756 34.4442 236.356 33.9242 238.076 33.9242C239.209 33.9242 240.089 34.1708 240.716 34.6642C241.356 35.1442 241.676 35.8175 241.676 36.6842V46.2842H236.876V37.8842H236.136C235.589 37.8842 235.176 37.9442 234.896 38.0642C234.616 38.1708 234.476 38.4175 234.476 38.8042V46.2842H229.676V34.2842Z" fill="white"/>
</g>
<g id="faq-button">
<g id="tab 3" filter="url(#filter2_d_646_185)">
<rect x="325" y="278.644" width="39" height="61.1233" rx="5" fill="#F8D5E7"/>
<rect x="325" y="278.644" width="39" height="61.1233" rx="5" fill="black" fill-opacity="0.2"/>
</g>
<path id="faqs" d="M343.656 316.808C344.722 316.808 345.602 317.155 346.296 317.848C347.016 318.542 347.376 319.448 347.376 320.568C347.376 321.688 347.016 322.595 346.296 323.288C345.602 323.982 344.722 324.328 343.656 324.328C342.589 324.328 341.696 323.968 340.976 323.248C340.256 322.528 339.896 321.635 339.896 320.568C339.896 319.448 340.256 318.542 340.976 317.848C341.696 317.155 342.589 316.808 343.656 316.808ZM352.096 301.008C352.096 301.968 352.029 302.835 351.896 303.608C351.789 304.382 351.602 305.115 351.336 305.808C351.096 306.502 350.762 307.195 350.336 307.888C349.936 308.555 349.456 309.275 348.896 310.048C348.176 311.008 347.642 311.835 347.296 312.528C346.949 313.195 346.776 313.995 346.776 314.928H340.376C340.376 314.022 340.429 313.222 340.536 312.528C340.669 311.808 340.842 311.142 341.056 310.528C341.296 309.915 341.589 309.328 341.936 308.768C342.282 308.208 342.669 307.622 343.096 307.008C343.496 306.448 343.829 305.942 344.096 305.488C344.362 305.035 344.589 304.595 344.776 304.168C344.962 303.715 345.096 303.248 345.176 302.768C345.256 302.288 345.296 301.755 345.296 301.168V301.128C345.296 300.595 345.016 300.328 344.456 300.328C343.922 300.328 343.656 300.595 343.656 301.128V303.288L337.256 303.688L336.856 301.008C336.856 298.768 337.522 297.035 338.856 295.808C340.189 294.555 342.056 293.928 344.456 293.928C346.882 293.928 348.762 294.555 350.096 295.808C351.429 297.035 352.096 298.768 352.096 301.008Z" fill="#9E8894"/>
</g>
<g id="about-button" filter="url(#filter3_d_646_185)">
<g id="tab 1">
<path d="M325 149.173C325 146.411 327.239 144.173 330 144.173H359C361.761 144.173 364 146.411 364 149.173V200.296C364 203.058 361.761 205.296 359 205.296H330C327.239 205.296 325 203.058 325 200.296V149.173Z" fill="#F8D5E7"/>
<path d="M325 149.173C325 146.411 327.239 144.173 330 144.173H359C361.761 144.173 364 146.411 364 149.173V200.296C364 203.058 361.761 205.296 359 205.296H330C327.239 205.296 325 203.058 325 200.296V149.173Z" fill="black" fill-opacity="0.2"/>
</g>
<g id="compass icon">
<path id="Ellipse 13" d="M347 163.351C347 163.565 346.871 163.878 346.417 164.183C345.97 164.484 345.295 164.702 344.5 164.702C343.705 164.702 343.03 164.484 342.583 164.183C342.129 163.878 342 163.565 342 163.351C342 163.137 342.129 162.823 342.583 162.519C343.03 162.218 343.705 162 344.5 162C345.295 162 345.97 162.218 346.417 162.519C346.871 162.823 347 163.137 347 163.351Z" stroke="#9E8894" stroke-width="2"/>
<ellipse id="Ellipse 11" cx="344.5" cy="179.437" rx="11.5" ry="9.87376" fill="#9E8894"/>
<path id="Ellipse 12" d="M353.5 175.814C353.5 180.263 349.618 184.128 344.5 184.128C339.382 184.128 335.5 180.263 335.5 175.814C335.5 171.365 339.382 167.5 344.5 167.5C349.618 167.5 353.5 171.365 353.5 175.814Z" fill="#DDC5D2" stroke="#C5AEBB" stroke-width="5"/>
<rect id="Rectangle 38" x="343" y="164" width="3" height="1.88072" rx="0.940358" fill="#9E8894"/>
<g id="Frame 16">
<path id="Rectangle 36" d="M341.323 179.671L343.301 174.602L346.461 177.26L341.323 179.671Z" fill="#C5AEBB"/>
<path id="Rectangle 37" d="M348.439 172.191L343.301 174.602L346.461 177.26L348.439 172.191Z" fill="#9E8894"/>
</g>
</g>
</g>
<g id="lorem ipsum">
<g id="Frame 17">
<path id="Lorem impsum" d="M66.48 120.897V123.201H60.72V114.201H63.6V120.897H66.48ZM66.9828 119.601C66.9828 118.313 67.2828 117.357 67.8828 116.733C68.4828 116.101 69.4548 115.785 70.7988 115.785C72.1428 115.785 73.1148 116.101 73.7148 116.733C74.3148 117.357 74.6148 118.313 74.6148 119.601C74.6148 120.889 74.3148 121.849 73.7148 122.481C73.1148 123.105 72.1428 123.417 70.7988 123.417C69.4868 123.417 68.5228 123.109 67.9068 122.493C67.2908 121.877 66.9828 120.913 66.9828 119.601ZM70.0788 118.497V121.317H70.5228C70.8748 121.317 71.1268 121.281 71.2788 121.209C71.4388 121.137 71.5188 120.969 71.5188 120.705V117.885H71.0748C70.7228 117.885 70.4668 117.921 70.3068 117.993C70.1548 118.065 70.0788 118.233 70.0788 118.497ZM75.7669 123.201V116.001H77.2069L77.9989 116.805C78.5749 116.277 79.2869 115.937 80.1349 115.785L80.3029 118.509C80.1909 118.509 80.0549 118.525 79.8949 118.557C79.7349 118.589 79.5709 118.629 79.4029 118.677C79.2429 118.725 79.0949 118.785 78.9589 118.857C78.8229 118.921 78.7189 118.997 78.6469 119.085V123.201H75.7669ZM83.9772 120.753V121.257C84.1212 121.273 84.2652 121.285 84.4092 121.293C84.5532 121.301 84.6972 121.305 84.8412 121.305C85.7372 121.305 86.6412 121.161 87.5532 120.873L87.8892 122.985C86.8092 123.273 85.7452 123.417 84.6972 123.417C83.3532 123.417 82.3812 123.105 81.7812 122.481C81.1812 121.849 80.8812 120.889 80.8812 119.601C80.8812 118.313 81.1812 117.357 81.7812 116.733C82.3892 116.101 83.3612 115.785 84.6972 115.785C85.3692 115.785 85.9292 115.829 86.3772 115.917C86.8252 115.997 87.1852 116.137 87.4572 116.337C87.7372 116.529 87.9332 116.793 88.0452 117.129C88.1652 117.457 88.2252 117.873 88.2252 118.377C88.2252 118.793 88.1532 119.153 88.0092 119.457C87.8732 119.753 87.6412 119.997 87.3132 120.189C86.9852 120.381 86.5492 120.525 86.0052 120.621C85.4612 120.709 84.7852 120.753 83.9772 120.753ZM83.9772 118.497V119.085H84.5652C84.9172 119.085 85.1692 119.049 85.3212 118.977C85.4812 118.905 85.5612 118.737 85.5612 118.473V117.885H84.9732C84.6212 117.885 84.3652 117.921 84.2052 117.993C84.0532 118.065 83.9772 118.233 83.9772 118.497ZM93.334 123.201V118.161H93.13C93.002 118.161 92.878 118.165 92.758 118.173C92.646 118.181 92.546 118.209 92.458 118.257C92.37 118.297 92.302 118.361 92.254 118.449C92.206 118.537 92.182 118.661 92.182 118.821V123.201H89.302V116.001H90.742L91.39 116.661C91.974 116.077 92.742 115.785 93.694 115.785C94.638 115.785 95.326 115.981 95.758 116.373C96.358 115.981 97.038 115.785 97.798 115.785C98.574 115.785 99.174 115.933 99.598 116.229C100.03 116.517 100.246 116.921 100.246 117.441V123.201H97.366V118.161H97.162C97.05 118.161 96.938 118.165 96.826 118.173C96.714 118.181 96.614 118.205 96.526 118.245C96.446 118.277 96.374 118.333 96.31 118.413C96.254 118.493 96.222 118.601 96.214 118.737V123.201H93.334ZM108.084 123.201H105.204V116.361L108.084 116.001V123.201ZM105.048 114.645C105.048 114.429 105.072 114.249 105.12 114.105C105.168 113.953 105.252 113.833 105.372 113.745C105.492 113.649 105.656 113.581 105.864 113.541C106.072 113.501 106.336 113.481 106.656 113.481C106.976 113.481 107.236 113.501 107.436 113.541C107.644 113.581 107.808 113.649 107.928 113.745C108.048 113.833 108.132 113.953 108.18 114.105C108.228 114.249 108.252 114.429 108.252 114.645C108.252 114.861 108.228 115.041 108.18 115.185C108.132 115.329 108.048 115.449 107.928 115.545C107.808 115.633 107.644 115.697 107.436 115.737C107.236 115.769 106.976 115.785 106.656 115.785C106.424 115.785 106.208 115.777 106.008 115.761C105.816 115.745 105.648 115.701 105.504 115.629C105.36 115.549 105.248 115.433 105.168 115.281C105.088 115.129 105.048 114.917 105.048 114.645ZM113.561 123.201V118.161H113.357C113.229 118.161 113.105 118.165 112.985 118.173C112.873 118.181 112.773 118.209 112.685 118.257C112.597 118.297 112.529 118.361 112.481 118.449C112.433 118.537 112.409 118.661 112.409 118.821V123.201H109.529V116.001H110.969L111.617 116.661C112.201 116.077 112.969 115.785 113.921 115.785C114.865 115.785 115.553 115.981 115.985 116.373C116.585 115.981 117.265 115.785 118.025 115.785C118.801 115.785 119.401 115.933 119.825 116.229C120.257 116.517 120.473 116.921 120.473 117.441V123.201H117.593V118.161H117.389C117.277 118.161 117.165 118.165 117.053 118.173C116.941 118.181 116.841 118.205 116.753 118.245C116.673 118.277 116.601 118.333 116.537 118.413C116.481 118.493 116.449 118.601 116.441 118.737V123.201H113.561ZM121.833 125.577V116.001H123.273L123.801 116.721C124.225 116.097 125.009 115.785 126.153 115.785C126.729 115.785 127.213 115.889 127.605 116.097C127.997 116.305 128.313 116.585 128.553 116.937C128.801 117.281 128.977 117.685 129.081 118.149C129.193 118.613 129.249 119.097 129.249 119.601C129.249 120.089 129.201 120.549 129.105 120.981C129.009 121.413 128.849 121.797 128.625 122.133C128.401 122.461 128.105 122.721 127.737 122.913C127.369 123.105 126.913 123.201 126.369 123.201H124.713V125.361L121.833 125.577ZM124.713 118.425V121.317H125.157C125.509 121.317 125.761 121.281 125.913 121.209C126.073 121.137 126.153 120.969 126.153 120.705V117.885H125.709C125.501 117.885 125.333 117.893 125.205 117.909C125.077 117.925 124.965 117.977 124.869 118.065C124.773 118.145 124.721 118.265 124.713 118.425ZM131.096 116.289C131.712 115.953 132.556 115.785 133.628 115.785C134.708 115.785 135.696 115.933 136.592 116.229L136.256 118.185C135.88 118.073 135.508 117.993 135.14 117.945C134.772 117.897 134.396 117.873 134.012 117.873C133.9 117.873 133.76 117.877 133.592 117.885C133.432 117.893 133.248 117.909 133.04 117.933V118.389C133.48 118.389 133.932 118.413 134.396 118.461C134.86 118.501 135.28 118.605 135.656 118.773C136.04 118.933 136.352 119.177 136.592 119.505C136.84 119.825 136.964 120.265 136.964 120.825C136.964 121.217 136.92 121.569 136.832 121.881C136.744 122.185 136.608 122.429 136.424 122.613C136.232 122.797 136.032 122.945 135.824 123.057C135.624 123.169 135.36 123.249 135.032 123.297C134.776 123.337 134.5 123.365 134.204 123.381C133.916 123.405 133.604 123.417 133.268 123.417C132.092 123.417 131.016 123.277 130.04 122.997L130.4 120.957C130.808 121.077 131.228 121.169 131.66 121.233C132.092 121.297 132.544 121.329 133.016 121.329C133.232 121.329 133.436 121.325 133.628 121.317C133.828 121.309 134.02 121.293 134.204 121.269V120.813C133.436 120.813 132.792 120.765 132.272 120.669C131.76 120.565 131.344 120.409 131.024 120.201C130.712 119.993 130.488 119.721 130.352 119.385C130.224 119.049 130.16 118.649 130.16 118.185C130.16 117.257 130.472 116.625 131.096 116.289ZM137.826 116.001H140.706V121.317H141.15C141.502 121.317 141.754 121.281 141.906 121.209C142.066 121.137 142.146 120.969 142.146 120.705V116.001H145.026V123.201H143.586L142.746 122.385C142.17 123.073 141.35 123.417 140.286 123.417C139.43 123.417 138.806 123.237 138.414 122.877C138.022 122.509 137.826 121.897 137.826 121.041V116.001ZM150.498 123.201V118.161H150.294C150.166 118.161 150.042 118.165 149.922 118.173C149.81 118.181 149.71 118.209 149.622 118.257C149.534 118.297 149.466 118.361 149.418 118.449C149.37 118.537 149.346 118.661 149.346 118.821V123.201H146.466V116.001H147.906L148.554 116.661C149.138 116.077 149.906 115.785 150.858 115.785C151.802 115.785 152.49 115.981 152.922 116.373C153.522 115.981 154.202 115.785 154.962 115.785C155.738 115.785 156.338 115.933 156.762 116.229C157.194 116.517 157.41 116.921 157.41 117.441V123.201H154.53V118.161H154.326C154.214 118.161 154.102 118.165 153.99 118.173C153.878 118.181 153.778 118.205 153.69 118.245C153.61 118.277 153.538 118.333 153.474 118.413C153.418 118.493 153.386 118.601 153.378 118.737V123.201H150.498Z" fill="#0D1E4C"/>
<path id="Lorem impsum_2" d="M61.908 137.609V145.409H65.856V146.201H61.044V137.609H61.908ZM66.4443 143.297C66.4443 141.521 67.6923 140.237 69.3963 140.237C71.1003 140.237 72.3483 141.521 72.3483 143.297C72.3483 145.061 71.1003 146.345 69.3963 146.345C67.6923 146.345 66.4443 145.061 66.4443 143.297ZM67.2843 143.285C67.2843 144.653 68.1483 145.601 69.3963 145.601C70.6323 145.601 71.5083 144.653 71.5083 143.285C71.5083 141.941 70.6323 140.981 69.3963 140.981C68.1483 140.981 67.2843 141.941 67.2843 143.285ZM76.7086 140.321V141.065H76.2526C75.1846 141.065 74.5006 141.785 74.5006 142.889V146.201H73.6726V140.393H74.4526L74.5126 141.293C74.7406 140.669 75.3526 140.261 76.1686 140.261C76.3486 140.261 76.5046 140.273 76.7086 140.321ZM80.0227 146.345C78.3187 146.345 77.1787 145.121 77.1787 143.297C77.1787 141.485 78.3067 140.237 79.9627 140.237C81.5347 140.237 82.6027 141.353 82.6027 142.997V143.405H77.9827C78.0427 144.821 78.7867 145.637 80.0347 145.637C80.9827 145.637 81.5947 145.229 81.8107 144.461H82.6027C82.2907 145.685 81.3907 146.345 80.0227 146.345ZM79.9627 140.945C78.8707 140.945 78.1507 141.665 78.0067 142.805H81.7747C81.7747 141.689 81.0547 140.945 79.9627 140.945ZM84.7545 146.201H83.9265V140.393H84.6465L84.7425 141.221C85.0305 140.609 85.6785 140.237 86.4945 140.237C87.4065 140.237 88.0905 140.717 88.3665 141.473C88.6305 140.717 89.3385 140.237 90.2745 140.237C91.5345 140.237 92.3625 141.053 92.3625 142.397V146.201H91.5585V142.565C91.5585 141.569 91.0065 140.981 90.1185 140.981C89.1465 140.981 88.5705 141.713 88.5705 142.613V146.201H87.7545V142.553C87.7545 141.569 87.1905 140.993 86.3145 140.993C85.3425 140.993 84.7545 141.713 84.7545 142.601V146.201ZM97.7642 138.797C97.4282 138.797 97.1522 138.521 97.1522 138.185C97.1522 137.849 97.4282 137.561 97.7642 137.561C98.1002 137.561 98.3882 137.849 98.3882 138.185C98.3882 138.521 98.1002 138.797 97.7642 138.797ZM97.3562 146.201V140.393H98.1842V146.201H97.3562ZM100.739 146.201H99.9109V140.393H100.631L100.727 141.221C101.015 140.609 101.663 140.237 102.479 140.237C103.391 140.237 104.075 140.717 104.351 141.473C104.615 140.717 105.323 140.237 106.259 140.237C107.519 140.237 108.347 141.053 108.347 142.397V146.201H107.543V142.565C107.543 141.569 106.991 140.981 106.103 140.981C105.131 140.981 104.555 141.713 104.555 142.613V146.201H103.739V142.553C103.739 141.569 103.175 140.993 102.299 140.993C101.327 140.993 100.739 141.713 100.739 142.601V146.201ZM110.012 148.733V140.393H110.732L110.816 141.569C111.224 140.669 112.04 140.237 113.012 140.237C114.692 140.237 115.7 141.521 115.7 143.273C115.7 145.025 114.728 146.345 113.012 146.345C112.028 146.345 111.248 145.925 110.84 145.085V148.733H110.012ZM110.852 143.297C110.852 144.629 111.596 145.601 112.868 145.601C114.128 145.601 114.86 144.629 114.86 143.297C114.86 141.953 114.128 140.993 112.868 140.993C111.596 140.993 110.852 141.953 110.852 143.297ZM116.528 144.569H117.32C117.32 145.241 117.824 145.661 118.64 145.661C119.54 145.661 120.068 145.277 120.068 144.653C120.068 144.173 119.828 143.897 119.144 143.729L118.148 143.477C117.14 143.225 116.648 142.697 116.648 141.905C116.648 140.885 117.5 140.237 118.748 140.237C119.972 140.237 120.764 140.909 120.8 141.989H119.996C119.972 141.317 119.504 140.921 118.724 140.921C117.908 140.921 117.452 141.269 117.452 141.893C117.452 142.337 117.764 142.649 118.4 142.805L119.396 143.057C120.404 143.309 120.86 143.777 120.86 144.617C120.86 145.661 119.972 146.345 118.652 146.345C117.344 146.345 116.528 145.649 116.528 144.569ZM126.303 140.393H127.131V146.201H126.411L126.303 145.217C125.979 145.889 125.175 146.345 124.263 146.345C122.895 146.345 122.151 145.409 122.151 143.993V140.381H122.991V143.729C122.991 145.109 123.603 145.601 124.527 145.601C125.643 145.601 126.303 144.857 126.303 143.477V140.393ZM129.684 146.201H128.856V140.393H129.576L129.672 141.221C129.96 140.609 130.608 140.237 131.424 140.237C132.336 140.237 133.02 140.717 133.296 141.473C133.56 140.717 134.268 140.237 135.204 140.237C136.464 140.237 137.292 141.053 137.292 142.397V146.201H136.488V142.565C136.488 141.569 135.936 140.981 135.048 140.981C134.076 140.981 133.5 141.713 133.5 142.613V146.201H132.684V142.553C132.684 141.569 132.12 140.993 131.244 140.993C130.272 140.993 129.684 141.713 129.684 142.601V146.201Z" fill="#0D1E4C"/>
</g>
</g>
</g>
<g id="active tab">
<g id="tab 2" filter="url(#filter4_d_646_185)">
<rect x="325" y="210.938" width="39" height="62.0636" rx="5" fill="#F8D5E7"/>
</g>
<path id="text box" d="M28 74.8847C28 72.1233 30.2386 69.8848 33 69.8848H325C327.761 69.8848 330 72.1233 330 74.8848V449.193C330 454.716 325.523 459.193 320 459.193H33C30.2386 459.193 28 456.954 28 454.193V74.8847Z" fill="#F8D5E7"/>
<g id="moderation icon">
<g id="Group 6">
<g id="Rectangle 23">
<path d="M341.829 228.236C340.536 227.888 339.234 228.874 339.234 230.2C339.234 230.383 339.182 230.565 339.083 230.724L337.841 232.725C337.095 233.928 336.767 235.328 336.908 236.709C337.023 237.833 336.769 238.973 336.183 239.965L335.863 240.508C335.121 241.763 334.799 243.207 334.943 244.631L335.118 246.36C335.163 246.807 335.021 247.258 334.724 247.61C333.465 249.099 334.139 251.327 336 251.829L347.615 254.961C349.454 255.457 351.439 254.684 352.477 253.068C352.921 252.375 353.158 251.576 353.158 250.767L353.158 249.146C353.158 247.977 353.525 246.825 354.209 245.85C355.012 244.704 355.443 243.352 355.443 241.978L355.443 241.602C355.443 240.451 355.757 239.312 356.352 238.305L357.349 236.618C357.649 236.11 357.807 235.536 357.807 234.956C357.807 233.524 356.853 232.287 355.458 231.911L341.829 228.236Z" fill="#F8D5E7"/>
<path d="M341.829 228.236C340.536 227.888 339.234 228.874 339.234 230.2C339.234 230.383 339.182 230.565 339.083 230.724L337.841 232.725C337.095 233.928 336.767 235.328 336.908 236.709C337.023 237.833 336.769 238.973 336.183 239.965L335.863 240.508C335.121 241.763 334.799 243.207 334.943 244.631L335.118 246.36C335.163 246.807 335.021 247.258 334.724 247.61C333.465 249.099 334.139 251.327 336 251.829L347.615 254.961C349.454 255.457 351.439 254.684 352.477 253.068C352.921 252.375 353.158 251.576 353.158 250.767L353.158 249.146C353.158 247.977 353.525 246.825 354.209 245.85C355.012 244.704 355.443 243.352 355.443 241.978L355.443 241.602C355.443 240.451 355.757 239.312 356.352 238.305L357.349 236.618C357.649 236.11 357.807 235.536 357.807 234.956C357.807 233.524 356.853 232.287 355.458 231.911L341.829 228.236Z" fill="#FEA3E2"/>
<path d="M341.829 228.236C340.536 227.888 339.234 228.874 339.234 230.2C339.234 230.383 339.182 230.565 339.083 230.724L337.841 232.725C337.095 233.928 336.767 235.328 336.908 236.709C337.023 237.833 336.769 238.973 336.183 239.965L335.863 240.508C335.121 241.763 334.799 243.207 334.943 244.631L335.118 246.36C335.163 246.807 335.021 247.258 334.724 247.61C333.465 249.099 334.139 251.327 336 251.829L347.615 254.961C349.454 255.457 351.439 254.684 352.477 253.068C352.921 252.375 353.158 251.576 353.158 250.767L353.158 249.146C353.158 247.977 353.525 246.825 354.209 245.85C355.012 244.704 355.443 243.352 355.443 241.978L355.443 241.602C355.443 240.451 355.757 239.312 356.352 238.305L357.349 236.618C357.649 236.11 357.807 235.536 357.807 234.956C357.807 233.524 356.853 232.287 355.458 231.911L341.829 228.236Z" stroke="#F8D5E7"/>
</g>
<path id="Vector 2" d="M341.677 236.125L352.518 239.048" stroke="#F8D5E7" stroke-width="1.5" stroke-linecap="round"/>
<path id="Vector 3" d="M341.198 238.337L351.678 241.163" stroke="#F8D5E7" stroke-width="1.5" stroke-linecap="round"/>
<path id="Vector 4" d="M340.091 240.416L351.113 243.388" stroke="#F8D5E7" stroke-width="1.5" stroke-linecap="round"/>
<path id="Vector 5" d="M339.46 242.49L350.543 245.479" stroke="#F8D5E7" stroke-width="1.5" stroke-linecap="round"/>
<path id="Vector 6" d="M339.145 244.713L349.987 247.637" stroke="#F8D5E7" stroke-width="1.5" stroke-linecap="round"/>
</g>
<g id="Vector">
<path d="M338.884 250.885L338.884 250.886C338.97 251.171 339.181 251.388 339.456 251.486C339.714 251.579 339.982 251.55 340.2 251.46C340.669 251.265 340.935 250.799 340.927 250.295L340.927 250.278C340.904 249.665 340.731 248.584 340.404 247.572C340.864 246.819 341.125 246.117 341.225 245.434C341.339 244.656 341.236 243.954 341.047 243.296C340.958 242.986 340.673 242.775 340.343 242.774C340.139 242.774 339.948 242.854 339.806 242.987C339.815 242.714 339.816 242.437 339.805 242.167C339.779 241.594 339.692 240.981 339.449 240.476L338.884 250.885ZM338.884 250.885C338.819 250.67 338.732 250.391 338.628 250.059C338.496 249.636 338.338 249.128 338.164 248.559M338.884 250.885L338.164 248.559M338.164 248.559C337.989 248.544 337.822 248.535 337.655 248.527C337.619 248.525 337.582 248.523 337.545 248.521C337.219 248.503 336.852 248.48 336.495 248.381C335.691 248.158 335.109 247.61 334.522 246.551C334.376 246.288 334.41 245.96 334.608 245.721C334.655 245.664 334.709 245.615 334.769 245.575C333.97 245.299 333.097 244.779 332.387 243.771C332.212 243.522 332.214 243.189 332.391 242.932C332.438 242.864 332.495 242.804 332.558 242.755C332.205 242.617 331.858 242.422 331.562 242.137L338.164 248.559ZM330.928 239.244C331.073 238.954 331.333 238.722 331.546 238.56C331.782 238.382 332.062 238.215 332.351 238.073C332.895 237.807 333.624 237.555 334.239 237.599C334.554 237.622 334.801 237.773 334.962 237.898C335.134 238.031 335.289 238.197 335.423 238.361C335.507 238.463 335.59 238.573 335.672 238.688C335.696 238.54 335.764 238.398 335.874 238.282C336.098 238.047 336.445 237.973 336.738 238.097C337.167 238.28 337.715 238.629 338.201 239.028C338.677 239.418 339.187 239.932 339.449 240.476L330.928 239.244ZM330.928 239.244C330.802 239.498 330.772 239.78 330.769 240C330.767 240.238 330.797 240.491 330.851 240.735C330.954 241.197 331.172 241.762 331.561 242.136L330.928 239.244ZM333.788 244.178C334.712 244.938 335.742 245.083 336.413 245.146L333.788 244.178ZM333.788 244.178C333.496 244.169 333.179 244.133 332.838 244.063L333.013 243.335L333.788 244.178ZM336.579 245.161C336.53 245.157 336.479 245.152 336.425 245.147C336.408 245.183 336.366 245.29 336.39 245.44L337.137 245.305C337.122 245.209 336.911 245.19 336.579 245.161Z" fill="#F8D5E7"/>
<path d="M338.884 250.885L338.884 250.886C338.97 251.171 339.181 251.388 339.456 251.486C339.714 251.579 339.982 251.55 340.2 251.46C340.669 251.265 340.935 250.799 340.927 250.295L340.927 250.278C340.904 249.665 340.731 248.584 340.404 247.572C340.864 246.819 341.125 246.117 341.225 245.434C341.339 244.656 341.236 243.954 341.047 243.296C340.958 242.986 340.673 242.775 340.343 242.774C340.139 242.774 339.948 242.854 339.806 242.987C339.815 242.714 339.816 242.437 339.805 242.167C339.779 241.594 339.692 240.981 339.449 240.476L338.884 250.885ZM338.884 250.885C338.819 250.67 338.732 250.391 338.628 250.059C338.496 249.636 338.338 249.128 338.164 248.559M338.884 250.885L338.164 248.559M338.164 248.559C337.989 248.544 337.822 248.535 337.655 248.527C337.619 248.525 337.582 248.523 337.545 248.521C337.219 248.503 336.852 248.48 336.495 248.381C335.691 248.158 335.109 247.61 334.522 246.551C334.376 246.288 334.41 245.96 334.608 245.721C334.655 245.664 334.709 245.615 334.769 245.575C333.97 245.299 333.097 244.779 332.387 243.771C332.212 243.522 332.214 243.189 332.391 242.932C332.438 242.864 332.495 242.804 332.558 242.755C332.205 242.617 331.858 242.422 331.562 242.137L338.164 248.559ZM330.928 239.244C331.073 238.954 331.333 238.722 331.546 238.56C331.782 238.382 332.062 238.215 332.351 238.073C332.895 237.807 333.624 237.555 334.239 237.599C334.554 237.622 334.801 237.773 334.962 237.898C335.134 238.031 335.289 238.197 335.423 238.361C335.507 238.463 335.59 238.573 335.672 238.688C335.696 238.54 335.764 238.398 335.874 238.282C336.098 238.047 336.445 237.973 336.738 238.097C337.167 238.28 337.715 238.629 338.201 239.028C338.677 239.418 339.187 239.932 339.449 240.476L330.928 239.244ZM330.928 239.244C330.802 239.498 330.772 239.78 330.769 240C330.767 240.238 330.797 240.491 330.851 240.735C330.954 241.197 331.172 241.762 331.561 242.136L330.928 239.244ZM333.788 244.178C334.712 244.938 335.742 245.083 336.413 245.146L333.788 244.178ZM333.788 244.178C333.496 244.169 333.179 244.133 332.838 244.063L333.013 243.335L333.788 244.178ZM336.579 245.161C336.53 245.157 336.479 245.152 336.425 245.147C336.408 245.183 336.366 245.29 336.39 245.44L337.137 245.305C337.122 245.209 336.911 245.19 336.579 245.161Z" fill="#FEA3E2"/>
<path d="M338.884 250.885L338.884 250.886C338.97 251.171 339.181 251.388 339.456 251.486C339.714 251.579 339.982 251.55 340.2 251.46C340.669 251.265 340.935 250.799 340.927 250.295L340.927 250.278C340.904 249.665 340.731 248.584 340.404 247.572C340.864 246.819 341.125 246.117 341.225 245.434C341.339 244.656 341.236 243.954 341.047 243.296C340.958 242.986 340.673 242.775 340.343 242.774C340.139 242.774 339.948 242.854 339.806 242.987C339.815 242.714 339.816 242.437 339.805 242.167C339.779 241.594 339.692 240.981 339.449 240.476L338.884 250.885ZM338.884 250.885C338.819 250.67 338.732 250.391 338.628 250.059C338.496 249.636 338.338 249.128 338.164 248.559M338.884 250.885L338.164 248.559M338.164 248.559C337.989 248.544 337.822 248.535 337.655 248.527C337.619 248.525 337.582 248.523 337.545 248.521C337.219 248.503 336.852 248.48 336.495 248.381C335.691 248.158 335.109 247.61 334.522 246.551C334.376 246.288 334.41 245.96 334.608 245.721C334.655 245.664 334.709 245.615 334.769 245.575C333.97 245.299 333.097 244.779 332.387 243.771C332.212 243.522 332.214 243.189 332.391 242.932C332.438 242.864 332.495 242.804 332.558 242.755C332.205 242.617 331.858 242.422 331.562 242.137L338.164 248.559ZM330.928 239.244C331.073 238.954 331.333 238.722 331.546 238.56C331.782 238.382 332.062 238.215 332.351 238.073C332.895 237.807 333.624 237.555 334.239 237.599C334.554 237.622 334.801 237.773 334.962 237.898C335.134 238.031 335.289 238.197 335.423 238.361C335.507 238.463 335.59 238.573 335.672 238.688C335.696 238.54 335.764 238.398 335.874 238.282C336.098 238.047 336.445 237.973 336.738 238.097C337.167 238.28 337.715 238.629 338.201 239.028C338.677 239.418 339.187 239.932 339.449 240.476L330.928 239.244ZM330.928 239.244C330.802 239.498 330.772 239.78 330.769 240C330.767 240.238 330.797 240.491 330.851 240.735C330.954 241.197 331.172 241.762 331.561 242.136L330.928 239.244ZM333.788 244.178C334.712 244.938 335.742 245.083 336.413 245.146L333.788 244.178ZM333.788 244.178C333.496 244.169 333.179 244.133 332.838 244.063L333.013 243.335L333.788 244.178ZM336.579 245.161C336.53 245.157 336.479 245.152 336.425 245.147C336.408 245.183 336.366 245.29 336.39 245.44L337.137 245.305C337.122 245.209 336.911 245.19 336.579 245.161Z" stroke="#F8D5E7" stroke-width="1.5" stroke-linejoin="round"/>
</g>
</g>
</g>
</g>
<g id="back-button">
<g id="Rectangle 19" filter="url(#filter5_d_646_185)">
<rect x="315" y="32" width="48" height="48" rx="24" fill="#F4A9C6"/>
<rect x="317" y="34" width="44" height="44" rx="22" stroke="#F37074" stroke-width="4"/>
</g>
<path id="Vector_2" d="M349.785 47.5797C349.79 47.8754 349.735 48.1691 349.623 48.4429C349.511 48.718 349.343 48.9671 349.131 49.1752C349.131 49.1754 349.131 49.1755 349.13 49.1757L342.215 56.0016L349.132 62.9183C349.531 63.3092 349.764 63.8379 349.785 64.3958L349.785 64.405V64.4143C349.785 65.0429 349.536 65.6457 349.091 66.0902C348.649 66.5322 348.051 66.7816 347.426 66.7843C347.122 66.7955 346.818 66.744 346.535 66.6331C346.248 66.5209 345.988 66.3504 345.771 66.1322L345.769 66.1307L338.998 59.2706L332.157 66.1116C331.953 66.3208 331.711 66.4879 331.443 66.6033C331.173 66.7193 330.884 66.7808 330.591 66.7843L330.585 66.7843V66.7843C329.956 66.7843 329.353 66.5346 328.909 66.0902C328.465 65.6468 328.216 65.0459 328.215 64.419C328.21 64.1233 328.265 63.8296 328.377 63.5557C328.489 63.2807 328.657 63.0316 328.869 62.8236C328.869 62.8234 328.869 62.8232 328.87 62.8229L335.785 55.997L328.868 49.0804C328.469 48.6895 328.236 48.1608 328.215 47.6029L328.215 47.5936V47.5844C328.215 46.9558 328.464 46.353 328.909 45.9085C329.353 45.464 329.956 45.2144 330.585 45.2144H330.591L330.591 45.2144C331.17 45.2216 331.725 45.4557 332.135 45.8657L339 52.7303L345.822 45.9082C346.026 45.6932 346.271 45.521 346.542 45.4018C346.816 45.2816 347.111 45.2178 347.41 45.2144L347.415 45.2143V45.2144C348.044 45.2144 348.647 45.464 349.091 45.9085C349.535 46.3519 349.784 46.9528 349.785 47.5797ZM349.785 47.5797C349.785 47.5813 349.785 47.5828 349.785 47.5844H349.285L349.785 47.5748C349.785 47.5765 349.785 47.5781 349.785 47.5797Z" fill="white" stroke="white"/>
</g>
</g>
<defs>
<filter id="filter0_d_646_185" x="0" y="46.0776" width="356.565" height="444.922" filterUnits="userSpaceOnUse" color-interpolation-filters="sRGB">
<feFlood flood-opacity="0" result="BackgroundImageFix"/>
<feColorMatrix in="SourceAlpha" type="matrix" values="0 0 0 0 0 0 0 0 0 0 0 0 0 0 0 0 0 0 127 0" result="hardAlpha"/>
<feOffset dy="4"/>
<feGaussianBlur stdDeviation="2"/>
<feComposite in2="hardAlpha" operator="out"/>
<feColorMatrix type="matrix" values="0 0 0 0 0 0 0 0 0 0 0 0 0 0 0 0 0 0 0.25 0"/>
<feBlend mode="normal" in2="BackgroundImageFix" result="effect1_dropShadow_646_185"/>
<feBlend mode="normal" in="SourceGraphic" in2="effect1_dropShadow_646_185" result="shape"/>
</filter>
<filter id="filter1_d_646_185" x="60.1777" y="0" width="236.733" height="108.199" filterUnits="userSpaceOnUse" color-interpolation-filters="sRGB">
<feFlood flood-opacity="0" result="BackgroundImageFix"/>
<feColorMatrix in="SourceAlpha" type="matrix" values="0 0 0 0 0 0 0 0 0 0 0 0 0 0 0 0 0 0 127 0" result="hardAlpha"/>
<feOffset dy="4"/>
<feGaussianBlur stdDeviation="2"/>
<feComposite in2="hardAlpha" operator="out"/>
<feColorMatrix type="matrix" values="0 0 0 0 0 0 0 0 0 0 0 0 0 0 0 0 0 0 0.25 0"/>
<feBlend mode="normal" in2="BackgroundImageFix" result="effect1_dropShadow_646_185"/>
<feBlend mode="normal" in="SourceGraphic" in2="effect1_dropShadow_646_185" result="shape"/>
</filter>
<filter id="filter2_d_646_185" x="321" y="278.644" width="47" height="69.1233" filterUnits="userSpaceOnUse" color-interpolation-filters="sRGB">
<feFlood flood-opacity="0" result="BackgroundImageFix"/>
<feColorMatrix in="SourceAlpha" type="matrix" values="0 0 0 0 0 0 0 0 0 0 0 0 0 0 0 0 0 0 127 0" result="hardAlpha"/>
<feOffset dy="4"/>
<feGaussianBlur stdDeviation="2"/>
<feComposite in2="hardAlpha" operator="out"/>
<feColorMatrix type="matrix" values="0 0 0 0 0 0 0 0 0 0 0 0 0 0 0 0 0 0 0.25 0"/>
<feBlend mode="normal" in2="BackgroundImageFix" result="effect1_dropShadow_646_185"/>
<feBlend mode="normal" in="SourceGraphic" in2="effect1_dropShadow_646_185" result="shape"/>
</filter>
<filter id="filter3_d_646_185" x="321" y="144.173" width="47" height="69.1233" filterUnits="userSpaceOnUse" color-interpolation-filters="sRGB">
<feFlood flood-opacity="0" result="BackgroundImageFix"/>
<feColorMatrix in="SourceAlpha" type="matrix" values="0 0 0 0 0 0 0 0 0 0 0 0 0 0 0 0 0 0 127 0" result="hardAlpha"/>
<feOffset dy="4"/>
<feGaussianBlur stdDeviation="2"/>
<feComposite in2="hardAlpha" operator="out"/>
<feColorMatrix type="matrix" values="0 0 0 0 0 0 0 0 0 0 0 0 0 0 0 0 0 0 0.25 0"/>
<feBlend mode="normal" in2="BackgroundImageFix" result="effect1_dropShadow_646_185"/>
<feBlend mode="normal" in="SourceGraphic" in2="effect1_dropShadow_646_185" result="shape"/>
</filter>
<filter id="filter4_d_646_185" x="321" y="210.938" width="47" height="70.0637" filterUnits="userSpaceOnUse" color-interpolation-filters="sRGB">
<feFlood flood-opacity="0" result="BackgroundImageFix"/>
<feColorMatrix in="SourceAlpha" type="matrix" values="0 0 0 0 0 0 0 0 0 0 0 0 0 0 0 0 0 0 127 0" result="hardAlpha"/>
<feOffset dy="4"/>
<feGaussianBlur stdDeviation="2"/>
<feComposite in2="hardAlpha" operator="out"/>
<feColorMatrix type="matrix" values="0 0 0 0 0 0 0 0 0 0 0 0 0 0 0 0 0 0 0.25 0"/>
<feBlend mode="normal" in2="BackgroundImageFix" result="effect1_dropShadow_646_185"/>
<feBlend mode="normal" in="SourceGraphic" in2="effect1_dropShadow_646_185" result="shape"/>
</filter>
<filter id="filter5_d_646_185" x="312" y="30" width="56" height="56" filterUnits="userSpaceOnUse" color-interpolation-filters="sRGB">
<feFlood flood-opacity="0" result="BackgroundImageFix"/>
<feColorMatrix in="SourceAlpha" type="matrix" values="0 0 0 0 0 0 0 0 0 0 0 0 0 0 0 0 0 0 127 0" result="hardAlpha"/>
<feOffset dx="1" dy="2"/>
<feGaussianBlur stdDeviation="2"/>
<feComposite in2="hardAlpha" operator="out"/>
<feColorMatrix type="matrix" values="0 0 0 0 0 0 0 0 0 0 0 0 0 0 0 0 0 0 0.25 0"/>
<feBlend mode="normal" in2="BackgroundImageFix" result="effect1_dropShadow_646_185"/>
<feBlend mode="normal" in="SourceGraphic" in2="effect1_dropShadow_646_185" result="shape"/>
</filter>
<linearGradient id="paint0_linear_646_185" x1="178.544" y1="5" x2="178.544" y2="86.8111" gradientUnits="userSpaceOnUse">
<stop stop-color="#0E959B"/>
<stop offset="1" stop-color="#1A6A6D"/>
</linearGradient>
</defs>
</svg>
